<?xml version="1.0" encoding="UTF-8"?>
<svg width="250px" height="250px" viewBox="0 0 250 250" version="1.1" xmlns="http://www.w3.org/2000/svg" xmlns:xlink="http://www.w3.org/1999/xlink">
    <title>编组</title>
    <g id="第六版" stroke="none" stroke-width="1" fill="none" fill-rule="evenodd">
        <g id="编组">
            <circle id="椭圆形" fill="#FFFFFF" cx="125" cy="125" r="125"></circle>
            <path d="M239.934455,159.505417 C224.745348,159.505417 209.789179,159.502217 194.834563,159.518213 C194.328311,159.518213 193.595333,159.505417 193.35463,159.815735 C192.177517,161.340134 190.314013,162.960507 190.293723,164.569684 C190.276743,165.862144 192.396479,167.424932 193.862435,168.402275 C194.699459,168.958929 196.123486,168.624617 197.283517,168.624617 C208.643124,168.635814 220.004284,168.631015 231.363891,168.631015 C238.560121,168.631015 238.563227,168.631015 239.925137,161.274551 C239.996572,160.89705 239.934455,160.492357 239.934455,159.505417 L239.934455,159.505417 Z M9.54329676,159.487821 C9.96879674,161.35613 10.3104391,162.49343 10.4766015,163.659523 C11.0403113,167.58489 12.9845667,168.854956 16.9926523,168.750983 C29.4734674,168.429468 41.9682589,168.615019 54.4568386,168.666206 C57.599948,168.677403 60.2041942,167.951194 60.6421176,164.24177 C60.9884186,161.330536 58.5208293,159.516614 54.4024864,159.497419 C47.5774046,159.467027 40.7523228,159.487821 33.9287939,159.487821 L9.54329676,159.487821 Z M63.5383127,24.6129181 C64.6548619,24.6673037 65.7729641,24.7680772 66.8895133,24.7680772 C95.4352821,24.7760751 123.982604,24.7680772 152.528373,24.7792743 C158.653088,24.7824734 162.100569,27.9672353 162.156475,33.5817576 C162.215485,39.4650092 158.747816,42.8897079 152.539243,42.9232991 C143.75593,42.9712864 134.972616,42.9360957 126.189303,42.9360957 C113.143225,42.9376953 100.095594,42.8609155 87.0526219,43.052865 C85.6938172,43.0720599 83.3970491,44.5020836 83.2029341,45.5929965 C82.7386111,48.1795157 84.9406512,48.6961797 87.051069,48.7089764 C87.6970836,48.7138751 88.3430981,48.7138751 88.9891127,48.7138751 C129.417823,48.7138751 169.849638,48.7153747 210.278348,48.7057772 C211.62473,48.7057772 212.971111,48.589008 215.295832,48.4802366 C195.536482,25.8781851 172.093607,12.0194324 143.818046,7.49582298 C115.171338,2.91142952 88.2406054,8.2796167 63.5383127,24.6129181 L63.5383127,24.6129181 Z M77.2599106,241.379869 L77.2599106,235.818132 C77.2614636,208.16621 77.2630165,180.515887 77.2630165,152.863965 C77.2630165,131.458398 77.2816515,110.054431 77.2412756,88.6504645 C77.2304052,83.1095227 75.1184345,80.5517959 70.4301701,80.5198043 C58.4214425,80.4382258 46.4096091,80.3662447 34.4070931,80.6237769 C32.515637,80.6637664 29.3554455,82.1193833 29.037097,83.4774259 C28.1767795,87.1612564 27.8040788,91.3153631 28.6038324,94.9640028 C29.3833981,98.5166678 33.2082392,98.7534055 36.3699836,98.7917954 C42.3083483,98.8637765 48.2513717,98.702219 54.1881835,98.8669756 C60.2818402,99.036531 64.9390462,103.63852 65.2853473,109.90567 C65.5276028,114.27572 65.5012031,118.682561 65.2698181,123.05261 C64.9949513,128.280035 61.2089332,132.755657 56.3793531,133.774589 C54.6292127,134.145691 52.7812383,134.1105 50.9782986,134.113699 C37.5502025,134.139293 24.1205534,134.124896 10.6924573,134.129695 C5.72932612,134.132894 5.69671481,134.145691 6.19054326,139.072394 C6.56013813,142.764223 7.1347184,146.436856 7.41424393,150.135083 C7.64562896,153.188679 9.09295007,153.962875 11.9394518,153.937282 C26.2697942,153.799718 40.6047954,153.812515 54.9366908,153.940481 C57.1728951,153.958077 59.6327198,154.375567 61.5878456,155.408895 C65.5120736,157.481949 67.2094147,162.336671 66.0944184,166.687526 C64.9002232,171.3487 60.7601395,174.584648 55.7022802,174.602243 C44.0833354,174.647032 32.4643907,174.607042 20.8454459,174.602243 C18.8406267,174.600644 16.8342545,174.602243 14.1616798,174.602243 C26.8707741,205.510909 47.5339229,227.274781 77.2599106,241.379869 L77.2599106,241.379869 Z M235.04897,174.602243 L230.474068,174.602243 C218.982463,174.602243 207.490858,174.666227 196.002358,174.543059 C193.873305,174.520665 191.585855,174.131967 189.66334,173.241002 C185.676995,171.393488 183.529308,166.497177 184.409813,162.282286 C185.481328,157.154035 189.043725,153.951678 194.253771,153.919687 C208.843451,153.825312 223.433131,153.807716 238.021258,153.934083 C240.853783,153.956477 242.30421,153.206274 242.530936,150.125485 C242.794933,146.561623 243.464241,143.032952 243.795013,139.473889 C244.290394,134.140892 244.229831,134.129695 238.973198,134.129695 C224.899087,134.124896 210.826529,134.18728 196.753971,134.100903 C188.324723,134.049716 183.894244,129.369348 183.830574,120.779609 C183.825915,120.248548 183.856974,119.714289 183.824362,119.184828 C182.783906,101.917373 187.175563,97.8608404 203.431526,98.7789988 C207.161639,98.9885437 210.936786,99.0045394 214.652923,98.6670283 C220.282257,98.155163 221.886423,95.2263338 221.398806,87.2156421 C221.11928,82.6232507 218.633056,80.4574198 213.604702,80.4574198 C202.504433,80.4622195 191.405716,80.4734165 180.306999,80.4926115 C174.000593,80.5006094 172.023726,82.5320747 172.022173,89.0695542 C172.015961,138.384575 172.019067,187.701196 172.019067,237.016217 L172.019067,240.941584 C193.374818,236.331597 229.233286,198.557539 235.04897,174.602243 L235.04897,174.602243 Z M82.9032206,249.595307 C37.9694908,234.424899 -5.79799638,185.058691 0.63109094,116.027259 C6.82879323,49.4943697 60.2492289,2.37717012 120.00713,0.0929712856 C187.000083,-2.46635514 240.690727,48.1491237 248.793861,110.545502 C258.195237,182.934451 210.936786,235.416638 166.172325,250 L166.172325,246.026646 C166.172325,193.896366 166.167666,141.767685 166.175431,89.6374047 C166.176983,79.2657344 170.714615,74.5389784 180.775981,74.4829931 C191.234895,74.4254083 201.693809,74.3886179 212.151169,74.4621986 C224.709631,74.5533746 231.298669,85.0130218 226.248574,96.9858707 C224.31053,101.578262 220.717074,104.311943 215.684062,104.39832 C209.615252,104.502293 203.541783,104.383924 197.47142,104.443108 C191.682136,104.497494 189.337227,106.996036 189.289087,113.032847 C189.267346,115.824113 189.188147,118.623376 189.326357,121.409843 C189.523577,125.3704 191.725617,128.267238 195.494553,128.313626 C211.609201,128.515173 227.726953,128.400003 244.691048,128.400003 C244.037268,121.526612 243.784143,114.934747 242.720393,108.485244 C239.723258,90.3060287 233.082973,73.609623 222.843021,58.4152219 C221.027658,55.7215308 219.147072,54.6482133 215.920105,54.6562112 C173.811136,54.7713809 131.702167,54.7409889 89.5931984,54.7105969 C87.5433445,54.7089973 85.446903,54.5890288 83.4514013,54.1395471 C79.7026532,53.2981686 77.2040055,49.9950379 77.0735603,46.1448512 C76.9369034,42.091518 79.3035529,38.6060353 83.1765345,37.5391161 C84.7667242,37.1008314 86.4811475,36.9920601 88.1396657,36.9904605 C108.807473,36.9552698 129.473728,36.969666 150.139982,36.9616681 C151.430459,36.9616681 152.897968,37.2639885 153.960165,36.737727 C155.031679,36.2066668 156.357873,34.8198318 156.360978,33.8040991 C156.365637,32.8235572 154.954033,31.6302712 153.910471,30.928056 C153.269115,30.4977693 152.152566,30.7968905 151.248767,30.7968905 C119.732263,30.7936914 88.2142058,30.7441044 56.6992546,30.9008632 C54.4972145,30.9120602 51.8852037,31.9165958 50.1692275,33.3514182 C25.1998326,54.2547168 10.833773,81.3259921 6.45764543,114.072574 C5.98400494,117.617241 5.97158159,121.224292 5.61751591,124.791353 C5.36904877,127.301092 6.11445019,128.395204 8.7637311,128.377609 C23.3596228,128.286433 37.9555145,128.380808 52.5514062,128.307227 C57.2831524,128.283234 59.6762015,125.858272 59.9401979,120.976357 C60.1063603,117.927559 60.1048074,114.853168 59.9355391,111.804371 C59.6715428,107.036026 57.1589188,104.545481 52.4846307,104.460703 C46.4142678,104.350333 40.342352,104.471901 34.2719891,104.417515 C27.1254529,104.351932 22.1467926,99.2524742 22.0380882,91.889612 C22.0008181,89.370275 21.8206794,86.7773574 22.292767,84.3379994 C23.4279513,78.4595465 28.0370168,74.6861396 34.7797939,74.5549742 C46.6596291,74.3230352 58.5503348,74.2638508 70.4270642,74.5725695 C78.295708,74.7773156 83.032113,79.9695491 83.0383246,87.7355053 C83.0740418,141.06387 83.0554068,194.392235 83.0476422,247.719 C83.0476422,248.248461 82.9684433,248.774722 82.9032206,249.595307 L82.9032206,249.595307 Z" id="Fill-1" fill="#87B940"></path>
            <path d="M141.686509,134.888535 L126.256699,134.888535 L125.399488,134.005568 L125.399488,110.606926 L126.685305,109.725558 L140.400692,109.725558 C140.781157,109.87112 141.066894,109.994287 141.257903,110.091861 C141.924106,110.485358 142.352712,110.950835 142.543721,111.489894 L142.543721,133.1226 L141.686509,134.888535 Z M144.68675,135.771503 L144.68675,109.282474 C144.68675,108.546668 144.281438,108.00761 143.472367,107.6637 C142.424146,107.418965 141.686509,107.222217 141.257903,107.075055 L126.256699,107.075055 C125.874681,107.126242 125.56565,107.198223 125.328053,107.295797 C123.899367,107.884442 123.06545,108.989752 122.827853,110.606926 L122.827853,134.005568 C122.87444,134.29989 122.899287,134.546225 122.899287,134.741374 C123.136884,135.920264 123.685064,136.852818 124.542276,137.537438 L142.972326,137.537438 C143.258064,137.390277 143.472367,137.268709 143.615235,137.169535 C144.138569,136.777638 144.495741,136.312161 144.68675,135.771503 L144.68675,135.771503 Z M148.115596,96.9225274 C148.496062,97.3144243 148.687071,97.7063211 148.687071,98.098218 C148.687071,98.5908883 148.376487,99.0067789 147.758425,99.3490888 C147.662144,99.3986757 147.495981,99.4722563 147.258385,99.5698307 L122.827853,99.5698307 L121.970641,99.1299464 C121.445754,98.8340243 121.184864,98.5157081 121.184864,98.1717986 C121.184864,97.8774761 121.302886,97.5847531 121.542035,97.288831 C121.588623,97.1928562 121.731492,97.0680891 121.970641,96.9225274 L148.115596,96.9225274 Z M154.116078,142.835244 C154.116078,145.189824 153.7822,147.102921 153.115998,148.576133 C152.162505,150.634791 150.639091,151.66492 148.544202,151.66492 L142.972326,151.66492 C140.638288,151.418585 138.30425,150.90512 135.971765,150.119727 C135.543159,149.974165 134.994978,149.751824 134.328776,149.457501 C133.66102,149.163179 133.328695,148.745688 133.328695,148.20663 C133.328695,147.862721 133.423424,147.544405 133.614433,147.251682 C133.66102,147.150908 133.780595,147.003747 133.971604,146.808598 L145.543961,149.016017 L148.115596,149.016017 C149.210405,148.576133 150.187191,147.913907 151.044403,147.02934 C151.187271,146.882179 151.353434,146.661437 151.544443,146.367114 L151.544443,89.4157031 L149.83002,88.534335 L121.542035,88.534335 C121.256298,88.0912516 121.11343,87.724948 121.11343,87.4290259 C121.11343,86.9891417 121.327732,86.5972448 121.756338,86.2517358 C121.899207,86.1541614 122.11351,86.0309939 122.399247,85.8838326 L150.258625,85.8838326 C151.401574,85.8838326 152.33022,86.1909518 153.044563,86.8035905 C153.758906,87.4178289 154.116078,88.2879999 154.116078,89.4157031 L154.116078,142.835244 Z M121.11343,138.420406 C121.11343,139.549709 120.756258,140.11436 120.041915,140.11436 C119.802765,140.11436 119.565169,140.064773 119.327572,139.965599 C119.231291,139.965599 119.113269,139.892019 118.9704,139.744857 C117.541714,131.897323 116.373919,125.642969 115.47012,120.983395 C115.041514,118.774376 114.493333,116.053492 113.827131,112.814345 C113.636121,112.275287 113.541393,111.859396 113.541393,111.563474 C113.541393,111.024416 113.827131,110.754087 114.398605,110.754087 C114.636202,110.754087 114.898645,110.803674 115.184382,110.901248 C115.27911,110.901248 115.398685,110.950835 115.541554,111.050009 L121.11343,138.420406 Z M119.399006,103.543185 L110.398284,103.543185 L110.398284,151.66492 C110.016266,152.203978 109.635801,152.474307 109.255335,152.474307 C108.969598,152.474307 108.683861,152.303152 108.398124,151.959243 C108.349983,151.911255 108.301843,151.812081 108.255255,151.66492 L108.255255,103.543185 L97.9687152,103.543185 C97.7295656,103.151288 97.6115437,102.759391 97.6115437,102.365895 C97.6115437,102.023585 97.682978,101.730862 97.8258466,101.482927 C97.8258466,101.43494 97.8724342,101.385353 97.9687152,101.335766 L119.399006,101.335766 C119.92234,101.630088 120.184784,101.950004 120.184784,102.292314 C120.184784,102.588236 120.065209,102.880959 119.827612,103.175282 C119.779472,103.274456 119.636603,103.397623 119.399006,103.543185 L119.399006,103.543185 Z M118.113189,88.9742193 L99.2545327,88.9742193 L97.5401094,88.0912516 C97.5401094,87.5521935 97.8258466,87.086716 98.3973211,86.6932196 C98.5867773,86.5972448 98.8725145,86.4724777 99.2545327,86.326916 L118.113189,86.326916 C118.874119,86.7188128 119.256138,87.1602966 119.256138,87.6497678 C119.256138,87.9440904 119.065129,88.2640062 118.684663,88.6063161 C118.588382,88.70549 118.398926,88.827058 118.113189,88.9742193 L118.113189,88.9742193 Z M103.969197,113.697313 C103.969197,117.622679 103.635319,121.840769 102.969116,126.353182 C102.49237,129.493155 101.908472,132.509961 101.218976,135.4036 C100.527927,138.298838 100.158332,139.744857 100.111744,139.744857 C100.063604,139.844031 99.8725947,140.811776 99.5402699,142.652892 C99.2063922,144.490808 98.6582116,145.410566 97.8972809,145.410566 C97.6581313,145.410566 97.2543722,145.288998 96.6828978,145.044263 C97.2543722,142.05305 98.1581714,137.219122 99.3974013,130.547278 C99.6831385,128.880517 100.063604,126.794666 100.54035,124.292924 L101.826168,111.489894 C102.111905,111.000422 102.515664,110.754087 103.040551,110.754087 C103.326288,110.754087 103.587178,110.803674 103.826328,110.901248 C103.872916,110.901248 103.921056,110.950835 103.969197,111.050009 L103.969197,113.697313 Z" id="Fill-3" fill="#87B940"></path>
            <path d="M99.4377772,88.1742698 L117.923733,88.1742698 C118.089895,88.0798946 118.139588,88.036706 118.142694,88.0335068 C118.447067,87.7567797 118.481231,87.6304129 118.481231,87.6304129 C118.479678,87.5728281 118.35855,87.3776794 117.920627,87.1265455 L99.3958484,87.1265455 C99.1116641,87.2385161 98.8927024,87.3328912 98.7420692,87.409671 C98.6131769,87.500847 98.5246605,87.5904234 98.4609908,87.672002 L99.4377772,88.1742698 Z M118.296433,89.7738488 L99.0712882,89.7738488 L96.7636496,88.5853616 L96.7636496,88.0910917 C96.7636496,87.5280399 96.9717408,86.7122546 97.9656094,86.0276347 C98.2575583,85.8724756 98.5681422,85.7365114 98.9827718,85.5765535 L99.2545327,85.5269665 L118.296433,85.5269665 L118.461043,85.6101446 C119.503052,86.1476032 120.032598,86.8338226 120.032598,87.6496079 C120.032598,88.1918652 119.759284,88.7005313 119.197127,89.2075978 C119.07134,89.3403629 118.832191,89.4987212 118.45949,89.6890711 L118.296433,89.7738488 Z M123.011097,98.7698812 L147.109304,98.7698812 C147.244408,98.7138959 147.343795,98.6707073 147.405912,98.6371161 C147.62798,98.5139486 147.910611,98.3124016 147.910611,98.098058 C147.910611,97.9748904 147.846941,97.8421254 147.763084,97.7221569 L122.202026,97.7221569 C122.180285,97.7381527 122.170968,97.7477502 122.169415,97.7477502 C122.060711,97.8965111 121.965982,98.0388736 121.961324,98.1604416 C121.983065,98.1652403 122.04984,98.2628147 122.343342,98.4275713 L123.011097,98.7698812 Z M147.405912,100.36946 L122.644608,100.36946 L121.62434,99.8447983 C120.809057,99.3873187 120.408404,98.827466 120.408404,98.1716386 C120.408404,97.7061612 120.574566,97.2550799 120.903785,96.8295919 C121.032678,96.6232462 121.243875,96.4360954 121.571541,96.2345485 L121.756338,96.1225779 L148.437051,96.1225779 L148.663777,96.3561165 C149.194875,96.9031725 149.463531,97.4886184 149.463531,98.098058 C149.463531,98.6531119 149.230593,99.443304 148.124914,100.054343 C148.00068,100.119926 147.812777,100.204704 147.544122,100.313475 L147.405912,100.36946 Z M126.578154,134.088586 L141.206657,134.088586 L141.767261,132.93369 L141.767261,111.651291 C141.619733,111.339373 141.318467,111.049849 140.871226,110.785919 C140.75631,110.729934 140.54356,110.637158 140.259376,110.525187 L126.919796,110.525187 L126.175948,111.035453 L126.175948,133.674295 L126.578154,134.088586 Z M142.166361,135.688165 L125.935245,135.688165 L124.623028,134.336521 L124.623028,110.179678 L126.450814,108.925608 L140.672452,108.976795 C141.085529,109.135153 141.39456,109.269518 141.601098,109.37509 C142.472286,109.886955 143.018914,110.499594 143.273593,111.216206 L143.32018,111.489734 L143.32018,133.31279 L142.166361,135.688165 Z M124.821802,136.737489 L142.787529,136.737489 C142.952138,136.649512 143.084137,136.574332 143.178865,136.508749 C143.518954,136.252816 143.762763,135.956894 143.91029,135.617783 L143.91029,109.282315 C143.91029,109.098363 143.91029,108.716064 143.177312,108.402546 C142.304571,108.208997 141.602651,108.026645 141.136775,107.874685 L126.256699,107.874685 C126.039291,107.909876 125.790824,107.967461 125.612238,108.039442 C124.450654,108.519315 123.790663,109.399084 123.596548,110.726734 L123.604313,134.005408 C123.643136,134.194158 123.669535,134.438894 123.674194,134.651638 C123.862097,135.51861 124.239457,136.203229 124.821802,136.737489 L124.821802,136.737489 Z M143.155571,138.337068 L124.276727,138.337068 L124.06553,138.169112 C123.062344,137.367723 122.414776,136.268812 122.139909,134.904371 L122.122827,134.741214 C122.122827,134.581256 122.101086,134.37811 122.062263,134.134974 L122.051393,110.606766 C122.340236,108.5769 123.343422,107.252449 125.03921,106.553433 C125.345136,106.428666 125.708519,106.340689 126.158865,106.281504 L141.38369,106.275106 L141.503264,106.316695 C141.911682,106.457458 142.630684,106.647808 143.644741,106.884546 C145.168155,107.519578 145.46321,108.535311 145.46321,109.282315 L145.416622,136.044871 C145.172814,136.73269 144.720914,137.329333 144.071794,137.815605 C143.890102,137.943571 143.644741,138.085934 143.32018,138.25389 L143.155571,138.337068 Z M119.669214,139.244029 C119.795001,139.290417 119.917681,139.314411 120.041915,139.314411 C120.111796,139.314411 120.322993,139.314411 120.33697,138.500225 L114.867587,111.636895 C114.689001,111.582509 114.532156,111.553717 114.398605,111.553717 C114.317853,111.65449 114.341147,111.932817 114.557003,112.539057 C115.254264,115.890175 115.802444,118.614258 116.23105,120.826476 C117.116214,125.390075 118.27314,131.585245 119.669214,139.244029 L119.669214,139.244029 Z M120.041915,140.91399 C119.734437,140.91399 119.430065,140.858004 119.131904,140.744434 C118.770074,140.669254 118.515395,140.405323 118.42222,140.310948 L118.251399,140.134995 L118.207917,139.891859 C116.78389,132.076316 115.606777,125.765976 114.707636,121.138394 C114.280583,118.932575 113.732403,116.21489 113.067753,112.980541 C112.873638,112.457479 112.764934,111.95841 112.764934,111.563314 C112.764934,110.298047 113.869059,109.650218 115.339674,110.112496 C115.54466,110.142888 115.751198,110.232464 115.971713,110.384424 L116.235709,110.565177 L121.889889,138.420246 C121.889889,140.669254 120.59786,140.91399 120.041915,140.91399 L120.041915,140.91399 Z M97.5711678,144.532237 C97.8056587,144.607418 97.8910693,144.610617 97.8972809,144.610617 C98.0354908,144.610617 98.4640966,144.233116 98.7762334,142.505571 C99.2964615,139.632727 99.3477079,139.527155 99.4191422,139.383192 L99.4284597,139.367197 C99.4921294,139.168849 99.7110911,138.372259 100.46581,135.21309 C101.145989,132.356242 101.729887,129.333037 102.201974,126.229854 C102.858859,121.779825 103.192737,117.561736 103.192737,113.697153 L103.192737,111.561715 C102.979987,111.54092 102.762578,111.53932 102.577781,111.774459 L101.313704,124.375942 C100.826087,126.943266 100.447175,129.022719 100.161438,130.686281 C99.0091714,136.895847 98.1457481,141.510633 97.5711678,144.532237 L97.5711678,144.532237 Z M97.8972809,146.210196 C97.5416623,146.210196 97.0742335,146.077431 96.3847372,145.783108 L95.7992865,145.530375 L95.9204142,144.888943 C96.4918887,141.89933 97.3972408,137.067002 98.6349178,130.396758 C98.9191021,128.737994 99.3011203,126.647344 99.7778666,124.137605 L101.161518,111.077042 C101.590124,110.342835 102.240797,109.954138 103.040551,109.954138 C103.396169,109.954138 103.736259,110.014922 104.051501,110.13489 C104.242511,110.189276 104.487872,110.331638 104.663352,110.691544 L104.745657,110.861099 L104.745657,113.697153 C104.745657,117.641714 104.405567,121.939783 103.736259,126.47299 C103.25796,129.62576 102.664744,132.693753 101.972142,135.595389 C101.321469,138.322672 101.02952,139.54635 100.784159,140.096605 L100.804347,140.107802 C100.813664,140.107802 100.709618,140.549286 100.304306,142.798294 C100.150567,143.642871 99.6846914,146.210196 97.8972809,146.210196 L97.8972809,146.210196 Z M134.266659,147.678609 C134.147084,147.883355 134.105155,148.035315 134.105155,148.20647 C134.105155,148.28325 134.105155,148.487996 134.634701,148.724734 C135.276057,149.00466 135.804049,149.220603 136.217126,149.361366 C138.478177,150.122766 140.779604,150.629833 143.051525,150.869769 L148.544202,150.864971 C150.328507,150.864971 151.594136,150.002798 152.415631,148.232064 C153.027481,146.87722 153.339618,145.060098 153.339618,142.835084 L153.339618,89.4155431 C153.339618,88.5309759 153.08028,87.8751485 152.547629,87.4176689 C151.973049,86.9249986 151.224541,86.6834621 150.258625,86.6834621 L122.585597,86.6834621 C122.413223,86.7746381 122.279672,86.8546171 122.183391,86.9186003 C121.889889,87.1585371 121.889889,87.3552853 121.889889,87.428866 C121.889889,87.4432622 121.892995,87.5360378 121.98617,87.7343856 L150.013264,87.7343856 L152.320903,88.9228728 L152.320903,146.608491 L152.190457,146.808438 C151.963731,147.160346 151.763405,147.419477 151.592583,147.593832 C150.663937,148.551979 149.589317,149.281387 148.396675,149.761261 L148.115596,149.815647 L145.543961,149.815647 L134.266659,147.678609 Z M148.544202,152.46455 L142.972326,152.46455 C140.510949,152.208617 138.100818,151.677557 135.731062,150.880966 C135.282268,150.725807 134.7139,150.498667 134.022851,150.193147 C132.806914,149.655689 132.552236,148.81591 132.552236,148.20647 C132.552236,147.704203 132.691998,147.233926 132.968418,146.806839 C133.004135,146.714063 133.154768,146.517315 133.423424,146.242187 L133.712267,145.946265 L145.685277,148.230464 L147.96341,148.217667 C148.901374,147.819372 149.752374,147.229128 150.494669,146.462929 C150.576974,146.379751 150.667043,146.262982 150.767983,146.11902 L150.767983,89.909813 L149.646775,89.3339646 L121.125853,89.3339646 L120.896021,88.9772585 C120.520214,88.3966113 120.33697,87.8895447 120.33697,87.428866 C120.33697,86.9489923 120.500026,86.2467771 121.278039,85.6197421 C121.489236,85.47578 121.729939,85.335017 122.052946,85.1686608 L122.216003,85.0838831 L150.258625,85.0838831 C151.583266,85.0838831 152.688945,85.456585 153.541498,86.1907918 C154.437532,86.9601893 154.892538,88.0463035 154.892538,89.4155431 L154.892538,142.835084 C154.892538,145.295237 154.53226,147.339499 153.81947,148.913484 C152.727768,151.271264 150.954333,152.46455 148.544202,152.46455 L148.544202,152.46455 Z M109.031715,151.466412 C109.177689,151.655163 109.259994,151.674358 109.259994,151.674358 C109.295711,151.674358 109.426156,151.618372 109.621824,151.388033 L109.621824,102.743235 L119.167621,102.743235 C119.189362,102.72724 119.197127,102.717642 119.19868,102.717642 C119.308937,102.567282 119.402112,102.426519 119.408324,102.303351 C119.400559,102.295353 119.350866,102.244167 119.187809,102.136995 L98.4066386,102.136995 C98.3942152,102.204177 98.3880035,102.280957 98.3880035,102.365735 C98.3880035,102.490502 98.4081915,102.615269 98.4501203,102.743235 L109.031715,102.743235 L109.031715,151.466412 Z M109.255335,153.273937 C108.733554,153.273937 108.24749,153.006807 107.808014,152.478946 C107.713286,152.38617 107.606135,152.191022 107.517618,151.915894 L107.478795,151.66476 L107.478795,104.342814 L97.5385565,104.342814 L97.3102773,103.968513 C96.9950346,103.450249 96.8350839,102.911191 96.8350839,102.365735 C96.8350839,101.922651 96.9251532,101.521157 97.1068448,101.170849 C97.1736204,100.986898 97.3195948,100.774154 97.62552,100.618995 L97.7885766,100.537416 L119.596227,100.537416 L119.770154,100.633391 C120.56059,101.076474 120.961243,101.634727 120.961243,102.292154 C120.961243,102.757632 120.795081,103.207113 120.467415,103.632601 C120.338523,103.838947 120.131984,104.022899 119.798107,104.229244 L119.614862,104.342814 L111.174744,104.342814 L111.174744,151.925492 L111.025664,152.136636 C110.489906,152.891637 109.895138,153.273937 109.255335,153.273937 L109.255335,153.273937 Z" id="Fill-5" fill="#87B940"></path>
            <path d="M142.54341,212.149322 L142.54341,201.993594 C142.352401,201.257788 142.018523,200.669143 141.54333,200.229259 C141.400461,200.082098 141.161312,199.933337 140.828987,199.786175 L109.969368,199.786175 L108.254944,200.669143 L108.254944,213.473773 L109.540762,214.356741 L140.400381,214.356741 C141.114724,214.161592 141.686198,213.742502 142.114804,213.10587 C142.257673,212.910721 142.400541,212.589206 142.54341,212.149322 L142.54341,212.149322 Z M110.826579,186.101777 L105.254704,177.270501 C105.063694,177.027365 104.968966,176.731443 104.968966,176.389133 C104.968966,176.046823 105.086988,175.725308 105.326138,175.432585 C105.372726,175.333411 105.4923,175.210243 105.683309,175.063082 C107.015714,175.063082 108.206804,176.094811 109.255025,178.155068 C110.015955,179.626681 110.540842,180.509649 110.826579,180.802372 C111.207045,181.638951 111.564216,182.422745 111.898094,183.158552 C112.230419,183.894358 112.398134,184.407823 112.398134,184.703745 C112.398134,185.489138 111.873247,185.954616 110.826579,186.101777 L110.826579,186.101777 Z M154.544373,240.84417 L97.111193,240.84417 C96.8254558,240.404285 96.6825872,240.036382 96.6825872,239.74206 C96.6825872,239.300576 96.8968901,238.907079 97.3254959,238.56477 C97.4683645,238.465596 97.6826674,238.344028 97.9684047,238.195267 L123.684754,238.195267 L123.684754,228.042739 L100.111434,228.042739 C99.3970907,227.553268 99.0399192,227.086191 99.0399192,226.644707 C99.0399192,226.25121 99.372244,225.884907 100.039999,225.540997 C100.134728,225.49301 100.30089,225.443423 100.54004,225.392236 L123.684754,225.392236 L123.684754,217.004044 L108.254944,217.004044 C107.206724,216.808895 106.397652,216.172263 105.826178,215.092547 C105.635169,214.748638 105.44416,214.209579 105.254704,213.473773 L105.254704,200.229259 C105.44416,199.640614 105.706603,199.101556 106.040481,198.608885 C106.135209,198.461724 106.301371,198.266575 106.540521,198.02184 L107.397733,197.137273 L143.400622,197.137273 L145.543651,199.786175 L145.543651,213.032289 C145.352642,214.308753 144.733027,215.362876 143.686359,216.194657 C143.352481,216.442592 142.829147,216.711321 142.114804,217.004044 L126.256389,217.004044 L126.256389,225.392236 L149.829709,225.392236 C150.733508,225.785733 151.186961,226.228816 151.186961,226.716688 C151.186961,227.060597 150.876377,227.4301 150.258315,227.821997 C150.162034,227.869984 150.019165,227.945164 149.829709,228.042739 L126.256389,228.042739 L126.256389,238.195267 L153.258556,238.195267 C154.353364,238.392015 154.901545,238.883086 154.901545,239.668479 C154.901545,239.962802 154.853404,240.231531 154.758676,240.477866 C154.758676,240.57544 154.687242,240.698608 154.544373,240.84417 L154.544373,240.84417 Z M155.401585,196.254305 L154.972979,199.346291 C154.972979,200.229259 154.758676,201.123423 154.33007,202.031984 C153.901464,202.938946 153.353284,203.391627 152.687081,203.391627 C152.305063,203.391627 151.924598,203.222071 151.544132,202.878162 L152.401344,194.489969 L152.401344,191.841066 C152.210335,191.10526 151.876457,190.516615 151.401264,190.073532 C151.258395,189.92637 151.019245,189.780809 150.686921,189.633647 L99.6828279,189.633647 L98.8256163,191.841066 L98.8256163,202.878162 C98.445151,203.809117 98.0149922,204.276194 97.5397988,204.276194 C97.2059211,204.276194 96.8487496,203.957878 96.4682843,203.318046 C96.4201438,203.222071 96.3487095,203.07331 96.2539814,202.878162 L96.2539814,190.073532 C96.6344467,188.75068 97.3006492,187.843718 98.2541419,187.352648 C98.5864667,187.203887 99.063213,187.082319 99.6828279,186.984745 L123.684754,186.984745 L123.684754,173.738631 C124.065219,173.495495 124.493825,173.372327 124.970571,173.372327 C125.302896,173.372327 125.61348,173.420314 125.899217,173.519488 C125.993945,173.519488 126.11352,173.593069 126.256389,173.738631 L126.256389,186.984745 L136.971534,186.984745 L142.54341,177.713585 C142.829147,176.928191 143.161472,176.241972 143.54349,175.653327 C144.114965,174.770359 144.686439,174.327276 145.257914,174.327276 C145.590238,174.327276 145.972257,174.575211 146.400862,175.063082 C145.875976,176.830617 145.018764,178.791701 143.829228,180.951132 C142.066664,184.139093 141.066583,186.002603 140.828987,186.541661 L151.115526,186.541661 C152.544213,186.738409 153.687161,187.378241 154.544373,188.454758 C154.83011,188.798667 155.115847,189.337725 155.401585,190.073532 L155.401585,196.254305 Z" id="Fill-7" fill="#87B940"></path>
            <path d="M105.958021,175.885586 C105.762353,176.154315 105.745271,176.296677 105.745271,176.387853 C105.745271,176.598998 105.810494,176.707769 105.860187,176.768553 L111.186701,185.204733 C111.621519,185.054373 111.621519,184.83523 111.621519,184.704065 C111.621519,184.675272 111.60599,184.406543 111.194466,183.496383 L110.174198,181.253773 C109.921072,180.956251 109.490913,180.311621 108.570032,178.531289 C107.75009,176.918914 106.872691,176.032747 105.958021,175.885586 L105.958021,175.885586 Z M97.0302859,202.689731 L97.1607311,202.956861 C97.3905633,203.337561 97.5474081,203.45273 97.5908899,203.479923 C97.5862311,203.451131 97.7803461,203.316766 98.0490012,202.712125 L98.1049063,191.543865 L99.1577858,188.834178 L150.992691,188.898161 C151.422849,189.088511 151.736539,189.288458 151.950842,189.5092 C152.50834,190.025864 152.92297,190.750473 153.151249,191.635041 L153.177648,191.841386 L153.177648,194.490289 L152.362366,202.500981 C152.478835,202.561765 152.585986,202.592157 152.686926,202.592157 C152.814265,202.592157 153.200942,202.592157 153.632654,201.681996 C154.006908,200.890205 154.196364,200.103212 154.196364,199.346611 L154.62497,196.19864 L154.62497,190.23061 C154.336127,189.515598 154.103189,189.154094 153.954108,188.97654 C153.208707,188.037587 152.250555,187.506527 151.012878,187.333773 L139.622213,187.341771 L140.122253,186.210868 C140.372273,185.646217 141.364589,183.793904 143.155105,180.556356 C144.207985,178.644859 145.001527,176.874125 145.515543,175.290542 C145.33851,175.141781 145.2531,175.127385 145.251547,175.127385 C144.97668,175.127385 144.58845,175.480892 144.18935,176.09673 C143.844601,176.62939 143.53557,177.267622 143.270021,177.993831 L137.404644,187.783254 L125.479774,187.783254 L125.479774,174.228422 C125.164531,174.153242 124.777854,174.146843 124.461058,174.247617 L124.461058,187.783254 L99.6826726,187.783254 C99.2463022,187.861634 98.8301198,187.968806 98.5630176,188.087174 C97.8657567,188.44708 97.3517403,189.141297 97.0302859,190.19222 L97.0302859,202.689731 Z M97.5396435,205.076303 C96.6047859,205.076303 96.003806,204.068568 95.8065852,203.737456 L95.4773663,203.068831 L95.5084246,189.848311 C95.9525597,188.309516 96.758525,187.2282 97.9061326,186.637956 C98.3393972,186.444407 98.8689428,186.305243 99.5646508,186.193273 L109.956789,186.188474 L104.603875,177.707506 C104.34609,177.384391 104.192351,176.918914 104.192351,176.387853 C104.192351,175.877588 104.358514,175.402513 104.683074,174.980224 C104.793331,174.794673 104.964152,174.618719 105.218831,174.42357 L105.425369,174.263613 L105.683154,174.263613 C107.321484,174.263613 108.754829,175.448901 109.942813,177.784286 C110.947552,179.726175 111.293853,180.153262 111.374605,180.236441 L111.529897,180.463581 L112.601411,182.819761 C112.997406,183.69633 113.174438,184.276977 113.174438,184.704065 C113.174438,185.047974 113.093687,185.681408 112.5688,186.188474 L122.908139,186.183675 L122.908139,173.294268 L123.274628,173.05913 C124.096122,172.534468 125.176954,172.456088 126.063672,172.732815 C126.441031,172.799998 126.708133,173.073526 126.804414,173.1727 L127.032693,173.406238 L127.032693,186.183675 L136.539667,186.183675 L141.883264,177.293215 C142.123966,176.591 142.485797,175.843997 142.89732,175.208964 C144.105492,173.343855 145.510884,172.852784 146.97684,174.527543 L147.271895,174.863455 L147.143003,175.29854 C146.605693,177.109264 145.718975,179.143928 144.504592,181.346548 C143.28555,183.550768 142.547914,184.91201 142.10999,185.742192 L151.115371,185.742192 C152.840665,185.974131 154.163752,186.713136 155.145198,187.949611 C155.479075,188.349505 155.802083,188.952547 156.123537,189.777929 L156.177889,190.073852 L156.170125,196.368195 L155.741519,199.458582 C155.749283,200.347948 155.507028,201.370079 155.028729,202.381013 C154.32215,203.878218 153.365552,204.191736 152.686926,204.191736 C152.112346,204.191736 151.554847,203.953399 151.031514,203.479923 L150.730247,203.206395 L151.629388,194.405512 L151.624729,191.951757 C151.47099,191.4095 151.225628,190.988811 150.88088,190.667295 C150.840504,190.628905 150.7582,190.550526 150.520603,190.433757 L100.207559,190.433757 L99.6019208,191.994946 L99.541357,203.1888 C99.0288935,204.44287 98.3549264,205.076303 97.5396435,205.076303 L97.5396435,205.076303 Z M109.775097,213.557271 L140.291521,213.557271 C140.782244,213.402112 141.170474,213.10459 141.476399,212.65031 C141.530751,212.57513 141.630138,212.415172 141.766795,212.016877 L141.766795,202.104285 C141.613056,201.563628 141.369248,201.142938 141.024499,200.824622 C140.982571,200.783033 140.898713,200.703054 140.662669,200.586285 L110.152457,200.586285 L109.031249,201.163733 L109.031249,213.045406 L109.775097,213.557271 Z M140.502718,215.15685 L109.306116,215.15685 L107.478329,213.90278 L107.478329,200.176793 L109.785968,198.986706 L141.134757,199.050689 C141.563362,199.241039 141.875499,199.440986 142.092908,199.663328 C142.650406,200.179992 143.065036,200.904601 143.293315,201.787569 L143.319715,201.993914 L143.279339,212.402375 C143.108517,212.931836 142.931485,213.318934 142.735817,213.586064 C142.217142,214.35866 141.493481,214.886521 140.600552,215.129657 L140.502718,215.15685 Z M97.5551727,240.0447 L154.081448,240.0447 C154.110953,239.92953 154.124929,239.804763 154.124929,239.668799 C154.124929,239.516839 154.124929,239.163332 153.124849,238.98258 L125.479774,238.995376 L125.479774,227.24167 L149.736379,227.196881 L149.91807,227.104106 C150.278347,226.870567 150.388605,226.70901 150.413451,226.664222 C150.387052,226.641827 150.262818,226.472272 149.666497,226.192346 L125.479774,226.192346 L125.479774,216.204574 L141.964016,216.204574 C142.547914,215.958239 142.974966,215.737497 143.234304,215.545548 C144.103939,214.85293 144.616402,213.984359 144.776353,212.909442 L144.767036,200.076019 L143.037083,197.937382 L107.719032,197.937382 L107.090099,198.586811 C106.897537,198.78196 106.762433,198.935519 106.687893,199.050689 C106.409921,199.461781 106.192512,199.898466 106.031008,200.362344 L106.031008,213.368521 C106.232888,214.126721 106.395944,214.509021 106.49999,214.696171 C106.964313,215.57434 107.580822,216.065411 108.392999,216.217371 L124.461058,216.204574 L124.461058,226.192346 L100.620636,226.192346 C100.440497,226.233935 100.381486,226.259528 100.378381,226.261128 C99.926481,226.494666 99.8255413,226.654624 99.811565,226.680217 C99.8224354,226.681817 99.8814464,226.883364 100.355087,227.24167 L124.461058,227.24167 L124.461058,238.995376 L98.1561526,238.995376 C97.9868844,239.086552 97.8533333,239.163332 97.7586052,239.228915 C97.4588917,239.468852 97.4588917,239.667199 97.4588917,239.74238 C97.4588917,239.756776 97.4635505,239.847952 97.5551727,240.0447 L97.5551727,240.0447 Z M154.865672,241.644279 L96.6964082,241.644279 L96.4665761,241.290772 C96.0892166,240.708525 95.9059721,240.203058 95.9059721,239.74238 C95.9059721,239.259307 96.0705816,238.553892 96.8501472,237.931656 C97.0551326,237.789294 97.2958352,237.648531 97.6172895,237.482174 L97.7834519,237.395797 L122.908139,237.395797 L122.908139,228.841249 L99.8767876,228.841249 L99.6811197,228.706884 C98.7276271,228.054256 98.2633041,227.379233 98.2633041,226.643427 C98.2633041,225.925216 98.7447092,225.314177 99.6919902,224.826305 C99.8581526,224.741528 100.077114,224.674345 100.386145,224.608763 L100.539884,224.592767 L122.908139,224.592767 L122.908139,217.804153 L108.254789,217.804153 C106.830762,217.553019 105.830682,216.774025 105.144291,215.475166 C104.923776,215.078471 104.712579,214.486627 104.504488,213.678839 L104.478088,213.474093 L104.518464,199.978445 C104.729661,199.321018 105.027822,198.70678 105.403629,198.151726 C105.507674,197.988569 105.704895,197.751831 105.992185,197.454309 L107.076123,196.337803 L143.765403,196.337803 L146.319955,199.498571 L146.319955,213.032609 C146.090123,214.633788 145.366463,215.868663 144.161397,216.82841 C143.751426,217.130731 143.184611,217.426653 142.403492,217.748168 L142.114649,217.804153 L127.032693,217.804153 L127.032693,224.592767 L150.132373,224.65515 C151.346756,225.184611 151.963265,225.878828 151.963265,226.717008 C151.963265,227.679954 150.986479,228.300591 150.666577,228.503737 L150.011245,228.841249 L127.032693,228.841249 L127.032693,237.395797 L153.2584,237.395797 C155.381241,237.7669 155.677849,238.977781 155.677849,239.668799 C155.677849,240.022306 155.623497,240.358218 155.517898,240.670135 C155.471311,240.922869 155.329995,241.169204 155.092398,241.41234 L154.865672,241.644279 Z" id="Fill-9" fill="#87B940"></path>
        </g>
    </g>
</svg>