<?xml version="1.0" encoding="UTF-8"?>
<svg width="47px" height="100px" viewBox="0 0 47 100" version="1.1" xmlns="http://www.w3.org/2000/svg" xmlns:xlink="http://www.w3.org/1999/xlink">
    <title>形状结合</title>
    <g id="第六版" stroke="none" stroke-width="1" fill="none" fill-rule="evenodd" fill-opacity="0.8">
        <g id="华夏祠堂-祠堂详情备份" transform="translate(-1873.000000, -468.000000)" fill="#FFFFFF">
            <path d="M1923,468 C1950.61424,468 1973,490.385763 1973,518 C1973,545.614237 1950.61424,568 1923,568 C1895.38576,568 1873,545.614237 1873,518 C1873,490.385763 1895.38576,468 1923,468 Z M1896.9844,499.675579 C1896.07168,498.775591 1894.59431,498.774659 1893.68252,499.673673 C1892.7717,500.573619 1892.77266,502.03226 1893.68441,502.93318 L1893.68441,502.93318 L1907.37524,518.098369 L1893.71186,533.233942 C1892.79914,534.134989 1892.78969,535.584945 1893.68916,536.473535 C1894.58859,537.362083 1896.05836,537.351618 1896.97019,536.451587 L1896.97019,536.451587 L1912.06563,519.72967 C1912.08068,519.715306 1912.10153,519.711493 1912.11666,519.696282 C1913.02841,518.797183 1913.02748,517.33761 1912.1157,516.437622 L1912.1157,516.437622 Z" id="形状结合"></path>
        </g>
    </g>
</svg>