<?xml version="1.0" encoding="UTF-8"?>
<svg width="50px" height="100px" viewBox="0 0 50 100" version="1.1" xmlns="http://www.w3.org/2000/svg" xmlns:xlink="http://www.w3.org/1999/xlink">
    <title>形状结合备份</title>
    <g id="第六版" stroke="none" stroke-width="1" fill="none" fill-rule="evenodd" fill-opacity="0.8">
        <g id="华夏祠堂-祠堂详情备份" transform="translate(0.000000, -468.000000)" fill="#FFFFFF">
            <path d="M0,468 C27.6142375,468 50,490.385763 50,518 C50,545.614237 27.6142375,568 0,568 C-27.6142375,568 -50,545.614237 -50,518 C-50,490.385763 -27.6142375,468 0,468 Z M-25.0156045,499.675579 C-25.9283182,498.775591 -27.405693,498.774659 -28.317482,499.673673 C-29.2283041,500.573619 -29.2273373,502.03226 -28.3155904,502.93318 L-28.3155904,502.93318 L-14.6247579,518.098369 L-28.2881413,533.233942 C-29.200855,534.134989 -29.210313,535.584945 -28.3108404,536.473535 C-27.4114098,537.362083 -25.9416434,537.351618 -25.0298124,536.451587 L-25.0298124,536.451587 L-9.93436841,519.72967 C-9.91931975,519.715306 -9.89847022,519.711493 -9.88333749,519.696282 C-8.97159054,518.797183 -8.97251532,517.33761 -9.8843043,516.437622 L-9.8843043,516.437622 Z" id="形状结合备份" transform="translate(0.000000, 518.000000) scale(-1, 1) translate(-0.000000, -518.000000) "></path>
        </g>
    </g>
</svg>