<?xml version="1.0" encoding="UTF-8"?>
<svg width="395px" height="303px" viewBox="0 0 395 303" version="1.1" xmlns="http://www.w3.org/2000/svg" xmlns:xlink="http://www.w3.org/1999/xlink">
    <title>编组 5</title>
    <defs>
        <polygon id="path-1" points="0 248 365 248 365 0 0 0"></polygon>
    </defs>
    <g id="页面-1" stroke="none" stroke-width="1" fill="none" fill-rule="evenodd">
        <g id="华夏祠堂首页备份" transform="translate(-194.000000, -700.000000)">
            <g id="编组-3" transform="translate(194.000000, 700.000000)">
                <g id="编组-5" transform="translate(0.000000, 0.147059)">
                    <g id="位图备份" transform="translate(93.000000, 0.000000)">
                        <circle id="蒙版" fill="#39BDE1" cx="151" cy="151" r="151"></circle>
                        <circle id="蒙版备份" fill-opacity="0.3" fill="#FFFFFF" cx="141.5" cy="160.5" r="141.5"></circle>
                    </g>
                    <g id="编组" transform="translate(0.000000, 54.000000)">
                        <polygon id="Fill-1" fill="#D92C01" points="307.463054 174.050909 307.463054 155.260363 264.717286 151.505455 258.017241 152.187908 262.635515 171.396399 281.980096 173.505887"></polygon>
                        <polygon id="Stroke-2" stroke="#DCCD75" stroke-width="0.9" points="307.463054 174.050909 307.463054 155.260363 264.717286 151.505455 258.017241 152.187908 262.635515 171.396399 281.980096 173.505887"></polygon>
                        <polygon id="Fill-3" fill="#1F425B" points="293.977833 156.73395 286.785714 156.014545 286.785714 174.050909 293.977833 174.050909"></polygon>
                        <polygon id="Stroke-4" stroke="#DCCD75" stroke-width="0.9" points="293.977833 156.73395 286.785714 156.014545 286.785714 174.050909 293.977833 174.050909"></polygon>
                        <polygon id="Stroke-5" stroke="#DCCD75" stroke-width="0.9" points="302.96798 174.952727 306.564039 174.952727 306.564039 156.014545 302.96798 156.014545"></polygon>
                        <g>
                            <path d="M311.37359,152.486877 C311.37359,152.486877 310.567907,156.457853 304.935075,156.018098 C299.298274,155.579285 277.218404,153.39652 277.218404,153.39652 L263.878999,153.39652 L261.846933,150.922782 L277.449591,143.937556 L285.384374,145.65985 C285.384374,145.65985 293.663457,149.224029 294.237952,149.181654 C294.814432,149.140221 306.313268,152.486877 306.313268,152.486877 L311.37359,152.486877 Z" id="Fill-6" fill="#33486D"></path>
                            <path d="M311.37359,152.486877 C311.37359,152.486877 310.567907,156.457853 304.935075,156.018098 C299.298274,155.579285 277.218404,153.39652 277.218404,153.39652 L263.878999,153.39652 L261.846933,150.922782 L277.449591,143.937556 L285.384374,145.65985 C285.384374,145.65985 293.663457,149.224029 294.237952,149.181654 C294.814432,149.140221 306.313268,152.486877 306.313268,152.486877 L311.37359,152.486877 Z" id="Stroke-8" stroke="#DCCD75" stroke-width="0.9"></path>
                            <path d="M266.868062,136.311719 C266.868062,136.311719 278.369875,146.484461 296.997812,143.938215 C296.997812,143.938215 300.334647,152.123114 311.373094,152.486595 C311.373094,152.486595 308.727835,155.088398 302.633621,155.006474 C296.538414,154.92455 284.119789,153.06854 284.119789,153.06854 C284.119789,153.06854 279.748069,151.795417 280.093361,146.265996 C280.093361,146.265996 278.137696,152.013882 273.422667,152.486595 C268.707638,152.960249 263.862628,152.486595 263.862628,152.486595 L250.287075,151.25208 L253.867997,146.38747 C253.867997,146.38747 263.763406,148.040081 266.868062,136.311719" id="Fill-10" fill="#F8D372"></path>
                            <path d="M266.868062,136.311719 C266.868062,136.311719 278.369875,146.484461 296.997812,143.938215 C296.997812,143.938215 300.334647,152.123114 311.373094,152.486595 C311.373094,152.486595 308.727835,155.088398 302.633621,155.006474 C296.538414,154.92455 284.119789,153.06854 284.119789,153.06854 C284.119789,153.06854 279.748069,151.795417 280.093361,146.265996 C280.093361,146.265996 278.137696,152.013882 273.422667,152.486595 C268.707638,152.960249 263.862628,152.486595 263.862628,152.486595 L250.287075,151.25208 L253.867997,146.38747 C253.867997,146.38747 263.763406,148.040081 266.868062,136.311719 Z" id="Stroke-12" stroke="#DCCD75" stroke-width="0.9"></path>
                            <polygon id="Fill-14" fill="#E55623" points="354.383942 180.135678 306.889351 174.787997 306.889351 162.020985 354.383942 168.021236"></polygon>
                            <polygon id="Stroke-16" stroke="#DCCD75" stroke-width="0.9" points="354.383942 180.135678 306.889351 174.787997 306.889351 162.020985 354.383942 168.021236"></polygon>
                            <mask id="mask-2" fill="white">
                                <use xlink:href="#path-1"></use>
                            </mask>
                            <g id="Clip-19"></g>
                            <polygon id="Stroke-18" stroke="#DCCD75" stroke-width="0.9" mask="url(#mask-2)" points="314.06836 175.596788 317.238502 175.596788 317.238502 162.697944 314.06836 162.697944"></polygon>
                            <polygon id="Stroke-20" stroke="#DCCD75" stroke-width="0.9" mask="url(#mask-2)" points="323.276161 176.852019 326.446303 176.852019 326.446303 163.953175 323.276161 163.953175"></polygon>
                            <polygon id="Stroke-21" stroke="#DCCD75" stroke-width="0.9" mask="url(#mask-2)" points="332.650654 178.106309 335.821789 178.106309 335.821789 165.207465 332.650654 165.207465"></polygon>
                            <polygon id="Stroke-22" stroke="#DCCD75" stroke-width="0.9" mask="url(#mask-2)" points="342.137269 179.470773 345.307411 179.470773 345.307411 166.57287 342.137269 166.57287"></polygon>
                            <polygon id="Stroke-23" stroke="#DCCD75" stroke-width="0.9" mask="url(#mask-2)" points="351.212112 179.743854 354.383247 179.743854 354.383247 166.84501 351.212112 166.84501"></polygon>
                            <path d="M350.167007,162.697944 L306.54902,156.018757 L306.889351,160.640419 L358.753678,168.021142 C358.753678,168.021142 353.999952,167.488163 350.167007,162.697944" id="Fill-24" fill="#F8D372" mask="url(#mask-2)"></path>
                            <path d="M350.167007,162.697944 L306.54902,156.018757 L306.889351,160.640419 L358.753678,168.021142 C358.753678,168.021142 353.999952,167.488163 350.167007,162.697944 Z" id="Stroke-25" stroke="#DCCD75" stroke-width="0.9" mask="url(#mask-2)"></path>
                            <polygon id="Fill-26" fill="#33486D" mask="url(#mask-2)" points="358.753976 168.021424 353.235249 168.021424 306.889649 162.020232 306.889649 160.640702"></polygon>
                            <polygon id="Stroke-27" stroke="#DCCD75" stroke-width="0.9" mask="url(#mask-2)" points="358.753976 168.021424 353.235249 168.021424 306.889649 162.020232 306.889649 160.640702"></polygon>
                            <polygon id="Fill-28" fill="#33486D" mask="url(#mask-2)" points="364.503791 181.33667 274.675146 169.658216 274.675146 171.150745 364.503791 182.646517"></polygon>
                            <polygon id="Stroke-29" stroke="#DCCD75" stroke-width="0.9" mask="url(#mask-2)" points="364.503791 181.33667 274.675146 169.658216 274.675146 171.150745 364.503791 182.646517"></polygon>
                            <polygon id="Fill-30" fill="#FED070" mask="url(#mask-2)" points="364.503791 186.575589 364.503791 182.646046 274.675146 171.150274 274.675146 174.787903"></polygon>
                            <polygon id="Stroke-31" stroke="#DCCD75" stroke-width="0.9" mask="url(#mask-2)" points="364.503791 186.575589 364.503791 182.646046 274.675146 171.150274 274.675146 174.787903"></polygon>
                            <polygon id="Fill-32" fill="#D92C01" mask="url(#mask-2)" points="58.1113434 182.08058 58.1113434 163.283185 100.549581 159.526908 107.202416 160.20961 102.616375 179.425102 83.4109666 181.53536"></polygon>
                            <polygon id="Stroke-33" stroke="#DCCD75" stroke-width="0.9" mask="url(#mask-2)" points="58.1113434 182.08058 58.1113434 163.283185 100.549581 159.526908 107.202416 160.20961 102.616375 179.425102 83.4109666 181.53536"></polygon>
                            <polygon id="Fill-34" fill="#1F425B" mask="url(#mask-2)" points="71.5664407 164.581733 78.389937 163.854772 78.389937 182.08058 71.5664407 182.08058"></polygon>
                            <polygon id="Stroke-35" stroke="#DCCD75" stroke-width="0.9" mask="url(#mask-2)" points="71.5664407 164.581733 78.389937 163.854772 78.389937 182.08058 71.5664407 182.08058"></polygon>
                            <polygon id="Stroke-36" stroke="#DCCD75" stroke-width="0.9" mask="url(#mask-2)" points="58.1123356 182.081051 61.2169917 182.081051 61.2169917 163.283656 58.1123356 163.283656"></polygon>
                            <polygon id="Stroke-37" stroke="#DCCD75" stroke-width="0.9" mask="url(#mask-2)" points="86.6307202 181.18365 89.7373607 181.18365 89.7373607 160.761893 86.6307202 160.761893"></polygon>
                            <path d="M53.6260133,160.761799 C53.6260133,160.761799 54.4316959,164.732775 60.0655205,164.29302 C65.7013296,163.854207 87.7821914,161.671442 87.7821914,161.671442 L101.121596,161.671442 L103.15267,159.197704 L87.5510042,152.212478 L79.6162216,153.934772 C79.6162216,153.934772 71.3371387,157.498951 70.7626433,157.456576 C70.1861636,157.415143 58.687327,160.761799 58.687327,160.761799 L53.6260133,160.761799 Z" id="Fill-38" fill="#33486D" mask="url(#mask-2)"></path>
                            <path d="M53.6260133,160.761799 C53.6260133,160.761799 54.4316959,164.732775 60.0655205,164.29302 C65.7013296,163.854207 87.7821914,161.671442 87.7821914,161.671442 L101.121596,161.671442 L103.15267,159.197704 L87.5510042,152.212478 L79.6162216,153.934772 C79.6162216,153.934772 71.3371387,157.498951 70.7626433,157.456576 C70.1861636,157.415143 58.687327,160.761799 58.687327,160.761799 L53.6260133,160.761799 Z" id="Stroke-39" stroke="#DCCD75" stroke-width="0.9" mask="url(#mask-2)"></path>
                            <path d="M98.1315412,144.586641 C98.1315412,144.586641 86.6307202,154.759383 68.0017914,152.213137 C68.0017914,152.213137 64.6659481,160.398036 53.6265094,160.761517 C53.6265094,160.761517 56.2717677,163.36332 62.3659824,163.281396 C68.4621815,163.199471 80.8808058,161.343462 80.8808058,161.343462 C80.8808058,161.343462 85.2525268,160.070339 84.906242,154.540918 C84.906242,154.540918 86.8628997,160.288804 91.5779287,160.761517 C96.2919655,161.235171 101.137967,160.761517 101.137967,160.761517 L114.712528,159.527002 L111.132599,154.662392 C111.132599,154.662392 101.236197,156.315003 98.1315412,144.586641" id="Fill-40" fill="#F8D372" mask="url(#mask-2)"></path>
                            <path d="M98.1315412,144.586641 C98.1315412,144.586641 86.6307202,154.759383 68.0017914,152.213137 C68.0017914,152.213137 64.6659481,160.398036 53.6265094,160.761517 C53.6265094,160.761517 56.2717677,163.36332 62.3659824,163.281396 C68.4621815,163.199471 80.8808058,161.343462 80.8808058,161.343462 C80.8808058,161.343462 85.2525268,160.070339 84.906242,154.540918 C84.906242,154.540918 86.8628997,160.288804 91.5779287,160.761517 C96.2919655,161.235171 101.137967,160.761517 101.137967,160.761517 L114.712528,159.527002 L111.132599,154.662392 C111.132599,154.662392 101.236197,156.315003 98.1315412,144.586641 Z" id="Stroke-41" stroke="#DCCD75" stroke-width="0.9" mask="url(#mask-2)"></path>
                            <path d="M98.1315412,144.586641 C98.1315412,144.586641 92.3816268,163.454661 84.906242,154.540918" id="Stroke-42" stroke="#DCCD75" stroke-width="0.9" mask="url(#mask-2)"></path>
                            <path d="M179.579798,4.94531012 C179.579798,7.41716477 177.468354,9.42007328 174.864769,9.42007328 C172.261184,9.42007328 170.14974,7.41716477 170.14974,4.94531012 C170.14974,2.47345547 172.261184,0.47054696 174.864769,0.47054696 C177.468354,0.47054696 179.579798,2.47345547 179.579798,4.94531012" id="Fill-43" fill="#FB9F6C" mask="url(#mask-2)"></path>
                            <path d="M179.579798,4.94531012 C179.579798,7.41716477 177.468354,9.42007328 174.864769,9.42007328 C172.261184,9.42007328 170.14974,7.41716477 170.14974,4.94531012 C170.14974,2.47345547 172.261184,0.47054696 174.864769,0.47054696 C177.468354,0.47054696 179.579798,2.47345547 179.579798,4.94531012 Z" id="Stroke-44" stroke="#DCCD75" stroke-width="0.9" mask="url(#mask-2)"></path>
                            <polygon id="Fill-45" fill="#FB9F6C" mask="url(#mask-2)" points="171.529024 10.402506 178.199719 10.402506 178.199719 8.98342604 171.529024 8.98342604"></polygon>
                            <polygon id="Stroke-46" stroke="#DCCD75" stroke-width="0.9" mask="url(#mask-2)" points="171.529024 10.402506 178.199719 10.402506 178.199719 8.98342604 171.529024 8.98342604"></polygon>
                            <polygon id="Fill-47" fill="#FB9F6C" mask="url(#mask-2)" points="172.065815 12.4393143 177.662928 12.4393143 177.662928 10.4015644 172.065815 10.4015644"></polygon>
                            <polygon id="Stroke-48" stroke="#DCCD75" stroke-width="0.9" mask="url(#mask-2)" points="172.065815 12.4393143 177.662928 12.4393143 177.662928 10.4015644 172.065815 10.4015644"></polygon>
                            <polygon id="Fill-49" fill="#DF4212" mask="url(#mask-2)" points="111.819215 164.533237 237.155441 164.533237 237.155441 144.586076 111.819215 144.586076"></polygon>
                            <polygon id="Stroke-50" stroke="#DCCD75" stroke-width="0.9" mask="url(#mask-2)" points="111.819215 164.533237 237.155441 164.533237 237.155441 144.586076 111.819215 144.586076"></polygon>
                            <polygon id="Fill-51" fill="#33486D" mask="url(#mask-2)" points="111.819215 144.587018 237.155441 144.587018 237.155441 135.581934 111.819215 135.581934"></polygon>
                            <polygon id="Stroke-52" stroke="#DCCD75" stroke-width="0.9" mask="url(#mask-2)" points="111.819215 144.587018 237.155441 144.587018 237.155441 135.581934 111.819215 135.581934"></polygon>
                            <polygon id="Fill-53" fill="#FCD779" mask="url(#mask-2)" points="111.130614 148.905466 237.155441 148.905466 237.155441 144.59926 111.130614 144.59926"></polygon>
                            <polygon id="Stroke-54" stroke="#DCCD75" stroke-width="0.9" mask="url(#mask-2)" points="111.130614 148.905466 237.155441 148.905466 237.155441 144.59926 111.130614 144.59926"></polygon>
                            <polygon id="Fill-55" fill="#E44C18" mask="url(#mask-2)" points="111.131606 164.533237 117.200023 164.533237 117.200023 144.598318 111.131606 144.598318"></polygon>
                            <polygon id="Stroke-56" stroke="#DCCD75" stroke-width="0.9" mask="url(#mask-2)" points="111.131606 164.533237 117.200023 164.533237 117.200023 144.598318 111.131606 144.598318"></polygon>
                            <polygon id="Fill-57" fill="#E44C18" mask="url(#mask-2)" points="231.087024 164.533237 237.155441 164.533237 237.155441 144.598318 231.087024 144.598318"></polygon>
                            <polygon id="Stroke-58" stroke="#DCCD75" stroke-width="0.9" mask="url(#mask-2)" points="231.087024 164.533237 237.155441 164.533237 237.155441 144.598318 231.087024 144.598318"></polygon>
                            <polygon id="Fill-59" fill="#E44C18" mask="url(#mask-2)" points="136.613798 164.533237 141.296084 164.533237 141.296084 135.580992 136.613798 135.580992"></polygon>
                            <polygon id="Stroke-60" stroke="#DCCD75" stroke-width="0.9" mask="url(#mask-2)" points="136.613798 164.533237 141.296084 164.533237 141.296084 135.580992 136.613798 135.580992"></polygon>
                            <polygon id="Fill-61" fill="#E44C18" mask="url(#mask-2)" points="104.090814 168.173691 108.774092 168.173691 108.774092 139.221446 104.090814 139.221446"></polygon>
                            <polygon id="Stroke-62" stroke="#DCCD75" stroke-width="0.9" mask="url(#mask-2)" points="104.090814 168.173691 108.774092 168.173691 108.774092 139.221446 104.090814 139.221446"></polygon>
                            <polygon id="Fill-63" fill="#E44C18" mask="url(#mask-2)" points="243.013508 168.173691 247.695794 168.173691 247.695794 139.221446 243.013508 139.221446"></polygon>
                            <polygon id="Stroke-64" stroke="#DCCD75" stroke-width="0.9" mask="url(#mask-2)" points="243.013508 168.173691 247.695794 168.173691 247.695794 139.221446 243.013508 139.221446"></polygon>
                            <polygon id="Fill-65" fill="#E44C18" mask="url(#mask-2)" points="160.187951 164.533237 164.870237 164.533237 164.870237 135.580992 160.187951 135.580992"></polygon>
                            <polygon id="Stroke-66" stroke="#DCCD75" stroke-width="0.9" mask="url(#mask-2)" points="160.187951 164.533237 164.870237 164.533237 164.870237 135.580992 160.187951 135.580992"></polygon>
                            <polygon id="Fill-67" fill="#E44C18" mask="url(#mask-2)" points="184.975589 164.533237 189.658867 164.533237 189.658867 135.580992 184.975589 135.580992"></polygon>
                            <polygon id="Stroke-68" stroke="#DCCD75" stroke-width="0.9" mask="url(#mask-2)" points="184.975589 164.533237 189.658867 164.533237 189.658867 135.580992 184.975589 135.580992"></polygon>
                            <polygon id="Fill-69" fill="#E44C18" mask="url(#mask-2)" points="208.551726 164.533237 213.235004 164.533237 213.235004 135.580992 208.551726 135.580992"></polygon>
                            <polygon id="Stroke-70" stroke="#DCCD75" stroke-width="0.9" mask="url(#mask-2)" points="208.551726 164.533237 213.235004 164.533237 213.235004 135.580992 208.551726 135.580992"></polygon>
                            <polygon id="Fill-71" fill="#FFEDB6" mask="url(#mask-2)" points="121.186763 158.116773 126.041695 158.116773 126.041695 151.207822 121.186763 151.207822"></polygon>
                            <polygon id="Stroke-72" stroke="#DCCD75" stroke-width="0.9" mask="url(#mask-2)" points="121.186763 158.116773 126.041695 158.116773 126.041695 151.207822 121.186763 151.207822"></polygon>
                            <polygon id="Fill-73" fill="#FFEDB6" mask="url(#mask-2)" points="128.120396 158.116773 132.974335 158.116773 132.974335 151.207822 128.120396 151.207822"></polygon>
                            <polygon id="Stroke-74" stroke="#DCCD75" stroke-width="0.9" mask="url(#mask-2)" points="128.120396 158.116773 132.974335 158.116773 132.974335 151.207822 128.120396 151.207822"></polygon>
                            <polygon id="Fill-75" fill="#FFEDB6" mask="url(#mask-2)" points="144.847239 158.116773 149.701179 158.116773 149.701179 151.207822 144.847239 151.207822"></polygon>
                            <polygon id="Stroke-76" stroke="#DCCD75" stroke-width="0.9" mask="url(#mask-2)" points="144.847239 158.116773 149.701179 158.116773 149.701179 151.207822 144.847239 151.207822"></polygon>
                            <polygon id="Fill-77" fill="#FFEDB6" mask="url(#mask-2)" points="151.780872 158.116773 156.635804 158.116773 156.635804 151.207822 151.780872 151.207822"></polygon>
                            <polygon id="Stroke-78" stroke="#DCCD75" stroke-width="0.9" mask="url(#mask-2)" points="151.780872 158.116773 156.635804 158.116773 156.635804 151.207822 151.780872 151.207822"></polygon>
                            <polygon id="Fill-79" fill="#FFEDB6" mask="url(#mask-2)" points="168.249738 158.116773 173.103677 158.116773 173.103677 151.207822 168.249738 151.207822"></polygon>
                            <polygon id="Stroke-80" stroke="#DCCD75" stroke-width="0.9" mask="url(#mask-2)" points="168.249738 158.116773 173.103677 158.116773 173.103677 151.207822 168.249738 151.207822"></polygon>
                            <polygon id="Fill-81" fill="#FFEDB6" mask="url(#mask-2)" points="175.184363 158.116773 180.038302 158.116773 180.038302 151.207822 175.184363 151.207822"></polygon>
                            <polygon id="Stroke-82" stroke="#DCCD75" stroke-width="0.9" mask="url(#mask-2)" points="175.184363 158.116773 180.038302 158.116773 180.038302 151.207822 175.184363 151.207822"></polygon>
                            <polygon id="Fill-83" fill="#FFEDB6" mask="url(#mask-2)" points="193.211014 158.116773 198.065946 158.116773 198.065946 151.207822 193.211014 151.207822"></polygon>
                            <polygon id="Stroke-84" stroke="#DCCD75" stroke-width="0.9" mask="url(#mask-2)" points="193.211014 158.116773 198.065946 158.116773 198.065946 151.207822 193.211014 151.207822"></polygon>
                            <polygon id="Fill-85" fill="#FFEDB6" mask="url(#mask-2)" points="200.144647 158.116773 204.999579 158.116773 204.999579 151.207822 200.144647 151.207822"></polygon>
                            <polygon id="Stroke-86" stroke="#DCCD75" stroke-width="0.9" mask="url(#mask-2)" points="200.144647 158.116773 204.999579 158.116773 204.999579 151.207822 200.144647 151.207822"></polygon>
                            <polygon id="Fill-87" fill="#FFEDB6" mask="url(#mask-2)" points="217.132444 158.116773 221.987376 158.116773 221.987376 151.207822 217.132444 151.207822"></polygon>
                            <polygon id="Stroke-88" stroke="#DCCD75" stroke-width="0.9" mask="url(#mask-2)" points="217.132444 158.116773 221.987376 158.116773 221.987376 151.207822 217.132444 151.207822"></polygon>
                            <polygon id="Fill-89" fill="#FFEDB6" mask="url(#mask-2)" points="224.066076 158.116773 228.920016 158.116773 228.920016 151.207822 224.066076 151.207822"></polygon>
                            <polygon id="Stroke-90" stroke="#DCCD75" stroke-width="0.9" mask="url(#mask-2)" points="224.066076 158.116773 228.920016 158.116773 228.920016 151.207822 224.066076 151.207822"></polygon>
                            <path d="M259.258727,137.372969 C251.857759,143.99754 236.251132,151.647577 209.93746,136.730758 C209.93746,136.730758 183.415422,149.398895 137.305971,137.060338 C137.305971,137.060338 109.272782,153.826575 90.3253503,137.372969 C90.3253503,137.372969 156.83782,129.714457 173.42476,85.6768363 L175.445912,85.6768363 C175.445912,85.6768363 174.231435,98.2319746 202.143573,117.810947 C230.002131,137.355078 259.157521,137.372969 259.258727,137.372969" id="Fill-91" fill="#F9B766" mask="url(#mask-2)"></path>
                            <path d="M259.258727,137.372969 C251.857759,143.99754 236.251132,151.647577 209.93746,136.730758 C209.93746,136.730758 183.415422,149.398895 137.305971,137.060338 C137.305971,137.060338 109.272782,153.826575 90.3253503,137.372969 C90.3253503,137.372969 156.83782,129.714457 173.42476,85.6768363 L175.445912,85.6768363 C175.445912,85.6768363 174.231435,98.2319746 202.143573,117.810947 C230.002131,137.355078 259.157521,137.372969 259.258727,137.372969 Z" id="Stroke-92" stroke="#DCCD75" stroke-width="0.9" mask="url(#mask-2)"></path>
                            <path d="M173.424958,85.6764597 C156.838018,129.715022 90.3255487,137.372592 90.3255487,137.372592 L90.3166187,137.372592 C88.6238916,135.905488 86.9966509,134.169069 85.47657,132.128494 C85.47657,132.128494 138.348,135.905488 173.424958,85.6764597" id="Fill-93" fill="#3FAE94" mask="url(#mask-2)"></path>
                            <path d="M173.424958,85.6764597 C156.838018,129.715022 90.3255487,137.372592 90.3255487,137.372592 L90.3166187,137.372592 C88.6238916,135.905488 86.9966509,134.169069 85.47657,132.128494 C85.47657,132.128494 138.348,135.905488 173.424958,85.6764597 Z" id="Stroke-94" stroke="#DCCD75" stroke-width="0.9" mask="url(#mask-2)"></path>
                            <path d="M174.403585,85.6764597 C174.403585,85.6764597 158.566763,127.967303 139.908067,128.834571 L135.178155,123.820237 L132.974435,124.880545 L136.61489,135.579674 C136.61489,135.579674 166.316,136.731323 174.403585,85.6764597" id="Fill-95" fill="#40B69B" mask="url(#mask-2)"></path>
                            <path d="M174.403585,85.6764597 C174.403585,85.6764597 158.566763,127.967303 139.908067,128.834571 L135.178155,123.820237 L132.974435,124.880545 L136.61489,135.579674 C136.61489,135.579674 166.316,136.731323 174.403585,85.6764597 Z" id="Stroke-96" stroke="#DCCD75" stroke-width="0.9" mask="url(#mask-2)"></path>
                            <path d="M139.908464,128.833629 C139.908464,128.833629 161.576563,131.796088 174.404974,85.675518" id="Stroke-97" stroke="#DCCD75" stroke-width="0.9" mask="url(#mask-2)"></path>
                            <path d="M174.403585,85.6764597 C174.403585,85.6764597 190.241399,127.967303 208.901087,128.834571 L213.630007,123.820237 L215.833727,124.880545 L212.193272,135.579674 C212.193272,135.579674 182.493154,136.731323 174.403585,85.6764597" id="Fill-98" fill="#40B69B" mask="url(#mask-2)"></path>
                            <path d="M174.403585,85.6764597 C174.403585,85.6764597 190.241399,127.967303 208.901087,128.834571 L213.630007,123.820237 L215.833727,124.880545 L212.193272,135.579674 C212.193272,135.579674 182.493154,136.731323 174.403585,85.6764597 Z" id="Stroke-99" stroke="#DCCD75" stroke-width="0.9" mask="url(#mask-2)"></path>
                            <path d="M208.899697,128.833629 C208.899697,128.833629 187.231599,131.796088 174.403188,85.675518" id="Stroke-100" stroke="#DCCD75" stroke-width="0.9" mask="url(#mask-2)"></path>
                            <path d="M264.537635,131.147379 C264.429483,131.347011 262.763546,134.247321 259.260017,137.372687 C259.157819,137.372687 230.000444,137.355737 202.142878,117.810664 C174.229748,98.2316921 175.446209,85.6765538 175.446209,85.6765538 L176.141756,85.6765538 C176.141756,85.6765538 179.087657,99.2213757 214.10012,119.946347 C247.401997,140.368104 264.04351,131.416694 264.537635,131.147379" id="Fill-101" fill="#40B69B" mask="url(#mask-2)"></path>
                            <path d="M264.537635,131.147379 C264.429483,131.347011 262.763546,134.247321 259.260017,137.372687 C259.157819,137.372687 230.000444,137.355737 202.142878,117.810664 C174.229748,98.2316921 175.446209,85.6765538 175.446209,85.6765538 L176.141756,85.6765538 C176.141756,85.6765538 179.087657,99.2213757 214.10012,119.946347 C247.401997,140.368104 264.04351,131.416694 264.537635,131.147379 Z" id="Stroke-102" stroke="#DCCD75" stroke-width="0.9" mask="url(#mask-2)"></path>
                            <polygon id="Fill-103" fill="#DF4212" mask="url(#mask-2)" points="119.448394 126.925263 229.652274 126.925263 229.652274 109.386866 119.448394 109.386866"></polygon>
                            <polygon id="Stroke-104" stroke="#DCCD75" stroke-width="0.9" mask="url(#mask-2)" points="119.448394 126.925263 229.652274 126.925263 229.652274 109.386866 119.448394 109.386866"></polygon>
                            <polygon id="Fill-105" fill="#33486D" mask="url(#mask-2)" points="119.448394 109.387808 229.652274 109.387808 229.652274 101.469398 119.448394 101.469398"></polygon>
                            <polygon id="Stroke-106" stroke="#DCCD75" stroke-width="0.9" mask="url(#mask-2)" points="119.448394 109.387808 229.652274 109.387808 229.652274 101.469398 119.448394 101.469398"></polygon>
                            <polygon id="Fill-107" fill="#FCD779" mask="url(#mask-2)" points="118.84314 113.183635 229.652274 113.183635 229.652274 109.397224 118.84314 109.397224"></polygon>
                            <polygon id="Stroke-108" stroke="#DCCD75" stroke-width="0.9" mask="url(#mask-2)" points="118.84314 113.183635 229.652274 113.183635 229.652274 109.397224 118.84314 109.397224"></polygon>
                            <polygon id="Fill-109" fill="#E44C18" mask="url(#mask-2)" points="118.844132 126.925263 124.18029 126.925263 124.18029 109.397224 118.844132 109.397224"></polygon>
                            <polygon id="Stroke-110" stroke="#DCCD75" stroke-width="0.9" mask="url(#mask-2)" points="118.844132 126.925263 124.18029 126.925263 124.18029 109.397224 118.844132 109.397224"></polygon>
                            <polygon id="Fill-111" fill="#E44C18" mask="url(#mask-2)" points="224.315124 126.925263 229.652274 126.925263 229.652274 109.397224 224.315124 109.397224"></polygon>
                            <polygon id="Stroke-112" stroke="#DCCD75" stroke-width="0.9" mask="url(#mask-2)" points="224.315124 126.925263 229.652274 126.925263 229.652274 109.397224 224.315124 109.397224"></polygon>
                            <polygon id="Fill-113" fill="#E44C18" mask="url(#mask-2)" points="141.24945 126.925263 145.365178 126.925263 145.365178 101.468456 141.24945 101.468456"></polygon>
                            <polygon id="Stroke-114" stroke="#DCCD75" stroke-width="0.9" mask="url(#mask-2)" points="141.24945 126.925263 145.365178 126.925263 145.365178 101.468456 141.24945 101.468456"></polygon>
                            <polygon id="Fill-115" fill="#E44C18" mask="url(#mask-2)" points="112.654664 130.127845 116.771384 130.127845 116.771384 104.671038 112.654664 104.671038"></polygon>
                            <polygon id="Stroke-116" stroke="#DCCD75" stroke-width="0.9" mask="url(#mask-2)" points="112.654664 130.127845 116.771384 130.127845 116.771384 104.671038 112.654664 104.671038"></polygon>
                            <polygon id="Fill-117" fill="#E44C18" mask="url(#mask-2)" points="234.80388 130.127845 238.920601 130.127845 238.920601 104.671038 234.80388 104.671038"></polygon>
                            <polygon id="Stroke-118" stroke="#DCCD75" stroke-width="0.9" mask="url(#mask-2)" points="234.80388 130.127845 238.920601 130.127845 238.920601 104.671038 234.80388 104.671038"></polygon>
                            <polygon id="Fill-119" fill="#E44C18" mask="url(#mask-2)" points="161.978908 126.925263 166.093644 126.925263 166.093644 101.468456 161.978908 101.468456"></polygon>
                            <polygon id="Stroke-120" stroke="#DCCD75" stroke-width="0.9" mask="url(#mask-2)" points="161.978908 126.925263 166.093644 126.925263 166.093644 101.468456 161.978908 101.468456"></polygon>
                            <polygon id="Fill-121" fill="#E44C18" mask="url(#mask-2)" points="183.77401 126.925263 187.890731 126.925263 187.890731 101.468456 183.77401 101.468456"></polygon>
                            <polygon id="Stroke-122" stroke="#DCCD75" stroke-width="0.9" mask="url(#mask-2)" points="183.77401 126.925263 187.890731 126.925263 187.890731 101.468456 183.77401 101.468456"></polygon>
                            <polygon id="Fill-123" fill="#E44C18" mask="url(#mask-2)" points="204.503469 126.925263 208.618205 126.925263 208.618205 101.468456 204.503469 101.468456"></polygon>
                            <polygon id="Stroke-124" stroke="#DCCD75" stroke-width="0.9" mask="url(#mask-2)" points="204.503469 126.925263 208.618205 126.925263 208.618205 101.468456 204.503469 101.468456"></polygon>
                            <polygon id="Fill-125" fill="#FFEDB6" mask="url(#mask-2)" points="127.685803 121.284727 131.954333 121.284727 131.954333 115.209143 127.685803 115.209143"></polygon>
                            <polygon id="Stroke-126" stroke="#DCCD75" stroke-width="0.9" mask="url(#mask-2)" points="127.685803 121.284727 131.954333 121.284727 131.954333 115.209143 127.685803 115.209143"></polygon>
                            <polygon id="Fill-127" fill="#FFEDB6" mask="url(#mask-2)" points="133.78101 121.284727 138.048548 121.284727 138.048548 115.209143 133.78101 115.209143"></polygon>
                            <polygon id="Stroke-128" stroke="#DCCD75" stroke-width="0.9" mask="url(#mask-2)" points="133.78101 121.284727 138.048548 121.284727 138.048548 115.209143 133.78101 115.209143"></polygon>
                            <polygon id="Fill-129" fill="#FFEDB6" mask="url(#mask-2)" points="148.489678 121.284727 152.757216 121.284727 152.757216 115.209143 148.489678 115.209143"></polygon>
                            <polygon id="Stroke-130" stroke="#DCCD75" stroke-width="0.9" mask="url(#mask-2)" points="148.489678 121.284727 152.757216 121.284727 152.757216 115.209143 148.489678 115.209143"></polygon>
                            <polygon id="Fill-131" fill="#FFEDB6" mask="url(#mask-2)" points="154.584885 121.284727 158.853415 121.284727 158.853415 115.209143 154.584885 115.209143"></polygon>
                            <polygon id="Stroke-132" stroke="#DCCD75" stroke-width="0.9" mask="url(#mask-2)" points="154.584885 121.284727 158.853415 121.284727 158.853415 115.209143 154.584885 115.209143"></polygon>
                            <polygon id="Fill-133" fill="#FFEDB6" mask="url(#mask-2)" points="169.065342 121.284727 173.333872 121.284727 173.333872 115.209143 169.065342 115.209143"></polygon>
                            <polygon id="Stroke-134" stroke="#DCCD75" stroke-width="0.9" mask="url(#mask-2)" points="169.065342 121.284727 173.333872 121.284727 173.333872 115.209143 169.065342 115.209143"></polygon>
                            <polygon id="Fill-135" fill="#FFEDB6" mask="url(#mask-2)" points="175.162534 121.284727 179.430072 121.284727 179.430072 115.209143 175.162534 115.209143"></polygon>
                            <polygon id="Stroke-136" stroke="#DCCD75" stroke-width="0.9" mask="url(#mask-2)" points="175.162534 121.284727 179.430072 121.284727 179.430072 115.209143 175.162534 115.209143"></polygon>
                            <polygon id="Fill-137" fill="#FFEDB6" mask="url(#mask-2)" points="191.013247 121.284727 195.280785 121.284727 195.280785 115.209143 191.013247 115.209143"></polygon>
                            <polygon id="Stroke-138" stroke="#DCCD75" stroke-width="0.9" mask="url(#mask-2)" points="191.013247 121.284727 195.280785 121.284727 195.280785 115.209143 191.013247 115.209143"></polygon>
                            <polygon id="Fill-139" fill="#FFEDB6" mask="url(#mask-2)" points="197.110438 121.284727 201.377976 121.284727 201.377976 115.209143 197.110438 115.209143"></polygon>
                            <polygon id="Stroke-140" stroke="#DCCD75" stroke-width="0.9" mask="url(#mask-2)" points="197.110438 121.284727 201.377976 121.284727 201.377976 115.209143 197.110438 115.209143"></polygon>
                            <polygon id="Fill-141" fill="#FFEDB6" mask="url(#mask-2)" points="212.046324 121.284727 216.313862 121.284727 216.313862 115.209143 212.046324 115.209143"></polygon>
                            <polygon id="Stroke-142" stroke="#DCCD75" stroke-width="0.9" mask="url(#mask-2)" points="212.046324 121.284727 216.313862 121.284727 216.313862 115.209143 212.046324 115.209143"></polygon>
                            <polygon id="Fill-143" fill="#FFEDB6" mask="url(#mask-2)" points="218.144508 121.284727 222.412046 121.284727 222.412046 115.209143 218.144508 115.209143"></polygon>
                            <polygon id="Stroke-144" stroke="#DCCD75" stroke-width="0.9" mask="url(#mask-2)" points="218.144508 121.284727 222.412046 121.284727 222.412046 115.209143 218.144508 115.209143"></polygon>
                            <path d="M249.086588,103.043758 C242.578618,108.869801 228.855224,115.595129 205.720625,102.478762 C205.720625,102.478762 182.40048,113.617645 141.858375,102.768793 C141.858375,102.768793 117.209648,117.510463 100.551268,103.043758 C100.551268,103.043758 159.031717,96.3108963 173.615365,57.5889401 L175.393423,57.5889401 C175.393423,57.5889401 174.322818,68.6289492 198.867362,85.8434158 C223.361303,103.028691 248.997288,103.043758 249.086588,103.043758" id="Fill-145" fill="#F9B766" mask="url(#mask-2)"></path>
                            <path d="M249.086588,103.043758 C242.578618,108.869801 228.855224,115.595129 205.720625,102.478762 C205.720625,102.478762 182.40048,113.617645 141.858375,102.768793 C141.858375,102.768793 117.209648,117.510463 100.551268,103.043758 C100.551268,103.043758 159.031717,96.3108963 173.615365,57.5889401 L175.393423,57.5889401 C175.393423,57.5889401 174.322818,68.6289492 198.867362,85.8434158 C223.361303,103.028691 248.997288,103.043758 249.086588,103.043758 Z" id="Stroke-146" stroke="#DCCD75" stroke-width="0.9" mask="url(#mask-2)"></path>
                            <path d="M173.615861,57.5894109 C159.032213,96.3104255 100.54978,103.044228 100.54978,103.044228 L100.542834,103.044228 C99.0545041,101.753214 97.6227308,100.226785 96.2862106,98.4329246 C96.2862106,98.4329246 142.77469,101.753214 173.615861,57.5894109" id="Fill-147" fill="#3FAE94" mask="url(#mask-2)"></path>
                            <path d="M173.615861,57.5894109 C159.032213,96.3104255 100.54978,103.044228 100.54978,103.044228 L100.542834,103.044228 C99.0545041,101.753214 97.6227308,100.226785 96.2862106,98.4329246 C96.2862106,98.4329246 142.77469,101.753214 173.615861,57.5894109 Z" id="Stroke-148" stroke="#DCCD75" stroke-width="0.9" mask="url(#mask-2)"></path>
                            <path d="M174.477207,57.5894109 C174.477207,57.5894109 160.553386,94.7736381 144.147029,95.5363818 L139.986651,91.1275348 L138.048846,92.0597771 L141.251732,101.46695 C141.251732,101.46695 167.363983,102.479233 174.477207,57.5894109" id="Fill-149" fill="#40B69B" mask="url(#mask-2)"></path>
                            <path d="M174.477207,57.5894109 C174.477207,57.5894109 160.553386,94.7736381 144.147029,95.5363818 L139.986651,91.1275348 L138.048846,92.0597771 L141.251732,101.46695 C141.251732,101.46695 167.363983,102.479233 174.477207,57.5894109 Z" id="Stroke-150" stroke="#DCCD75" stroke-width="0.9" mask="url(#mask-2)"></path>
                            <path d="M144.145739,95.5367585 C144.145739,95.5367585 163.198346,98.1404454 174.47691,57.5897876" id="Stroke-151" stroke="#DCCD75" stroke-width="0.9" mask="url(#mask-2)"></path>
                            <path d="M174.477207,57.5894109 C174.477207,57.5894109 188.402022,94.7736381 204.807386,95.5363818 L208.968756,91.1275348 L210.904577,92.0597771 L207.703676,101.46695 C207.703676,101.46695 181.58944,102.479233 174.477207,57.5894109" id="Fill-152" fill="#40B69B" mask="url(#mask-2)"></path>
                            <path d="M174.477207,57.5894109 C174.477207,57.5894109 188.402022,94.7736381 204.807386,95.5363818 L208.968756,91.1275348 L210.904577,92.0597771 L207.703676,101.46695 C207.703676,101.46695 181.58944,102.479233 174.477207,57.5894109 Z" id="Stroke-153" stroke="#DCCD75" stroke-width="0.9" mask="url(#mask-2)"></path>
                            <path d="M204.807783,95.5367585 C204.807783,95.5367585 185.756168,98.1404454 174.478597,57.5897876" id="Stroke-154" stroke="#DCCD75" stroke-width="0.9" mask="url(#mask-2)"></path>
                            <path d="M253.727895,97.5703651 C253.630658,97.7464553 252.167133,100.296468 249.086291,103.044228 C248.996991,103.044228 223.361997,103.029162 198.866072,85.8438866 C174.324505,68.62942 175.39511,57.5894109 175.39511,57.5894109 L176.005325,57.5894109 C176.005325,57.5894109 178.595019,69.4995128 209.381619,87.7224962 C238.661036,105.678048 253.294295,97.8067215 253.727895,97.5703651" id="Fill-155" fill="#40B69B" mask="url(#mask-2)"></path>
                            <path d="M253.727895,97.5703651 C253.630658,97.7464553 252.167133,100.296468 249.086291,103.044228 C248.996991,103.044228 223.361997,103.029162 198.866072,85.8438866 C174.324505,68.62942 175.39511,57.5894109 175.39511,57.5894109 L176.005325,57.5894109 C176.005325,57.5894109 178.595019,69.4995128 209.381619,87.7224962 C238.661036,105.678048 253.294295,97.8067215 253.727895,97.5703651 Z" id="Stroke-156" stroke="#DCCD75" stroke-width="0.9" mask="url(#mask-2)"></path>
                            <polygon id="Fill-157" fill="#DF4212" mask="url(#mask-2)" points="127.023 93.8589106 222.201695 93.8589106 222.201695 78.7113853 127.023 78.7113853"></polygon>
                            <polygon id="Stroke-158" stroke="#DCCD75" stroke-width="0.9" mask="url(#mask-2)" points="127.023 93.8589106 222.201695 93.8589106 222.201695 78.7113853 127.023 78.7113853"></polygon>
                            <polygon id="Fill-159" fill="#33486D" mask="url(#mask-2)" points="127.023 78.7104437 222.201695 78.7104437 222.201695 71.8721166 127.023 71.8721166"></polygon>
                            <polygon id="Stroke-160" stroke="#DCCD75" stroke-width="0.9" mask="url(#mask-2)" points="127.023 78.7104437 222.201695 78.7104437 222.201695 71.8721166 127.023 71.8721166"></polygon>
                            <polygon id="Fill-161" fill="#FCD779" mask="url(#mask-2)" points="126.502085 81.9902417 222.201695 81.9902417 222.201695 78.7208019 126.502085 78.7208019"></polygon>
                            <polygon id="Stroke-162" stroke="#DCCD75" stroke-width="0.9" mask="url(#mask-2)" points="126.502085 81.9902417 222.201695 81.9902417 222.201695 78.7208019 126.502085 78.7208019"></polygon>
                            <polygon id="Fill-163" fill="#E44C18" mask="url(#mask-2)" points="126.500101 93.8589106 131.109954 93.8589106 131.109954 78.7208019 126.500101 78.7208019"></polygon>
                            <polygon id="Stroke-164" stroke="#DCCD75" stroke-width="0.9" mask="url(#mask-2)" points="126.500101 93.8589106 131.109954 93.8589106 131.109954 78.7208019 126.500101 78.7208019"></polygon>
                            <polygon id="Fill-165" fill="#E44C18" mask="url(#mask-2)" points="217.591842 93.8589106 222.201695 93.8589106 222.201695 78.7208019 217.591842 78.7208019"></polygon>
                            <polygon id="Stroke-166" stroke="#DCCD75" stroke-width="0.9" mask="url(#mask-2)" points="217.591842 93.8589106 222.201695 93.8589106 222.201695 78.7208019 217.591842 78.7208019"></polygon>
                            <polygon id="Fill-167" fill="#E44C18" mask="url(#mask-2)" points="145.851365 93.8589106 149.407482 93.8589106 149.407482 71.8730583 145.851365 71.8730583"></polygon>
                            <polygon id="Stroke-168" stroke="#DCCD75" stroke-width="0.9" mask="url(#mask-2)" points="145.851365 93.8589106 149.407482 93.8589106 149.407482 71.8730583 145.851365 71.8730583"></polygon>
                            <polygon id="Fill-169" fill="#E44C18" mask="url(#mask-2)" points="121.156004 96.6236212 124.71212 96.6236212 124.71212 74.6377689 121.156004 74.6377689"></polygon>
                            <polygon id="Stroke-170" stroke="#DCCD75" stroke-width="0.9" mask="url(#mask-2)" points="121.156004 96.6236212 124.71212 96.6236212 124.71212 74.6377689 121.156004 74.6377689"></polygon>
                            <polygon id="Fill-171" fill="#E44C18" mask="url(#mask-2)" points="226.649817 96.6236212 230.204941 96.6236212 230.204941 74.6377689 226.649817 74.6377689"></polygon>
                            <polygon id="Stroke-172" stroke="#DCCD75" stroke-width="0.9" mask="url(#mask-2)" points="226.649817 96.6236212 230.204941 96.6236212 230.204941 74.6377689 226.649817 74.6377689"></polygon>
                            <polygon id="Fill-173" fill="#E44C18" mask="url(#mask-2)" points="163.753989 93.8589106 167.310105 93.8589106 167.310105 71.8730583 163.753989 71.8730583"></polygon>
                            <polygon id="Stroke-174" stroke="#DCCD75" stroke-width="0.9" mask="url(#mask-2)" points="163.753989 93.8589106 167.310105 93.8589106 167.310105 71.8730583 163.753989 71.8730583"></polygon>
                            <polygon id="Fill-175" fill="#E44C18" mask="url(#mask-2)" points="182.577393 93.8589106 186.132517 93.8589106 186.132517 71.8730583 182.577393 71.8730583"></polygon>
                            <polygon id="Stroke-176" stroke="#DCCD75" stroke-width="0.9" mask="url(#mask-2)" points="182.577393 93.8589106 186.132517 93.8589106 186.132517 71.8730583 182.577393 71.8730583"></polygon>
                            <polygon id="Fill-177" fill="#E44C18" mask="url(#mask-2)" points="200.479025 93.8589106 204.035141 93.8589106 204.035141 71.8730583 200.479025 71.8730583"></polygon>
                            <polygon id="Stroke-178" stroke="#DCCD75" stroke-width="0.9" mask="url(#mask-2)" points="200.479025 93.8589106 204.035141 93.8589106 204.035141 71.8730583 200.479025 71.8730583"></polygon>
                            <polygon id="Fill-179" fill="#FFEDB6" mask="url(#mask-2)" points="134.138209 88.9858258 137.824306 88.9858258 137.824306 83.7389023 134.138209 83.7389023"></polygon>
                            <polygon id="Stroke-180" stroke="#DCCD75" stroke-width="0.9" mask="url(#mask-2)" points="134.138209 88.9858258 137.824306 88.9858258 137.824306 83.7389023 134.138209 83.7389023"></polygon>
                            <polygon id="Fill-181" fill="#FFEDB6" mask="url(#mask-2)" points="139.402928 88.9858258 143.089025 88.9858258 143.089025 83.7389023 139.402928 83.7389023"></polygon>
                            <polygon id="Stroke-182" stroke="#DCCD75" stroke-width="0.9" mask="url(#mask-2)" points="139.402928 88.9858258 143.089025 88.9858258 143.089025 83.7389023 139.402928 83.7389023"></polygon>
                            <polygon id="Fill-183" fill="#FFEDB6" mask="url(#mask-2)" points="152.104335 88.9858258 155.790432 88.9858258 155.790432 83.7389023 152.104335 83.7389023"></polygon>
                            <polygon id="Stroke-184" stroke="#DCCD75" stroke-width="0.9" mask="url(#mask-2)" points="152.104335 88.9858258 155.790432 88.9858258 155.790432 83.7389023 152.104335 83.7389023"></polygon>
                            <polygon id="Fill-185" fill="#FFEDB6" mask="url(#mask-2)" points="157.371039 88.9858258 161.057136 88.9858258 161.057136 83.7389023 157.371039 83.7389023"></polygon>
                            <polygon id="Stroke-186" stroke="#DCCD75" stroke-width="0.9" mask="url(#mask-2)" points="157.371039 88.9858258 161.057136 88.9858258 161.057136 83.7389023 157.371039 83.7389023"></polygon>
                            <polygon id="Fill-187" fill="#FFEDB6" mask="url(#mask-2)" points="169.874994 88.9858258 173.561091 88.9858258 173.561091 83.7389023 169.874994 83.7389023"></polygon>
                            <polygon id="Stroke-188" stroke="#DCCD75" stroke-width="0.9" mask="url(#mask-2)" points="169.874994 88.9858258 173.561091 88.9858258 173.561091 83.7389023 169.874994 83.7389023"></polygon>
                            <polygon id="Fill-189" fill="#FFEDB6" mask="url(#mask-2)" points="175.140705 88.9858258 178.827794 88.9858258 178.827794 83.7389023 175.140705 83.7389023"></polygon>
                            <polygon id="Stroke-190" stroke="#DCCD75" stroke-width="0.9" mask="url(#mask-2)" points="175.140705 88.9858258 178.827794 88.9858258 178.827794 83.7389023 175.140705 83.7389023"></polygon>
                            <polygon id="Fill-191" fill="#FFEDB6" mask="url(#mask-2)" points="188.831355 88.9858258 192.517452 88.9858258 192.517452 83.7389023 188.831355 83.7389023"></polygon>
                            <polygon id="Stroke-192" stroke="#DCCD75" stroke-width="0.9" mask="url(#mask-2)" points="188.831355 88.9858258 192.517452 88.9858258 192.517452 83.7389023 188.831355 83.7389023"></polygon>
                            <polygon id="Fill-193" fill="#FFEDB6" mask="url(#mask-2)" points="194.096074 88.9858258 197.782171 88.9858258 197.782171 83.7389023 194.096074 83.7389023"></polygon>
                            <polygon id="Stroke-194" stroke="#DCCD75" stroke-width="0.9" mask="url(#mask-2)" points="194.096074 88.9858258 197.782171 88.9858258 197.782171 83.7389023 194.096074 83.7389023"></polygon>
                            <polygon id="Fill-195" fill="#FFEDB6" mask="url(#mask-2)" points="206.996917 88.9858258 210.683014 88.9858258 210.683014 83.7389023 206.996917 83.7389023"></polygon>
                            <polygon id="Stroke-196" stroke="#DCCD75" stroke-width="0.9" mask="url(#mask-2)" points="206.996917 88.9858258 210.683014 88.9858258 210.683014 83.7389023 206.996917 83.7389023"></polygon>
                            <polygon id="Fill-197" fill="#FFEDB6" mask="url(#mask-2)" points="212.261636 88.9858258 215.947733 88.9858258 215.947733 83.7389023 212.261636 83.7389023"></polygon>
                            <polygon id="Stroke-198" stroke="#DCCD75" stroke-width="0.9" mask="url(#mask-2)" points="212.261636 88.9858258 215.947733 88.9858258 215.947733 83.7389023 212.261636 83.7389023"></polygon>
                            <path d="M238.986087,73.2334729 C233.365161,78.2638149 221.514087,84.0729087 201.532762,72.7456936 C201.532762,72.7456936 181.39169,82.3647394 146.377242,72.9961749 C146.377242,72.9961749 125.090156,85.7283451 110.702967,73.2334729 C110.702967,73.2334729 161.209937,67.4177875 173.807161,33.9766545 L175.340141,33.9766545 C175.340141,33.9766545 174.417377,43.510951 195.613178,58.3788036 C216.767307,73.2202897 238.909686,73.2334729 238.986087,73.2334729" id="Fill-199" fill="#F9B766" mask="url(#mask-2)"></path>
                            <path d="M238.986087,73.2334729 C233.365161,78.2638149 221.514087,84.0729087 201.532762,72.7456936 C201.532762,72.7456936 181.39169,82.3647394 146.377242,72.9961749 C146.377242,72.9961749 125.090156,85.7283451 110.702967,73.2334729 C110.702967,73.2334729 161.209937,67.4177875 173.807161,33.9766545 L175.340141,33.9766545 C175.340141,33.9766545 174.417377,43.510951 195.613178,58.3788036 C216.767307,73.2202897 238.909686,73.2334729 238.986087,73.2334729 Z" id="Stroke-200" stroke="#DCCD75" stroke-width="0.9" mask="url(#mask-2)"></path>
                            <path d="M173.805772,33.9766545 C161.211525,67.4177875 110.702571,73.2334729 110.702571,73.2334729 L110.696617,73.2334729 C109.411692,72.1185488 108.174394,70.8002263 107.020442,69.2502557 C107.020442,69.2502557 147.168637,72.1185488 173.805772,33.9766545" id="Fill-201" fill="#3FAE94" mask="url(#mask-2)"></path>
                            <path d="M173.805772,33.9766545 C161.211525,67.4177875 110.702571,73.2334729 110.702571,73.2334729 L110.696617,73.2334729 C109.411692,72.1185488 108.174394,70.8002263 107.020442,69.2502557 C107.020442,69.2502557 147.168637,72.1185488 173.805772,33.9766545 Z" id="Stroke-202" stroke="#DCCD75" stroke-width="0.9" mask="url(#mask-2)"></path>
                            <path d="M174.548945,33.9766545 C174.548945,33.9766545 162.52324,66.0909901 148.355332,66.7492097 L144.761511,62.941141 L143.088628,63.747201 L145.852953,71.8708925 C145.852953,71.8708925 168.408096,72.7456936 174.548945,33.9766545" id="Fill-203" fill="#40B69B" mask="url(#mask-2)"></path>
                            <path d="M174.548945,33.9766545 C174.548945,33.9766545 162.52324,66.0909901 148.355332,66.7492097 L144.761511,62.941141 L143.088628,63.747201 L145.852953,71.8708925 C145.852953,71.8708925 168.408096,72.7456936 174.548945,33.9766545 Z" id="Stroke-204" stroke="#DCCD75" stroke-width="0.9" mask="url(#mask-2)"></path>
                            <path d="M148.353943,66.7494921 C148.353943,66.7494921 164.807925,68.9981736 174.548548,33.976937" id="Stroke-205" stroke="#DCCD75" stroke-width="0.9" mask="url(#mask-2)"></path>
                            <path d="M174.548945,33.9766545 C174.548945,33.9766545 186.575642,66.0909901 200.744543,66.7492097 L204.336379,62.941141 L206.010254,63.747201 L203.245929,71.8708925 C203.245929,71.8708925 180.691778,72.7456936 174.548945,33.9766545" id="Fill-206" fill="#40B69B" mask="url(#mask-2)"></path>
                            <path d="M174.548945,33.9766545 C174.548945,33.9766545 186.575642,66.0909901 200.744543,66.7492097 L204.336379,62.941141 L206.010254,63.747201 L203.245929,71.8708925 C203.245929,71.8708925 180.691778,72.7456936 174.548945,33.9766545 Z" id="Stroke-207" stroke="#DCCD75" stroke-width="0.9" mask="url(#mask-2)"></path>
                            <path d="M200.74494,66.7494921 C200.74494,66.7494921 184.289965,68.9981736 174.550334,33.976937" id="Stroke-208" stroke="#DCCD75" stroke-width="0.9" mask="url(#mask-2)"></path>
                            <path d="M242.994656,68.5058744 C242.911309,68.6574814 241.648213,70.8600216 238.986087,73.2339438 C238.909686,73.2339438 216.767307,73.2198189 195.613178,58.3783327 C174.417377,43.5104801 175.340141,33.9771253 175.340141,33.9771253 L175.869987,33.9771253 C175.869987,33.9771253 178.107442,44.2619239 204.692983,60.000811 C229.983676,75.50805 242.619596,68.7102143 242.994656,68.5058744" id="Fill-209" fill="#40B69B" mask="url(#mask-2)"></path>
                            <path d="M242.994656,68.5058744 C242.911309,68.6574814 241.648213,70.8600216 238.986087,73.2339438 C238.909686,73.2339438 216.767307,73.2198189 195.613178,58.3783327 C174.417377,43.5104801 175.340141,33.9771253 175.340141,33.9771253 L175.869987,33.9771253 C175.869987,33.9771253 178.107442,44.2619239 204.692983,60.000811 C229.983676,75.50805 242.619596,68.7102143 242.994656,68.5058744 Z" id="Stroke-210" stroke="#DCCD75" stroke-width="0.9" mask="url(#mask-2)"></path>
                            <polygon id="Fill-211" fill="#DF4212" mask="url(#mask-2)" points="133.086456 64.7541169 216.237461 64.7541169 216.237461 51.5209842 133.086456 51.5209842"></polygon>
                            <polygon id="Stroke-212" stroke="#DCCD75" stroke-width="0.9" mask="url(#mask-2)" points="133.086456 64.7541169 216.237461 64.7541169 216.237461 51.5209842 133.086456 51.5209842"></polygon>
                            <polygon id="Fill-213" fill="#33486D" mask="url(#mask-2)" points="133.086456 51.5200425 216.237461 51.5200425 216.237461 45.5461584 133.086456 45.5461584"></polygon>
                            <polygon id="Stroke-214" stroke="#DCCD75" stroke-width="0.9" mask="url(#mask-2)" points="133.086456 51.5200425 216.237461 51.5200425 216.237461 45.5461584 133.086456 45.5461584"></polygon>
                            <polygon id="Fill-215" fill="#FCD779" mask="url(#mask-2)" points="132.630035 54.3864523 216.237461 54.3864523 216.237461 51.5294591 132.630035 51.5294591"></polygon>
                            <polygon id="Stroke-216" stroke="#DCCD75" stroke-width="0.9" mask="url(#mask-2)" points="132.630035 54.3864523 216.237461 54.3864523 216.237461 51.5294591 132.630035 51.5294591"></polygon>
                            <polygon id="Fill-217" fill="#E44C18" mask="url(#mask-2)" points="132.630035 64.7541169 136.656464 64.7541169 136.656464 51.5294591 132.630035 51.5294591"></polygon>
                            <polygon id="Stroke-218" stroke="#DCCD75" stroke-width="0.9" mask="url(#mask-2)" points="132.630035 64.7541169 136.656464 64.7541169 136.656464 51.5294591 132.630035 51.5294591"></polygon>
                            <polygon id="Fill-219" fill="#E44C18" mask="url(#mask-2)" points="212.211033 64.7541169 216.237461 64.7541169 216.237461 51.5294591 212.211033 51.5294591"></polygon>
                            <polygon id="Stroke-220" stroke="#DCCD75" stroke-width="0.9" mask="url(#mask-2)" points="212.211033 64.7541169 216.237461 64.7541169 216.237461 51.5294591 212.211033 51.5294591"></polygon>
                            <polygon id="Fill-221" fill="#E44C18" mask="url(#mask-2)" points="149.53647 64.7541169 152.642119 64.7541169 152.642119 45.5471 149.53647 45.5471"></polygon>
                            <polygon id="Stroke-222" stroke="#DCCD75" stroke-width="0.9" mask="url(#mask-2)" points="149.53647 64.7541169 152.642119 64.7541169 152.642119 45.5471 149.53647 45.5471"></polygon>
                            <polygon id="Fill-223" fill="#E44C18" mask="url(#mask-2)" points="165.17584 64.7541169 168.281489 64.7541169 168.281489 45.5471 165.17584 45.5471"></polygon>
                            <polygon id="Stroke-224" stroke="#DCCD75" stroke-width="0.9" mask="url(#mask-2)" points="165.17584 64.7541169 168.281489 64.7541169 168.281489 45.5471 165.17584 45.5471"></polygon>
                            <polygon id="Fill-225" fill="#E44C18" mask="url(#mask-2)" points="181.620893 64.7541169 184.726541 64.7541169 184.726541 45.5471 181.620893 45.5471"></polygon>
                            <polygon id="Stroke-226" stroke="#DCCD75" stroke-width="0.9" mask="url(#mask-2)" points="181.620893 64.7541169 184.726541 64.7541169 184.726541 45.5471 181.620893 45.5471"></polygon>
                            <polygon id="Fill-227" fill="#E44C18" mask="url(#mask-2)" points="197.261256 64.7541169 200.367896 64.7541169 200.367896 45.5471 197.261256 45.5471"></polygon>
                            <polygon id="Stroke-228" stroke="#DCCD75" stroke-width="0.9" mask="url(#mask-2)" points="197.261256 64.7541169 200.367896 64.7541169 200.367896 45.5471 197.261256 45.5471"></polygon>
                            <polygon id="Fill-229" fill="#FFEDB6" mask="url(#mask-2)" points="139.301722 60.4978186 142.521475 60.4978186 142.521475 55.913823 139.301722 55.913823"></polygon>
                            <polygon id="Stroke-230" stroke="#DCCD75" stroke-width="0.9" mask="url(#mask-2)" points="139.301722 60.4978186 142.521475 60.4978186 142.521475 55.913823 139.301722 55.913823"></polygon>
                            <polygon id="Fill-231" fill="#FFEDB6" mask="url(#mask-2)" points="143.902646 60.4978186 147.122399 60.4978186 147.122399 55.913823 143.902646 55.913823"></polygon>
                            <polygon id="Stroke-232" stroke="#DCCD75" stroke-width="0.9" mask="url(#mask-2)" points="143.902646 60.4978186 147.122399 60.4978186 147.122399 55.913823 143.902646 55.913823"></polygon>
                            <polygon id="Fill-233" fill="#FFEDB6" mask="url(#mask-2)" points="154.999633 60.4978186 158.219387 60.4978186 158.219387 55.913823 154.999633 55.913823"></polygon>
                            <polygon id="Stroke-234" stroke="#DCCD75" stroke-width="0.9" mask="url(#mask-2)" points="154.999633 60.4978186 158.219387 60.4978186 158.219387 55.913823 154.999633 55.913823"></polygon>
                            <polygon id="Fill-235" fill="#FFEDB6" mask="url(#mask-2)" points="159.599565 60.4978186 162.818326 60.4978186 162.818326 55.913823 159.599565 55.913823"></polygon>
                            <polygon id="Stroke-236" stroke="#DCCD75" stroke-width="0.9" mask="url(#mask-2)" points="159.599565 60.4978186 162.818326 60.4978186 162.818326 55.913823 159.599565 55.913823"></polygon>
                            <polygon id="Fill-237" fill="#FFEDB6" mask="url(#mask-2)" points="170.524898 60.4978186 173.744652 60.4978186 173.744652 55.913823 170.524898 55.913823"></polygon>
                            <polygon id="Stroke-238" stroke="#DCCD75" stroke-width="0.9" mask="url(#mask-2)" points="170.524898 60.4978186 173.744652 60.4978186 173.744652 55.913823 170.524898 55.913823"></polygon>
                            <polygon id="Fill-239" fill="#FFEDB6" mask="url(#mask-2)" points="175.125822 60.4978186 178.345575 60.4978186 178.345575 55.913823 175.125822 55.913823"></polygon>
                            <polygon id="Stroke-240" stroke="#DCCD75" stroke-width="0.9" mask="url(#mask-2)" points="175.125822 60.4978186 178.345575 60.4978186 178.345575 55.913823 175.125822 55.913823"></polygon>
                            <polygon id="Fill-241" fill="#FFEDB6" mask="url(#mask-2)" points="187.085048 60.4978186 190.304802 60.4978186 190.304802 55.913823 187.085048 55.913823"></polygon>
                            <polygon id="Stroke-242" stroke="#DCCD75" stroke-width="0.9" mask="url(#mask-2)" points="187.085048 60.4978186 190.304802 60.4978186 190.304802 55.913823 187.085048 55.913823"></polygon>
                            <polygon id="Fill-243" fill="#FFEDB6" mask="url(#mask-2)" points="191.683987 60.4978186 194.903741 60.4978186 194.903741 55.913823 191.683987 55.913823"></polygon>
                            <polygon id="Stroke-244" stroke="#DCCD75" stroke-width="0.9" mask="url(#mask-2)" points="191.683987 60.4978186 194.903741 60.4978186 194.903741 55.913823 191.683987 55.913823"></polygon>
                            <polygon id="Fill-245" fill="#FFEDB6" mask="url(#mask-2)" points="202.954613 60.4978186 206.174367 60.4978186 206.174367 55.913823 202.954613 55.913823"></polygon>
                            <polygon id="Stroke-246" stroke="#DCCD75" stroke-width="0.9" mask="url(#mask-2)" points="202.954613 60.4978186 206.174367 60.4978186 206.174367 55.913823 202.954613 55.913823"></polygon>
                            <polygon id="Fill-247" fill="#FFEDB6" mask="url(#mask-2)" points="207.554545 60.4978186 210.774299 60.4978186 210.774299 55.913823 207.554545 55.913823"></polygon>
                            <polygon id="Stroke-248" stroke="#DCCD75" stroke-width="0.9" mask="url(#mask-2)" points="207.554545 60.4978186 210.774299 60.4978186 210.774299 55.913823 207.554545 55.913823"></polygon>
                            <path d="M230.900983,46.7355677 C225.991479,51.1302899 215.636672,56.2058315 198.180547,46.3089963 C198.180547,46.3089963 180.585512,54.7133021 149.995372,46.5284028 C149.995372,46.5284028 131.399186,57.6512779 118.829745,46.7355677 C118.829745,46.7355677 162.954756,41.6543762 173.95649,12.4394084 L175.298964,12.4394084 C175.298964,12.4394084 174.491297,20.7683815 193.010089,33.7576246 C211.491177,46.7242678 230.835497,46.7355677 230.900983,46.7355677" id="Fill-249" fill="#F9B766" mask="url(#mask-2)"></path>
                            <path d="M230.900983,46.7355677 C225.991479,51.1302899 215.636672,56.2058315 198.180547,46.3089963 C198.180547,46.3089963 180.585512,54.7133021 149.995372,46.5284028 C149.995372,46.5284028 131.399186,57.6512779 118.829745,46.7355677 C118.829745,46.7355677 162.954756,41.6543762 173.95649,12.4394084 L175.298964,12.4394084 C175.298964,12.4394084 174.491297,20.7683815 193.010089,33.7576246 C211.491177,46.7242678 230.835497,46.7355677 230.900983,46.7355677 Z" id="Stroke-250" stroke="#DCCD75" stroke-width="0.9" mask="url(#mask-2)"></path>
                            <path d="M173.956887,12.4390318 C162.953169,41.6549412 118.828157,46.7351911 118.828157,46.7351911 L118.823196,46.7351911 C117.700003,45.7624574 116.618483,44.6098669 115.61138,43.2567031 C115.61138,43.2567031 150.687346,45.7624574 173.956887,12.4390318" id="Fill-251" fill="#3FAE94" mask="url(#mask-2)"></path>
                            <path d="M173.956887,12.4390318 C162.953169,41.6549412 118.828157,46.7351911 118.828157,46.7351911 L118.823196,46.7351911 C117.700003,45.7624574 116.618483,44.6098669 115.61138,43.2567031 C115.61138,43.2567031 150.687346,45.7624574 173.956887,12.4390318 Z" id="Stroke-252" stroke="#DCCD75" stroke-width="0.9" mask="url(#mask-2)"></path>
                            <path d="M174.607089,12.4390318 C174.607089,12.4390318 164.100472,40.4948175 151.723521,41.0711127 L148.583145,37.7442318 L147.121605,38.4485926 L149.536669,45.5458759 C149.536669,45.5458759 169.241164,46.3095613 174.607089,12.4390318" id="Fill-253" fill="#40B69B" mask="url(#mask-2)"></path>
                            <path d="M174.607089,12.4390318 C174.607089,12.4390318 164.100472,40.4948175 151.723521,41.0711127 L148.583145,37.7442318 L147.121605,38.4485926 L149.536669,45.5458759 C149.536669,45.5458759 169.241164,46.3095613 174.607089,12.4390318 Z" id="Stroke-254" stroke="#DCCD75" stroke-width="0.9" mask="url(#mask-2)"></path>
                            <path d="M151.722033,41.0708302 C151.722033,41.0708302 166.096323,43.0351307 174.606593,12.4387493" id="Stroke-255" stroke="#DCCD75" stroke-width="0.9" mask="url(#mask-2)"></path>
                            <path d="M174.607089,12.4390318 C174.607089,12.4390318 185.114698,40.4948175 197.491649,41.0711127 L200.632025,37.7442318 L202.092573,38.4485926 L199.678502,45.5458759 C199.678502,45.5458759 179.974007,46.3095613 174.607089,12.4390318" id="Fill-256" fill="#40B69B" mask="url(#mask-2)"></path>
                            <path d="M174.607089,12.4390318 C174.607089,12.4390318 185.114698,40.4948175 197.491649,41.0711127 L200.632025,37.7442318 L202.092573,38.4485926 L199.678502,45.5458759 C199.678502,45.5458759 179.974007,46.3095613 174.607089,12.4390318 Z" id="Stroke-257" stroke="#DCCD75" stroke-width="0.9" mask="url(#mask-2)"></path>
                            <path d="M197.492046,41.0708302 C197.492046,41.0708302 183.118748,43.0351307 174.608478,12.4387493" id="Stroke-258" stroke="#DCCD75" stroke-width="0.9" mask="url(#mask-2)"></path>
                            <path d="M234.403817,42.6056401 C234.330393,42.738414 233.226052,44.6622232 230.902273,46.7357561 C230.83381,46.7357561 211.491475,46.7244562 193.009395,33.7578129 C174.491595,20.7685699 175.300254,12.4386551 175.300254,12.4386551 L175.759652,12.4386551 C175.759652,12.4386551 177.714325,21.4249061 200.942193,35.1750096 C223.034961,48.7226564 234.075392,42.7836136 234.403817,42.6056401" id="Fill-259" fill="#40B69B" mask="url(#mask-2)"></path>
                            <path d="M234.403817,42.6056401 C234.330393,42.738414 233.226052,44.6622232 230.902273,46.7357561 C230.83381,46.7357561 211.491475,46.7244562 193.009395,33.7578129 C174.491595,20.7685699 175.300254,12.4386551 175.300254,12.4386551 L175.759652,12.4386551 C175.759652,12.4386551 177.714325,21.4249061 200.942193,35.1750096 C223.034961,48.7226564 234.075392,42.7836136 234.403817,42.6056401 Z" id="Stroke-260" stroke="#DCCD75" stroke-width="0.9" mask="url(#mask-2)"></path>
                            <polygon id="Fill-261" fill="#E44C18" mask="url(#mask-2)" points="95.4862829 177.09685 95.4862829 164.294056 121.155012 159.48877 148.489678 155.12324 167.40139 155.12324 231.086032 154.540353 273.815983 155.705185 275.34797 157.45102 275.34797 170.257582 154.585877 170.257582"></polygon>
                            <polygon id="Stroke-262" stroke="#DCCD75" stroke-width="0.9" mask="url(#mask-2)" points="95.4862829 177.09685 95.4862829 164.294056 121.155012 159.48877 148.489678 155.12324 167.40139 155.12324 231.086032 154.540353 273.815983 155.705185 275.34797 157.45102 275.34797 170.257582 154.585877 170.257582"></polygon>
                            <polygon id="Stroke-263" stroke="#DCCD75" stroke-width="0.9" mask="url(#mask-2)" points="104.091806 176.295499 106.432453 176.295499 106.432453 163.280831 104.091806 163.280831"></polygon>
                            <polygon id="Stroke-264" stroke="#DCCD75" stroke-width="0.9" mask="url(#mask-2)" points="110.648395 175.422581 112.989042 175.422581 112.989042 162.407913 110.648395 162.407913"></polygon>
                            <polygon id="Stroke-265" stroke="#DCCD75" stroke-width="0.9" mask="url(#mask-2)" points="113.542701 175.422581 115.883348 175.422581 115.883348 162.407913 113.542701 162.407913"></polygon>
                            <polygon id="Stroke-266" stroke="#DCCD75" stroke-width="0.9" mask="url(#mask-2)" points="122.81698 174.549663 125.156635 174.549663 125.156635 160.760952 122.81698 160.760952"></polygon>
                            <polygon id="Stroke-267" stroke="#DCCD75" stroke-width="0.9" mask="url(#mask-2)" points="132.323439 173.776561 134.663094 173.776561 134.663094 159.526437 132.323439 159.526437"></polygon>
                            <polygon id="Stroke-268" stroke="#DCCD75" stroke-width="0.9" mask="url(#mask-2)" points="142.137486 172.439405 144.478133 172.439405 144.478133 157.455729 142.137486 157.455729"></polygon>
                            <polygon id="Stroke-269" stroke="#DCCD75" stroke-width="0.9" mask="url(#mask-2)" points="155.464984 171.784952 157.805631 171.784952 157.805631 156.801276 155.464984 156.801276"></polygon>
                            <polygon id="Stroke-270" stroke="#DCCD75" stroke-width="0.9" mask="url(#mask-2)" points="169.50688 172.074042 171.847527 172.074042 171.847527 157.090365 169.50688 157.090365"></polygon>
                            <polygon id="Stroke-271" stroke="#DCCD75" stroke-width="0.9" mask="url(#mask-2)" points="183.806754 172.074042 186.1474 172.074042 186.1474 157.090365 183.806754 157.090365"></polygon>
                            <polygon id="Stroke-272" stroke="#DCCD75" stroke-width="0.9" mask="url(#mask-2)" points="197.414057 172.074042 199.754704 172.074042 199.754704 157.090365 197.414057 157.090365"></polygon>
                            <polygon id="Stroke-273" stroke="#DCCD75" stroke-width="0.9" mask="url(#mask-2)" points="211.291245 172.074042 213.6309 172.074042 213.6309 157.090365 211.291245 157.090365"></polygon>
                            <polygon id="Stroke-274" stroke="#DCCD75" stroke-width="0.9" mask="url(#mask-2)" points="225.324211 171.784952 227.66585 171.784952 227.66585 156.801276 225.324211 156.801276"></polygon>
                            <polygon id="Stroke-275" stroke="#DCCD75" stroke-width="0.9" mask="url(#mask-2)" points="238.921593 171.784952 241.26224 171.784952 241.26224 156.801276 238.921593 156.801276"></polygon>
                            <polygon id="Stroke-276" stroke="#DCCD75" stroke-width="0.9" mask="url(#mask-2)" points="252.461426 171.784952 254.80108 171.784952 254.80108 156.801276 252.461426 156.801276"></polygon>
                            <polygon id="Stroke-277" stroke="#DCCD75" stroke-width="0.9" mask="url(#mask-2)" points="266.491415 172.074042 268.832062 172.074042 268.832062 157.090365 266.491415 157.090365"></polygon>
                            <polygon id="Stroke-278" stroke="#DCCD75" stroke-width="0.9" mask="url(#mask-2)" points="272.164929 172.074042 274.505575 172.074042 274.505575 157.090365 272.164929 157.090365"></polygon>
                            <polygon id="Fill-279" fill="#33486D" mask="url(#mask-2)" points="95.4862829 165.819072 144.847239 158.396917 275.34797 158.396917 275.34797 157.451491 275.34797 156.286659 149.702171 156.286659 144.847239 155.704714 127.684811 158.445883 95.4862829 164.293585"></polygon>
                            <polygon id="Stroke-280" stroke="#DCCD75" stroke-width="0.9" mask="url(#mask-2)" points="95.4862829 165.819072 144.847239 158.396917 275.34797 158.396917 275.34797 157.451491 275.34797 156.286659 149.702171 156.286659 144.847239 155.704714 127.684811 158.445883 95.4862829 164.293585"></polygon>
                            <path d="M264.537635,152.212854 L145.852258,152.212854 L103.154059,159.197139 C103.154059,159.197139 97.3277438,164.290572 92.4192319,164.581544 C92.4192319,164.581544 101.208316,163.854584 108.774985,162.544736 C116.341654,161.234888 141.935966,159.780025 145.852258,155.99644 C145.852258,155.99644 143.415366,157.59726 155.790333,157.451303 C168.167284,157.306287 275.348863,157.451303 275.348863,157.451303 L275.348863,152.648842 L264.537635,152.212854 Z" id="Fill-281" fill="#FED070" mask="url(#mask-2)"></path>
                            <path d="M264.537635,152.212854 L145.852258,152.212854 L103.154059,159.197139 C103.154059,159.197139 97.3277438,164.290572 92.4192319,164.581544 C92.4192319,164.581544 101.208316,163.854584 108.774985,162.544736 C116.341654,161.234888 141.935966,159.780025 145.852258,155.99644 C145.852258,155.99644 143.415366,157.59726 155.790333,157.451303 C168.167284,157.306287 275.348863,157.451303 275.348863,157.451303 L275.348863,152.648842 L264.537635,152.212854 Z" id="Stroke-282" stroke="#DCCD75" stroke-width="0.9" mask="url(#mask-2)"></path>
                            <polygon id="Fill-283" fill="#33486D" mask="url(#mask-2)" points="90.3255487 177.933232 154.586671 170.25777 275.349756 170.25777 275.349756 171.785141 154.208635 171.785141 90.3255487 179.42482"></polygon>
                            <polygon id="Stroke-284" stroke="#DCCD75" stroke-width="0.9" mask="url(#mask-2)" points="90.3255487 177.933232 154.586671 170.25777 275.349756 170.25777 275.349756 171.785141 154.208635 171.785141 90.3255487 179.42482"></polygon>
                            <polygon id="Fill-285" fill="#FED070" mask="url(#mask-2)" points="90.3255487 183.06273 90.3255487 179.426044 154.208635 171.784482 275.349756 171.784482 275.349756 175.423052 154.586671 175.423052"></polygon>
                            <polygon id="Stroke-286" stroke="#DCCD75" stroke-width="0.9" mask="url(#mask-2)" points="90.3255487 183.06273 90.3255487 179.426044 154.208635 171.784482 275.349756 171.784482 275.349756 175.423052 154.586671 175.423052"></polygon>
                            <polygon id="Fill-287" fill="#FCDBB8" mask="url(#mask-2)" points="90.3255487 193.395177 90.3255487 183.062354 154.586671 175.423617 275.349756 175.423617 275.349756 247.529265 155.463793 247.529265 90.3255487 247.528323"></polygon>
                            <polygon id="Stroke-288" stroke="#DCCD75" stroke-width="0.9" mask="url(#mask-2)" points="90.3255487 193.395177 90.3255487 183.062354 154.586671 175.423617 275.349756 175.423617 275.349756 247.529265 155.463793 247.529265 90.3255487 247.528323"></polygon>
                            <polygon id="Fill-289" fill="#E55623" mask="url(#mask-2)" points="10.6156616 188.411071 58.1112442 183.06339 58.1112442 170.295436 10.6156616 176.296629"></polygon>
                            <polygon id="Stroke-290" stroke="#DCCD75" stroke-width="0.9" mask="url(#mask-2)" points="10.6156616 188.411071 58.1112442 183.06339 58.1112442 170.295436 10.6156616 176.296629"></polygon>
                            <polygon id="Stroke-291" stroke="#DCCD75" stroke-width="0.9" mask="url(#mask-2)" points="47.7614975 183.872086 50.9326323 183.872086 50.9326323 170.973242 47.7614975 170.973242"></polygon>
                            <polygon id="Stroke-292" stroke="#DCCD75" stroke-width="0.9" mask="url(#mask-2)" points="38.5536968 185.126376 41.7228472 185.126376 41.7228472 172.228474 38.5536968 172.228474"></polygon>
                            <polygon id="Stroke-293" stroke="#DCCD75" stroke-width="0.9" mask="url(#mask-2)" points="29.1782109 186.380666 32.3493457 186.380666 32.3493457 173.482763 29.1782109 173.482763"></polygon>
                            <polygon id="Stroke-294" stroke="#DCCD75" stroke-width="0.9" mask="url(#mask-2)" points="19.6925885 187.745129 22.8637234 187.745129 22.8637234 174.847227 19.6925885 174.847227"></polygon>
                            <polygon id="Stroke-295" stroke="#DCCD75" stroke-width="0.9" mask="url(#mask-2)" points="10.616753 188.01821 13.7878878 188.01821 13.7878878 175.119367 10.616753 175.119367"></polygon>
                            <path d="M14.8325962,170.972866 L58.4505834,164.293679 L58.1112442,168.915341 L6.24691732,176.296064 C6.24691732,176.296064 11.0006429,175.763085 14.8325962,170.972866" id="Fill-296" fill="#F8D372" mask="url(#mask-2)"></path>
                            <path d="M14.8325962,170.972866 L58.4505834,164.293679 L58.1112442,168.915341 L6.24691732,176.296064 C6.24691732,176.296064 11.0006429,175.763085 14.8325962,170.972866 Z" id="Stroke-297" stroke="#DCCD75" stroke-width="0.9" mask="url(#mask-2)"></path>
                            <polygon id="Fill-298" fill="#33486D" mask="url(#mask-2)" points="6.24562744 176.296346 11.7653468 176.296346 58.1109465 170.295154 58.1109465 168.915624"></polygon>
                            <polygon id="Stroke-299" stroke="#DCCD75" stroke-width="0.9" mask="url(#mask-2)" points="6.24562744 176.296346 11.7653468 176.296346 58.1109465 170.295154 58.1109465 168.915624"></polygon>
                            <polygon id="Fill-300" fill="#33486D" mask="url(#mask-2)" points="0.495713066 189.611121 90.3253503 177.933608 90.3253503 179.426138 0.495713066 190.92191"></polygon>
                            <polygon id="Stroke-301" stroke="#DCCD75" stroke-width="0.9" mask="url(#mask-2)" points="0.495713066 189.611121 90.3253503 177.933608 90.3253503 179.426138 0.495713066 190.92191"></polygon>
                            <polygon id="Fill-302" fill="#FED070" mask="url(#mask-2)" points="0.495713066 194.85004 0.495713066 190.920497 90.3253503 179.424725 90.3253503 183.062354"></polygon>
                            <polygon id="Stroke-303" stroke="#DCCD75" stroke-width="0.9" mask="url(#mask-2)" points="0.495713066 194.85004 0.495713066 190.920497 90.3253503 179.424725 90.3253503 183.062354"></polygon>
                            <polygon id="Fill-304" fill="#FCDBB8" mask="url(#mask-2)" points="0.495713066 217.411246 0.495713066 192.623958 90.3253503 183.063295 90.3253503 247.528323 0.495713066 247.529265"></polygon>
                            <polygon id="Stroke-305" stroke="#DCCD75" stroke-width="0.9" mask="url(#mask-2)" points="0.495713066 217.411246 0.495713066 192.623958 90.3253503 183.063295 90.3253503 247.528323 0.495713066 247.529265"></polygon>
                            <line x1="155.46419" y1="247.5287" x2="154.585084" y2="175.423052" id="Stroke-306" stroke="#DCCD75" stroke-width="0.9" mask="url(#mask-2)"></line>
                            <polygon id="Fill-307" fill="#FCDBB8" mask="url(#mask-2)" points="364.503791 212.532794 364.503791 185.294368 274.675146 174.788279 275.348863 247.529547 364.503791 247.528606"></polygon>
                            <polygon id="Stroke-308" stroke="#DCCD75" stroke-width="0.9" mask="url(#mask-2)" points="364.503791 212.532794 364.503791 185.294368 274.675146 174.788279 275.348863 247.529547 364.503791 247.528606"></polygon>
                        </g>
                    </g>
                </g>
            </g>
        </g>
    </g>
</svg>