<?xml version="1.0" encoding="UTF-8"?>
<svg width="627px" height="151px" viewBox="0 0 627 151" version="1.1" xmlns="http://www.w3.org/2000/svg" xmlns:xlink="http://www.w3.org/1999/xlink">
    <title>祠堂博览</title>
    <g id="第六版" stroke="none" stroke-width="1" fill="none" fill-rule="evenodd">
        <g id="华夏祠堂" transform="translate(-118.000000, -201.000000)" fill="#FFFFFF" fill-rule="nonzero">
            <g id="祠堂博览" transform="translate(118.775484, 201.868571)">
                <path d="M80.3045161,92.7314286 C81.9045161,92.5180952 84.1978495,92.1980952 87.1845161,91.7714286 C89.4245161,91.3447619 90.8111828,91.1314286 91.3445161,91.1314286 C91.7711828,89.3180952 92.1978495,87.2380952 92.6245161,84.8914286 C92.7311828,84.6780952 92.7845161,84.5180952 92.7845161,84.4114286 C93.1045161,83.2380952 92.4645161,82.8114286 90.8645161,83.1314286 C86.2778495,83.6647619 82.3311828,84.2514286 79.0245161,84.8914286 C79.2378495,85.7447619 79.4778495,87.0514286 79.7445161,88.8114286 C80.0111828,90.5714286 80.1978495,91.8780952 80.3045161,92.7314286 Z M35.3445161,26.6514286 C35.0245161,26.2247619 34.5445161,25.6914286 33.9045161,25.0514286 C32.6245161,23.8780952 31.8778495,22.7047619 31.6645161,21.5314286 C31.0245161,17.5847619 31.9845161,14.1714286 34.5445161,11.2914286 C38.2778495,8.9447619 44.0911828,9.31809524 51.9845161,12.4114286 C56.6778495,14.7580952 58.7311828,18.7847619 58.1445161,24.4914286 C57.5578495,30.1980952 54.0645161,32.7314286 47.6645161,32.0914286 C44.0378495,31.5580952 40.4645161,32.2514286 36.9445161,34.1714286 C36.0911828,34.5980952 35.4511828,34.7047619 35.0245161,34.4914286 C34.8111828,34.1714286 34.9178495,33.5847619 35.3445161,32.7314286 C36.5178495,30.5980952 36.5178495,28.5714286 35.3445161,26.6514286 Z M63.5045161,54.1714286 C67.5578495,52.9980952 79.8245161,50.5980952 100.304516,46.9714286 C102.437849,46.6514286 104.144516,47.0247619 105.424516,48.0914286 C105.531183,48.1980952 105.637849,48.3047619 105.744516,48.4114286 C108.091183,50.1180952 109.744516,51.8247619 110.704516,53.5314286 C111.557849,54.4914286 111.451183,56.4647619 110.384516,59.4514286 C109.317849,62.8647619 107.397849,64.1980952 104.624516,63.4514286 C101.744516,63.1314286 98.7045161,63.1847619 95.5045161,63.6114286 C91.0245161,64.1447619 83.9845161,65.5847619 74.3845161,67.9314286 C73.8511828,68.0380952 73.5311828,68.0914286 73.4245161,68.0914286 C71.1845161,68.9447619 69.4245161,68.8380952 68.1445161,67.7714286 C67.0778495,67.0247619 65.5311828,65.3714286 63.5045161,62.8114286 C62.5445161,61.6380952 61.7978495,60.7314286 61.2645161,60.0914286 C60.3045161,57.7447619 61.0511828,55.7714286 63.5045161,54.1714286 Z M69.5845161,34.6514286 C67.2378495,31.5580952 68.4111828,29.4780952 73.1045161,28.4114286 C79.7178495,27.0247619 89.2111828,25.2114286 101.584516,22.9714286 C108.197849,21.7980952 112.517849,20.9980952 114.544516,20.5714286 C114.864516,20.4647619 115.344516,20.1980952 115.984516,19.7714286 C116.517849,19.5580952 116.891183,19.3980952 117.104516,19.2914286 C119.131183,18.7580952 121.157849,19.0247619 123.184516,20.0914286 C128.837849,23.7180952 133.051183,27.0780952 135.824516,30.1714286 C136.891183,31.3447619 137.317849,33.5314286 137.104516,36.7314286 C136.784516,43.9847619 136.624516,58.2247619 136.624516,79.4514286 C136.624516,84.4647619 136.571183,91.7180952 136.464516,101.211429 C136.251183,109.851429 136.197849,115.344762 136.304516,117.691429 C136.517849,121.318095 136.304516,124.464762 135.664516,127.131429 C134.384516,133.104762 133.157849,137.264762 131.984516,139.611429 C129.424516,143.664762 125.104516,144.038095 119.024516,140.731429 C111.984516,135.718095 104.517849,129.371429 96.6245161,121.691429 C95.1311828,120.198095 94.6511828,118.918095 95.1845161,117.851429 C95.7178495,116.784762 97.0511828,116.411429 99.1845161,116.731429 C102.171183,117.371429 105.797849,117.958095 110.064516,118.491429 C110.704516,118.598095 111.184516,118.651429 111.504516,118.651429 C114.597849,119.504762 115.984516,117.744762 115.664516,113.371429 C115.664516,111.344762 115.717849,107.558095 115.824516,102.011429 C116.144516,91.4514286 116.251183,83.1847619 116.144516,77.2114286 C116.144516,60.8914286 115.984516,49.1580952 115.664516,42.0114286 C115.771183,39.3447619 114.544516,38.2780952 111.984516,38.8114286 C104.624516,39.4514286 95.7711828,41.1047619 85.4245161,43.7714286 C81.3711828,45.0514286 78.3845161,44.5180952 76.4645161,42.1714286 C74.4378495,40.2514286 72.2511828,37.8514286 69.9045161,34.9714286 C69.7978495,34.8647619 69.6911828,34.7580952 69.5845161,34.6514286 Z M62.5445161,78.6514286 C62.4378495,76.9447619 63.2911828,75.0247619 65.1045161,72.8914286 C65.8511828,72.1447619 67.0778495,71.7180952 68.7845161,71.6114286 C70.8111828,71.6114286 72.3045161,71.9314286 73.2645161,72.5714286 C73.2645161,72.6780952 73.3178495,72.7314286 73.4245161,72.7314286 C74.0645161,72.6247619 75.0245161,72.4647619 76.3045161,72.2514286 C83.0245161,70.8647619 87.5578495,70.0647619 89.9045161,69.8514286 C91.1845161,69.7447619 93.1578495,69.1580952 95.8245161,68.0914286 C96.5711828,67.8780952 97.0511828,67.7180952 97.2645161,67.6114286 C99.0778495,67.0780952 100.731183,67.1314286 102.224516,67.7714286 C105.851183,69.3714286 108.837849,71.8247619 111.184516,75.1314286 C112.144516,76.6247619 112.304516,78.1180952 111.664516,79.6114286 C110.704516,81.9580952 108.784516,86.7580952 105.904516,94.0114286 C106.011183,94.0114286 106.064516,94.0647619 106.064516,94.1714286 L106.224516,94.1714286 C107.824516,97.0514286 108.411183,99.7180952 107.984516,102.171429 C107.344516,104.411429 105.317849,105.531429 101.904516,105.531429 C96.5711828,105.531429 91.3978495,105.798095 86.3845161,106.331429 C85.1045161,106.544762 83.6111828,106.811429 81.9045161,107.131429 C81.4778495,108.838095 80.7845161,110.011429 79.8245161,110.651429 C78.1178495,111.611429 76.2511828,111.878095 74.2245161,111.451429 C73.0511828,111.238095 71.7711828,110.598095 70.3845161,109.531429 C69.7445161,108.998095 69.1578495,107.984762 68.6245161,106.491429 C68.4111828,106.064762 68.2511828,105.691429 68.1445161,105.371429 C66.2245161,100.464762 64.6778495,94.5447619 63.5045161,87.6114286 C63.1845161,89.2114286 62.3845161,90.5980952 61.1045161,91.7714286 C57.5845161,94.4380952 54.1178495,93.9580952 50.7045161,90.3314286 C50.3845161,90.1180952 50.1711828,89.8514286 50.0645161,89.5314286 C50.0645161,96.5714286 50.1178495,107.024762 50.2245161,120.891429 C50.2245161,127.078095 50.2245161,130.864762 50.2245161,132.251429 C50.1178495,136.198095 48.6245161,138.811429 45.7445161,140.091429 C42.4378495,141.158095 39.6111828,140.358095 37.2645161,137.691429 C37.0511828,137.478095 36.7845161,137.104762 36.4645161,136.571429 C34.4378495,134.118095 33.1045161,132.144762 32.4645161,130.651429 C31.5045161,128.198095 31.0245161,126.118095 31.0245161,124.411429 C31.8778495,119.184762 32.3045161,115.238095 32.3045161,112.571429 L32.3045161,96.8914286 C31.2378495,98.2780952 29.5311828,100.251429 27.1845161,102.811429 C25.4778495,104.731429 23.2911828,106.224762 20.6245161,107.291429 C16.1445161,109.104762 10.2778495,110.811429 3.02451613,112.411429 C1.31784946,112.838095 0.331182796,112.544762 0.064516129,111.531429 C-0.202150538,110.518095 0.357849462,109.318095 1.74451613,107.931429 C1.74451613,107.824762 1.8511828,107.664762 2.06451613,107.451429 C8.78451613,99.5580952 15.0245161,91.7180952 20.7845161,83.9314286 C26.2245161,76.4647619 30.5445161,69.8514286 33.7445161,64.0914286 C34.0645161,63.3447619 34.1711828,62.8914286 34.0645161,62.7314286 C33.9578495,62.5714286 33.5845161,62.5980952 32.9445161,62.8114286 C30.4911828,63.7714286 26.5445161,65.7447619 21.1045161,68.7314286 C18.1178495,70.3314286 15.7178495,70.2247619 13.9045161,68.4114286 C8.99784946,63.0780952 6.27784946,59.7180952 5.74451613,58.3314286 C5.95784946,54.3847619 7.39784946,51.7180952 10.0645161,50.3314286 C10.7045161,50.2247619 11.5578495,50.2247619 12.6245161,50.3314286 C14.0111828,50.5447619 15.1845161,50.4914286 16.1445161,50.1714286 C19.8778495,49.2114286 26.2245161,47.2914286 35.1845161,44.4114286 C37.6378495,43.6647619 39.0778495,43.2380952 39.5045161,43.1314286 C42.9178495,42.1714286 45.3178495,41.0514286 46.7045161,39.7714286 C48.3045161,38.4914286 50.3311828,38.5980952 52.7845161,40.0914286 C55.8778495,42.1180952 58.6245161,44.6514286 61.0245161,47.6914286 C63.4245161,50.7314286 63.4511828,53.2647619 61.1045161,55.2914286 C60.8911828,55.5047619 60.5711828,55.7714286 60.1445161,56.0914286 C58.4378495,57.2647619 57.3178495,58.3314286 56.7845161,59.2914286 C55.0778495,61.4247619 52.7845161,64.9447619 49.9045161,69.8514286 L49.9045161,71.7714286 C51.3978495,72.0914286 52.6778495,72.5180952 53.7445161,73.0514286 C58.2245161,74.7580952 61.0511828,76.7847619 62.2245161,79.1314286 C62.2245161,79.3447619 62.3311828,79.5580952 62.5445161,79.7714286 L62.5445161,78.6514286 Z" id="祠"></path>
                <path d="M214.224516,40.8914286 C214.117849,41.4247619 213.904516,41.9047619 213.584516,42.3314286 C214.757849,42.1180952 216.624516,41.7980952 219.184516,41.3714286 C220.891183,41.0514286 222.224516,40.7847619 223.184516,40.5714286 C223.291183,38.6514286 223.397849,35.1847619 223.504516,30.1714286 C223.611183,26.7580952 223.664516,24.3047619 223.664516,22.8114286 C221.851183,25.5847619 219.131183,29.7447619 215.504516,35.2914286 C214.864516,36.2514286 214.544516,37.4247619 214.544516,38.8114286 C214.544516,39.6647619 214.437849,40.3580952 214.224516,40.8914286 Z M241.904516,72.5714286 C233.264516,73.5314286 225.851183,74.7580952 219.664516,76.2514286 C220.517849,78.7047619 221.317849,81.6914286 222.064516,85.2114286 C222.917849,84.9980952 224.144516,84.7847619 225.744516,84.5714286 C227.131183,84.3580952 228.037849,84.1980952 228.464516,84.0914286 C233.477849,83.2380952 237.691183,82.7047619 241.104516,82.4914286 C241.317849,81.7447619 241.637849,80.7314286 242.064516,79.4514286 C243.237849,75.9314286 243.824516,74.0647619 243.824516,73.8514286 C243.931183,72.9980952 243.291183,72.5714286 241.904516,72.5714286 Z M221.904516,10.4914286 C221.051183,8.89142857 221.157849,7.13142857 222.224516,5.21142857 C222.757849,4.25142857 224.197849,2.8647619 226.544516,1.05142857 C226.757849,0.944761905 226.917849,0.838095238 227.024516,0.731428571 C228.411183,-0.121904762 229.957849,-0.228571429 231.664516,0.411428571 C234.437849,1.69142857 237.957849,4.1447619 242.224516,7.77142857 C243.717849,9.2647619 243.931183,11.6647619 242.864516,14.9714286 C242.651183,15.6114286 242.171183,20.7314286 241.424516,30.3314286 C241.211183,33.1047619 241.051183,35.1314286 240.944516,36.4114286 C248.304516,28.4114286 253.477849,22.2780952 256.464516,18.0114286 C257.424516,16.4114286 257.371183,15.2914286 256.304516,14.6514286 C255.344516,12.6247619 255.771183,11.1314286 257.584516,10.1714286 C259.824516,9.53142857 262.171183,9.5847619 264.624516,10.3314286 C267.824516,11.5047619 270.971183,14.1714286 274.064516,18.3314286 C275.664516,21.2114286 275.397849,23.6647619 273.264516,25.6914286 C270.704516,28.0380952 266.117849,31.5047619 259.504516,36.0914286 C267.291183,35.3447619 274.171183,34.8647619 280.144516,34.6514286 C280.571183,34.7580952 281.317849,34.4914286 282.384516,33.8514286 C282.917849,33.5314286 283.291183,33.3180952 283.504516,33.2114286 C284.464516,32.6780952 285.851183,33.0514286 287.664516,34.3314286 C292.144516,37.5314286 296.571183,42.3847619 300.944516,48.8914286 C302.331183,50.9180952 302.651183,52.9980952 301.904516,55.1314286 C300.944516,57.3714286 299.397849,58.5447619 297.264516,58.6514286 C294.597849,58.4380952 292.144516,58.7047619 289.904516,59.4514286 C288.837849,59.7714286 285.851183,60.6780952 280.944516,62.1714286 C275.397849,63.8780952 272.251183,64.8914286 271.504516,65.2114286 C270.117849,65.6380952 269.157849,65.5847619 268.624516,65.0514286 C268.091183,64.3047619 268.197849,63.3980952 268.944516,62.3314286 C270.331183,60.6247619 272.411183,57.6380952 275.184516,53.3714286 C275.611183,52.6247619 275.744516,52.0647619 275.584516,51.6914286 C275.424516,51.3180952 274.971183,51.1314286 274.224516,51.1314286 C261.744516,51.5580952 247.877849,52.8380952 232.624516,54.9714286 C217.691183,57.3180952 205.157849,59.9314286 195.024516,62.8114286 C193.744516,63.3447619 192.624516,63.7180952 191.664516,63.9314286 C189.957849,69.7980952 188.571183,73.5847619 187.504516,75.2914286 C185.051183,79.5580952 181.691183,81.3714286 177.424516,80.7314286 C172.731183,78.2780952 170.064516,74.0114286 169.424516,67.9314286 C169.851183,65.3714286 170.971183,63.0780952 172.784516,61.0514286 C173.104516,60.7314286 173.317849,60.4647619 173.424516,60.2514286 C177.797849,54.2780952 181.531183,48.3580952 184.624516,42.4914286 C185.904516,40.1447619 187.877849,40.2514286 190.544516,42.8114286 C191.184516,43.6647619 191.717849,44.9447619 192.144516,46.6514286 C192.891183,46.4380952 194.171183,46.1714286 195.984516,45.8514286 C199.291183,45.2114286 201.851183,44.6780952 203.664516,44.2514286 C201.637849,42.9714286 200.037849,41.3180952 198.864516,39.2914286 C197.157849,36.1980952 196.784516,32.8380952 197.744516,29.2114286 C199.131183,25.4780952 201.317849,22.0114286 204.304516,18.8114286 C206.117849,16.8914286 207.557849,16.7847619 208.624516,18.4914286 C210.117849,21.0514286 211.077849,22.8647619 211.504516,23.9314286 C211.931183,25.3180952 212.571183,25.7980952 213.424516,25.3714286 C213.851183,25.1580952 214.811183,24.6780952 216.304516,23.9314286 C220.037849,21.9047619 222.384516,20.6247619 223.344516,20.0914286 C223.451183,20.0914286 223.557849,20.0380952 223.664516,19.9314286 C223.771183,18.1180952 223.797849,16.4914286 223.744516,15.0514286 C223.691183,13.6114286 223.077849,12.0914286 221.904516,10.4914286 Z M202.384516,108.571429 C203.984516,108.358095 208.357849,107.718095 215.504516,106.651429 C218.811183,106.118095 221.264516,105.744762 222.864516,105.531429 C222.864516,105.424762 222.864516,105.264762 222.864516,105.051429 C222.757849,103.558095 222.544516,101.904762 222.224516,100.091429 C219.984516,102.118095 217.904516,102.971429 215.984516,102.651429 C212.571183,101.691429 210.117849,100.251429 208.624516,98.3314286 C207.877849,97.3714286 205.851183,91.0247619 202.544516,79.2914286 C201.691183,76.3047619 201.211183,74.5980952 201.104516,74.1714286 C200.464516,72.0380952 200.251183,70.1714286 200.464516,68.5714286 C200.997849,64.9447619 202.117849,62.8114286 203.824516,62.1714286 C204.891183,61.8514286 206.544516,61.7714286 208.784516,61.9314286 C211.024516,62.0914286 212.411183,62.3847619 212.944516,62.8114286 C212.944516,62.9180952 213.051183,63.0247619 213.264516,63.1314286 L213.424516,63.2914286 C215.024516,62.8647619 216.997849,62.3847619 219.344516,61.8514286 C228.837849,59.7180952 239.397849,58.1180952 251.024516,57.0514286 C251.131183,57.0514286 251.291183,57.0514286 251.504516,57.0514286 C253.317849,56.6247619 255.077849,57.2114286 256.784516,58.8114286 C256.891183,58.9180952 257.104516,59.1314286 257.424516,59.4514286 C259.984516,61.4780952 262.171183,63.7714286 263.984516,66.3314286 C265.477849,68.3580952 265.424516,70.8647619 263.824516,73.8514286 C262.117849,76.1980952 259.557849,80.1447619 256.144516,85.6914286 C257.424516,86.4380952 258.224516,87.6647619 258.544516,89.3714286 C258.757849,91.3980952 258.224516,93.5314286 256.944516,95.7714286 C255.344516,97.9047619 253.637849,98.7580952 251.824516,98.3314286 C251.717849,98.3314286 251.504516,98.2780952 251.184516,98.1714286 C249.691183,97.6380952 248.144516,97.3980952 246.544516,97.4514286 C244.944516,97.5047619 243.291183,97.5847619 241.584516,97.6914286 C242.117849,98.7580952 242.384516,100.518095 242.384516,102.971429 L242.384516,103.611429 C243.984516,103.504762 246.171183,103.344762 248.944516,103.131429 C252.464516,102.918095 254.277849,102.758095 254.384516,102.651429 C256.731183,102.331429 258.384516,102.811429 259.344516,104.091429 C261.371183,106.224762 262.917849,108.251429 263.984516,110.171429 C265.371183,112.304762 265.264516,114.651429 263.664516,117.211429 C262.597849,119.558095 260.464516,120.411429 257.264516,119.771429 C254.704516,119.344762 249.691183,119.344762 242.224516,119.771429 L242.224516,125.531429 C250.757849,125.104762 260.677849,124.731429 271.984516,124.411429 C274.864516,124.411429 277.051183,125.051429 278.544516,126.331429 C281.637849,128.998095 283.771183,131.344762 284.944516,133.371429 C286.437849,135.611429 286.651183,138.064762 285.584516,140.731429 C283.557849,144.998095 281.104516,146.598095 278.224516,145.531429 C278.011183,145.424762 277.691183,145.318095 277.264516,145.211429 C274.064516,143.824762 270.971183,143.024762 267.984516,142.811429 C255.931183,142.278095 241.691183,142.811429 225.264516,144.411429 C224.411183,144.518095 223.077849,144.624762 221.264516,144.731429 C210.171183,145.691429 201.851183,146.811429 196.304516,148.091429 C194.064516,148.731429 192.037849,148.304762 190.224516,146.811429 C187.877849,144.891429 185.104516,141.851429 181.904516,137.691429 C180.304516,134.811429 181.371183,132.891429 185.104516,131.931429 C201.211183,129.691429 213.904516,128.091429 223.184516,127.131429 L223.184516,122.011429 C220.731183,122.331429 217.957849,122.811429 214.864516,123.451429 C214.651183,123.451429 214.384516,123.504762 214.064516,123.611429 C211.504516,124.144762 209.424516,123.718095 207.824516,122.331429 C205.264516,119.984762 202.757849,116.784762 200.304516,112.731429 C199.664516,110.598095 200.357849,109.211429 202.384516,108.571429 Z" id="堂"></path>
                <path d="M391.024516,52.0914286 C391.984516,51.8780952 393.584516,51.5580952 395.824516,51.1314286 C397.424516,50.9180952 398.651183,50.7047619 399.504516,50.4914286 L399.504516,48.4114286 C398.437849,48.7314286 396.891183,49.1047619 394.864516,49.5314286 C393.051183,49.9580952 391.771183,50.2780952 391.024516,50.4914286 L391.024516,52.0914286 Z M392.464516,66.4914286 C394.597849,66.1714286 396.944516,65.6914286 399.504516,65.0514286 L399.504516,62.3314286 C398.651183,62.4380952 397.477849,62.7047619 395.984516,63.1314286 C395.131183,63.3447619 394.544516,63.5047619 394.224516,63.6114286 C394.117849,63.6114286 393.904516,63.6647619 393.584516,63.7714286 C392.944516,63.8780952 392.517849,63.8780952 392.304516,63.7714286 C392.304516,64.0914286 392.331183,64.5714286 392.384516,65.2114286 C392.437849,65.8514286 392.464516,66.2780952 392.464516,66.4914286 Z M423.824516,72.7314286 C423.184516,72.8380952 422.117849,72.9980952 420.624516,73.2114286 C419.344516,73.3180952 418.384516,73.4247619 417.744516,73.5314286 L417.744516,73.6914286 L417.744516,76.5714286 C418.917849,75.3980952 420.304516,75.0247619 421.904516,75.4514286 C424.144516,76.0914286 426.331183,76.7847619 428.464516,77.5314286 C427.931183,76.9980952 427.131183,76.1447619 426.064516,74.9714286 C425.211183,74.0114286 424.571183,73.3180952 424.144516,72.8914286 L423.984516,72.8914286 C423.984516,72.7847619 423.931183,72.7314286 423.824516,72.7314286 Z M423.824516,61.6914286 C424.891183,62.7580952 425.851183,63.9314286 426.704516,65.2114286 C426.704516,65.1047619 426.757849,64.8914286 426.864516,64.5714286 C427.504516,60.6247619 428.037849,54.7047619 428.464516,46.8114286 C428.571183,44.3580952 427.557849,43.2914286 425.424516,43.6114286 C425.317849,43.6114286 425.211183,43.6114286 425.104516,43.6114286 C423.931183,43.8247619 422.011183,44.1447619 419.344516,44.5714286 C418.597849,44.6780952 418.011183,44.7847619 417.584516,44.8914286 L417.584516,47.1314286 C419.077849,46.9180952 420.251183,46.7580952 421.104516,46.6514286 C421.211183,46.6514286 421.317849,46.6514286 421.424516,46.6514286 C422.171183,46.5447619 422.864516,46.8114286 423.504516,47.4514286 C425.531183,49.6914286 426.917849,51.7180952 427.664516,53.5314286 C427.557849,55.9847619 426.704516,57.5314286 425.104516,58.1714286 C422.757849,58.4914286 420.304516,58.8647619 417.744516,59.2914286 L417.744516,61.5314286 C419.237849,61.2114286 420.464516,60.9980952 421.424516,60.8914286 C421.531183,60.8914286 421.637849,60.8914286 421.744516,60.8914286 C422.491183,60.7847619 423.184516,61.0514286 423.824516,61.6914286 Z M428.784516,10.8114286 C427.397849,7.61142857 428.144516,5.7447619 431.024516,5.21142857 C435.717849,4.99809524 440.357849,5.7447619 444.944516,7.45142857 C447.397849,8.19809524 448.731183,9.63809524 448.944516,11.7714286 C450.011183,15.5047619 449.797849,18.7580952 448.304516,21.5314286 C446.704516,23.9847619 444.091183,24.3580952 440.464516,22.6514286 C434.811183,18.2780952 430.917849,14.3314286 428.784516,10.8114286 Z M396.464516,8.89142857 C396.144516,3.9847619 398.331183,1.37142857 403.024516,1.05142857 C408.677849,2.75809524 413.104516,4.67809524 416.304516,6.81142857 C417.157849,7.77142857 417.531183,9.31809524 417.424516,11.4514286 C417.424516,11.8780952 417.424516,12.1980952 417.424516,12.4114286 L417.424516,14.3314286 C418.277849,14.1180952 419.397849,13.9047619 420.784516,13.6914286 C421.744516,13.4780952 422.437849,13.3180952 422.864516,13.2114286 C425.851183,12.5714286 427.824516,12.6780952 428.784516,13.5314286 C431.024516,15.2380952 432.784516,17.4780952 434.064516,20.2514286 C435.131183,22.1714286 435.291183,23.9847619 434.544516,25.6914286 C433.477849,27.3980952 431.984516,28.0914286 430.064516,27.7714286 C429.211183,27.4514286 427.877849,27.4514286 426.064516,27.7714286 C425.637849,27.8780952 425.317849,27.9314286 425.104516,27.9314286 C423.184516,28.1447619 420.677849,28.6247619 417.584516,29.3714286 L417.584516,32.2514286 C418.971183,32.0380952 419.451183,31.9314286 419.024516,31.9314286 C425.317849,30.7580952 428.677849,30.1714286 429.104516,30.1714286 C431.984516,29.8514286 434.064516,30.0647619 435.344516,30.8114286 C438.971183,32.7314286 442.171183,34.6514286 444.944516,36.5714286 C446.757849,38.1714286 447.557849,40.6247619 447.344516,43.9314286 C447.024516,46.3847619 446.597849,49.9580952 446.064516,54.6514286 C445.424516,61.0514286 444.837849,66.0647619 444.304516,69.6914286 C443.664516,74.8114286 442.491183,78.5980952 440.784516,81.0514286 C439.824516,82.7580952 438.277849,83.3980952 436.144516,82.9714286 C436.357849,83.5047619 436.464516,84.1980952 436.464516,85.0514286 C445.637849,83.8780952 451.504516,83.2380952 454.064516,83.1314286 C456.944516,82.7047619 458.971183,83.3980952 460.144516,85.2114286 C461.851183,87.2380952 463.771183,90.4380952 465.904516,94.8114286 C466.651183,97.9047619 465.744516,100.411429 463.184516,102.331429 C460.731183,104.038095 458.651183,104.198095 456.944516,102.811429 C454.597849,101.211429 452.091183,100.571429 449.424516,100.891429 C445.157849,101.211429 440.997849,101.531429 436.944516,101.851429 L436.944516,123.771429 C436.944516,124.198095 436.944516,124.784762 436.944516,125.531429 C437.157849,129.158095 437.104516,131.878095 436.784516,133.691429 C435.611183,139.558095 434.117849,143.771429 432.304516,146.331429 C428.784516,150.278095 425.051183,150.758095 421.104516,147.771429 C418.544516,144.998095 415.771183,142.384762 412.784516,139.931429 C411.824516,139.184762 410.277849,137.958095 408.144516,136.251429 C404.197849,133.264762 401.584516,131.078095 400.304516,129.691429 C399.344516,128.731429 399.104516,127.771429 399.584516,126.811429 C400.064516,125.851429 400.997849,125.451429 402.384516,125.611429 C403.771183,125.771429 405.584516,126.011429 407.824516,126.331429 C410.384516,126.758095 412.304516,127.024762 413.584516,127.131429 C415.611183,127.558095 416.677849,126.491429 416.784516,123.931429 C416.784516,123.611429 416.837849,122.224762 416.944516,119.771429 C417.157849,113.264762 417.317849,108.091429 417.424516,104.251429 C416.997849,104.251429 416.357849,104.358095 415.504516,104.571429 C416.037849,104.358095 415.931183,104.331429 415.184516,104.491429 C414.437849,104.651429 413.264516,104.891429 411.664516,105.211429 C408.464516,105.744762 406.117849,106.171429 404.624516,106.491429 L405.584516,106.971429 C408.571183,108.464762 409.957849,110.864762 409.744516,114.171429 C409.211183,119.398095 407.664516,122.438095 405.104516,123.291429 C402.117849,124.464762 399.397849,123.878095 396.944516,121.531429 C395.024516,119.504762 392.784516,115.984762 390.224516,110.971429 C389.904516,110.438095 389.691183,110.064762 389.584516,109.851429 C387.557849,110.384762 385.051183,111.024762 382.064516,111.771429 C380.357849,112.198095 379.291183,112.464762 378.864516,112.571429 C375.984516,113.531429 373.424516,112.998095 371.184516,110.971429 C368.197849,108.091429 365.797849,105.211429 363.984516,102.331429 C363.131183,100.091429 363.824516,98.4914286 366.064516,97.5314286 C382.171183,94.0114286 396.837849,91.1314286 410.064516,88.8914286 C410.491183,88.7847619 411.237849,88.6780952 412.304516,88.5714286 C412.944516,88.4647619 414.597849,88.1980952 417.264516,87.7714286 C417.264516,87.0247619 416.731183,86.1714286 415.664516,85.2114286 C413.957849,87.3447619 411.344516,87.7180952 407.824516,86.3314286 C406.011183,85.2647619 403.397849,83.2914286 399.984516,80.4114286 C399.451183,79.3447619 399.184516,78.1714286 399.184516,76.8914286 C398.117849,77.1047619 396.731183,77.4247619 395.024516,77.8514286 C394.917849,77.9580952 394.811183,78.0114286 394.704516,78.0114286 C394.597849,78.0114286 394.464516,78.0380952 394.304516,78.0914286 C394.144516,78.1447619 394.011183,78.2247619 393.904516,78.3314286 C394.011183,79.5047619 394.224516,80.9447619 394.544516,82.6514286 C394.757849,83.7180952 394.864516,84.4647619 394.864516,84.8914286 C394.864516,86.7047619 393.797849,88.3047619 391.664516,89.6914286 C389.744516,90.8647619 387.877849,91.0780952 386.064516,90.3314286 C382.971183,89.1580952 380.304516,87.1847619 378.064516,84.4114286 C377.211183,83.3447619 376.731183,81.0514286 376.624516,77.5314286 C376.304516,74.5447619 375.984516,70.8647619 375.664516,66.4914286 C371.504516,67.0247619 367.024516,67.7714286 362.224516,68.7314286 C362.224516,71.6114286 362.277849,76.2514286 362.384516,82.6514286 C362.384516,88.8380952 362.384516,93.2380952 362.384516,95.8514286 C362.384516,98.4647619 362.384516,102.598095 362.384516,108.251429 C362.277849,119.451429 362.277849,126.118095 362.384516,128.251429 C362.384516,130.811429 362.491183,132.944762 362.704516,134.651429 C362.917849,137.318095 361.851183,139.718095 359.504516,141.851429 C355.984516,144.304762 352.357849,143.984762 348.624516,140.891429 C346.384516,138.224762 344.464516,135.344762 342.864516,132.251429 C341.797849,129.798095 341.264516,128.091429 341.264516,127.131429 C341.051183,125.958095 341.264516,124.571429 341.904516,122.971429 C342.651183,121.051429 343.131183,108.198095 343.344516,84.4114286 C343.344516,79.9314286 343.344516,76.7847619 343.344516,74.9714286 L343.344516,73.6914286 C342.064516,74.1180952 340.464516,74.6514286 338.544516,75.2914286 C337.371183,75.7180952 336.571183,75.9847619 336.144516,76.0914286 C333.264516,77.1580952 331.131183,76.9980952 329.744516,75.6114286 C327.291183,73.5847619 324.251183,70.4380952 320.624516,66.1714286 C319.237849,63.6114286 320.091183,61.4247619 323.184516,59.6114286 C329.051183,57.7980952 335.824516,55.9314286 343.504516,54.0114286 L343.504516,28.0914286 C343.504516,25.8514286 343.237849,23.7180952 342.704516,21.6914286 C341.851183,19.6647619 342.544516,17.7447619 344.784516,15.9314286 C346.704516,14.1180952 348.517849,13.5314286 350.224516,14.1714286 C354.491183,15.5580952 358.384516,17.6914286 361.904516,20.5714286 C363.504516,21.8514286 364.037849,23.5047619 363.504516,25.5314286 C363.504516,25.9580952 363.397849,26.8914286 363.184516,28.3314286 C362.971183,29.7714286 362.811183,30.6514286 362.704516,30.9714286 C362.597849,32.2514286 362.491183,34.2780952 362.384516,37.0514286 C362.384516,38.4380952 362.384516,40.0914286 362.384516,42.0114286 C362.384516,43.7180952 362.384516,46.2780952 362.384516,49.6914286 C364.944516,49.1580952 366.757849,48.7314286 367.824516,48.4114286 C370.384516,47.8780952 372.304516,48.1447619 373.584516,49.2114286 C373.477849,48.7847619 373.371183,48.0914286 373.264516,47.1314286 C373.051183,45.5314286 372.837849,44.1980952 372.624516,43.1314286 C372.624516,39.9314286 375.237849,38.5447619 380.464516,38.9714286 C380.677849,39.0780952 381.051183,39.1847619 381.584516,39.2914286 C382.651183,39.6114286 383.397849,39.8247619 383.824516,39.9314286 C385.424516,39.6114286 388.037849,38.9714286 391.664516,38.0114286 C395.291183,37.0514286 397.851183,36.3580952 399.344516,35.9314286 L399.344516,33.3714286 C396.997849,33.9047619 394.224516,34.5980952 391.024516,35.4514286 C390.384516,35.6647619 389.957849,35.7714286 389.744516,35.7714286 C388.144516,36.1980952 386.651183,35.8780952 385.264516,34.8114286 C384.197849,33.7447619 382.704516,32.0380952 380.784516,29.6914286 C380.037849,28.8380952 379.504516,28.1980952 379.184516,27.7714286 C378.224516,25.5314286 379.291183,23.6647619 382.384516,22.1714286 C387.184516,20.7847619 392.731183,19.3980952 399.024516,18.0114286 C398.917849,16.8380952 398.864516,15.7714286 398.864516,14.8114286 C398.757849,13.2114286 397.957849,11.2380952 396.464516,8.89142857 Z" id="博"></path>
                <path d="M563.824516,99.6114286 C565.104516,100.678095 565.904516,101.691429 566.224516,102.651429 C566.437849,97.5314286 566.597849,91.7714286 566.704516,85.3714286 C566.811183,79.9314286 566.811183,76.6247619 566.704516,75.4514286 C566.811183,73.4247619 566.117849,72.5180952 564.624516,72.7314286 C559.504516,73.0514286 553.104516,73.9580952 545.424516,75.4514286 C547.664516,76.1980952 550.117849,77.4780952 552.784516,79.2914286 C552.997849,79.3980952 553.157849,79.5047619 553.264516,79.6114286 C555.077849,80.7847619 555.611183,82.9180952 554.864516,86.0114286 C554.651183,86.6514286 554.384516,87.7714286 554.064516,89.3714286 C553.531183,91.9314286 553.051183,93.9580952 552.624516,95.4514286 C552.944516,95.4514286 553.317849,95.5047619 553.744516,95.6114286 C559.291183,97.3180952 562.651183,98.6514286 563.824516,99.6114286 Z M567.504516,39.2914286 C572.624516,39.2914286 576.571183,39.7180952 579.344516,40.5714286 C583.717849,41.7447619 587.131183,43.1314286 589.584516,44.7314286 C592.571183,46.4380952 593.691183,49.5847619 592.944516,54.1714286 C592.091183,58.5447619 590.277849,61.0514286 587.504516,61.6914286 C585.157849,62.0114286 583.024516,61.3714286 581.104516,59.7714286 C577.477849,56.4647619 574.757849,53.9047619 572.944516,52.0914286 C570.384516,49.6380952 567.717849,47.2914286 564.944516,45.0514286 C562.811183,41.9580952 563.664516,40.0380952 567.504516,39.2914286 Z M499.344516,30.4914286 C499.451183,28.5714286 499.024516,26.7580952 498.064516,25.0514286 C497.637849,23.9847619 497.957849,22.7580952 499.024516,21.3714286 C500.624516,19.2380952 502.491183,18.5447619 504.624516,19.2914286 C507.291183,20.2514286 509.957849,21.5314286 512.624516,23.1314286 C514.224516,24.0914286 514.971183,25.9047619 514.864516,28.5714286 C514.864516,28.9980952 514.864516,30.3314286 514.864516,32.5714286 C515.077849,46.2247619 515.077849,55.4514286 514.864516,60.2514286 C514.331183,63.9847619 512.517849,65.6380952 509.424516,65.2114286 C506.331183,63.7180952 503.504516,62.1180952 500.944516,60.4114286 C499.451183,59.1314286 498.811183,57.0514286 499.024516,54.1714286 C499.451183,50.5447619 499.557849,42.6514286 499.344516,30.4914286 Z M556.144516,8.73142857 C555.717849,7.45142857 556.251183,6.11809524 557.744516,4.73142857 C557.851183,4.6247619 558.011183,4.4647619 558.224516,4.25142857 C560.144516,1.79809524 562.491183,1.31809524 565.264516,2.81142857 C568.784516,4.41142857 571.984516,6.49142857 574.864516,9.05142857 C577.211183,10.7580952 577.477849,13.1047619 575.664516,16.0914286 C575.451183,16.6247619 574.971183,17.5847619 574.224516,18.9714286 C573.477849,20.5714286 572.837849,21.7980952 572.304516,22.6514286 C579.984516,21.0514286 588.891183,19.1847619 599.024516,17.0514286 C600.624516,17.0514286 601.904516,17.4780952 602.864516,18.3314286 C605.317849,20.5714286 607.291183,23.3447619 608.784516,26.6514286 C609.744516,28.5714286 609.317849,30.5447619 607.504516,32.5714286 C606.544516,33.7447619 604.944516,34.2247619 602.704516,34.0114286 C602.384516,33.9047619 602.117849,33.8514286 601.904516,33.8514286 C599.984516,33.6380952 597.691183,33.6914286 595.024516,34.0114286 C585.957849,34.9714286 579.451183,36.0914286 575.504516,37.3714286 C572.624516,38.4380952 570.331183,37.9580952 568.624516,35.9314286 C568.304516,35.6114286 567.931183,35.2114286 567.504516,34.7314286 C567.077849,34.2514286 566.757849,33.9047619 566.544516,33.6914286 C563.664516,39.0247619 561.317849,43.1314286 559.504516,46.0114286 C557.797849,48.2514286 555.877849,49.9047619 553.744516,50.9714286 C552.357849,51.6114286 549.851183,52.4647619 546.224516,53.5314286 C543.344516,54.4914286 541.104516,55.2380952 539.504516,55.7714286 L539.504516,56.5714286 C539.504516,59.2380952 538.704516,61.2647619 537.104516,62.6514286 C547.664516,60.6247619 556.731183,59.1314286 564.304516,58.1714286 C566.331183,58.1714286 567.717849,57.7447619 568.464516,56.8914286 C569.637849,56.1447619 571.291183,56.2514286 573.424516,57.2114286 C576.731183,59.2380952 580.731183,62.5447619 585.424516,67.1314286 C586.597849,68.7314286 586.597849,70.1714286 585.424516,71.4514286 C584.677849,71.9847619 584.304516,72.8914286 584.304516,74.1714286 C584.304516,74.9180952 584.304516,80.0380952 584.304516,89.5314286 C584.197849,101.904762 584.144516,108.678095 584.144516,109.851429 C583.717849,113.584762 581.637849,115.184762 577.904516,114.651429 C575.024516,114.118095 572.144516,112.944762 569.264516,111.131429 C566.917849,110.064762 565.904516,108.144762 566.224516,105.371429 C566.011183,106.331429 565.797849,107.451429 565.584516,108.731429 C565.371183,109.798095 565.157849,110.651429 564.944516,111.291429 C564.197849,115.451429 563.824516,118.544762 563.824516,120.571429 C563.611183,125.264762 565.691183,127.878095 570.064516,128.411429 C575.291183,129.051429 584.997849,128.944762 599.184516,128.091429 C600.997849,127.984762 602.277849,127.931429 603.024516,127.931429 C607.611183,127.718095 610.117849,125.478095 610.544516,121.211429 C610.971183,118.438095 611.397849,114.971429 611.824516,110.811429 C612.251183,107.718095 612.517849,105.744762 612.624516,104.891429 C612.837849,103.718095 613.371183,103.078095 614.224516,102.971429 C615.077849,103.078095 615.664516,103.718095 615.984516,104.891429 C616.091183,105.211429 616.251183,105.691429 616.464516,106.331429 C618.704516,113.691429 620.517849,119.238095 621.904516,122.971429 C622.437849,124.464762 623.237849,125.691429 624.304516,126.651429 C625.904516,128.464762 626.064516,131.504762 624.784516,135.771429 C623.077849,141.211429 619.504516,144.304762 614.064516,145.051429 C606.171183,146.331429 597.717849,147.051429 588.704516,147.211429 C579.691183,147.371429 572.144516,146.918095 566.064516,145.851429 C554.437849,143.611429 548.197849,138.064762 547.344516,129.211429 C546.811183,124.624762 547.611183,116.624762 549.744516,105.211429 L549.744516,104.571429 C548.357849,108.944762 546.491183,113.424762 544.144516,118.011429 C539.664516,126.971429 533.371183,134.224762 525.264516,139.771429 C522.384516,141.798095 519.717849,142.918095 517.264516,143.131429 C510.437849,144.091429 503.824516,144.731429 497.424516,145.051429 C496.037849,145.051429 495.317849,144.571429 495.264516,143.611429 C495.211183,142.651429 495.877849,141.744762 497.264516,140.891429 C498.651183,140.038095 500.517849,138.971429 502.864516,137.691429 C509.584516,133.958095 515.077849,130.011429 519.344516,125.851429 C526.597849,119.451429 531.664516,111.291429 534.544516,101.371429 C537.531183,91.1314286 538.491183,84.2514286 537.424516,80.7314286 C536.997849,79.5580952 537.104516,78.3847619 537.744516,77.2114286 C537.531183,77.3180952 537.211183,77.4247619 536.784516,77.5314286 C536.144516,77.6380952 535.344516,77.7980952 534.384516,78.0114286 C533.211183,78.3314286 531.931183,78.1714286 530.544516,77.5314286 L530.544516,90.6514286 C530.437849,95.1314286 530.437849,100.038095 530.544516,105.371429 C530.544516,107.078095 530.544516,108.304762 530.544516,109.051429 C529.477849,113.211429 527.291183,114.811429 523.984516,113.851429 C521.424516,112.784762 518.971183,111.504762 516.624516,110.011429 C514.917849,108.944762 514.171183,106.918095 514.384516,103.931429 C514.384516,103.824762 514.384516,103.718095 514.384516,103.611429 C514.491183,102.011429 514.597849,97.9580952 514.704516,91.4514286 C514.811183,82.5980952 514.971183,76.6514286 515.184516,73.6114286 C515.397849,70.5714286 515.077849,68.4647619 514.224516,67.2914286 C513.264516,64.1980952 514.757849,62.3314286 518.704516,61.6914286 C521.157849,62.4380952 523.931183,63.4514286 527.024516,64.7314286 C527.344516,64.6247619 527.797849,64.5180952 528.384516,64.4114286 C528.971183,64.3047619 530.171183,64.0380952 531.984516,63.6114286 C530.277849,63.1847619 528.197849,61.9580952 525.744516,59.9314286 C525.424516,59.7180952 525.211183,59.5580952 525.104516,59.4514286 C523.184516,58.3847619 522.384516,56.0914286 522.704516,52.5714286 C522.704516,51.2914286 522.757849,49.0514286 522.864516,45.8514286 C522.971183,40.0914286 523.077849,35.6114286 523.184516,32.4114286 C523.291183,24.5180952 523.237849,18.7047619 523.024516,14.9714286 C523.024516,13.0514286 522.491183,11.5047619 521.424516,10.3314286 C521.211183,6.91809524 523.077849,4.99809524 527.024516,4.57142857 C530.651183,5.7447619 533.637849,6.91809524 535.984516,8.09142857 C538.651183,9.37142857 539.824516,11.3980952 539.504516,14.1714286 C539.397849,15.8780952 539.344516,18.1714286 539.344516,21.0514286 C539.344516,22.4380952 539.344516,24.0380952 539.344516,25.8514286 C539.344516,27.3447619 539.344516,29.6914286 539.344516,32.8914286 C539.344516,34.4914286 539.344516,37.1047619 539.344516,40.7314286 C539.451183,44.6780952 539.504516,47.5580952 539.504516,49.3714286 C541.317849,46.4914286 543.877849,42.0114286 547.184516,35.9314286 C547.824516,34.6514286 548.304516,33.7447619 548.624516,33.2114286 C552.251183,25.9580952 555.024516,19.4514286 556.944516,13.6914286 C557.584516,11.9847619 557.477849,10.5980952 556.624516,9.53142857 C556.411183,9.21142857 556.251183,8.9447619 556.144516,8.73142857 Z" id="览"></path>
            </g>
        </g>
    </g>
</svg>