<?xml version="1.0" encoding="UTF-8"?>
<svg width="145px" height="37px" viewBox="0 0 145 37" version="1.1" xmlns="http://www.w3.org/2000/svg" xmlns:xlink="http://www.w3.org/1999/xlink">
    <title>编组备份</title>
    <g id="页面-1" stroke="none" stroke-width="1" fill="none" fill-rule="evenodd">
        <g id="华夏祠堂首页备份-2" transform="translate(-745.000000, -1031.000000)">
            <g id="编组-2" transform="translate(687.000000, 1031.000000)">
                <g id="编组备份" transform="translate(58.500000, 0.000000)">
                    <g id="分组-6">
                        <path d="M11.4739268,14.6299835 C7.06088708,22.5944184 7.60474156,29.7573796 13.1054903,36.1188672 C13.1879619,36.0880696 14.4086995,36.0880696 16.7677031,36.1188672 C10.44919,30.5495648 9.22845236,23.3866036 13.1054903,14.6299835 C13.1575145,14.6488298 12.61366,14.6488298 11.4739268,14.6299835 Z" id="路径-2" stroke="#9B947A" stroke-width="1.06646055" fill="#9B947A"></path>
                        <path d="M6.22589395,19.8818087 C7.20421919,20.9675405 7.91295037,21.7433902 8.35208747,22.2093577 C8.35208747,22.2093577 8.71357625,22.5115325 9.43655382,23.1158823 L8.35208747,23.7560926 C7.18540525,22.6872867 6.15129067,21.3958588 5.24974373,19.8818087 C5.24974373,19.8818087 5.57512713,19.8818087 6.22589395,19.8818087 Z" id="路径-3" stroke="#9B947A" stroke-width="1.06646055" fill="#9B947A"></path>
                        <path d="M11.2909782,28.0402216 C12.9126752,27.2015681 14.0449921,26.1797616 14.6879288,24.9748022 C14.6879288,24.9748022 15.2366914,24.9748022 16.3342167,24.9748022 C14.9495884,27.0594106 13.268509,28.7858884 11.2909782,30.1542356 C10.9410171,30.1744759 10.9410171,29.4698046 11.2909782,28.0402216 Z" id="路径-4" stroke="#9B947A" stroke-width="1.06646055" fill="#9B947A"></path>
                        <rect id="矩形" stroke="#87B942" stroke-width="2.13292109" x="1.06646055" y="12.0490374" width="6.21916637" height="6.31521496"></rect>
                        <rect id="矩形-copy-7" stroke="#B9B7B0" stroke-width="1.06646055" x="3.87406526" y="4.7572983" width="3.94479193" height="4.00242109"></rect>
                        <rect id="矩形-copy-8" stroke="#9B947A" stroke-width="1.53316794" x="10.7890889" y="8.36990642" width="5.14850203" height="5.2253409"></rect>
                        <rect id="矩形-copy-9" stroke="#B9B7B0" stroke-width="2.13292109" x="19.441053" y="7.82496939" width="5.38395763" height="5.47040136"></rect>
                        <rect id="矩形-copy-10" stroke="#B9B7B0" stroke-width="2.13292109" x="14.4298005" y="17.9627327" width="6.21916637" height="6.31521496"></rect>
                        <rect id="矩形-copy-11" stroke="#87B942" stroke-width="2.13292109" x="11.0889655" y="1.06646055" width="4.54874888" height="4.62558775"></rect>
                    </g>
                    <path d="M73.9108985,20.37206 L74.0732966,20.3778137 C74.0760727,20.3780183 74.0788428,20.3782284 74.081607,20.3784438 L76.7653588,20.3787341 L76.7653588,22.822405 L75.7699999,22.8219999 L77.0401865,26.077693 L77.377475,27.3581651 L77.4149515,27.3581651 L77.4654407,27.1029076 C77.5504568,26.6914269 77.6398105,26.3496887 77.7335018,26.077693 L77.7335018,26.077693 L78.8379999,22.8219999 L77.8714361,22.822405 L77.8714361,20.3787341 L80.4827774,20.3781286 C80.5329855,20.3740829 80.5847032,20.37206 80.6379307,20.37206 L80.6379307,20.37206 L82.2494204,20.37206 L82.2489999,20.3779999 L82.7381764,20.3787341 L82.7381764,22.822405 L81.3929999,22.8219999 L77.9958373,31.4255471 L77.8822511,31.6941719 C77.5651659,32.3903569 77.1345717,32.9253593 76.5904684,33.299179 C75.9783522,33.7197262 75.2975291,33.9299998 74.547999,33.9299998 C74.098281,33.9299998 73.6735473,33.8484011 73.2737979,33.6852037 C72.8740485,33.5220063 72.5867287,33.3588089 72.4118383,33.1956114 L72.4118383,33.1956114 L72.1307646,32.9508153 L73.0489389,31.2560728 L73.0620557,31.2756565 C73.08704,31.3077938 73.1420055,31.3640342 73.2269523,31.4443775 C73.3331357,31.5448067 73.50178,31.6483743 73.7328851,31.7550803 C73.9639902,31.8617863 74.1919722,31.9151393 74.4168312,31.9151393 C75.1288848,31.9151393 75.6535558,31.5071458 75.9908444,30.6911587 L75.9908444,30.6911587 L76.3093946,29.9567702 L73.1569999,22.8219999 L71.8986185,22.822405 L71.8986185,20.3787341 L72.3359999,20.3779999 L72.3368853,20.37206 L73.9108985,20.37206 Z M37.7460731,20.1460943 C40.49435,20.1460943 41.8684885,21.4202896 41.8684885,23.9686801 L41.8684885,23.9686801 L41.8684885,27.5464698 L41.8749297,27.6435645 C41.904989,27.855015 42.0402558,27.9607402 42.28073,27.9607402 L42.28073,27.9607402 L43.0302601,27.9607402 L43.0302601,29.9756007 L40.8940994,29.9756007 L40.7239255,29.9696441 C40.3965797,29.9458178 40.1472462,29.8505126 39.9759251,29.6837284 C39.7760504,29.4891469 39.676113,29.2349355 39.676113,28.9210943 L39.676113,28.9210943 L39.6948513,28.5068239 L39.6573748,28.5068239 L39.6303084,28.561223 L39.6303084,28.561223 L39.5636835,28.6951286 C39.526207,28.7704505 39.4262697,28.9054022 39.2638715,29.0999838 C39.1014733,29.2945653 38.9203369,29.467178 38.7204622,29.6178218 C38.5205875,29.7684655 38.2457599,29.9034172 37.8959792,30.0226769 C37.5461985,30.1419366 37.1714334,30.2015664 36.7716841,30.2015664 C35.872248,30.2015664 35.1039797,29.931663 34.4668791,29.3918561 C33.8297786,28.8520492 33.5112283,28.1239376 33.5112283,27.2075213 C33.5112283,26.7304827 33.6111657,26.3036587 33.8110403,25.9270492 C34.010915,25.5504398 34.2888658,25.2491522 34.6448925,25.0231866 C35.0009193,24.7972209 35.3725613,24.6057778 35.7598185,24.4488572 C36.1470757,24.2919366 36.5749324,24.1820922 37.0433887,24.1193239 C37.511845,24.0565557 37.9053483,24.0126179 38.2238986,23.9875106 C38.5424488,23.9624033 38.8641221,23.9498497 39.1889185,23.9498497 L39.1889185,23.9498497 L39.4887305,23.9498497 L39.4887305,23.8745278 L39.4835255,23.6557688 C39.4557651,23.0916296 39.3169632,22.6812338 39.0671199,22.4245814 C38.7860461,22.1358475 38.3394511,21.9914806 37.7273349,21.9914806 C37.4275229,21.9914806 37.140203,22.0385568 36.8653753,22.1327091 C36.5905476,22.2268615 36.4531338,22.3931973 36.4531338,22.6317166 L36.4531338,22.6317166 L36.4531338,23.1401394 L34.2420201,23.1401394 L34.2420201,22.1232939 L34.2498596,21.9495924 C34.2812175,21.6098753 34.406649,21.3162737 34.6261543,21.0687875 C34.8822437,20.7800536 35.2195322,20.5760568 35.6380199,20.4567971 C36.0565075,20.3375375 36.4312725,20.2559387 36.7623149,20.212001 C37.0933574,20.1680632 37.4212768,20.1460943 37.7460731,20.1460943 Z M127.239962,20.1460943 C127.727157,20.1460943 128.214351,20.2057242 128.701546,20.3249838 C129.18874,20.4442435 129.644704,20.676486 130.069438,21.0217113 C130.494172,21.3669366 130.706539,21.796899 130.706539,22.3115986 L130.706539,22.3115986 L130.706539,23.4414269 L128.607854,23.4414269 L128.607854,22.9141737 L128.60112,22.8272299 C128.569695,22.6301965 128.42828,22.4740114 128.176875,22.3586748 C127.889555,22.2268615 127.577251,22.1609548 127.239962,22.1609548 C126.415479,22.1609548 125.737779,22.4434119 125.206862,23.0083261 C124.675945,23.5732402 124.410486,24.2887982 124.410486,25.1549999 C124.410486,26.0839698 124.700929,26.808943 125.281815,27.3299194 C125.862701,27.8508958 126.565385,28.111384 127.389868,28.111384 C127.877063,28.111384 128.354888,28.004678 128.823344,27.791266 C129.291801,27.577854 129.644704,27.3644419 129.882056,27.1510299 L129.882056,27.1510299 L130.219344,26.8120814 L131.212471,28.469163 L131.168749,28.5235621 C131.135436,28.5626179 131.093796,28.6072531 131.043827,28.6574677 C130.968874,28.7327896 130.803353,28.8708797 130.547263,29.0717381 C130.291174,29.2725964 130.019469,29.4483475 129.73215,29.5989913 C129.44483,29.7496351 129.070065,29.8877252 128.607854,30.0132617 C128.145644,30.1387981 127.670942,30.2015664 127.183747,30.2015664 C125.647211,30.2015664 124.401117,29.7213893 123.445466,28.7610353 C122.489815,27.8006812 122.01199,26.6049462 122.01199,25.1738304 C122.01199,23.7678218 122.486692,22.5783636 123.436097,21.6054559 C124.385502,20.6325482 125.653457,20.1460943 127.239962,20.1460943 Z M98.2144106,20.1460943 C99.5385804,20.1460943 100.57543,20.5760568 101.32496,21.4359817 C102.07449,22.2959066 102.449255,23.3849355 102.449255,24.7030686 L102.449255,24.7030686 L102.393041,25.5881007 L95.7971762,25.5881007 L95.8301555,25.827436 C95.9493308,26.5290594 96.2506418,27.0832402 96.7340887,27.4899784 C97.2712519,27.9419097 97.9145986,28.1678754 98.6641286,28.1678754 C99.1138467,28.1678754 99.5635647,28.0799999 100.013283,27.9042488 C100.463001,27.7284977 100.794043,27.5527467 101.00641,27.3769956 L101.00641,27.3769956 L101.343699,27.0945385 L102.336826,28.75162 L102.293103,28.7945117 C102.259791,28.8265932 102.21815,28.865649 102.168182,28.9116791 C102.093229,28.9807241 101.927707,29.0968454 101.671618,29.2600428 C101.415529,29.4232402 101.15007,29.5676072 100.875242,29.6931436 C100.600415,29.8186801 100.247511,29.9348014 99.8165311,30.0415074 C99.3855513,30.1482134 98.9452024,30.2015664 98.4954844,30.2015664 C96.9589478,30.2015664 95.7191001,29.7151125 94.7759415,28.7422048 C93.8327828,27.7692971 93.3612035,26.5798389 93.3612035,25.1738304 C93.3612035,23.6924999 93.8109215,22.4842113 94.7103576,21.5489645 C95.6097936,20.6137177 96.7778113,20.1460943 98.2144106,20.1460943 Z M108.051993,20.1460943 C110.800269,20.1460943 112.174408,21.4202896 112.174408,23.9686801 L112.174408,23.9686801 L112.174408,27.5464698 L112.180849,27.6435645 C112.210908,27.855015 112.346175,27.9607402 112.586649,27.9607402 L112.586649,27.9607402 L113.33618,27.9607402 L113.33618,29.9756007 L111.200019,29.9756007 L111.029845,29.9696441 C110.702499,29.9458178 110.453166,29.8505126 110.281845,29.6837284 C110.08197,29.4891469 109.982033,29.2349355 109.982033,28.9210943 L109.982033,28.9210943 L110.000771,28.5068239 L109.963294,28.5068239 L109.936228,28.561223 C109.916796,28.6002788 109.894587,28.644914 109.869603,28.6951286 C109.832127,28.7704505 109.732189,28.9054022 109.569791,29.0999838 C109.407393,29.2945653 109.226256,29.467178 109.026382,29.6178218 C108.826507,29.7684655 108.551679,29.9034172 108.201899,30.0226769 C107.852118,30.1419366 107.477353,30.2015664 107.077604,30.2015664 C106.178167,30.2015664 105.409899,29.931663 104.772799,29.3918561 C104.135698,28.8520492 103.817148,28.1239376 103.817148,27.2075213 C103.817148,26.7304827 103.917085,26.3036587 104.11696,25.9270492 C104.316834,25.5504398 104.594785,25.2491522 104.950812,25.0231866 C105.306839,24.7972209 105.678481,24.6057778 106.065738,24.4488572 C106.452995,24.2919366 106.880852,24.1820922 107.349308,24.1193239 C107.817764,24.0565557 108.211268,24.0126179 108.529818,23.9875106 C108.848368,23.9624033 109.170042,23.9498497 109.494838,23.9498497 L109.494838,23.9498497 L109.79465,23.9498497 L109.79465,23.8745278 L109.789445,23.6557688 C109.761685,23.0916296 109.622883,22.6812338 109.373039,22.4245814 C109.091966,22.1358475 108.645371,21.9914806 108.033254,21.9914806 C107.733442,21.9914806 107.446122,22.0385568 107.171295,22.1327091 C106.896467,22.2268615 106.759053,22.3931973 106.759053,22.6317166 L106.759053,22.6317166 L106.759053,23.1401394 L104.54794,23.1401394 L104.54794,22.1232939 L104.555779,21.9495924 C104.587137,21.6098753 104.712569,21.3162737 104.932074,21.0687875 C105.188163,20.7800536 105.525452,20.5760568 105.943939,20.4567971 C106.362427,20.3375375 106.737192,20.2559387 107.068234,20.212001 C107.399277,20.1680632 107.727196,20.1460943 108.051993,20.1460943 Z M87.7772045,16.3799999 C88.3518442,16.3799999 88.926484,16.4615986 89.5011237,16.6247961 C90.0757634,16.7879935 90.5910653,17.0798658 91.0470294,17.500413 C91.5029935,17.9209602 91.7309756,18.4262446 91.7309756,19.016266 L91.7309756,19.016266 L91.7309756,20.2590772 L89.5198619,20.2590772 L89.5198619,19.6565021 L89.5115175,19.5460201 C89.4725771,19.2940645 89.2973452,19.0829573 88.9858218,18.9126984 C88.629795,18.7181169 88.2206765,18.6208261 87.7584663,18.6208261 C87.1963187,18.6208261 86.7309855,18.7526394 86.3624666,19.016266 C85.9939476,19.2798926 85.8096881,19.6251179 85.8096881,20.051942 C85.8096881,20.3532295 85.9252407,20.6262714 86.1563458,20.8710675 C86.3874509,21.1158636 86.6872629,21.3292757 87.0557819,21.5113035 C87.4243008,21.6933314 87.8302962,21.8784978 88.2737682,22.0668025 C88.7172402,22.2551072 89.1607121,22.4685192 89.6041841,22.7070385 C90.047656,22.9455578 90.4536515,23.2123229 90.8221704,23.5073336 C91.1906893,23.8023443 91.4905014,24.188369 91.7216065,24.6654076 C91.9527116,25.1424462 92.0682641,25.6759763 92.0682641,26.2659977 C92.0682641,27.3707188 91.6685148,28.3028271 90.869016,29.0623228 C90.0695173,29.8218185 88.9951909,30.2015664 87.6460368,30.2015664 C87.0963814,30.2015664 86.5623412,30.1293829 86.0439163,29.985016 C85.5254913,29.840649 85.0945115,29.6680363 84.7509769,29.467178 C84.4074423,29.2663196 84.1045073,29.0654612 83.8421717,28.8646029 C83.5798362,28.6637445 83.3862076,28.4942703 83.2612859,28.3561801 L83.2612859,28.3561801 L83.0739034,28.1302145 L84.460534,26.397811 L84.5032156,26.4417488 C84.53514,26.4752252 84.5740046,26.5170707 84.6198092,26.5672853 C84.6885161,26.6426072 84.8352991,26.7712821 85.0601581,26.95331 C85.2850171,27.1353379 85.5161222,27.2953969 85.7534734,27.433487 C85.9908246,27.5715771 86.2843905,27.6971136 86.6341712,27.8100964 C86.9839519,27.9230793 87.3337326,27.9795707 87.6835133,27.9795707 C88.2206765,27.9795707 88.6735176,27.8383421 89.0420365,27.5558851 C89.4105555,27.273428 89.5948149,26.8874033 89.5948149,26.397811 C89.5948149,26.0965235 89.4792624,25.8172048 89.2481573,25.559855 C89.0170522,25.3025052 88.7172402,25.0765396 88.3487212,24.881958 C87.9802023,24.6873765 87.5742068,24.492795 87.1307349,24.2982134 C86.6872629,24.1036319 86.243791,23.8808046 85.800319,23.6297317 C85.3568471,23.3786587 84.9508516,23.1056168 84.5823327,22.8106061 C84.2138137,22.5155954 83.9140017,22.1389859 83.6828966,21.6807778 C83.4517915,21.2225696 83.3362389,20.7110085 83.3362389,20.1460943 C83.3362389,19.0664806 83.7547266,18.1688948 84.5917018,17.4533368 C85.428677,16.7377789 86.4905113,16.3799999 87.7772045,16.3799999 Z M134.079424,16.6059656 L134.233722,16.6108939 C134.980324,16.6601768 135.353625,17.0790812 135.353625,17.8676072 L135.353625,17.8676072 L135.353625,21.2382617 L135.316148,22.047972 L135.353625,22.047972 L135.455075,21.8581962 C135.709896,21.4229376 136.091444,21.0405417 136.599719,20.7110085 C137.180605,20.334399 137.858305,20.1460943 138.632819,20.1460943 C140.856425,20.1460943 141.968228,21.3637982 141.968228,23.7992059 L141.968228,23.7992059 L141.968228,27.5464698 L141.974669,27.6435645 C142.004728,27.855015 142.139995,27.9607402 142.380469,27.9607402 L142.380469,27.9607402 L143.129999,27.9607402 L143.129999,29.9756007 L140.862671,29.9756007 L140.704274,29.9708931 C140.347662,29.9489242 140.08191,29.8500642 139.90702,29.6743132 C139.707145,29.4734548 139.607208,29.14706 139.607208,28.6951286 L139.607208,28.6951286 L139.607208,24.2887982 L139.601938,24.0559182 C139.577344,23.5293515 139.466671,23.1205243 139.26992,22.8294366 C139.045061,22.4967649 138.651557,22.3304291 138.08941,22.3304291 C137.477293,22.3304291 136.94013,22.5155954 136.47792,22.885928 C136.01571,23.2562606 135.690914,23.7364377 135.503531,24.3264591 C135.403594,24.6654076 135.353625,25.079678 135.353625,25.5692703 L135.353625,25.5692703 L135.353,28.1539999 L136.935966,28.1540505 L136.935966,30.1534176 L133.617734,30.1534176 L133.617,29.9749999 L132.973867,29.9756007 L132.973867,19.053927 L132.967426,18.9568323 C132.937367,18.7453818 132.8021,18.6396566 132.561626,18.6396566 L132.561626,18.6396566 L131.812095,18.6396566 L131.812095,16.6059656 L134.079424,16.6059656 Z M120.569145,20.2402467 L121.000124,20.2779076 L121.000124,22.6317166 L120.87247,22.61524 C120.73896,22.6011171 120.587883,22.5940557 120.419239,22.5940557 C119.857091,22.5940557 119.33242,22.7635299 118.845225,23.1024784 C118.358031,23.4414269 118.014496,23.9435729 117.814622,24.6089162 C117.677208,25.0985085 117.608501,25.6194849 117.608501,26.1718454 L117.608501,26.1718454 L117.608,28.1539999 L118.796298,28.1540505 L118.796298,30.1534176 L115.478066,30.1534176 L115.478,29.9749999 L115.247481,29.9756007 L115.247481,22.8200214 L115.24104,22.7229267 C115.210981,22.5114762 115.075714,22.405751 114.83524,22.405751 L114.83524,22.405751 L114.08571,22.405751 L114.08571,20.37206 L116.259347,20.37206 L116.413645,20.3766205 C117.160247,20.4222255 117.533548,20.8098685 117.533548,21.5395493 L117.533548,21.5395493 L117.533548,22.1044634 L117.496071,22.7070385 L117.533548,22.7070385 L117.6144,22.4731687 C117.845736,21.8619145 118.20292,21.3498497 118.68595,20.9369742 C119.22936,20.4724892 119.857091,20.2402467 120.569145,20.2402467 L120.569145,20.2402467 Z M56.4281098,20.1460943 C58.5143018,20.1460943 59.5573978,21.3637982 59.5573978,23.7992059 L59.5573978,23.7992059 L59.5573978,27.5464698 L59.5638391,27.6435645 C59.5938984,27.855015 59.7291651,27.9607402 59.9696394,27.9607402 L59.9696394,27.9607402 L60.7004312,27.9607402 L60.7004312,29.9756007 L58.451841,29.9756007 L58.2890524,29.9708931 C57.9228758,29.9489242 57.6523423,29.8500642 57.4774519,29.6743132 C57.2775772,29.4734548 57.1776399,29.14706 57.1776399,28.6951286 L57.1776399,28.6951286 L57.1776399,24.2511372 L57.1733945,24.0228178 C57.1535827,23.506549 57.0644296,23.1056168 56.9059353,22.8200214 C56.7247988,22.4936265 56.3781412,22.3304291 55.8659623,22.3304291 C55.3038148,22.3304291 54.8166202,22.5407027 54.4043787,22.9612499 C53.9921372,23.3817971 53.7173095,23.9059119 53.5798956,24.5335943 C53.4799583,24.8725428 53.4299896,25.2805364 53.4299896,25.757575 L53.4299896,25.757575 L53.4289999,28.1539999 L54.6438119,28.1540505 L54.6438119,30.1534176 L51.3255799,30.1534176 L51.3249999,29.9749999 L51.0502317,29.9756007 L51.0502317,24.2511372 L51.0462791,24.027084 C51.0278336,23.5197401 50.944829,23.1205243 50.7972653,22.8294366 C50.628621,22.4967649 50.2819634,22.3304291 49.7572923,22.3304291 C49.1826526,22.3304291 48.6954581,22.5375643 48.2957087,22.9518347 C47.8959594,23.366105 47.6148856,23.8996351 47.4524874,24.5524248 C47.3525501,24.9541415 47.3025814,25.3558583 47.3025814,25.757575 L47.3025814,25.757575 L47.3019999,28.1539999 L48.4497788,28.1540505 L48.4497788,30.1534176 L45.1315468,30.1534176 L45.1309999,29.9749999 L44.9415617,29.9756007 L44.9415617,22.8200214 L44.9351204,22.7229267 C44.9050612,22.5114762 44.7697944,22.405751 44.5293202,22.405751 L44.5293202,22.405751 L43.7797901,22.405751 L43.7797901,20.37206 L45.9721655,20.37206 L46.1339807,20.3768304 C46.8630792,20.421354 47.2276284,20.7775428 47.2276284,21.4453969 L47.2276284,21.4453969 L47.2276284,21.727854 L47.2088901,22.1421244 L47.2463666,22.1421244 L47.3472311,21.9473467 C47.5993192,21.4997307 47.9685701,21.1001716 48.4549839,20.7486694 C49.0108853,20.3469527 49.6386167,20.1460943 50.3381781,20.1460943 C51.7872696,20.1460943 52.7179361,20.8051608 53.1301776,22.1232939 L53.1301776,22.1232939 L53.1676541,22.1232939 L53.2780341,21.9201308 C53.5526666,21.4553515 53.9468531,21.0554492 54.4605934,20.7204237 C55.0477253,20.3375375 55.7035641,20.1460943 56.4281098,20.1460943 Z M31.2626381,16.6059656 L31.4254267,16.6108203 C31.7916034,16.6334757 32.0621369,16.7354251 32.2370272,16.9166684 C32.4369019,17.1238036 32.5368392,17.44706 32.5368392,17.8864377 L32.5368392,17.8864377 L32.5368392,19.9201287 L30.3257256,19.9201287 L30.3257256,19.1104184 L30.3192843,19.0133237 C30.289225,18.8018732 30.1539583,18.696148 29.913484,18.696148 L29.913484,18.696148 L27.3463436,18.696148 L27.3463436,22.4810729 L31.5999267,22.4810729 L31.5999267,24.5712553 L27.3463436,24.5712553 L27.3459999,28.1539999 L29.204033,28.1540505 L29.204033,30.1534176 L23.0099999,30.1534176 L23.0099999,28.1540505 L24.8909999,28.1539999 L24.8916326,18.696148 L23.6736463,18.696148 L23.6736463,16.6059656 L31.2626381,16.6059656 Z M69.2638121,16.6059656 L69.4181099,16.6109674 C70.1647121,16.6609859 70.5380132,17.0861426 70.5380132,17.8864377 L70.5380132,17.8864377 L70.5380132,27.5464698 L70.5444545,27.6435645 C70.5745137,27.855015 70.7097805,27.9607402 70.9502547,27.9607402 L70.9502547,27.9607402 L71.6810465,27.9607402 L71.6810465,29.9756007 L69.4324564,29.9756007 L69.2696678,29.9708931 C68.9034911,29.9489242 68.6329576,29.8500642 68.4580673,29.6743132 C68.2581926,29.4734548 68.1582553,29.14706 68.1582553,28.6951286 L68.1582553,28.6951286 L68.1582553,19.053927 L68.151814,18.9568323 C68.1217547,18.7453818 67.986488,18.6396566 67.7460137,18.6396566 L67.7460137,18.6396566 L66.9964837,18.6396566 L66.9964837,16.6059656 L69.2638121,16.6059656 Z M63.7922427,20.37206 L63.9506395,20.3769147 C64.3072518,20.3995701 64.5730031,20.5015195 64.7478935,20.6827628 C64.9477682,20.889898 65.0477055,21.2131544 65.0477055,21.6525321 L65.0477055,21.6525321 L65.0477055,27.5464698 L65.0541468,27.6435645 C65.0842061,27.855015 65.2194728,27.9607402 65.4599471,27.9607402 L65.4599471,27.9607402 L66.2094771,27.9607402 L66.2094771,29.9756007 L63.9421487,29.9756007 L63.7837519,29.9708931 C63.4271396,29.9489242 63.1613882,29.8500642 62.9864979,29.6743132 C62.7866232,29.4734548 62.6866858,29.14706 62.6866858,28.6951286 L62.6866858,28.6951286 L62.6866858,22.8200214 L62.6802446,22.7229267 C62.6501853,22.5114762 62.5149185,22.405751 62.2744443,22.405751 L62.2744443,22.405751 L61.5249142,22.405751 L61.5249142,20.37206 L63.7922427,20.37206 Z M39.526207,25.5881007 L39.1139655,25.5881007 L38.862753,25.590511 C36.8940673,25.6290758 35.9097245,26.1304183 35.9097245,27.0945385 C35.9097245,27.433487 36.0346462,27.7253593 36.2844895,27.9701555 C36.5343329,28.2149516 36.8903597,28.3373497 37.3525699,28.3373497 C37.9646861,28.3373497 38.479988,28.0705846 38.8984756,27.5370546 C39.3169632,27.0035246 39.526207,26.4291952 39.526207,25.8140664 L39.526207,25.8140664 L39.526207,25.5881007 Z M109.832127,25.5881007 L109.419885,25.5881007 L109.168672,25.590511 C107.199987,25.6290758 106.215644,26.1304183 106.215644,27.0945385 C106.215644,27.433487 106.340566,27.7253593 106.590409,27.9701555 C106.840252,28.2149516 107.196279,28.3373497 107.658489,28.3373497 C108.270606,28.3373497 108.785907,28.0705846 109.204395,27.5370546 C109.622883,27.0035246 109.832127,26.4291952 109.832127,25.8140664 L109.832127,25.8140664 L109.832127,25.5881007 Z M98.2144106,21.9914806 C97.6022944,21.9914806 97.0932386,22.1640932 96.6872431,22.5093186 C96.2812477,22.8545439 96.009543,23.3284441 95.8721292,23.9310192 L95.8721292,23.9310192 L100.013283,23.9310192 C100.000791,23.366105 99.8227772,22.9016201 99.4792426,22.5375643 C99.135708,22.1735085 98.7140973,21.9914806 98.2144106,21.9914806 Z M64.860323,16.6059656 L64.860323,18.8091308 L62.7991153,18.8091308 L62.7991153,16.6059656 L64.860323,16.6059656 Z" id="形状结合" fill="#87B942" fill-rule="nonzero"></path>
                </g>
            </g>
        </g>
    </g>
</svg>