<?xml version="1.0" encoding="UTF-8"?>
<svg width="98px" height="92px" viewBox="0 0 98 92" version="1.1" xmlns="http://www.w3.org/2000/svg" xmlns:xlink="http://www.w3.org/1999/xlink">
    <title>云</title>
    <g id="第六版" stroke="none" stroke-width="1" fill="none" fill-rule="evenodd">
        <g id="华夏祠堂" transform="translate(-1012.000000, -698.000000)" fill="#FFFFFF" fill-rule="nonzero">
            <g id="编组" transform="translate(-138.563740, 624.081473)">
                <g id="矩形备份" transform="translate(1069.563740, 24.918527)">
                    <g id="编组-2" transform="translate(81.000000, 49.000000)">
                        <path d="M96.3468664,28.6222766 C94.7009132,27.5801208 92.5321214,28.0876751 91.503689,29.7561484 C91.4901787,29.7780757 90.0843359,32.009311 87.6282025,34.2307514 C84.4440493,37.1107879 81.1223763,38.5711195 77.7556689,38.5711195 L76.0600681,38.5711195 L72.5170674,20.5127614 C74.4112591,19.7645641 76.3557575,18.6413777 78.337272,17.147877 C81.0941474,15.0701323 82.9529706,12.9793649 83.0307374,12.891322 C84.3259712,11.426093 84.2060259,9.17181738 82.7602013,7.85929984 C81.3143767,6.5467823 79.0943995,6.66788296 77.7990558,8.13311201 C76.2207641,9.90487713 71.2131562,14.5031408 67.051756,14.5031408 L53.8419521,14.5031408 L53.8419521,13.0745313 C55.3228157,11.6968999 56.2506346,9.72901402 56.2506346,7.54274625 C56.2506346,3.38803608 52.9027099,0.0182541449 48.7664631,0 C48.7558086,0 48.7453738,0 48.7347193,0 L48.7346095,0 L48.7344996,0 C44.5836441,0 41.218804,3.37723942 41.218804,7.54274625 C41.218804,9.72901402 42.1466229,11.6970112 43.6274865,13.0746426 L43.6274865,14.5033634 L28.4464931,14.5033634 C22.8732089,14.5033634 18.9216032,8.5192317 18.8823904,8.45879267 L18.8907382,8.47170414 L18.8884316,8.47326242 C18.2558627,7.53172698 17.189865,6.91320086 15.9810753,6.91320086 C14.039872,6.91320086 12.4661936,8.50787851 12.4661936,10.4749852 C12.4650498,11.2471882 12.7127292,11.9986563 13.1715864,12.6151724 C14.1420233,14.0255277 18.7008247,20.1180712 25.8152747,21.392077 L22.4448327,38.5711195 L18.5011355,38.5711195 C9.54961077,38.5711195 6.84820456,31.4173869 6.73759563,31.1128544 L6.74803044,31.1427956 L6.69486785,31.161495 C6.13248679,29.9537162 4.92018215,29.1175873 3.51488854,29.1175873 C1.57368533,29.1175873 3.45003309e-06,30.7122649 3.45003309e-06,32.6793717 C-0.000991329533,33.397282 0.213161153,34.0985768 0.614122647,34.6904442 C1.17924971,35.8846437 2.24931148,37.7828521 4.02696286,39.6767197 C6.08899013,41.8734502 9.44998584,44.4061015 14.4472688,45.331275 L7.6260918,87.8668831 C7.4607169,88.8978486 7.75026389,89.9504118 8.41810425,90.7460122 C9.0859446,91.5416125 10.0647572,92 11.0954996,92 L87.3124124,92 C89.2537254,92 90.827294,90.4053224 90.827294,88.4382156 C90.827294,88.1941221 90.8030194,87.9557051 90.7568865,87.7254135 L83.8533295,44.6744597 C92.2600476,41.8214704 97.215152,33.9366815 97.4656971,33.5301929 C98.4941295,31.8618308 97.9932589,29.6645438 96.3468664,28.6222766 Z M32.8616238,22.00693 L65.6428377,22.00693 L68.8926752,38.5711195 L29.611896,38.5711195 L32.8616238,22.00693 L32.8616238,22.00693 Z M15.2274627,84.8764312 L21.4906522,45.8196847 L76.9149532,45.8196847 L83.1780329,84.8764312 L15.2274627,84.8764312 Z" id="形状"></path>
                        <path d="M66.1437083,71.057487 C66.1437083,61.2724862 58.2932202,53.3117868 48.6436619,53.3117868 C38.9941036,53.3117868 31.1436155,61.2724862 31.1436155,71.057487 L31.1436155,88.0784754 L31.1475698,88.0784754 C31.1414695,88.1620009 31.1379038,88.2457166 31.1379038,88.3294699 C31.1379038,90.2965766 32.7115822,91.8912543 34.6527855,91.8912543 C36.5939887,91.8912543 38.1676671,90.2965766 38.1676671,88.3294699 C38.1676671,88.2449888 38.1637128,88.1615095 38.1580012,88.0784754 L38.1733788,88.0784754 L38.1733788,71.057487 C38.1733788,65.2004665 42.870359,60.4353555 48.6436619,60.4353555 C54.4169648,60.4353555 59.1139451,65.2004665 59.1139451,71.057487 L59.1139451,87.9250961 C59.098722,88.0593385 59.0909842,88.1943442 59.0907688,88.3294699 C59.0907688,90.2965766 60.6644472,91.8912543 62.6056504,91.8912543 C64.5468536,91.8912543 66.1205321,90.2965766 66.1205321,88.3294699 C66.1205321,88.2449888 66.1165778,88.1615095 66.1108661,88.0784754 L66.1437083,88.0784754 L66.1437083,71.057487 L66.1437083,71.057487 Z" id="路径"></path>
                    </g>
                </g>
            </g>
        </g>
    </g>
</svg>