<?xml version="1.0" encoding="UTF-8"?>
<svg width="70px" height="96px" viewBox="0 0 70 96" version="1.1" xmlns="http://www.w3.org/2000/svg" xmlns:xlink="http://www.w3.org/1999/xlink">
    <title>服务地球</title>
    <g id="第六版" stroke="none" stroke-width="1" fill="none" fill-rule="evenodd">
        <g id="华夏祠堂" transform="translate(-554.000000, -774.000000)" fill="#FFFFFF">
            <g id="编组" transform="translate(-138.563740, 624.081473)">
                <g id="矩形" transform="translate(596.563740, 97.918527)">
                    <g id="服务地球" transform="translate(96.000000, 52.000000)">
                        <ellipse id="椭圆形" cx="35.794247" cy="89.6587156" rx="34.205753" ry="6.3412844"></ellipse>
                        <path d="M31.7783435,81.9387273 C33.5542374,83.5421368 36.2678152,83.5421368 38.0437091,81.9387273 C59.4278764,62.6457135 69.8220526,47.172504 69.8220526,34.6415138 C69.8220526,15.5378736 54.1632936,0 34.9110263,0 C15.658759,0 0,15.5378736 0,34.6415138 C0,47.172504 10.3941762,62.6457135 31.7783435,81.9387273 L31.7783435,81.9387273 Z M34.9110263,9.15963303 C49.1068306,9.15963303 60.6535002,20.5030316 60.6535002,34.4489286 C60.6535002,40.7528603 56.0853812,52.284779 34.9110263,71.8678899 C13.7366714,52.284779 9.16855236,40.7528603 9.16855236,34.4489286 C9.16855236,20.5030316 20.715222,9.15963303 34.9110263,9.15963303 Z" id="形状" fill-rule="nonzero"></path>
                        <path d="M23.5091647,34.6415138 C23.5091647,41.0188404 28.7320356,46.188685 35.1747733,46.188685 C41.6175111,46.188685 46.840382,41.0188404 46.840382,34.6415138 C46.840382,30.5161068 44.6169296,26.7040735 41.0075777,24.6413699 C37.3982258,22.5786664 32.9513208,22.5786664 29.3419689,24.6413699 C25.732617,26.7040735 23.5091647,30.5161068 23.5091647,34.6415138 L23.5091647,34.6415138 Z" id="路径" fill-rule="nonzero"></path>
                    </g>
                </g>
            </g>
        </g>
    </g>
</svg>