<?xml version="1.0" encoding="UTF-8"?>
<svg width="78px" height="98px" viewBox="0 0 78 98" version="1.1" xmlns="http://www.w3.org/2000/svg" xmlns:xlink="http://www.w3.org/1999/xlink">
    <title>古书</title>
    <g id="第六版" stroke="none" stroke-width="1" fill="none" fill-rule="evenodd">
        <g id="华夏祠堂" transform="translate(-1552.000000, -719.000000)" fill-rule="nonzero" stroke="#FFFFFF" stroke-width="6.53333333">
            <g id="编组" transform="translate(-138.563740, 624.081473)">
                <g id="矩形备份-2" transform="translate(1598.563740, 43.918527)">
                    <g id="古书" transform="translate(131.000000, 100.000000) scale(-1, 1) translate(-131.000000, -100.000000) translate(96.000000, 55.000000)">
                        <path d="M56.875,0 L56.875,90 L1.75,90 C0.7875,90 0,89.2089844 0,88.2421875 L0,88.2421875 L0,1.7578125 C0,0.791015625 0.7875,0 1.75,0 L1.75,0 L56.875,0 Z M70,77.6953125 L70,88.2421875 C70,89.2089844 69.2125,90 68.25,90 L68.25,90 L58.625,90 L58.625,77.6953125 L70,77.6953125 Z M70,56.71875 L70,75.9375 L58.625,75.9375 L58.625,56.71875 L70,56.71875 Z M24.5,11.4257812 L10.5,11.4257812 L10.5,59.3554688 L24.5,59.3554688 L24.5,11.4257812 Z M70,35.15625 L70,54.9609375 L58.625,54.9609375 L58.625,35.15625 L70,35.15625 Z M70,14.0625 L70,33.3984375 L58.625,33.3984375 L58.625,14.0625 L70,14.0625 Z M68.25,0 C69.2125,0 70,0.791015625 70,1.7578125 L70,1.7578125 L70,12.3046875 L58.625,12.3046875 L58.625,0 Z" id="形状结合"></path>
                    </g>
                </g>
            </g>
        </g>
    </g>
</svg>