<?xml version="1.0" encoding="UTF-8"?>
<svg width="608px" height="137px" viewBox="0 0 608 137" version="1.1" xmlns="http://www.w3.org/2000/svg" xmlns:xlink="http://www.w3.org/1999/xlink">
    <title>编组</title>
    <defs>
        <polygon id="path-1" points="0 0 124.227994 0 124.227994 133.109185 0 133.109185"></polygon>
        <polygon id="path-3" points="-3.409141e-15 0 131.164078 0 131.164078 71.2578336 -3.409141e-15 71.2578336"></polygon>
        <polygon id="path-5" points="0 0 83.1273119 0 83.1273119 72.8229189 0 72.8229189"></polygon>
        <polygon id="path-7" points="0 0 58.1126925 0 58.1126925 81.3263487 0 81.3263487"></polygon>
    </defs>
    <g id="页面-1" stroke="none" stroke-width="1" fill="none" fill-rule="evenodd">
        <g id="华夏祠堂首页备份" transform="translate(-118.000000, -174.000000)">
            <g id="编组" transform="translate(118.000000, 174.000000)">
                <g transform="translate(483.772006, 1.167153)">
                    <mask id="mask-2" fill="white">
                        <use xlink:href="#path-1"></use>
                    </mask>
                    <g id="Clip-2"></g>
                    <path d="M42.4902985,65.9117938 C42.9368267,69.3313558 43.3117057,72.2019965 43.7288066,75.3899623 C51.8763474,74.5141194 59.6733188,73.7022533 67.4594149,72.796981 C68.1938195,72.7112521 69.2775141,72.1853625 69.4841453,71.6076516 C70.4251812,68.9807627 71.1103269,66.2623869 72.0609587,62.9771762 C61.8016847,63.9956875 52.2934483,64.9387061 42.4902985,65.9117938 M5.69138264,36.0243743 C11.4060483,31.8953092 15.9596127,32.3968876 20.1485337,37.0019404 C20.9782573,37.9129706 22.5999609,38.6045602 23.8224758,38.5559378 C26.3052495,38.4580532 28.7643534,37.7843771 30.9848398,37.3921991 C27.2213361,30.3969717 23.5205255,23.5175424 19.4582701,15.9676358 C21.6480497,16.1103041 23.2793491,16.0565636 24.8447568,16.3514968 C28.497588,17.0411671 32.1888027,17.6687799 35.7386381,18.7378328 C42.426326,20.7518237 44.8195381,24.9519031 43.5887067,31.8409289 C43.3852741,32.975878 43.1741648,34.1089078 42.9572979,35.2943986 C43.3008304,35.4012399 43.5938245,35.5784558 43.8804215,35.569499 C50.8687801,35.3628538 49.5138421,35.8989797 49.5547845,29.979203 C49.5848516,25.6191815 49.4716202,21.2578805 49.4741791,16.897859 C49.4773777,11.8424093 49.5247174,6.79527655 42.7180407,5.92071318 C45.5066031,1.03160325 49.662898,-0.987505742 54.3213773,0.457731019 C57.9467004,1.58244382 61.5163673,3.02704082 64.9024331,4.7409803 C68.5962067,6.61038349 68.8514571,8.23411563 68.2878591,12.3318321 C67.3269918,19.3161834 66.7390843,26.3510765 65.9790907,33.5184016 L73.119704,33.5184016 C73.1254615,33.3898082 73.131219,33.2612147 73.1369765,33.133261 C71.4250718,33.0181027 69.7138067,32.9035842 67.1350742,32.7314865 C68.7586969,31.2728146 69.9594612,30.3669026 70.9510353,29.2716191 C74.1419849,25.7464954 77.7193285,22.4516882 80.2775898,18.5055969 C83.2791807,13.8762329 82.6036309,12.5717452 77.9995282,9.57698945 C79.5962824,7.13499356 84.3059398,4.95594247 87.0362871,5.69551471 C91.7216349,6.96481517 95.9924407,9.09396432 99.223693,12.8494047 C102.502285,16.6585856 102.241277,19.0673135 98.3958885,22.2898268 C92.3216972,27.379824 85.7408435,31.4692235 77.7506751,32.9899529 C84.5208874,32.5331583 91.293019,32.1013147 98.0581136,31.5863011 C98.8667263,31.5242436 99.9453031,31.235708 100.377118,30.661196 C102.550264,27.7745611 105.198087,28.8544901 107.420493,30.0444593 C112.259374,32.6374406 117.093139,35.3372631 121.535391,38.5386641 C125.007819,41.0414379 124.944487,43.5870763 122.359997,47.0373472 C118.18323,52.6129286 111.971498,54.2680093 105.617107,55.2103882 C100.773108,55.928848 95.817156,55.8911017 90.0871369,56.2397755 C93.4859972,52.1740474 96.1536515,48.9835226 98.8219455,45.7929977 C98.6511389,45.402739 98.4803322,45.01312 98.3101653,44.6241408 C72.6194388,44.1641474 47.1967572,46.7097857 21.7907084,52.3992459 C21.4561321,53.3249908 21.039671,54.4797727 20.3839526,56.2960751 C22.1188875,55.4138345 23.2851066,54.8150113 24.4564435,54.2251449 C29.9753533,51.443432 35.0957143,52.271932 39.9947303,55.81305 C40.752165,56.3606917 41.902391,56.8226045 42.773057,56.6888929 C52.0925746,55.2590106 61.6104069,54.4605796 70.6132604,51.8848721 C75.80655,50.3999697 79.7312645,50.8733983 83.9752018,53.3416247 C86.7285793,54.9423252 89.586232,56.3907608 92.2167823,58.1731555 C96.1632474,60.8473873 96.0378612,61.7059565 92.7170474,65.2771436 C90.2681791,67.9104302 88.0444942,70.777872 85.9730638,73.7188873 C85.4005097,74.5313931 85.6691943,75.9772696 85.6653559,77.1333311 C85.6602381,78.6323084 86.40104,80.7429043 85.6800696,81.4843958 C84.629001,82.5649646 82.5415775,83.1477936 80.9333082,83.0799781 C77.0444184,82.9149179 73.1766395,82.2501986 69.8059271,81.8471445 C69.4649536,84.9321076 69.1802758,87.5084548 68.8604132,90.4040465 C73.119704,89.7111774 78.3999962,92.4014034 82.0592247,86.2449123 C85.728049,88.4303611 89.6022251,90.361182 93.0285936,92.894025 C95.9239901,95.03469 97.1170777,98.2424887 96.0768845,101.975537 C95.1799896,105.194852 93.8237721,105.981767 90.4626556,105.478909 C83.6291104,104.456559 76.7802119,103.527615 69.9313133,102.606989 C68.905194,102.470078 67.8445295,102.588435 66.430097,102.588435 C66.2177082,105.571035 66.0117166,108.462149 65.8377114,110.900946 C75.9025088,110.900946 85.5521246,110.938692 95.2011006,110.847845 C96.2847952,110.838248 97.7331331,110.405765 98.3709392,109.638043 C100.204392,107.427643 102.121648,108.069331 103.975572,109.179329 C107.777459,111.454345 111.583185,113.753673 115.154771,116.360729 C116.416949,117.281996 117.285056,119.027923 117.831381,120.574244 C118.778175,123.257432 118.829353,126.089047 116.85772,128.411406 C115.032583,130.561668 112.584355,129.852804 110.301175,129.28597 C95.5369563,125.618177 80.5353991,124.156307 65.3623955,124.840859 C49.1965383,125.570835 33.0134086,126.441559 17.7527626,132.679941 C15.7600184,133.495006 14.2912092,133.141214 12.8806151,131.68766 C10.5097933,129.243745 8.02765928,126.902193 5.74384012,124.381505 C0.742468073,118.861584 0.625398352,117.534064 4.25455972,110.193362 C9.67111346,117.142526 17.0010854,115.454177 24.1372206,114.787539 C32.5854324,113.997425 41.0387619,113.26425 49.8132335,112.477335 L49.8132335,103.802076 C44.9404462,105.42069 40.0580631,106.732855 35.450122,108.687987 C32.6378898,109.882434 30.8588139,109.378937 29.105327,107.21652 C27.4983371,105.233877 25.9079801,103.227564 24.1589713,101.374155 C20.5304497,97.5291469 20.6302468,93.485171 23.2300902,89.2019217 C23.4475968,89.2019217 23.7604225,89.1168325 23.8378292,89.2147171 C26.5822506,92.7168092 30.2178092,93.9304498 34.5493889,93.5005255 C39.4951048,93.0098231 44.447218,92.5766999 49.9846798,92.0642454 C49.4159641,89.4629472 48.985429,87.1188359 48.3444243,84.834223 C48.1947286,84.2993767 47.2396188,83.5412511 46.8205987,83.6333778 C46.1597625,83.7798848 45.3767388,84.4484427 45.1054953,85.0894906 C43.5823095,88.6894673 42.2875056,89.715016 38.6743373,89.0067924 C35.7898162,88.4405974 32.970547,87.4451178 30.1986174,86.4330042 C27.8661792,85.5814725 27.6288411,83.7600519 27.5693466,81.326373 C27.417092,75.0329715 26.8752447,68.722936 25.975791,62.4928716 C25.7621228,61.0118078 23.6708609,59.6420637 22.201412,58.5435814 C20.7076536,57.4278253 19.6041275,57.9409196 18.3221181,59.5800062 C15.6064844,63.0507496 12.4865443,66.2220814 9.37939874,69.366543 C7.9041923,70.8604022 5.97542066,70.5104489 5.08108475,68.7779561 C3.16254871,65.0602621 1.39370838,61.2254904 0.0637195778,57.2710821 C-0.297085466,56.1975508 0.956136308,54.4151561 1.76858738,53.150334 C3.92190259,49.7985875 6.51918712,46.7033881 8.40189855,43.2153709 C9.90461317,40.4323784 9.53485198,37.571974 5.69138264,36.0243743" id="Fill-1" fill="#FEFEFE" mask="url(#mask-2)"></path>
                </g>
                <path d="M192.921433,22.9131124 C192.956618,23.1165588 192.991803,23.3206449 193.026988,23.524731 C196.818,24.803628 200.609651,26.082525 204.899009,27.529681 C205.520182,25.0205095 206.101053,22.6719198 206.881518,19.5172219 C201.639609,20.7929201 197.280521,21.8530163 192.921433,22.9131124 L192.921433,22.9131124 Z M213.60631,93.8077655 C213.643414,94.1250906 213.680518,94.4424157 213.717622,94.7597408 C217.875196,96.8146768 222.021895,98.8932843 226.205699,100.8932 C226.699567,101.129275 227.654676,101.19709 227.963024,100.898318 C230.588456,98.3533198 232.867797,95.5549729 234.034656,92.1155781 C228.598271,92.1155781 223.609054,91.9748291 218.63583,92.1929901 C216.938639,92.2672032 215.28175,93.2441295 213.60631,93.8077655 L213.60631,93.8077655 Z M207.918512,66.2094373 C215.896526,65.6048562 223.507977,65.0405805 231.116869,64.4475152 C234.079437,64.2171986 237.065035,64.0796484 239.981542,63.5684734 C240.869481,63.4130097 242.205867,62.1795363 242.243611,61.387503 C242.619769,53.5330667 242.777781,45.6677543 242.970978,37.8056407 C243.029833,35.4154661 241.761258,34.6950869 239.485755,34.9426772 C235.264848,35.4007514 231.024109,35.6598576 226.798084,36.0693093 C220.490393,36.6809279 214.18846,37.3507654 207.889725,37.9956519 L207.889725,41.9103946 C215.44488,40.765849 222.781889,39.8106748 230.04341,38.4537261 C232.043192,38.0801013 233.613077,37.9438307 234.868218,39.5330153 C236.241708,41.2719058 237.414325,43.1694588 238.675223,44.9979168 C236.596756,45.8059442 234.566908,47.1347432 232.432784,47.3298725 C224.127871,48.0873583 215.789692,48.4846544 207.390099,49.0207803 C206.85209,53.3948767 207.228249,53.7755389 211.686494,53.1556033 C217.366615,52.3635701 223.202189,52.159484 228.689752,50.6681839 C233.07123,49.4769352 235.293636,51.5389087 237.636309,54.1696362 C239.633532,56.4133039 238.989968,58.5897959 235.986458,58.8994438 C226.734751,59.8552578 217.451058,60.5033431 207.918512,61.2921775 L207.918512,66.2094373 Z M225.727184,74.0261273 C226.687412,76.22821 227.528011,78.1558322 228.644331,80.7174647 C231.124546,79.6740025 234.35196,78.2249272 237.656141,76.9799379 C238.703371,76.5858406 240.222719,76.2506019 241.069075,76.7176329 C245.158199,78.9696175 249.249242,81.2842995 253.036416,83.9988367 C257.185674,86.9724802 257.320656,88.6307598 254.320344,92.6881708 C250.416741,97.9668997 246.374956,103.143266 242.239772,108.564663 C258.819532,115.744783 276.065885,119.898799 293.928294,121.779079 C293.939809,122.085528 293.951324,122.390697 293.962839,122.697146 C291.426968,123.639525 288.795778,124.387414 286.374418,125.565868 C280.859346,128.249696 275.236801,130.809409 270.058225,134.056234 C265.634525,136.82835 261.748834,137.751536 257.133216,134.690244 C248.635106,129.053245 239.980263,123.651681 231.305588,118.097851 C215.361716,127.120505 198.989867,135.206537 179.439224,131.873344 C186.132029,128.644433 192.995002,125.718133 199.470301,122.100882 C205.920011,118.497707 211.980128,114.201022 218.211052,110.208228 C218.19378,109.832684 218.177147,109.45714 218.159874,109.082235 C213.487321,106.883991 208.862107,104.575067 204.100632,102.589866 C203.237003,102.230316 201.691427,102.987162 200.672984,103.587905 C191.661814,108.899262 182.319267,113.481923 171.9506,115.344928 C167.824372,116.08578 163.515822,115.811319 159.203434,115.72559 C176.632749,106.372816 191.218485,93.6804516 205.080052,78.9984071 C199.380739,78.7572144 195.487371,76.2314089 191.961206,72.955155 C190.130312,71.2546507 189.87826,69.4626595 190.504551,66.9509288 C192.889447,57.3876711 192.887528,47.599215 192.270193,37.843387 C192.012384,33.7706216 190.487918,30.0989908 185.014429,29.4157182 C186.748724,27.5783034 188.022417,26.2296717 189.29611,24.88104 C183.447102,28.3632992 180.196019,24.1030816 176.655779,20.7628509 C175.650131,19.8134347 174.661116,18.8461049 173.69705,17.8544639 C168.664331,12.6774582 168.553019,11.8841454 172.008815,4.80126973 C178.558962,11.9225315 186.75896,8.95976417 194.456774,8.32895255 C205.43382,7.42879845 216.349452,5.80186747 227.322659,4.85692958 C237.693885,3.96445269 248.108612,3.58059167 258.49775,2.88772252 C259.722184,2.80647193 261.249848,2.53073176 262.050144,1.7470155 C264.182988,-0.341188475 266.339502,0.220528159 268.488979,1.26590969 C271.913428,2.93122677 275.54195,4.40525311 278.507077,6.70330111 C280.396825,8.16773092 282.054353,10.8534786 282.400444,13.200149 C283.275589,19.1256837 280.941231,21.0078822 275.024412,19.7808065 C263.442187,17.3803955 251.752487,16.0592738 239.923327,16.2614406 C235.694743,16.3337345 231.473836,16.8052438 227.64572,17.0675488 C226.354755,20.1454745 225.194293,22.9131124 223.562994,26.8009849 C229.738901,24.4869427 235.142021,22.4409634 240.564972,20.4500042 C241.473382,20.1173246 242.626166,19.6023111 243.400234,19.8882876 C248.383054,21.7282614 253.402338,23.5368866 258.192601,25.8099837 C262.490275,27.8495652 262.720576,29.4912109 260.626116,33.6125988 C257.814523,39.1453157 258.230985,45.0983604 258.45169,51.0578028 C258.738287,58.8066774 258.82273,66.563869 258.82465,74.3185014 C258.82465,75.8405104 258.270648,77.4687209 257.5887,78.8608569 C256.54147,80.9976833 254.667715,82.2343556 252.35063,80.9490609 C248.943453,79.0585453 245.718598,76.8398286 242.426572,74.745227 C241.648666,74.2494065 240.898269,73.2136215 240.158746,73.2347338 C235.30643,73.3774022 230.461151,73.7407906 225.727184,74.0261273 L225.727184,74.0261273 Z" id="Fill-3" fill="#FEFEFE"></path>
                <path d="M393.924132,86.166436 C397.198886,85.6987653 400.19216,85.3302587 403.154728,84.7941328 C403.719605,84.6924096 404.503268,83.9944223 404.609463,83.4582964 C405.31444,79.9024638 405.862045,76.3165621 406.518403,72.3928626 C401.58868,72.8400607 397.227673,73.2354376 392.710573,73.6455291 C393.115519,77.8296143 393.480802,81.5946512 393.924132,86.166436 M411.533209,36.3246409 C415.320383,39.312999 419.263649,42.1305389 422.808367,45.381202 C424.050074,46.5187102 424.764647,48.6817671 424.92074,50.4475278 C425.202219,53.6182199 423.33614,55.1466265 420.051151,54.5676361 C407.38587,52.3393229 395.30338,54.6175381 383.465264,59.0178649 C383.274626,59.089519 383.106378,59.2225908 383.131967,59.2072364 C384.862424,60.1406584 386.650456,61.2193079 388.538925,62.0772373 C389.539455,62.5314729 390.840016,63.0445671 391.788089,62.7745849 C397.751608,61.0734407 403.649875,59.1458186 409.583966,57.3391127 C410.194264,57.1529401 411.083482,56.9936378 411.530011,57.2911301 C416.475727,60.5884963 421.502688,63.7918166 426.209146,67.409067 C429.220333,69.7237489 429.045688,71.2470375 426.911565,74.5386457 C425.242522,77.1143532 423.624017,79.7406024 422.221739,82.4672952 C420.854646,85.1274521 419.734487,87.61935 420.991547,91.0587447 C422.525608,95.2588241 420.221958,97.6848258 416.217917,96.5262053 C409.191175,94.4955805 402.326923,95.8179817 395.217656,96.6471215 C395.061563,97.499293 394.970083,98.3162772 394.757054,99.101273 C393.924132,102.169602 392.106033,103.590528 389.098684,102.738356 C386.285812,101.941205 383.559303,100.618804 381.020234,99.1415784 C378.815101,97.858203 378.539379,95.5799879 378.530423,93.027312 C378.505474,86.3858765 378.500356,79.6849426 377.579791,73.1349939 C377.21131,70.5145027 374.46369,68.2279705 372.408892,65.2165807 C374.180931,63.8340413 376.715523,61.8558775 378.944325,60.1163472 C376.785253,57.7025012 374.489279,55.1344709 372.076875,52.4359279 C369.498142,57.087044 366.897659,61.777186 364.141723,66.7475465 C366.303354,67.1512403 368.286503,67.3258971 370.142985,67.9036079 C375.887078,69.6917605 378.494599,79.0381367 374.562847,83.5971262 C372.883568,85.5445811 370.693789,85.9668282 368.530238,84.669378 C366.293119,83.3277837 364.275425,81.6208817 361.801608,79.8096974 C361.801608,81.0239778 361.783056,82.1301373 361.804806,83.235657 C361.996724,92.8033931 362.487393,102.377527 362.272446,111.935027 C362.162413,116.84205 361.198347,121.831604 359.885631,126.581244 C358.473117,131.696192 354.407024,132.840098 350.784259,128.964381 C347.604185,125.560813 345.237202,121.306994 343.001362,117.163854 C342.21514,115.707741 342.684058,113.441681 342.924595,111.589552 C343.970546,103.522072 345.143162,95.4699477 345.77585,87.1548781 C337.53491,92.110524 329.240232,95.811584 319.784453,96.8518474 C336.16142,83.8639096 347.075132,67.0469581 355.262336,48.2940674 C355.072978,48.0458373 354.882339,47.7969674 354.692341,47.549377 C351.36513,48.7700551 348.027044,49.9625834 344.713267,51.2197282 C341.332319,52.5024638 337.939856,53.7666461 334.618402,55.1914103 C332.191924,56.2323134 330.165914,55.8996339 328.791145,53.6796376 C326.792003,50.4507266 324.799259,47.1866284 323.19035,43.7574699 C321.632619,40.4383515 322.576214,37.2119996 324.845319,33.6408126 C326.934662,38.7416858 331.062809,38.4352368 334.954258,37.9234221 C340.917777,37.1397058 346.843552,36.0265088 352.73798,34.8199057 C354.446686,34.4705921 356.362664,33.6868759 357.541038,32.4777136 C360.86441,29.0664687 363.98563,29.8367498 367.257185,32.291541 C370.053424,34.3893416 373.086361,36.2645027 375.506442,38.7333688 C376.922794,40.1779658 377.343733,42.594371 378.625742,45.5155534 C380.547477,45.5155534 383.701962,45.8008901 386.786078,45.4541356 C392.691381,44.7894163 398.582611,43.9097348 404.426501,42.8323648 C407.537485,42.2578528 410.400256,40.9328925 410.609446,36.929222 C410.917154,36.727695 411.225501,36.5261679 411.533209,36.3246409" id="Fill-5" fill="#FEFEFE"></path>
                <path d="M406.825471,109.990323 C411.489708,111.027387 415.451527,111.926262 419.422301,112.78611 C422.433488,113.437395 424.582325,112.047818 425.407571,109.351194 C426.610254,105.423656 427.817416,101.387997 428.15711,97.3261077 C429.986724,75.4089227 431.172135,53.4623083 429.590734,31.4651522 C429.569623,31.1714986 429.373867,30.8900005 428.975318,29.8894027 C423.613781,30.9590955 418.07504,31.733855 412.734613,33.2193971 C407.147893,34.774674 401.679521,36.8360078 396.299432,39.0208168 C393.200603,40.2798809 390.763889,39.9497604 388.505019,37.6222831 C386.729142,35.7919058 385.023634,33.8898744 383.196579,32.1119581 C379.363345,28.3801891 380.029939,24.2165765 381.923526,19.4234319 C386.095174,24.5658901 391.446476,23.9964962 396.731886,22.856429 C406.177429,20.8181269 415.596744,18.6339577 424.957204,16.2386649 C427.009443,15.7140548 429.197303,14.4114864 430.550322,12.813345 C432.085663,11.001521 433.281949,10.8095905 435.068062,11.932384 C440.26391,15.1990413 445.507098,18.3914855 450.627459,21.770742 C453.171647,23.450134 453.422419,25.7872079 451.842298,28.4224138 C449.310265,32.6455249 448.636634,37.2819263 448.601449,42.1646386 C448.501013,55.8691169 448.675018,69.6023849 447.815227,83.2659181 C447.046277,95.4842145 445.264003,107.658367 443.443345,119.779419 C442.949477,123.069108 441.168482,126.441966 439.154627,129.170579 C435.206882,134.522241 428.647139,134.900984 423.973946,130.260744 C419.073651,125.394026 414.381906,120.310426 409.76181,115.175645 C408.521383,113.798224 407.873981,111.889155 406.825471,109.990323" id="Fill-7" fill="#FEFEFE"></path>
                <g transform="translate(2.075868, 65.742166)">
                    <mask id="mask-4" fill="white">
                        <use xlink:href="#path-3"></use>
                    </mask>
                    <g id="Clip-10"></g>
                    <path d="M2.52298867,18.0876435 C8.99636853,25.3381385 17.2014846,22.3900858 24.9440794,21.7375221 C33.8068331,20.9915522 42.6337621,19.8258942 51.4741254,18.8214578 C53.0222606,18.6461613 54.5601601,18.3697814 56.0756692,18.1452227 C55.6195451,11.8339076 54.2735632,6.51743243 46.8553091,5.90197525 C48.3695388,2.05888662 54.5313724,-1.07277958 59.927455,0.349425517 C64.1157362,1.45366573 68.2937818,2.70569244 72.3138153,4.29999524 C75.916748,5.72859802 76.3651954,7.3312178 75.1477982,11.1365601 C74.5087127,13.1345567 73.8926573,15.1408704 73.0949199,17.6916269 C76.3818282,17.4613103 79.2004577,17.1945269 82.0254844,17.0812878 C89.3592948,16.7895535 96.7020612,16.6622396 104.028835,16.2483094 C105.956967,16.138909 108.169776,15.6680395 109.659696,14.5650788 C111.589108,13.1371158 113.256232,12.9036004 115.202276,13.9144344 C119.327224,16.0563789 123.59803,17.9987157 127.445338,20.5661062 C130.289556,22.464299 131.646414,25.574213 131.009247,29.2208928 C130.345852,33.0179181 128.211729,34.6742784 124.500043,33.8668907 C108.820377,30.4575651 92.9475137,29.6987998 76.9729344,30.2720322 C75.4120048,30.3283318 73.8600313,30.6341411 72.3848249,30.8145558 C72.3848249,35.7478098 72.4174508,40.4046838 72.3771481,45.060918 C72.3221318,51.303138 72.2792702,57.5472774 72.0656019,63.7843793 C72.0246595,64.9833052 71.345911,66.2231763 70.7477679,67.3299756 C68.3455996,71.7770056 65.1258624,72.4653964 61.1109467,69.3068599 C56.3545894,65.5648547 53.4886203,61.3494208 54.7725489,54.548683 C56.1549951,47.2278135 56.1498773,39.6446389 56.7755286,31.8605771 C43.0713342,32.6686046 30.2742702,34.2309189 18.1463588,39.1763285 C15.1582022,40.3944475 12.867346,39.9632436 10.6609336,37.7841925 C8.240853,35.3940178 5.65892187,33.161866 3.30793156,30.708994 C-0.889305838,26.3304193 -1.02684677,23.8174091 2.52298867,18.0876435" id="Fill-9" fill="#FEFEFE" mask="url(#mask-4)"></path>
                </g>
                <g transform="translate(49.333437, 0.000000)">
                    <mask id="mask-6" fill="white">
                        <use xlink:href="#path-5"></use>
                    </mask>
                    <g id="Clip-12"></g>
                    <path d="M67.2491982,30.2479289 C68.3252161,31.7430676 69.5438927,33.1569557 70.4523026,34.7467801 C74.3373541,41.5468782 78.8359021,48.1121813 81.772241,55.3076562 C85.1595862,63.6092907 82.140083,68.9481577 73.3445005,71.0568343 C67.6355923,72.4259386 61.5780339,72.8584221 55.6823259,72.8206757 C46.3922358,72.7624568 37.3030193,71.1310474 28.9328541,66.7032105 C21.270225,62.6502779 15.0156312,57.3338027 12.5961903,48.5849701 C12.2609742,47.3732488 12.1394264,46.102029 11.865624,44.5621066 C8.05925876,44.3093981 4.12366899,44.0490123 0.18871895,43.7886266 C0.12538615,43.4681026 0.062693075,43.1475787 0,42.8276945 C2.95233205,41.6709933 5.8362135,40.2718198 8.87490846,39.4279653 C11.9263979,38.5796325 12.7382093,36.7543733 12.8392859,33.8530237 C12.9761871,29.9427594 13.5666535,26.0497688 13.9178626,22.1459022 C14.5447934,15.1775451 14.238365,8.58281265 6.44331277,5.30911787 C12.811138,-1.33743579 18.2513615,-1.69570608 24.7017113,3.96624405 C26.2882299,5.3590198 27.6777132,7.0077029 28.9917088,8.66982115 C31.2403431,11.5155109 32.0169696,14.5460937 30.5021002,18.1588657 C29.1305292,21.4319207 28.2816138,24.922497 27.552327,28.4898454 C32.5530593,23.9180606 37.827594,19.5042986 40.2438363,13.1789087 C41.3019419,10.4080718 40.18882,6.81001448 40.0423229,3.08464322 C42.3549297,2.12307136 45.5337245,2.96820538 47.7868368,4.89134912 C51.6923595,8.22582189 55.453944,11.9153661 58.4766458,16.0399528 C61.4782367,20.1351102 60.6459542,22.9699239 56.1857897,25.5667437 C47.192532,30.8019683 38.0879622,35.8612567 28.8567268,40.6633581 C26.620887,41.8270968 26.1526081,42.9780401 26.7673841,45.0189012 C28.469693,50.670615 32.6055168,53.7939642 38.0578951,55.1841809 C44.8255486,56.9096362 51.7179485,57.0542239 58.6103484,55.8674535 C63.5579835,55.0146423 66.7457345,50.5471397 67.1039806,43.9530471 C67.2300065,41.635806 67.2459996,39.3064094 67.1820271,36.9859695 C67.1225326,34.8286705 66.8903124,32.6758499 66.7342194,30.52111 C66.9056658,30.4296231 67.0777519,30.3394158 67.2491982,30.2479289" id="Fill-11" fill="#FEFEFE" mask="url(#mask-6)"></path>
                </g>
                <g transform="translate(0.000000, 2.374291)">
                    <mask id="mask-8" fill="white">
                        <use xlink:href="#path-7"></use>
                    </mask>
                    <g id="Clip-14"></g>
                    <path d="M32.1145277,41.6336479 C21.8936373,47.2456961 12.2401832,53.1302856 0.497386386,51.9671867 L-0.000319862627,51.0395226 C3.24564608,48.2283803 6.64770499,45.5759006 9.70431225,42.5734677 C17.1328019,35.2769093 24.5376217,27.9464433 31.6545652,20.3523927 C33.9972391,17.8521778 35.4999537,14.5407367 37.2547201,11.5242288 C38.8719455,8.74187617 38.6953814,6.10219185 36.1806214,3.81629945 C35.6438919,3.32815618 35.2511006,2.68262988 34.7265259,2.02814684 C39.0273988,-1.09776145 43.3877661,-0.211042479 47.3700558,2.0006368 C50.4804,3.72801141 53.3226993,6.09451463 55.9046304,8.57169778 C58.9919445,11.5338254 58.7456503,13.7013606 55.7658101,16.7530558 C52.2793074,20.3248826 48.7192364,23.8384905 45.4585567,27.6080058 C44.6422673,28.5523039 44.3351992,30.5157531 44.6691358,31.7805752 C47.1851752,41.3067263 47.7941937,51.002416 47.4052407,60.7672007 C47.2203601,65.4042419 46.7482429,70.0655943 45.9204384,74.6277826 C45.4086582,77.4478816 43.8579642,79.9807246 40.7322666,80.9736451 C38.3128256,81.7420069 36.1447968,81.3140019 34.8864572,79.1042419 C32.7420981,75.3372857 30.5228912,71.5377013 29.0591998,67.4911664 C28.3618993,65.5629045 28.937652,62.9085055 29.61768,60.802388 C31.594431,54.6817239 32.0236867,48.4471811 32.1145277,41.6336479" id="Fill-13" fill="#FEFEFE" mask="url(#mask-8)"></path>
                </g>
                <path d="M344.898339,3.55384935 C352.438141,3.75985477 360.068784,3.32097366 367.494075,4.35100075 C375.102967,5.40661857 378.800579,17.2724026 373.934189,23.370035 C372.126965,25.6348151 369.710083,26.6143005 366.858828,25.6105039 C365.275508,25.0526259 363.488755,24.4902694 362.341728,23.3706748 C356.233631,17.4093131 350.29826,11.2713753 344.303395,5.19421547 C344.50171,4.64785327 344.699385,4.10085131 344.898339,3.55384935" id="Fill-15" fill="#FEFEFE"></path>
            </g>
        </g>
    </g>
</svg>