<?xml version="1.0" encoding="UTF-8"?>
<svg width="346px" height="314px" viewBox="0 0 346 314" version="1.1" xmlns="http://www.w3.org/2000/svg" xmlns:xlink="http://www.w3.org/1999/xlink">
    <title>编组 6</title>
    <defs>
        <circle id="path-1" cx="151" cy="151" r="151"></circle>
        <linearGradient x1="0%" y1="50.0000669%" x2="100.000015%" y2="50.0000669%" id="linearGradient-3">
            <stop stop-color="#669B21" offset="0%"></stop>
            <stop stop-color="#F7FFEC" offset="100%"></stop>
        </linearGradient>
        <linearGradient x1="0%" y1="50.0000669%" x2="100.000015%" y2="50.0000669%" id="linearGradient-4">
            <stop stop-color="#669B21" offset="0%"></stop>
            <stop stop-color="#F7FFEC" offset="100%"></stop>
        </linearGradient>
        <linearGradient x1="0%" y1="50.0000669%" x2="100.000015%" y2="50.0000669%" id="linearGradient-5">
            <stop stop-color="#669B21" offset="0%"></stop>
            <stop stop-color="#B7D491" offset="100%"></stop>
        </linearGradient>
    </defs>
    <g id="页面-1" stroke="none" stroke-width="1" fill="none" fill-rule="evenodd">
        <g id="华夏祠堂首页备份" transform="translate(-799.000000, -700.000000)">
            <g id="编组-3备份" transform="translate(799.953429, 700.000000)">
                <g id="编组-6" transform="translate(0.000000, -0.000000)">
                    <g id="位图备份-2" transform="translate(43.046571, 0.000000)">
                        <mask id="mask-2" fill="white">
                            <use xlink:href="#path-1"></use>
                        </mask>
                        <use id="蒙版" fill="#80B140" xlink:href="#path-1"></use>
                        <circle id="蒙版备份" fill-opacity="0.3" fill="#FFFFFF" mask="url(#mask-2)" cx="141.5" cy="160.5" r="141.5"></circle>
                    </g>
                    <g id="编组-11" transform="translate(0.000000, 54.147059)">
                        <g id="编组">
                            <path d="M0,236.28528 L75.5437956,218.500026 C94.8374209,216.738694 116.671092,215.746045 140.000085,215.746045 C164.829999,215.746045 187.98391,216.864776 208.161767,218.844615 L208.161767,186.120511 C208.161767,185.638014 208.795082,185.224471 209.667268,185.134231 C252.993437,180.668404 279.927728,172.49361 280,163.792108 L280,163.722062 C279.890574,150.343868 215.82296,139.0494 140.000085,139.0494 C64.1125721,139.0494 0,150.363518 0,163.756812 L0,236.28528 Z" id="路径" fill="url(#linearGradient-3)"></path>
                            <g transform="translate(2.046571, 0.000000)">
                                <path d="M141.460751,7.6062353 C141.460751,11.8071155 138.054388,15.2126932 133.855536,15.2126932 C129.652009,15.2126932 126.246313,11.8071155 126.246313,7.6062353 C126.246313,3.40535508 129.652009,0 133.855536,0 C138.054388,0 141.460751,3.40535508 141.460751,7.6062353" id="Fill-7" fill="#FB9F6C"></path>
                                <path d="M141.460751,7.6062353 C141.460751,11.8071155 138.054388,15.2126932 133.855536,15.2126932 C129.652009,15.2126932 126.246313,11.8071155 126.246313,7.6062353 C126.246313,3.40535508 129.652009,0 133.855536,0 C138.054388,0 141.460751,3.40535508 141.460751,7.6062353 Z" id="Stroke-9" stroke="#E3D377" stroke-width="0.5"></path>
                                <polygon id="Fill-11" fill="#FB9F6C" points="128.471313 16.8830066 139.23446 16.8830066 139.23446 14.4717241 128.471313 14.4717241"></polygon>
                                <polygon id="Stroke-13" stroke="#E3D377" stroke-width="0.5" points="128.471313 16.8830066 139.23446 16.8830066 139.23446 14.4717241 128.471313 14.4717241"></polygon>
                                <polygon id="Fill-14" fill="#FB9F6C" points="129.337707 20.3446762 138.367398 20.3446762 138.367398 16.8830066 129.337707 16.8830066"></polygon>
                                <polygon id="Stroke-15" stroke="#E3D377" stroke-width="0.5" points="129.337707 20.3446762 138.367398 20.3446762 138.367398 16.8830066 129.337707 16.8830066"></polygon>
                                <polygon id="Fill-16" fill="#FCDDB9" points="52.7935845 250.771897 217.106446 250.771897 217.106446 129.771897 52.7935845 129.771897"></polygon>
                                <polygon id="Stroke-17" stroke="#E3D377" stroke-width="0.5" points="52.7935845 248.779474 217.106446 248.779474 217.106446 129.771897 52.7935845 129.771897"></polygon>
                                <polygon id="Fill-18" fill="#DF4212" points="52.7935845 122.127376 217.106446 122.127376 217.106446 105.486789 52.7935845 105.486789"></polygon>
                                <polygon id="Stroke-19" stroke="#E3D377" stroke-width="0.5" points="52.7935845 122.127376 217.106446 122.127376 217.106446 105.486789 52.7935845 105.486789"></polygon>
                                <polygon id="Fill-20" fill="#F9B766" points="51.8935761 130.108448 217.106446 130.108448 217.106446 122.15008 51.8935761 122.15008"></polygon>
                                <polygon id="Stroke-21" stroke="#E3D377" stroke-width="0.5" points="51.8935761 130.108448 217.106446 130.108448 217.106446 122.15008 51.8935761 122.15008"></polygon>
                                <polygon id="Fill-22" fill="#E44C18" points="51.89647 248.761667 59.850514 248.761667 59.850514 129.789703 51.89647 129.789703"></polygon>
                                <polygon id="Stroke-23" stroke="#E3D377" stroke-width="0.5" points="51.89647 248.761667 59.850514 248.761667 59.850514 129.789703 51.89647 129.789703"></polygon>
                                <polygon id="Fill-24" fill="#E44C18" points="209.149731 248.761667 217.106446 248.761667 217.106446 129.789703 209.149731 129.789703"></polygon>
                                <polygon id="Stroke-25" stroke="#E3D377" stroke-width="0.5" points="209.149731 248.761667 217.106446 248.761667 217.106446 129.789703 209.149731 129.789703"></polygon>
                                <polygon id="Fill-26" fill="#E44C18" points="174.487053 251 183.154559 251 183.154559 105.486789 174.487053 105.486789"></polygon>
                                <polygon id="Stroke-27" stroke="#E3D377" stroke-width="0.5" points="174.487053 251 183.154559 251 183.154559 105.486789 174.487053 105.486789"></polygon>
                                <polygon id="Fill-28" fill="#E44C18" points="106.17902 251 114.846971 251 114.846971 105.486789 106.17902 105.486789"></polygon>
                                <polygon id="Stroke-29" stroke="#E3D377" stroke-width="0.5" points="106.17902 251 114.846971 251 114.846971 105.486789 106.17902 105.486789"></polygon>
                                <path d="M261.068239,110.654007 C249.950475,119.045751 226.501505,128.734509 186.976155,109.840898 C186.976155,109.840898 147.130025,125.884953 77.8623245,110.258916 C77.8623245,110.258916 35.7495891,131.492804 7.28367916,110.654007 C7.28367916,110.654007 107.205092,100.954789 132.122168,45.1756556 L135.158333,45.1756556 C135.158333,45.1756556 133.332716,61.0768096 175.26447,85.876983 C217.114527,110.631081 260.915307,110.654007 261.068239,110.654007" id="Fill-30" fill="#F9B766"></path>
                                <path d="M261.068239,110.654007 C249.950475,119.045751 226.501505,128.734509 186.976155,109.840898 C186.976155,109.840898 147.130025,125.884953 77.8623245,110.258916 C77.8623245,110.258916 35.7495891,131.492804 7.28367916,110.654007 C7.28367916,110.654007 107.205092,100.954789 132.122168,45.1756556 L135.158333,45.1756556 C135.158333,45.1756556 133.332716,61.0768096 175.26447,85.876983 C217.114527,110.631081 260.915307,110.654007 261.068239,110.654007 Z" id="Stroke-31" stroke="#E3D377" stroke-width="0.5"></path>
                                <path d="M132.122257,45.1755665 C107.204958,100.9547 7.28332298,110.653918 7.28332298,110.653918 L7.27085688,110.653918 C4.7288841,108.795764 2.28152018,106.595716 0,104.011261 C0,104.011261 79.4273552,108.795764 132.122257,45.1755665" id="Fill-32" fill="#40B69B"></path>
                                <path d="M132.122257,45.1755665 C107.204958,100.9547 7.28332298,110.653918 7.28332298,110.653918 L7.27085688,110.653918 C4.7288841,108.795764 2.28152018,106.595716 0,104.011261 C0,104.011261 79.4273552,108.795764 132.122257,45.1755665 Z" id="Stroke-33" stroke="#E3D377" stroke-width="0.5"></path>
                                <path d="M133.593681,45.1755665 C133.593681,45.1755665 109.800557,98.739516 81.7705158,99.8382043 L74.6652801,93.4884714 L71.3537478,94.8317826 L76.8245879,108.382643 C76.8245879,108.382643 121.440785,109.841031 133.593681,45.1755665" id="Fill-34" fill="#40B69B"></path>
                                <path d="M133.593681,45.1755665 C133.593681,45.1755665 109.800557,98.739516 81.7705158,99.8382043 L74.6652801,93.4884714 L71.3537478,94.8317826 L76.8245879,108.382643 C76.8245879,108.382643 121.440785,109.841031 133.593681,45.1755665 Z" id="Stroke-35" stroke="#E3D377" stroke-width="0.5"></path>
                                <path d="M81.7705603,99.839206 C81.7705603,99.839206 114.320456,103.588903 133.593057,45.1765682" id="Stroke-36" stroke="#E3D377" stroke-width="0.5"></path>
                                <path d="M133.593681,45.1755665 C133.593681,45.1755665 157.385914,98.739516 185.4164,99.8382043 L192.521636,93.4884714 L195.832723,94.8317826 L190.364332,108.382643 C190.364332,108.382643 145.745909,109.841031 133.593681,45.1755665" id="Fill-37" fill="#40B69B"></path>
                                <path d="M133.593681,45.1755665 C133.593681,45.1755665 157.385914,98.739516 185.4164,99.8382043 L192.521636,93.4884714 L195.832723,94.8317826 L190.364332,108.382643 C190.364332,108.382643 145.745909,109.841031 133.593681,45.1755665 Z" id="Stroke-38" stroke="#E3D377" stroke-width="0.5"></path>
                                <path d="M185.417046,99.839206 C185.417046,99.839206 152.861808,103.588903 133.593658,45.1765682" id="Stroke-39" stroke="#E3D377" stroke-width="0.5"></path>
                                <path d="M269,102.769138 C268.833934,103.021551 266.333144,106.694901 261.068885,110.653384 C260.91573,110.653384 217.113169,110.63068 175.263112,85.8763598 C133.331581,61.0788574 135.159646,45.1750323 135.159646,45.1750323 L136.204573,45.1750323 C136.204573,45.1750323 140.630486,62.3304629 193.228108,88.5836827 C243.256376,114.449156 268.254928,103.110809 269,102.769138" id="Fill-40" fill="#40B69B"></path>
                                <path d="M269,102.769138 C268.833934,103.021551 266.333144,106.694901 261.068885,110.653384 C260.91573,110.653384 217.113169,110.63068 175.263112,85.8763598 C133.331581,61.0788574 135.159646,45.1750323 135.159646,45.1750323 L136.204573,45.1750323 C136.204573,45.1750323 140.630486,62.3304629 193.228108,88.5836827 C243.256376,114.449156 268.254928,103.110809 269,102.769138 Z" id="Stroke-41" stroke="#E3D377" stroke-width="0.5"></path>
                                <polygon id="Fill-42" fill="#DF4212" points="82.7868152 85.190659 186.606335 85.190659 186.606335 72.4017132 82.7868152 72.4017132"></polygon>
                                <polygon id="Stroke-43" stroke="#E3D377" stroke-width="0.5" points="82.7868152 85.190659 186.606335 85.190659 186.606335 72.4017132 82.7868152 72.4017132"></polygon>
                                <polygon id="Fill-44" fill="#DF4212" points="82.7868152 72.4019358 186.606335 72.4019358 186.606335 66.6282574 82.7868152 66.6282574"></polygon>
                                <polygon id="Stroke-45" stroke="#E3D377" stroke-width="0.5" points="82.7868152 72.4019358 186.606335 72.4019358 186.606335 66.6282574 82.7868152 66.6282574"></polygon>
                                <polygon id="Fill-46" fill="#F9B766" points="82.2182717 75.1729185 186.606335 75.1729185 186.606335 72.4121748 82.2182717 72.4121748"></polygon>
                                <polygon id="Stroke-47" stroke="#E3D377" stroke-width="0.5" points="82.2182717 75.1729185 186.606335 75.1729185 186.606335 72.4121748 82.2182717 72.4121748"></polygon>
                                <polygon id="Fill-48" fill="#E44C18" points="82.2182717 85.190659 87.2456745 85.190659 87.2456745 72.4097263 82.2182717 72.4097263"></polygon>
                                <polygon id="Stroke-49" stroke="#E3D377" stroke-width="0.5" points="82.2182717 85.190659 87.2456745 85.190659 87.2456745 72.4097263 82.2182717 72.4097263"></polygon>
                                <polygon id="Fill-50" fill="#E44C18" points="181.576706 85.190659 186.606335 85.190659 186.606335 72.4097263 181.576706 72.4097263"></polygon>
                                <polygon id="Stroke-51" stroke="#E3D377" stroke-width="0.5" points="181.576706 85.190659 186.606335 85.190659 186.606335 72.4097263 181.576706 72.4097263"></polygon>
                                <polygon id="Fill-52" fill="#E44C18" points="103.326952 85.190659 107.204357 85.190659 107.204357 66.6282574 103.326952 66.6282574"></polygon>
                                <polygon id="Stroke-53" stroke="#E3D377" stroke-width="0.5" points="103.326952 85.190659 107.204357 85.190659 107.204357 66.6282574 103.326952 66.6282574"></polygon>
                                <polygon id="Fill-54" fill="#E44C18" points="122.854664 85.190659 126.732291 85.190659 126.732291 66.6282574 122.854664 66.6282574"></polygon>
                                <polygon id="Stroke-55" stroke="#E3D377" stroke-width="0.5" points="122.854664 85.190659 126.732291 85.190659 126.732291 66.6282574 122.854664 66.6282574"></polygon>
                                <polygon id="Fill-56" fill="#E44C18" points="143.387232 85.190659 147.264637 85.190659 147.264637 66.6282574 143.387232 66.6282574"></polygon>
                                <polygon id="Stroke-57" stroke="#E3D377" stroke-width="0.5" points="143.387232 85.190659 147.264637 85.190659 147.264637 66.6282574 143.387232 66.6282574"></polygon>
                                <polygon id="Fill-58" fill="#E44C18" points="162.915611 85.190659 166.793016 85.190659 166.793016 66.6282574 162.915611 66.6282574"></polygon>
                                <polygon id="Stroke-59" stroke="#E3D377" stroke-width="0.5" points="162.915611 85.190659 166.793016 85.190659 166.793016 66.6282574 162.915611 66.6282574"></polygon>
                                <path d="M224.685372,67.0021141 C216.761603,72.982353 200.055684,79.8852141 171.890296,66.4209401 C171.890296,66.4209401 143.498515,77.8536646 94.1434163,66.7192063 C94.1434163,66.7192063 64.1377195,81.8504328 43.8553635,67.0021141 C43.8553635,67.0021141 115.050413,60.0914625 132.804376,20.3461452 L134.97103,20.3461452 C134.97103,20.3461452 133.668321,31.676925 163.546463,49.3471988 C193.366282,66.9869782 224.57518,67.0021141 224.685372,67.0021141" id="Fill-60" fill="#F9B766"></path>
                                <path d="M224.685372,67.0021141 C216.761603,72.982353 200.055684,79.8852141 171.890296,66.4209401 C171.890296,66.4209401 143.498515,77.8536646 94.1434163,66.7192063 C94.1434163,66.7192063 64.1377195,81.8504328 43.8553635,67.0021141 C43.8553635,67.0021141 115.050413,60.0914625 132.804376,20.3461452 L134.97103,20.3461452 C134.97103,20.3461452 133.668321,31.676925 163.546463,49.3471988 C193.366282,66.9869782 224.57518,67.0021141 224.685372,67.0021141 Z" id="Stroke-61" stroke="#E3D377" stroke-width="0.5"></path>
                                <path d="M132.804442,20.3456333 C115.05048,60.0911731 43.8549851,67.0016022 43.8549851,67.0016022 L43.8449677,67.0016022 C42.0349335,65.678769 40.2912368,64.1108677 38.664855,62.2680718 C38.664855,62.2680718 95.2600901,65.678769 132.804442,20.3456333" id="Fill-62" fill="#40B69B"></path>
                                <path d="M132.804442,20.3456333 C115.05048,60.0911731 43.8549851,67.0016022 43.8549851,67.0016022 L43.8449677,67.0016022 C42.0349335,65.678769 40.2912368,64.1108677 38.664855,62.2680718 C38.664855,62.2680718 95.2600901,65.678769 132.804442,20.3456333 Z" id="Stroke-63" stroke="#E3D377" stroke-width="0.5"></path>
                                <path d="M133.85509,20.3456333 C133.85509,20.3456333 116.90163,58.5132555 96.9302591,59.295648 L91.8647901,54.7711266 L89.5064698,55.7269142 L93.4045769,65.3829511 C93.4045769,65.3829511 125.194263,66.4230992 133.85509,20.3456333" id="Fill-64" fill="#40B69B"></path>
                                <path d="M133.85509,20.3456333 C133.85509,20.3456333 116.90163,58.5132555 96.9302591,59.295648 L91.8647901,54.7711266 L89.5064698,55.7269142 L93.4045769,65.3829511 C93.4045769,65.3829511 125.194263,66.4230992 133.85509,20.3456333 Z" id="Stroke-65" stroke="#E3D377" stroke-width="0.5"></path>
                                <path d="M96.9297025,59.2964716 C96.9297025,59.2964716 120.123117,61.9679581 133.853866,20.3464568" id="Stroke-66" stroke="#E3D377" stroke-width="0.5"></path>
                                <path d="M133.85509,20.3456333 C133.85509,20.3456333 150.805434,58.5132555 170.776805,59.295648 L175.84272,54.7711266 L178.203489,55.7269142 L174.305159,65.3829511 C174.305159,65.3829511 142.512579,66.4230992 133.85509,20.3456333" id="Fill-67" fill="#40B69B"></path>
                                <path d="M133.85509,20.3456333 C133.85509,20.3456333 150.805434,58.5132555 170.776805,59.295648 L175.84272,54.7711266 L178.203489,55.7269142 L174.305159,65.3829511 C174.305159,65.3829511 142.512579,66.4230992 133.85509,20.3456333 Z" id="Stroke-68" stroke="#40B69B" stroke-width="0.5"></path>
                                <path d="M170.778208,59.2964716 C170.778208,59.2964716 147.583903,61.9679581 133.855602,20.3464568" id="Stroke-69" stroke="#E3D377" stroke-width="0.5"></path>
                                <path d="M230.336681,61.3836455 C230.216695,61.5646086 228.434709,64.1826742 224.684637,67.0019583 C224.575113,67.0019583 193.365547,66.9865998 163.545951,49.3468204 C133.667809,31.6765467 134.970518,20.3459894 134.970518,20.3459894 L135.7147,20.3459894 C135.7147,20.3459894 138.865953,32.5713455 176.343746,51.2741993 C211.99414,69.7063876 229.806426,61.6258199 230.336681,61.3836455" id="Fill-70" fill="#40B69B"></path>
                                <path d="M230.336681,61.3836455 C230.216695,61.5646086 228.434709,64.1826742 224.684637,67.0019583 C224.575113,67.0019583 193.365547,66.9865998 163.545951,49.3468204 C133.667809,31.6765467 134.970518,20.3459894 134.970518,20.3459894 L135.7147,20.3459894 C135.7147,20.3459894 138.865953,32.5713455 176.343746,51.2741993 C211.99414,69.7063876 229.806426,61.6258199 230.336681,61.3836455 Z" id="Stroke-71" stroke="#E3D377" stroke-width="0.5"></path>
                            </g>
                            <path d="M1.04657147,164.840087 C11.5667124,171.515596 36.4237092,177.252272 71.9918332,180.827122 L71.9918332,180.827122 L72.2228421,255.493201 C50.1874849,253.248909 32.3326917,250.159412 19.936033,246.577693 C13.6759246,244.768984 8.82259684,242.842705 5.55365543,240.828898 C2.73326865,239.091419 1.04657147,237.336984 1.04657147,235.456635 L1.04657147,235.456635 Z" id="路径" stroke="#72A332" stroke-width="2" fill="#FFFFFF"></path>
                            <path d="M205.870301,164.334998 C215.322357,171.503681 241.195344,177.612762 279.046571,181.345564 L279.046571,258 C233.841821,253.481958 205.870301,245.422329 205.870301,236.857462 L205.870301,164.334998 Z" id="路径备份-4" stroke="#FFFFFF" stroke-width="2" fill="url(#linearGradient-4)" transform="translate(242.458436, 211.167499) scale(-1, 1) translate(-242.458436, -211.167499) "></path>
                        </g>
                        <path d="M38.5465232,205.947886 C39.4865177,205.947886 40.22332,206.003659 40.7573904,206.115206 L40.7573904,206.115206 L40.7573904,208.874231 C40.0882677,208.7253 39.4262046,208.650682 38.7721219,208.650682 C37.5764488,208.650682 36.6008495,208.8294 35.8450171,209.186835 C35.0893382,209.544269 34.5234998,210.072975 34.147502,210.772799 C33.7715042,211.472928 33.5497422,212.466967 33.4820626,213.75507 L33.4820626,213.75507 L33.628625,213.75507 C34.3732542,212.489307 35.5649371,211.85635 37.2042876,211.85635 C38.6780457,211.85635 39.8324358,212.314237 40.6669975,213.230163 C41.5017127,214.145938 41.91884,215.411853 41.91884,217.027756 C41.91884,218.770098 41.4228298,220.149535 40.4300421,221.165914 C39.4377148,222.182293 38.0614092,222.690635 36.3017394,222.690635 C35.0838133,222.690635 34.0215044,222.411313 33.1154263,221.852821 C32.2095018,221.294481 31.5098389,220.479007 31.0175119,219.406855 C30.524878,218.334551 30.2787145,217.042801 30.2787145,215.53115 C30.2787145,212.299344 30.9685554,209.894258 32.3483908,208.315739 C33.7282261,206.737069 35.7943725,205.947886 38.5465232,205.947886 Z M50.2272062,205.724281 C52.1294483,205.724281 53.5677551,206.43915 54.5413592,207.868737 C55.5152704,209.298324 56.0020725,211.390807 56.0020725,214.145881 C56.0020725,216.997913 55.5303103,219.108936 54.5863255,220.479103 C53.6428012,221.849117 52.1896079,222.5342 50.2272062,222.5342 C48.3246571,222.5342 46.8903405,221.826777 45.9237959,220.411932 C44.9577117,218.997238 44.4747463,216.908554 44.4747463,214.145881 C44.4747463,211.264367 44.9445134,209.140275 45.8845079,207.773908 C46.8243491,206.407388 48.271864,205.724281 50.2272062,205.724281 Z M21.419638,205.071953 C23.1262078,205.071953 24.4742751,205.414342 25.4630726,206.099274 C26.4517167,206.784357 26.9463457,207.737516 26.9463457,208.958904 C26.9463457,209.978778 26.6340373,210.846378 26.0100344,211.561096 C25.3860315,212.275965 24.5098798,212.767438 23.3820398,213.035514 L23.3820398,213.035514 L23.3820398,213.102685 C24.7130721,213.266358 25.7204393,213.666648 26.4049088,214.303253 C27.0890714,214.939857 27.4314597,215.798035 27.4314597,216.877786 C27.4314597,218.44901 26.8562597,219.672069 25.7055529,220.546963 C24.5549995,221.42201 22.9119657,221.859381 20.776298,221.859381 C18.9867018,221.859381 17.4001445,221.565318 16.0164724,220.976888 L16.0164724,220.976888 L16.0164724,218.039449 C16.6559757,218.359499 17.358708,218.62028 18.1257435,218.821338 C18.8927791,219.022395 19.6521413,219.122999 20.4042904,219.122999 C21.5546903,219.122999 22.4044454,218.929237 22.9534022,218.542016 C23.5023591,218.154795 23.7767607,217.533083 23.7767607,216.676881 C23.7767607,215.909885 23.461076,215.366287 22.8292462,215.045933 C22.1977233,214.725883 21.1902026,214.565706 19.8063771,214.565706 L19.8063771,214.565706 L18.5545345,214.565706 L18.5545345,211.918683 L19.8290904,211.918683 C21.1073296,211.918683 22.0417993,211.752883 22.6318857,211.421587 C23.222279,211.090291 23.5175524,210.522377 23.5175524,209.718149 C23.5175524,208.482172 22.7353235,207.86426 21.1711725,207.86426 C20.6297356,207.86426 20.0790906,207.953467 19.5186237,208.132184 C18.9586171,208.310901 18.3363023,208.619858 17.6519863,209.059356 L17.6519863,209.059356 L16.0391858,206.680257 C17.5430236,205.607953 19.3363031,205.071953 21.419638,205.071953 Z M36.3017394,214.503373 C35.5950169,214.503373 34.9917322,214.730721 34.4915784,215.184809 C33.991578,215.639049 33.7414244,216.167754 33.7414244,216.770926 C33.7414244,217.656914 33.9766916,218.405217 34.4464587,219.015987 C34.9163792,219.626452 35.5121439,219.931761 36.2342132,219.931761 C36.9788424,219.931761 37.5502057,219.684201 37.9487634,219.189081 C38.3471676,218.693809 38.5465232,217.98821 38.5465232,217.072283 C38.5465232,216.275654 38.3605193,215.648319 37.9880513,215.19028 C37.6158902,214.732392 37.0538885,214.503373 36.3017394,214.503373 Z M50.2272062,208.516588 C49.4073774,208.516588 48.8208208,208.954111 48.4675363,209.829157 C48.1140984,210.704052 47.9374561,212.142909 47.9374561,214.145881 C47.9374561,216.149005 48.1122567,217.584215 48.461858,218.451815 C48.8114592,219.319111 49.3998575,219.752987 50.2272062,219.752987 C51.039208,219.752987 51.6256112,219.31364 51.9865691,218.434946 C52.3478339,217.556405 52.528006,216.126666 52.528006,214.145881 C52.528006,212.142909 52.3456854,210.704052 51.9810442,209.829157 C51.6164031,208.954111 51.0316881,208.516588 50.2272062,208.516588 Z" id="形状结合" fill="url(#linearGradient-5)" transform="translate(36.009272, 213.881294) rotate(9.000000) translate(-36.009272, -213.881294) "></path>
                        <g id="全景" transform="translate(223.457727, 199.344444)" fill="#FFFFFF" fill-rule="nonzero">
                            <path d="M6.45022533,19.1804079 C6.68576001,19.6118625 6.58762056,20.0629287 6.96055048,20.2590444 L10.3169198,19.7687551 L10.3169198,23.0242763 C9.27664156,23.0242763 8.23636336,23.0046647 7.19608517,23.0242763 C6.21469064,23.0438878 5.252924,23.1027225 4.29115737,23.1223341 C3.85934378,23.1419457 3.44715807,23.1223341 3.01534448,23.1223341 C3.21162339,23.632235 3.3882744,24.0833012 3.52566964,24.4951442 C8.53078172,23.7499045 13.5358938,23.2596151 18.6784011,23.9460202 C18.6587732,23.632235 18.7176569,23.3380614 18.6195175,23.2007804 C18.2269596,22.6908795 17.7755182,22.2398133 17.2848209,21.7103009 L15.7342175,22.8673837 L12.1619415,22.8673837 L12.1619415,19.9060361 C12.2797088,19.8472014 12.3974762,19.7687551 12.5152435,19.7491435 C12.9863129,19.7491435 13.4573822,19.7491435 13.9284516,19.7687551 C14.3798931,19.7883667 14.8313346,19.8472014 15.2827761,19.8275898 C15.7734733,19.8079783 16.009008,19.2980774 15.7145897,18.945069 C15.4201713,18.6116723 15.0864972,18.3174987 14.752823,17.984102 C14.399521,18.2782756 14.1051026,18.5724491 13.7518006,18.8273996 C13.5947775,18.945069 13.3592428,19.0235153 13.143336,19.0431269 C12.8489176,19.0431269 12.5348714,18.9842922 12.1815694,18.9254575 L12.1815694,17.5526473 C12.2011973,17.5722589 12.2011973,17.5722589 12.2208251,17.5722589 L12.4563598,16.650515 C13.0451965,16.7093497 13.6536611,16.7485728 14.2621258,16.787796 C14.9098461,16.8466307 15.1257529,16.6112918 14.929474,15.8856636 L18.1484481,18.121383 L18.4036107,17.9644904 C19.1102147,17.4938126 19.8168188,17.062358 20.7197017,17.1211927 C20.8767249,17.1211927 21.033748,17.0035233 21.1907711,16.9446886 L21.1907711,16.7681844 L20.5037949,16.4936224 C19.600912,16.1013909 18.698029,15.7483826 17.7951461,15.3365396 C17.1474257,15.0227544 16.5585889,14.5520767 15.8912407,14.2775146 C15.0864972,13.9637295 14.4976604,13.3949938 13.8891958,12.8850929 C12.966685,12.1202416 12.5544993,11.0023819 12.3974762,9.90413382 L13.2807312,8.80588572 L12.0049183,7.70763763 C11.9264068,7.84491864 11.8478952,7.92336493 11.8478952,8.00181122 C11.6908721,8.92355516 11.0627796,9.19811719 10.2187803,9.23734033 C9.72808304,9.27656348 9.21775789,9.37462134 8.72706063,9.47267921 C8.53078172,9.51190236 8.33450282,9.60996022 8.11859602,9.68840651 L8.62892117,10.5513157 C9.57105992,10.1983074 10.5131987,9.82568753 11.5731048,9.41384449 C11.5142211,11.9241259 12.8881734,13.6499443 14.2621258,15.2973164 L13.3003591,15.8268289 C13.0451965,15.9444983 12.790034,16.0817794 12.5348714,16.1013909 C11.887151,16.1406141 11.2394306,16.1013909 10.5917102,16.1013909 L8.51115383,16.1798372 C8.17747969,16.1994488 7.84380555,16.1994488 7.47087563,16.1994488 L7.62789876,17.1211927 L10.2972919,16.8074076 L10.1795245,19.0235153 L6.45022533,19.1804079 Z M10.1206409,10.3159769 C10.0028735,10.4728694 9.92436195,10.5317042 9.88510617,10.629762 C9.49254836,11.6103407 8.90371164,12.4536383 8.27561914,13.2773244 C7.84380555,13.84606 7.47087563,14.4932419 6.99980626,15.042366 C6.41096954,15.728771 5.72399338,16.3171182 5.13515666,16.9839117 C4.07525057,18.1606061 2.85832136,19.1019616 1.50399691,19.8864245 C1.38622957,19.9452593 1.28809012,20.0825403 1.18995066,20.1805981 C1.20957855,20.2198213 1.24883434,20.2394329 1.28809012,20.278656 C5.35106346,18.2782756 8.55040961,15.2384817 11.4160816,11.7476217 L10.1206409,10.3159769 Z" id="全" transform="translate(11.190361, 16.101391) rotate(-9.000000) translate(-11.190361, -16.101391) "></path>
                            <path d="M37.6947598,8.31654755 C38.2639686,7.86548136 38.4602475,7.2575226 38.4013639,6.53189439 C38.3424802,5.39442315 38.3032244,4.2569519 38.2639686,3.17831538 L38.9509448,2.70763763 C38.8135496,1.96239785 38.0676897,1.78589369 37.7732714,1.21715807 L36.4974585,2.41346403 L30.8249981,2.41346403 L29.9809988,1.80550526 L28.7836975,2.66841448 L29.3921621,3.09986909 L29.2743948,9.0813989 C29.4510458,9.15984519 29.6080689,9.23829148 29.7258362,9.27751463 C30.491324,8.98334103 30.9035097,8.43421698 31.0016491,7.6889772 L33.5925307,7.43402675 C34.4169021,7.4732499 35.2609014,7.51247305 36.1441564,7.57130777 C36.1834122,7.90470451 36.2030401,8.19887811 36.222668,8.51266328 L36.8703884,8.98334103 L37.6947598,8.31654755 Z M34.4561579,15.5336065 C35.2020177,15.5336065 35.8104823,15.5139949 36.399319,15.553218 C37.0274115,15.5924412 37.655504,15.7297222 38.3228523,15.8277801 C38.2639686,14.9256477 38.2247128,14.1019616 38.1854571,13.2782756 C38.381736,13.0821598 38.5780149,12.9056557 38.7546659,12.7487631 C38.558387,12.0819696 37.8910387,11.4347877 37.3218299,11.2975067 L36.3600632,12.1015812 C34.789832,12.199639 33.2392286,12.2780853 31.6886253,12.3565316 C31.5316022,12.3761432 31.3549512,12.3173085 31.2175559,12.2388622 C30.3735566,11.650515 29.8436036,11.7093497 29.0977437,12.4545895 L29.4314179,12.8664325 L29.4314179,16.9260282 C29.5491852,17.024086 29.7062084,17.1221439 29.8436036,17.2005902 C30.4716961,16.886805 30.8642539,16.4357388 31.1194165,15.7297222 L33.2588565,15.5728296 L33.0822055,19.4166979 L32.2578341,19.553979 L33.2392286,20.9660122 C33.3177402,20.9464007 33.5532749,20.9856238 33.6710422,20.8875659 C34.2991347,20.4168882 34.8487157,19.8677641 34.8487157,19.0048549 C34.8683436,18.2400036 34.8683436,17.4751522 34.8683436,16.7691356 L35.3394129,16.0238958 L34.4561579,15.5336065 Z M25.7413745,11.9839117 C26.3302112,11.8074076 26.8405363,11.6309034 27.3508615,11.513234 C27.7237914,11.4347877 28.0967213,11.4151761 28.4696512,11.375953 C29.235139,11.2582835 30.0006267,11.1406141 30.7661144,11.0425562 C31.197928,10.9837215 31.6297416,10.9837215 32.0615552,10.9444983 C33.0233219,10.8660521 33.9654606,10.728771 34.9075993,10.6699363 C35.5356918,10.6307132 36.1834122,10.6503247 36.8115047,10.6503247 C37.478853,10.6503247 38.1658292,10.6111016 38.8331774,10.6699363 C39.7360604,10.7679942 40.6389434,10.9641099 41.5418263,11.1013909 C41.6792216,11.1210025 41.8362447,11.1013909 41.9736399,11.1013909 L42.3661977,10.6111016 C42.1502909,9.82663868 41.8558726,9.45401879 40.9922454,8.82644845 L39.4023863,9.78741553 L35.1038782,10.042366 L35.1038782,9.17945676 L35.5356918,8.571498 L33.6906701,7.72820035 L32.2970899,8.37538226 L32.7092756,8.63033272 L32.8466708,9.96391969 C33.003694,10.0227544 33.1410892,10.0619776 33.3962518,10.1208123 L25.2506772,10.6111016 L25.7413745,11.9839117 Z M30.9623933,3.27637325 L36.4582027,3.04103437 L36.3404354,6.70839855 C34.5150415,6.963349 32.8074151,6.84567956 31.021277,6.92412585 L30.9035097,5.61015045 C31.3156954,5.55131573 31.7082532,5.49248101 32.1204389,5.47286944 C33.180345,5.41403472 34.2402511,5.39442315 35.3001572,5.3552 C35.4768082,5.33558843 35.6534592,5.25714213 35.7908544,5.21791899 C36.0067612,4.57073707 35.4768082,4.41384449 35.2216456,4.0412246 C34.966483,4.2569519 34.7505762,4.47267921 34.4561579,4.74724123 L30.9623933,4.74724123 L30.9623933,3.27637325 Z M36.1049007,14.7883667 L31.0409049,14.7883667 L31.1586723,13.3763334 L30.8249981,12.9448788 L31.0997886,12.6310936 C31.1390444,12.7879862 31.1783001,12.8860441 31.197928,13.0429367 C32.8270429,13.0821598 34.43653,12.6507052 36.1049007,12.9448788 L36.1049007,14.7883667 Z M35.9086218,16.3572925 C36.9292721,17.4555406 37.9106666,18.5537887 38.4798754,19.9265988 L39.0098285,20.1423262 C39.637921,19.8481526 39.814572,19.2990285 39.9715951,18.7302929 C39.5201536,17.5143754 39.4023863,17.3770943 38.4602475,16.9064166 C37.655504,16.5141851 36.7918768,16.4161273 35.9086218,16.3572925 Z M25.8983976,20.5737808 C27.2723499,20.377665 30.7072308,18.6126234 32.1596947,17.5339869 C32.277462,16.9652513 31.7671369,16.7103009 31.5316022,16.2592347 C29.8239757,17.9654415 27.9985819,19.4755327 25.8983976,20.5737808 Z" id="景" transform="translate(33.808437, 11.091585) rotate(-9.000000) translate(-33.808437, -11.091585) "></path>
                        </g>
                    </g>
                </g>
            </g>
        </g>
    </g>
</svg>