<?xml version="1.0" encoding="UTF-8"?>
<svg width="39px" height="173px" viewBox="0 0 39 173" version="1.1" xmlns="http://www.w3.org/2000/svg" xmlns:xlink="http://www.w3.org/1999/xlink">
    <title>探索祠堂</title>
    <g id="页面-1" stroke="none" stroke-width="1" fill="none" fill-rule="evenodd">
        <g id="华夏祠堂首页备份" transform="translate(-500.000000, -704.000000)" fill="#FFFFFF" fill-rule="nonzero">
            <g id="编组-3" transform="translate(194.000000, 700.000000)">
                <g id="探索祠堂" transform="translate(306.320000, 4.200000)">
                    <path d="M5.6,10.16 L2.4,10.16 C1.76,10.16 1.18666667,10.24 0.68,10.4 L0,8.68 C0.613333333,8.78666667 1.28,8.84 2,8.84 L5.6,8.84 L5.6,4.32 C5.6,2.69333333 5.54666667,1.25333333 5.44,0 C6.77333333,0.08 7.94,0.22 8.94,0.42 C9.94,0.62 10.5266667,0.8 10.7,0.96 C10.8733333,1.12 10.96,1.29333333 10.96,1.48 C10.96,1.90666667 10.6666667,2.13333333 10.08,2.16 L10.08,8.84 L10.6,8.84 C11,7.90666667 11.3266667,7.23333333 11.58,6.82 C11.8333333,6.40666667 12.0733333,6.2 12.3,6.2 C12.5266667,6.2 13.1066667,6.73333333 14.04,7.8 C14.9733333,8.86666667 15.44,9.52666667 15.44,9.78 C15.44,10.0333333 15.2,10.16 14.72,10.16 L10.08,10.16 L10.08,16 L14.52,14.92 C14.76,14.8666667 14.9533333,14.84 15.1,14.84 C15.2466667,14.84 15.32,14.8666667 15.32,14.92 C15.32,15.0533333 15.04,15.28 14.48,15.6 L10.08,18.36 L10.08,31.92 C10.08,32.7466667 10,33.4266667 9.84,33.96 C9.68,34.4933333 9.39333333,34.9333333 8.98,35.28 C8.56666667,35.6266667 7.95333333,35.9066667 7.14,36.12 C6.32666667,36.3333333 5.64666667,36.44 5.1,36.44 C4.55333333,36.44 4.25333333,36.0666667 4.2,35.32 C4.12,34.44 3.80666667,33.76 3.26,33.28 C2.71333333,32.8 2.03333333,32.4733333 1.22,32.3 C0.406666667,32.1266667 0,31.9733333 0,31.84 C0,31.7066667 0.16,31.64 0.48,31.64 L2.32,31.68 C3.68,31.68 4.56666667,31.5533333 4.98,31.3 C5.39333333,31.0466667 5.6,30.5733333 5.6,29.88 L5.6,21.28 C4.8,21.8133333 4.04,22.3533333 3.32,22.9 C2.6,23.4466667 2.18666667,23.72 2.08,23.72 C1.97333333,23.72 1.89333333,23.68 1.84,23.6 C1.78666667,23.52 1.59333333,22.9466667 1.26,21.88 C0.926666667,20.8133333 0.533333333,19.5066667 0.08,17.96 C1.41333333,17.8 3.25333333,17.48 5.6,17 L5.6,10.16 Z M19.32,2.92 L30.96,2.92 C31.7066667,1.53333333 32.2933333,0.84 32.72,0.84 C32.9333333,0.84 33.3333333,1.05333333 33.92,1.48 C34.5066667,1.90666667 35.2066667,2.48666667 36.02,3.22 C36.8333333,3.95333333 37.38,4.47333333 37.66,4.78 C37.94,5.08666667 38.08,5.37333333 38.08,5.64 C38.08,6.12 37.72,6.36 37,6.36 C36.8666667,6.36 36.6533333,6.34 36.36,6.3 C36.0666667,6.26 35.7333333,6.24 35.36,6.24 C33.8933333,6.24 32.48,6.78666667 31.12,7.88 C34.1333333,9.26666667 35.64,10.8266667 35.64,12.56 C35.64,13.3333333 35.3533333,14.02 34.78,14.62 C34.2066667,15.22 33.6066667,15.52 32.98,15.52 C32.3533333,15.52 31.8266667,15.34 31.4,14.98 C30.9733333,14.62 30.7466667,14.1733333 30.72,13.64 C30.64,12.4666667 30.2466667,11.2733333 29.54,10.06 C28.8333333,8.84666667 27.8533333,7.78666667 26.6,6.88 C26.28,6.64 26.12,6.46666667 26.12,6.36 C26.12,6.25333333 26.2,6.2 26.36,6.2 C26.84,6.2 28.2,6.65333333 30.44,7.56 C30.76,6.46666667 31.0133333,5.36 31.2,4.24 L19.64,4.24 C19.6933333,4.56 19.72,4.88 19.72,5.2 C19.72,6.32 19.4066667,7.22666667 18.78,7.92 C18.1533333,8.61333333 17.48,8.96 16.76,8.96 C16.04,8.96 15.46,8.78666667 15.02,8.44 C14.58,8.09333333 14.36,7.61333333 14.36,7 C14.36,6.17333333 14.7133333,5.5 15.42,4.98 C16.1266667,4.46 16.64,3.95333333 16.96,3.46 C17.28,2.96666667 17.44,2.38666667 17.44,1.72 L17.36,0.52 C17.36,0.28 17.44,0.16 17.6,0.16 C17.76,0.16 18.04,0.486666667 18.44,1.14 C18.84,1.79333333 19.1333333,2.38666667 19.32,2.92 Z M20.8,6.08 C22.0533333,6.50666667 23.2666667,7.02 24.44,7.62 C25.6133333,8.22 26.2,8.70666667 26.2,9.08 C26.2,9.34666667 25.9133333,9.51333333 25.34,9.58 C24.7666667,9.64666667 24.0666667,10.04 23.24,10.76 C20.7333333,12.92 18.6,14.5266667 16.84,15.58 C15.08,16.6333333 14.0266667,17.16 13.68,17.16 C13.6,17.16 13.56,17.12 13.56,17.04 C13.56,16.96 13.6933333,16.8133333 13.96,16.6 C15.48,15.3733333 16.8533333,13.8266667 18.08,11.96 C19.3066667,10.0933333 20.2133333,8.13333333 20.8,6.08 Z M27.16,19.44 L31.36,19.44 C32.4,17.4666667 33.1333333,16.48 33.56,16.48 C33.88,16.48 34.6733333,17.04 35.94,18.16 C37.2066667,19.28 37.84,19.9933333 37.84,20.3 C37.84,20.6066667 37.5066667,20.76 36.84,20.76 L28.52,20.76 C29.56,22.8666667 30.7666667,24.5666667 32.14,25.86 C33.5133333,27.1533333 35.3333333,28.1733333 37.6,28.92 C38.0266667,29.0533333 38.24,29.2 38.24,29.36 C38.24,29.52 37.9933333,29.6733333 37.5,29.82 C37.0066667,29.9666667 36.3933333,30.4333333 35.66,31.22 C34.9266667,32.0066667 34.48,32.7066667 34.32,33.32 C34.24,33.6133333 34.0933333,33.76 33.88,33.76 C33.4533333,33.76 32.6666667,33.14 31.52,31.9 C30.3733333,30.66 29.4533333,29.1266667 28.76,27.3 C28.0666667,25.4733333 27.6666667,23.2933333 27.56,20.76 L27.16,20.76 L27.16,31.24 C27.16,32.12 27.1866667,33.0533333 27.24,34.04 L27.28,35.4 C27.28,35.6933333 27.1933333,35.92 27.02,36.08 C26.8466667,36.24 26.3533333,36.4266667 25.54,36.64 C24.7266667,36.8533333 24.0266667,36.96 23.44,36.96 C22.8533333,36.96 22.5266667,36.9133333 22.46,36.82 C22.3933333,36.7266667 22.36,36.56 22.36,36.32 L22.4,34.76 C22.4533333,33.6933333 22.48,32.4933333 22.48,31.16 L22.48,25.52 C20.3733333,28.16 18.04,30.2266667 15.48,31.72 C12.92,33.2133333 11.3733333,33.96 10.84,33.96 C10.68,33.96 10.6,33.88 10.6,33.72 C10.6,33.56 10.76,33.36 11.08,33.12 C13.2133333,31.4666667 15.0866667,29.56 16.7,27.4 C18.3133333,25.24 19.52,23.0266667 20.32,20.76 L15.72,20.76 C15.1866667,20.76 14.7066667,20.9066667 14.28,21.2 L13.24,19.32 C13.88,19.4 14.5466667,19.44 15.24,19.44 L22.48,19.44 L22.48,16.84 C22.48,15.5066667 22.4533333,14.32 22.4,13.28 C23.76,13.36 24.9333333,13.4733333 25.92,13.62 C26.9066667,13.7666667 27.5,13.9 27.7,14.02 C27.9,14.14 28,14.3133333 28,14.54 C28,14.7666667 27.72,15.0133333 27.16,15.28 L27.16,19.44 Z" id="探"></path>
                    <path d="M15.96,51.2 L7.36,51.2 C6.82666667,51.2 6.34666667,51.3466667 5.92,51.64 L4.88,49.76 C5.52,49.84 6.18666667,49.88 6.88,49.88 L15.96,49.88 L15.96,48.32 C15.96,46.9866667 15.9333333,45.8 15.88,44.76 C20.0933333,45.0533333 22.2,45.52 22.2,46.16 C22.2,46.4533333 21.8266667,46.7333333 21.08,47 L21.08,49.88 L26.08,49.88 C27.2,47.6133333 27.9733333,46.48 28.4,46.48 C28.6933333,46.48 29.5866667,47.0666667 31.08,48.24 C32.5733333,49.4133333 33.32,50.2 33.32,50.6 C33.32,51 33.0133333,51.2 32.4,51.2 L21.08,51.2 L21.08,54.92 L29.4,54.92 C29.8266667,54.2 30.2133333,53.6133333 30.56,53.16 C30.9066667,52.7066667 31.2,52.48 31.44,52.48 C31.68,52.48 32.1333333,52.6866667 32.8,53.1 C33.4666667,53.5133333 34.26,54.0866667 35.18,54.82 C36.1,55.5533333 36.7266667,56.1133333 37.06,56.5 C37.3933333,56.8866667 37.56,57.22 37.56,57.5 C37.56,57.78 37.4266667,58.0066667 37.16,58.18 C36.8933333,58.3533333 36.5266667,58.42 36.06,58.38 C35.5933333,58.34 35.16,58.32 34.76,58.32 C33.5333333,58.32 32.5133333,58.5333333 31.7,58.96 C30.8866667,59.3866667 30.12,60.04 29.4,60.92 C29.6133333,61.16 29.72,61.38 29.72,61.58 C29.72,61.78 29.5866667,61.88 29.32,61.88 C29.24,61.88 29.1266667,61.86 28.98,61.82 C28.8333333,61.78 28.6133333,61.76 28.32,61.76 C27.52,61.76 26.6,61.9466667 25.56,62.32 L22.28,63.52 C25.3733333,63.9733333 27.8333333,64.7733333 29.66,65.92 C31.4866667,67.0666667 32.4,68.2133333 32.4,69.36 C32.4,70.0533333 32.12,70.6666667 31.56,71.2 C31,71.7333333 30.3733333,72 29.68,72 C29.28,72 28.8866667,71.8266667 28.5,71.48 C28.1133333,71.1333333 27.86,70.72 27.74,70.24 C27.62,69.76 27.4266667,69.28 27.16,68.8 L22.44,69.36 C22.4133333,69.6 22.1466667,69.88 21.64,70.2 L21.64,78.16 C21.64,80 21.08,81.1933333 19.96,81.74 C18.84,82.2866667 17.5066667,82.56 15.96,82.56 C15.4266667,82.56 15.1333333,82.36 15.08,81.96 C14.9466667,80.9733333 14.6333333,80.2333333 14.14,79.74 C13.6466667,79.2466667 13.0466667,78.9 12.34,78.7 C11.6333333,78.5 11.28,78.3733333 11.28,78.32 C11.28,78.2666667 11.7933333,78.24 12.82,78.24 C13.8466667,78.24 14.66,78.1866667 15.26,78.08 C15.86,77.9733333 16.2533333,77.7933333 16.44,77.54 C16.6266667,77.2866667 16.72,76.8933333 16.72,76.36 L16.72,70.12 C11.1733333,70.8666667 7.92,71.44 6.96,71.84 C6.8,71.8933333 6.66,71.92 6.54,71.92 C6.42,71.92 6.32666667,71.8466667 6.26,71.7 C6.19333333,71.5533333 5.96,70.8866667 5.56,69.7 C5.16,68.5133333 4.96,67.7666667 4.96,67.46 C4.96,67.1533333 5.12,67.0133333 5.44,67.04 C6.02666667,67.12 6.64666667,67.16 7.3,67.16 C7.95333333,67.16 8.60666667,67.0733333 9.26,66.9 C9.91333333,66.7266667 10.9333333,66.2866667 12.32,65.58 C13.7066667,64.8733333 15.44,63.8933333 17.52,62.64 C13.6,63.52 10.96,64.24 9.6,64.8 C9.46666667,64.8533333 9.34,64.88 9.22,64.88 C9.1,64.88 8.98666667,64.7866667 8.88,64.6 C8.77333333,64.4133333 8.54666667,63.7333333 8.2,62.56 C7.85333333,61.3866667 7.68,60.7066667 7.68,60.52 C7.68,60.3333333 7.91333333,60.24 8.38,60.24 C8.84666667,60.24 9.46,60.12 10.22,59.88 C10.98,59.64 11.92,59.0666667 13.04,58.16 C14.16,57.2533333 14.88,56.6133333 15.2,56.24 L6.72,56.24 C6.77333333,56.5866667 6.8,56.92 6.8,57.24 C6.8,58.3866667 6.44666667,59.3466667 5.74,60.12 C5.03333333,60.8933333 4.20666667,61.28 3.26,61.28 C2.31333333,61.28 1.6,61.0466667 1.12,60.58 C0.64,60.1133333 0.4,59.5666667 0.4,58.94 C0.4,58.3133333 0.76,57.7466667 1.48,57.24 C2.6,56.4666667 3.35333333,55.82 3.74,55.3 C4.12666667,54.78 4.32,54.2 4.32,53.56 L4.16,52.32 C4.16,52.0266667 4.26,51.88 4.46,51.88 C4.66,51.88 4.97333333,52.2333333 5.4,52.94 C5.82666667,53.6466667 6.14666667,54.3066667 6.36,54.92 L15.96,54.92 L15.96,51.2 Z M28.88,60.4 C29.2,59.2266667 29.52,57.84 29.84,56.24 L20.8,56.24 C21.44,56.7466667 21.76,57.0933333 21.76,57.28 C21.76,57.4666667 21.6,57.5466667 21.28,57.52 L20.92,57.52 C20.52,57.52 20.0266667,57.6266667 19.44,57.84 L15.72,59.28 C13.8533333,60 12.6266667,60.5066667 12.04,60.8 L12.08,61.04 L20.4,60.8 C22.5333333,59.36 24.1333333,58.16 25.2,57.2 C26.5333333,58.16 27.76,59.2266667 28.88,60.4 Z M21.6,63.76 C19.0666667,64.6666667 15.9466667,65.88 12.24,67.4 L12.28,67.64 L26.28,67.52 C25.32,66.2666667 23.76,65.0133333 21.6,63.76 Z M9.4,71.36 C10.6533333,72.0266667 11.7066667,72.6466667 12.56,73.22 C13.4133333,73.7933333 13.9266667,74.16 14.1,74.32 C14.2733333,74.48 14.36,74.6466667 14.36,74.82 C14.36,74.9933333 14.12,75.0933333 13.64,75.12 C13.16,75.1466667 12.72,75.2333333 12.32,75.38 C11.92,75.5266667 11.4666667,75.7733333 10.96,76.12 C8.10666667,78.04 5.68666667,79.44 3.7,80.32 C1.71333333,81.2 0.56,81.64 0.24,81.64 L0.2,81.64 C0.2,81.56 0.306666667,81.44 0.52,81.28 C2.62666667,79.7866667 4.36,78.26 5.72,76.7 C7.08,75.14 8.30666667,73.36 9.4,71.36 Z M23.84,72.56 C24.3733333,72.56 25.48,72.7466667 27.16,73.12 C28.84,73.4933333 30.1333333,73.8733333 31.04,74.26 C31.9466667,74.6466667 32.6666667,75.0733333 33.2,75.54 C33.7333333,76.0066667 34.1266667,76.5 34.38,77.02 C34.6333333,77.54 34.76,78.0133333 34.76,78.44 C34.76,79.2133333 34.48,79.9066667 33.92,80.52 C33.36,81.1333333 32.6666667,81.44 31.84,81.44 C31.44,81.44 31.0266667,81.28 30.6,80.96 C30.1733333,80.64 29.8933333,80.2133333 29.76,79.68 C29.28,77.9466667 28.62,76.6 27.78,75.64 C26.94,74.68 25.6133333,73.76 23.8,72.88 C23.64,72.8 23.56,72.7266667 23.56,72.66 C23.56,72.5933333 23.6533333,72.56 23.84,72.56 Z" id="索"></path>
                    <path d="M5.48,90 C6.25333333,90 7.24666667,90.1466667 8.46,90.44 C9.67333333,90.7333333 10.5666667,91.1733333 11.14,91.76 C11.7133333,92.3466667 12,93.0066667 12,93.74 C12,94.4733333 11.7,95.1066667 11.1,95.64 C10.5,96.1733333 9.85333333,96.44 9.16,96.44 C8.46666667,96.44 7.98,96.2933333 7.7,96 C7.42,95.7066667 7.28,95.1133333 7.28,94.22 C7.28,93.3266667 7.16,92.5933333 6.92,92.02 C6.68,91.4466667 6.33333333,90.9933333 5.88,90.66 C5.42666667,90.3266667 5.2,90.1333333 5.2,90.08 C5.2,90.0266667 5.29333333,90 5.48,90 Z M31,100.68 L31,95.24 L18.12,95.24 C17.5866667,95.24 17.1066667,95.3866667 16.68,95.68 L15.64,93.8 C16.28,93.88 16.9466667,93.92 17.64,93.92 L30.08,93.92 C30.2666667,93.5466667 30.5466667,93.06 30.92,92.46 C31.2933333,91.86 31.52,91.5266667 31.6,91.46 C31.68,91.3933333 31.7733333,91.36 31.88,91.36 C32.2533333,91.36 33.2333333,91.9 34.82,92.98 C36.4066667,94.06 37.2,94.7733333 37.2,95.12 C37.2,95.4666667 36.68,95.7733333 35.64,96.04 L35.64,122.4 C35.64,123.68 35.46,124.64 35.1,125.28 C34.74,125.92 34.0533333,126.393333 33.04,126.7 C32.0266667,127.006667 30.9733333,127.16 29.88,127.16 C29.4266667,127.16 29.1,127.086667 28.9,126.94 C28.7,126.793333 28.5866667,126.506667 28.56,126.08 C28.48,125.12 28.1333333,124.413333 27.52,123.96 C26.9066667,123.506667 26.2066667,123.193333 25.42,123.02 C24.6333333,122.846667 24.24,122.72 24.24,122.64 C24.24,122.56 24.4,122.52 24.72,122.52 L27.88,122.64 C29,122.64 29.8,122.52 30.28,122.28 C30.76,122.04 31,121.48 31,120.6 L31,101.72 L18.04,101.72 C17.5066667,101.72 17.0266667,101.866667 16.6,102.16 L16.08,101.2 C15.0133333,101.093333 14.1866667,101.373333 13.6,102.04 L10.68,105.48 C12.0933333,105.906667 13.3533333,106.533333 14.46,107.36 C15.5666667,108.186667 16.12,109.373333 16.12,110.92 C16.12,111.506667 15.8666667,112.053333 15.36,112.56 C14.8533333,113.066667 14.2866667,113.32 13.66,113.32 C13.0333333,113.32 12.56,113.126667 12.24,112.74 C11.92,112.353333 11.8,111.826667 11.88,111.16 C11.96,110.493333 12,109.933333 12,109.48 C12,107.986667 11.5066667,106.84 10.52,106.04 L10.52,124.96 C10.52,125.44 10.14,125.833333 9.38,126.14 C8.62,126.446667 7.86,126.6 7.1,126.6 C6.34,126.6 5.96,126.373333 5.96,125.92 L6.04,124.28 C6.06666667,123.16 6.08,121.933333 6.08,120.6 L6.08,110.04 C4.82666667,111.106667 3.58,112.04 2.34,112.84 C1.1,113.64 0.426666667,114.04 0.32,114.04 C0.213333333,114.04 0.16,114.013333 0.16,113.96 C0.16,113.853333 0.333333333,113.653333 0.68,113.36 C2.68,111.6 4.48,109.48 6.08,107 C6.08,105.533333 6.05333333,104.28 6,103.24 C6.8,103.426667 7.45333333,103.6 7.96,103.76 C8.6,102.426667 9.12,101.133333 9.52,99.88 L2.68,99.88 C2.14666667,99.88 1.69333333,99.9733333 1.32,100.16 L0.6,98.36 C1.18666667,98.4933333 1.74666667,98.56 2.28,98.56 L9.52,98.56 C10.08,97.7066667 10.42,97.2 10.54,97.04 C10.66,96.88 10.8133333,96.8 11,96.8 C11.3733333,96.8 12.16,97.24 13.36,98.12 C14.56,99 15.44,99.76 16,100.4 L24.68,100.4 C25.9066667,98.3733333 26.6933333,97.36 27.04,97.36 C27.1466667,97.36 27.2933333,97.42 27.48,97.54 C27.6666667,97.66 28.18,98.0933333 29.02,98.84 C29.86,99.5866667 30.52,100.2 31,100.68 Z M20.88,106.08 L23.84,106.08 C24.0266667,105.653333 24.28,105.193333 24.6,104.7 C24.92,104.206667 25.16,103.96 25.32,103.96 C25.5333333,103.96 26.3,104.393333 27.62,105.26 C28.94,106.126667 29.6,106.713333 29.6,107.02 C29.6,107.326667 29.2,107.626667 28.4,107.92 L28.4,114.92 L28.44,116.76 C28.44,117.186667 28.0866667,117.553333 27.38,117.86 C26.6733333,118.166667 25.92,118.32 25.12,118.32 C24.72,118.32 24.4666667,118.24 24.36,118.08 C24.2533333,117.92 24.2,117.64 24.2,117.24 L24.2,116 L20.88,116 L20.88,117.44 C20.88,117.733333 20.7933333,117.966667 20.62,118.14 C20.4466667,118.313333 20.06,118.513333 19.46,118.74 C18.86,118.966667 18.1866667,119.08 17.44,119.08 C17.2533333,119.08 17.0933333,119.006667 16.96,118.86 C16.8266667,118.713333 16.7733333,118.56 16.8,118.4 C16.8533333,117.786667 16.88,116.8 16.88,115.44 L16.88,107.96 C16.88,106.84 16.84,105.706667 16.76,104.56 C18.0666667,104.96 19.44,105.466667 20.88,106.08 Z M24.2,114.68 L24.2,107.4 L21.76,107.4 C21.68,107.72 21.3866667,107.92 20.88,108 L20.88,114.68 L24.2,114.68 Z" id="祠"></path>
                    <path d="M15.8,145.52 L15.8,138.76 C15.8,137.533333 15.7733333,136.266667 15.72,134.96 C18.4666667,135.2 20.22,135.393333 20.98,135.54 C21.74,135.686667 22.12,135.906667 22.12,136.2 C22.12,136.493333 21.7466667,136.88 21,137.36 L21,145.52 L23.64,145.52 C24.6533333,142.613333 25.4,139.573333 25.88,136.4 C27.0266667,136.8 28.1666667,137.266667 29.3,137.8 C30.4333333,138.333333 31.2,138.713333 31.6,138.94 C32,139.166667 32.2,139.373333 32.2,139.56 C32.2,139.746667 31.9266667,139.906667 31.38,140.04 C30.8333333,140.173333 30.2066667,140.52 29.5,141.08 C28.7933333,141.64 27.1466667,143.12 24.56,145.52 L29.8,145.52 C30.5733333,144.24 31.04,143.48 31.2,143.24 C31.36,143 31.5466667,142.88 31.76,142.88 C31.9733333,142.88 32.44,143.093333 33.16,143.52 C33.88,143.946667 34.6866667,144.486667 35.58,145.14 C36.4733333,145.793333 37.0066667,146.233333 37.18,146.46 C37.3533333,146.686667 37.44,146.926667 37.44,147.18 C37.44,147.433333 37.3333333,147.646667 37.12,147.82 C36.9066667,147.993333 36.58,148.066667 36.14,148.04 C35.7,148.013333 35.44,148 35.36,148 C33.0666667,148 31.1733333,148.786667 29.68,150.36 C30.2666667,150.68 30.56,150.993333 30.56,151.3 C30.56,151.606667 30.0666667,151.906667 29.08,152.2 L29.08,156.56 C29.08,157.013333 29.0933333,157.413333 29.12,157.76 L29.2,158.64 C29.2,158.8 29.1533333,158.92 29.06,159 C28.9666667,159.08 28.6333333,159.226667 28.06,159.44 C27.4866667,159.653333 26.86,159.793333 26.18,159.86 C25.5,159.926667 25.04,159.96 24.8,159.96 C24.56,159.96 24.4066667,159.92 24.34,159.84 C24.2733333,159.76 24.24,159.6 24.24,159.36 L24.24,158.4 L21.72,158.4 C21.6933333,158.56 21.4666667,158.786667 21.04,159.08 L21.04,163.24 L26.56,163.24 C27.76,161.16 28.5133333,160.12 28.82,160.12 C29.1266667,160.12 29.9666667,160.693333 31.34,161.84 C32.7133333,162.986667 33.4,163.726667 33.4,164.06 C33.4,164.393333 33.1733333,164.56 32.72,164.56 L21.04,164.56 L21.04,170.2 L29.56,170.2 C30.0133333,169.48 30.4866667,168.733333 30.98,167.96 C31.4733333,167.186667 31.78,166.733333 31.9,166.6 C32.02,166.466667 32.1466667,166.4 32.28,166.4 C32.6,166.4 33.5733333,167.086667 35.2,168.46 C36.8266667,169.833333 37.64,170.686667 37.64,171.02 C37.64,171.353333 37.3733333,171.52 36.84,171.52 L2.52,171.52 C1.98666667,171.52 1.50666667,171.666667 1.08,171.96 L0.04,170.08 C0.68,170.16 1.34666667,170.2 2.04,170.2 L15.72,170.2 L15.72,164.56 L6.8,164.56 C6.26666667,164.56 5.78666667,164.706667 5.36,165 L4.32,163.12 C4.96,163.2 5.62666667,163.24 6.32,163.24 L15.72,163.24 L15.72,158.4 L12.56,158.4 L12.56,159.2 C12.56,159.36 12.5266667,159.48 12.46,159.56 C12.3933333,159.64 12.12,159.76 11.64,159.92 C11.16,160.08 10.54,160.22 9.78,160.34 C9.02,160.46 8.38666667,160.52 7.88,160.52 C7.69333333,160.52 7.61333333,160.386667 7.64,160.12 C7.69333333,159.506667 7.72,158.52 7.72,157.16 L7.72,151.96 C7.72,150.84 7.68,149.706667 7.6,148.56 C9.25333333,149.013333 10.8266667,149.56 12.32,150.2 L23.44,150.2 C24.1866667,149 24.6333333,148.326667 24.78,148.18 C24.9266667,148.033333 25.0933333,147.96 25.28,147.96 C25.68,147.96 26.9333333,148.613333 29.04,149.92 C29.3333333,149.226667 29.6666667,148.2 30.04,146.84 L6.44,146.84 C6.52,148.146667 6.20666667,149.266667 5.5,150.2 C4.79333333,151.133333 3.92,151.6 2.88,151.6 C2.18666667,151.6 1.63333333,151.4 1.22,151 C0.806666667,150.6 0.6,150.046667 0.6,149.34 C0.6,148.633333 1,147.933333 1.8,147.24 C2.6,146.546667 3.17333333,145.946667 3.52,145.44 C3.86666667,144.933333 4.04,144.293333 4.04,143.52 L4,142.52 C4,142.253333 4.06666667,142.12 4.2,142.12 C4.33333333,142.12 4.64,142.48 5.12,143.2 C5.6,143.92 5.96,144.693333 6.2,145.52 L15.8,145.52 Z M24.24,157.08 L24.24,151.52 L13.44,151.52 C13.2533333,151.84 12.96,152.08 12.56,152.24 L12.56,157.08 L24.24,157.08 Z M6.4,137.48 C8.64,137.48 10.38,137.886667 11.62,138.7 C12.86,139.513333 13.48,140.466667 13.48,141.56 C13.48,142.44 13.1666667,143.18 12.54,143.78 C11.9133333,144.38 11.2666667,144.68 10.6,144.68 C9.93333333,144.68 9.40666667,144.5 9.02,144.14 C8.63333333,143.78 8.41333333,143.28 8.36,142.64 C8.28,141.413333 8.07333333,140.453333 7.74,139.76 C7.40666667,139.066667 6.86666667,138.493333 6.12,138.04 C5.8,137.826667 5.64,137.68 5.64,137.6 C5.64,137.52 5.89333333,137.48 6.4,137.48 Z" id="堂"></path>
                </g>
            </g>
        </g>
    </g>
</svg>