<?xml version="1.0" encoding="UTF-8"?>
<svg width="40px" height="172px" viewBox="0 0 40 172" version="1.1" xmlns="http://www.w3.org/2000/svg" xmlns:xlink="http://www.w3.org/1999/xlink">
    <title>画说祠堂</title>
    <g id="页面-1" stroke="none" stroke-width="1" fill="none" fill-rule="evenodd">
        <g id="华夏祠堂首页备份" transform="translate(-1654.000000, -705.000000)" fill="#FFFFFF" fill-rule="nonzero">
            <g id="编组-3备份-2" transform="translate(1355.000000, 700.000000)">
                <g id="画说祠堂" transform="translate(299.880000, 5.120000)">
                    <path d="M30.36,3.28 C30.8666667,2.42666667 31.32,1.70666667 31.72,1.12 C32.12,0.533333333 32.3666667,0.2 32.46,0.12 C32.5533333,0.04 32.6666667,0 32.8,0 C33.12,0 33.74,0.333333333 34.66,1 C35.58,1.66666667 36.3533333,2.23333333 36.98,2.7 C37.6066667,3.16666667 37.92,3.57333333 37.92,3.92 C37.92,4.37333333 37.52,4.6 36.72,4.6 L3.04,4.6 C2.50666667,4.6 2.02666667,4.74666667 1.6,5.04 L0.56,3.16 C1.2,3.24 1.86666667,3.28 2.56,3.28 L30.36,3.28 Z M14.16,7.92 L23,7.92 C23.4266667,7.09333333 23.7466667,6.56666667 23.96,6.34 C24.1733333,6.11333333 24.4,6 24.64,6 C24.88,6 25.3733333,6.23333333 26.12,6.7 C26.8666667,7.16666667 27.5466667,7.6 28.16,8 C28.7733333,8.4 29.08,8.76666667 29.08,9.1 C29.08,9.43333333 28.72,9.74666667 28,10.04 L28,23.48 L28.08,27.52 C28.08,27.92 27.9666667,28.2 27.74,28.36 C27.5133333,28.52 27.1466667,28.6933333 26.64,28.88 C26.1333333,29.0666667 25.5333333,29.16 24.84,29.16 C24.1466667,29.16 23.7333333,29.0933333 23.6,28.96 C23.4666667,28.8266667 23.4,28.5866667 23.4,28.24 L23.4,26.76 L13.76,26.76 L13.76,28.4 C13.76,28.72 13.68,28.92 13.52,29 L12.56,29.44 C12.1066667,29.6266667 11.5466667,29.72 10.88,29.72 C10.2133333,29.72 9.82,29.7 9.7,29.66 C9.58,29.62 9.52,29.52 9.52,29.36 L9.56,27 C9.58666667,26.2533333 9.6,25.2533333 9.6,24 L9.6,10.24 C9.6,8.61333333 9.57333333,7.21333333 9.52,6.04 C11.5733333,6.73333333 13.12,7.36 14.16,7.92 Z M13.76,16.36 L16.44,16.36 L16.44,9.24 L14.32,9.24 C14.2666667,9.48 14.08,9.68 13.76,9.84 L13.76,16.36 Z M20.56,16.36 L23.4,16.36 L23.4,9.24 L21.16,9.24 C21.0533333,9.69333333 20.8533333,10 20.56,10.16 L20.56,16.36 Z M16.44,17.68 L13.76,17.68 L13.76,25.44 L16.44,25.44 L16.44,17.68 Z M23.4,17.68 L20.56,17.68 L20.56,25.44 L23.4,25.44 L23.4,17.68 Z M29.96,33.6 L7.88,33.6 L7.12,34.64 C6.96,34.88 6.75333333,35 6.5,35 C6.24666667,35 5.53333333,34.72 4.36,34.16 C3.18666667,33.6 2.5,33.2533333 2.3,33.12 C2.1,32.9866667 2,32.8266667 2,32.64 C2,32.4533333 2.13333333,32.24 2.4,32 C2.66666667,31.76 2.85333333,31.5133333 2.96,31.26 C3.06666667,31.0066667 3.12,30.5866667 3.12,30 L3.12,14.12 C3.12,12.7866667 3.09333333,11.6 3.04,10.56 C4.24,10.6666667 5.32,10.8466667 6.28,11.1 C7.24,11.3533333 7.83333333,11.56 8.06,11.72 C8.28666667,11.88 8.4,12.06 8.4,12.26 C8.4,12.46 8.13333333,12.72 7.6,13.04 L7.6,32.28 L29.96,32.28 L29.96,13.64 C29.96,12.3066667 29.9333333,11.12 29.88,10.08 C31.4,10.2666667 32.6266667,10.4866667 33.56,10.74 C34.4933333,10.9933333 35.1133333,11.2066667 35.42,11.38 C35.7266667,11.5533333 35.88,11.7666667 35.88,12.02 C35.88,12.2733333 35.5466667,12.56 34.88,12.88 L34.88,30.64 C34.88,31.7866667 34.8933333,32.5866667 34.92,33.04 L35,34.44 C35,35.1066667 34.5133333,35.5866667 33.54,35.88 C32.5666667,36.1733333 31.6666667,36.32 30.84,36.32 C30.52,36.32 30.2933333,36.2333333 30.16,36.06 C30.0266667,35.8866667 29.96,35.5733333 29.96,35.12 L29.96,33.6 Z" id="画"></path>
                    <path d="M24.64,53.36 C25.3866667,51.4133333 26.2,48.1066667 27.08,43.44 C28.4933333,43.8933333 29.7933333,44.3666667 30.98,44.86 C32.1666667,45.3533333 32.8533333,45.68 33.04,45.84 C33.2266667,46 33.32,46.16 33.32,46.32 C33.32,46.64 33.08,46.8 32.6,46.8 C32.3066667,46.8 31.7466667,47.1866667 30.92,47.96 C30.0933333,48.7333333 28.4133333,50.5333333 25.88,53.36 L28.72,53.36 C29.04,52.56 29.32,51.9733333 29.56,51.6 C29.8,51.2266667 30.04,51.04 30.28,51.04 C30.68,51.04 31.6733333,51.4866667 33.26,52.38 C34.8466667,53.2733333 35.64,53.9133333 35.64,54.3 C35.64,54.6866667 35.1333333,55 34.12,55.24 L34.12,61.52 C34.12,61.9733333 34.1333333,62.3733333 34.16,62.72 L34.24,63.6 C34.24,63.76 34.1866667,63.88 34.08,63.96 C33.9733333,64.04 33.6933333,64.1666667 33.24,64.34 C32.7866667,64.5133333 32.32,64.64 31.84,64.72 C31.36,64.8 30.7733333,64.8666667 30.08,64.92 C29.9733333,65.16 29.6,65.4133333 28.96,65.68 L28.96,74.24 C28.96,74.88 29.0866667,75.3133333 29.34,75.54 C29.5933333,75.7666667 30.1066667,75.88 30.88,75.88 C31.6533333,75.88 32.2533333,75.7466667 32.68,75.48 C33.1066667,75.2133333 33.5,74.6266667 33.86,73.72 C34.22,72.8133333 34.6933333,71.2666667 35.28,69.08 C35.3333333,68.84 35.4266667,68.72 35.56,68.72 C35.6933333,68.72 35.76,68.8266667 35.76,69.04 L35.68,71.36 C35.68,72.6133333 35.8066667,73.52 36.06,74.08 C36.3133333,74.64 36.74,75.1466667 37.34,75.6 C37.94,76.0533333 38.24,76.5066667 38.24,76.96 C38.24,77.6266667 37.7,78.34 36.62,79.1 C35.54,79.86 33.8666667,80.24 31.6,80.24 C29.3333333,80.24 27.7666667,80.0866667 26.9,79.78 C26.0333333,79.4733333 25.4,78.9666667 25,78.26 C24.6,77.5533333 24.4,76.6133333 24.4,75.44 L24.4,68.2 C24.4,66.3866667 24.36,64.8933333 24.28,63.72 C26.6,63.8266667 28.2533333,64.0133333 29.24,64.28 L29.24,63.12 L18.56,63.12 L18.56,63.6 C19.12,63.6266667 19.9933333,63.7133333 21.18,63.86 C22.3666667,64.0066667 23.0466667,64.12 23.22,64.2 C23.3933333,64.28 23.48,64.3933333 23.48,64.54 C23.48,64.6866667 23.34,64.8466667 23.06,65.02 C22.78,65.1933333 22.5933333,65.3866667 22.5,65.6 C22.4066667,65.8133333 22.32,66.2666667 22.24,66.96 C21.8933333,69.6533333 21.4866667,71.74 21.02,73.22 C20.5533333,74.7 19.96,75.8733333 19.24,76.74 C18.52,77.6066667 17.5533333,78.3733333 16.34,79.04 C15.1266667,79.7066667 13.4866667,80.34 11.42,80.94 C9.35333333,81.54 7.97333333,81.84 7.28,81.84 C7.06666667,81.84 6.96,81.78 6.96,81.66 C6.96,81.54 7.16,81.4266667 7.56,81.32 C9.05333333,80.84 10.42,80.2266667 11.66,79.48 C12.9,78.7333333 13.9466667,77.9 14.8,76.98 C15.6533333,76.06 16.24,75.1533333 16.56,74.26 C16.88,73.3666667 17.1866667,71.9666667 17.48,70.06 C17.7733333,68.1533333 17.88,66.2666667 17.8,64.4 C16.9466667,64.6933333 16.16,64.84 15.44,64.84 C14.72,64.84 14.3066667,64.8 14.2,64.72 C14.0933333,64.64 14.04,64.4933333 14.04,64.28 L14.12,61.44 L14.12,55.04 C14.12,53.92 14.08,52.7866667 14,51.64 C15.7866667,52.1733333 17.36,52.7466667 18.72,53.36 L24.64,53.36 Z M29.24,61.8 L29.24,54.68 L19.36,54.68 C19.1733333,54.92 18.9066667,55.0933333 18.56,55.2 L18.56,61.8 L29.24,61.8 Z M15.2,44.4 C16.56,44.4 17.9066667,44.5866667 19.24,44.96 C20.5733333,45.3333333 21.5466667,45.9066667 22.16,46.68 C22.7733333,47.4533333 23.08,48.2533333 23.08,49.08 C23.08,49.9066667 22.7266667,50.6266667 22.02,51.24 C21.3133333,51.8533333 20.4933333,52.16 19.56,52.16 C19.08,52.16 18.6866667,51.96 18.38,51.56 C18.0733333,51.16 17.9066667,50.6133333 17.88,49.92 C17.8533333,48.48 17.6466667,47.42 17.26,46.74 C16.8733333,46.06 16.16,45.48 15.12,45 C14.72,44.8133333 14.52,44.6666667 14.52,44.56 C14.52,44.4533333 14.7466667,44.4 15.2,44.4 Z M3.76,45.16 C4.64,45.16 5.84,45.34 7.36,45.7 C8.88,46.06 9.99333333,46.6 10.7,47.32 C11.4066667,48.04 11.76,48.88 11.76,49.84 C11.76,50.8 11.4666667,51.58 10.88,52.18 C10.2933333,52.78 9.64,53.08 8.92,53.08 C8.2,53.08 7.62666667,52.8666667 7.2,52.44 C6.77333333,52.0133333 6.54666667,51.4533333 6.52,50.76 C6.46666667,49.4533333 6.27333333,48.4533333 5.94,47.76 C5.60666667,47.0666667 5.10666667,46.5 4.44,46.06 C3.77333333,45.62 3.44,45.36 3.44,45.28 C3.44,45.2 3.54666667,45.16 3.76,45.16 Z M9.96,71.48 C13.2933333,69.5866667 15.2,68.4733333 15.68,68.14 C16.16,67.8066667 16.4733333,67.64 16.62,67.64 C16.7666667,67.64 16.84,67.6933333 16.84,67.8 C16.84,67.9066667 16.72,68.0933333 16.48,68.36 C14,71.16 11.1466667,74.7333333 7.92,79.08 C7.65333333,79.4533333 7.43333333,79.64 7.26,79.64 C7.08666667,79.64 6.94666667,79.5466667 6.84,79.36 L5.12,76.96 C4.10666667,75.4933333 3.52666667,74.6866667 3.38,74.54 C3.23333333,74.3933333 3.16,74.2333333 3.16,74.06 C3.16,73.8866667 3.26666667,73.7466667 3.48,73.64 C4.76,73.0266667 5.4,72.44 5.4,71.88 L5.4,59.04 L2.48,59.04 C1.94666667,59.04 1.46666667,59.1866667 1.04,59.48 L0,57.6 C0.64,57.68 1.30666667,57.72 2,57.72 L4.96,57.72 C5.73333333,56.2 6.28666667,55.44 6.62,55.44 C6.95333333,55.44 7.85333333,55.8933333 9.32,56.8 C10.7866667,57.7066667 11.52,58.3466667 11.52,58.72 C11.52,59.0933333 11,59.4133333 9.96,59.68 L9.96,71.48 Z" id="说"></path>
                    <path d="M5.92,89.08 C6.69333333,89.08 7.68666667,89.2266667 8.9,89.52 C10.1133333,89.8133333 11.0066667,90.2533333 11.58,90.84 C12.1533333,91.4266667 12.44,92.0866667 12.44,92.82 C12.44,93.5533333 12.14,94.1866667 11.54,94.72 C10.94,95.2533333 10.2933333,95.52 9.6,95.52 C8.90666667,95.52 8.42,95.3733333 8.14,95.08 C7.86,94.7866667 7.72,94.1933333 7.72,93.3 C7.72,92.4066667 7.6,91.6733333 7.36,91.1 C7.12,90.5266667 6.77333333,90.0733333 6.32,89.74 C5.86666667,89.4066667 5.64,89.2133333 5.64,89.16 C5.64,89.1066667 5.73333333,89.08 5.92,89.08 Z M31.44,99.76 L31.44,94.32 L18.56,94.32 C18.0266667,94.32 17.5466667,94.4666667 17.12,94.76 L16.08,92.88 C16.72,92.96 17.3866667,93 18.08,93 L30.52,93 C30.7066667,92.6266667 30.9866667,92.14 31.36,91.54 C31.7333333,90.94 31.96,90.6066667 32.04,90.54 C32.12,90.4733333 32.2133333,90.44 32.32,90.44 C32.6933333,90.44 33.6733333,90.98 35.26,92.06 C36.8466667,93.14 37.64,93.8533333 37.64,94.2 C37.64,94.5466667 37.12,94.8533333 36.08,95.12 L36.08,121.48 C36.08,122.76 35.9,123.72 35.54,124.36 C35.18,125 34.4933333,125.473333 33.48,125.78 C32.4666667,126.086667 31.4133333,126.24 30.32,126.24 C29.8666667,126.24 29.54,126.166667 29.34,126.02 C29.14,125.873333 29.0266667,125.586667 29,125.16 C28.92,124.2 28.5733333,123.493333 27.96,123.04 C27.3466667,122.586667 26.6466667,122.273333 25.86,122.1 C25.0733333,121.926667 24.68,121.8 24.68,121.72 C24.68,121.64 24.84,121.6 25.16,121.6 L28.32,121.72 C29.44,121.72 30.24,121.6 30.72,121.36 C31.2,121.12 31.44,120.56 31.44,119.68 L31.44,100.8 L18.48,100.8 C17.9466667,100.8 17.4666667,100.946667 17.04,101.24 L16.52,100.28 C15.4533333,100.173333 14.6266667,100.453333 14.04,101.12 L11.12,104.56 C12.5333333,104.986667 13.7933333,105.613333 14.9,106.44 C16.0066667,107.266667 16.56,108.453333 16.56,110 C16.56,110.586667 16.3066667,111.133333 15.8,111.64 C15.2933333,112.146667 14.7266667,112.4 14.1,112.4 C13.4733333,112.4 13,112.206667 12.68,111.82 C12.36,111.433333 12.24,110.906667 12.32,110.24 C12.4,109.573333 12.44,109.013333 12.44,108.56 C12.44,107.066667 11.9466667,105.92 10.96,105.12 L10.96,124.04 C10.96,124.52 10.58,124.913333 9.82,125.22 C9.06,125.526667 8.3,125.68 7.54,125.68 C6.78,125.68 6.4,125.453333 6.4,125 L6.48,123.36 C6.50666667,122.24 6.52,121.013333 6.52,119.68 L6.52,109.12 C5.26666667,110.186667 4.02,111.12 2.78,111.92 C1.54,112.72 0.866666667,113.12 0.76,113.12 C0.653333333,113.12 0.6,113.093333 0.6,113.04 C0.6,112.933333 0.773333333,112.733333 1.12,112.44 C3.12,110.68 4.92,108.56 6.52,106.08 C6.52,104.613333 6.49333333,103.36 6.44,102.32 C7.24,102.506667 7.89333333,102.68 8.4,102.84 C9.04,101.506667 9.56,100.213333 9.96,98.96 L3.12,98.96 C2.58666667,98.96 2.13333333,99.0533333 1.76,99.24 L1.04,97.44 C1.62666667,97.5733333 2.18666667,97.64 2.72,97.64 L9.96,97.64 C10.52,96.7866667 10.86,96.28 10.98,96.12 C11.1,95.96 11.2533333,95.88 11.44,95.88 C11.8133333,95.88 12.6,96.32 13.8,97.2 C15,98.08 15.88,98.84 16.44,99.48 L25.12,99.48 C26.3466667,97.4533333 27.1333333,96.44 27.48,96.44 C27.5866667,96.44 27.7333333,96.5 27.92,96.62 C28.1066667,96.74 28.62,97.1733333 29.46,97.92 C30.3,98.6666667 30.96,99.28 31.44,99.76 Z M21.32,105.16 L24.28,105.16 C24.4666667,104.733333 24.72,104.273333 25.04,103.78 C25.36,103.286667 25.6,103.04 25.76,103.04 C25.9733333,103.04 26.74,103.473333 28.06,104.34 C29.38,105.206667 30.04,105.793333 30.04,106.1 C30.04,106.406667 29.64,106.706667 28.84,107 L28.84,114 L28.88,115.84 C28.88,116.266667 28.5266667,116.633333 27.82,116.94 C27.1133333,117.246667 26.36,117.4 25.56,117.4 C25.16,117.4 24.9066667,117.32 24.8,117.16 C24.6933333,117 24.64,116.72 24.64,116.32 L24.64,115.08 L21.32,115.08 L21.32,116.52 C21.32,116.813333 21.2333333,117.046667 21.06,117.22 C20.8866667,117.393333 20.5,117.593333 19.9,117.82 C19.3,118.046667 18.6266667,118.16 17.88,118.16 C17.6933333,118.16 17.5333333,118.086667 17.4,117.94 C17.2666667,117.793333 17.2133333,117.64 17.24,117.48 C17.2933333,116.866667 17.32,115.88 17.32,114.52 L17.32,107.04 C17.32,105.92 17.28,104.786667 17.2,103.64 C18.5066667,104.04 19.88,104.546667 21.32,105.16 Z M24.64,113.76 L24.64,106.48 L22.2,106.48 C22.12,106.8 21.8266667,107 21.32,107.08 L21.32,113.76 L24.64,113.76 Z" id="祠"></path>
                    <path d="M16.24,144.6 L16.24,137.84 C16.24,136.613333 16.2133333,135.346667 16.16,134.04 C18.9066667,134.28 20.66,134.473333 21.42,134.62 C22.18,134.766667 22.56,134.986667 22.56,135.28 C22.56,135.573333 22.1866667,135.96 21.44,136.44 L21.44,144.6 L24.08,144.6 C25.0933333,141.693333 25.84,138.653333 26.32,135.48 C27.4666667,135.88 28.6066667,136.346667 29.74,136.88 C30.8733333,137.413333 31.64,137.793333 32.04,138.02 C32.44,138.246667 32.64,138.453333 32.64,138.64 C32.64,138.826667 32.3666667,138.986667 31.82,139.12 C31.2733333,139.253333 30.6466667,139.6 29.94,140.16 C29.2333333,140.72 27.5866667,142.2 25,144.6 L30.24,144.6 C31.0133333,143.32 31.48,142.56 31.64,142.32 C31.8,142.08 31.9866667,141.96 32.2,141.96 C32.4133333,141.96 32.88,142.173333 33.6,142.6 C34.32,143.026667 35.1266667,143.566667 36.02,144.22 C36.9133333,144.873333 37.4466667,145.313333 37.62,145.54 C37.7933333,145.766667 37.88,146.006667 37.88,146.26 C37.88,146.513333 37.7733333,146.726667 37.56,146.9 C37.3466667,147.073333 37.02,147.146667 36.58,147.12 C36.14,147.093333 35.88,147.08 35.8,147.08 C33.5066667,147.08 31.6133333,147.866667 30.12,149.44 C30.7066667,149.76 31,150.073333 31,150.38 C31,150.686667 30.5066667,150.986667 29.52,151.28 L29.52,155.64 C29.52,156.093333 29.5333333,156.493333 29.56,156.84 L29.64,157.72 C29.64,157.88 29.5933333,158 29.5,158.08 C29.4066667,158.16 29.0733333,158.306667 28.5,158.52 C27.9266667,158.733333 27.3,158.873333 26.62,158.94 C25.94,159.006667 25.48,159.04 25.24,159.04 C25,159.04 24.8466667,159 24.78,158.92 C24.7133333,158.84 24.68,158.68 24.68,158.44 L24.68,157.48 L22.16,157.48 C22.1333333,157.64 21.9066667,157.866667 21.48,158.16 L21.48,162.32 L27,162.32 C28.2,160.24 28.9533333,159.2 29.26,159.2 C29.5666667,159.2 30.4066667,159.773333 31.78,160.92 C33.1533333,162.066667 33.84,162.806667 33.84,163.14 C33.84,163.473333 33.6133333,163.64 33.16,163.64 L21.48,163.64 L21.48,169.28 L30,169.28 C30.4533333,168.56 30.9266667,167.813333 31.42,167.04 C31.9133333,166.266667 32.22,165.813333 32.34,165.68 C32.46,165.546667 32.5866667,165.48 32.72,165.48 C33.04,165.48 34.0133333,166.166667 35.64,167.54 C37.2666667,168.913333 38.08,169.766667 38.08,170.1 C38.08,170.433333 37.8133333,170.6 37.28,170.6 L2.96,170.6 C2.42666667,170.6 1.94666667,170.746667 1.52,171.04 L0.48,169.16 C1.12,169.24 1.78666667,169.28 2.48,169.28 L16.16,169.28 L16.16,163.64 L7.24,163.64 C6.70666667,163.64 6.22666667,163.786667 5.8,164.08 L4.76,162.2 C5.4,162.28 6.06666667,162.32 6.76,162.32 L16.16,162.32 L16.16,157.48 L13,157.48 L13,158.28 C13,158.44 12.9666667,158.56 12.9,158.64 C12.8333333,158.72 12.56,158.84 12.08,159 C11.6,159.16 10.98,159.3 10.22,159.42 C9.46,159.54 8.82666667,159.6 8.32,159.6 C8.13333333,159.6 8.05333333,159.466667 8.08,159.2 C8.13333333,158.586667 8.16,157.6 8.16,156.24 L8.16,151.04 C8.16,149.92 8.12,148.786667 8.04,147.64 C9.69333333,148.093333 11.2666667,148.64 12.76,149.28 L23.88,149.28 C24.6266667,148.08 25.0733333,147.406667 25.22,147.26 C25.3666667,147.113333 25.5333333,147.04 25.72,147.04 C26.12,147.04 27.3733333,147.693333 29.48,149 C29.7733333,148.306667 30.1066667,147.28 30.48,145.92 L6.88,145.92 C6.96,147.226667 6.64666667,148.346667 5.94,149.28 C5.23333333,150.213333 4.36,150.68 3.32,150.68 C2.62666667,150.68 2.07333333,150.48 1.66,150.08 C1.24666667,149.68 1.04,149.126667 1.04,148.42 C1.04,147.713333 1.44,147.013333 2.24,146.32 C3.04,145.626667 3.61333333,145.026667 3.96,144.52 C4.30666667,144.013333 4.48,143.373333 4.48,142.6 L4.44,141.6 C4.44,141.333333 4.50666667,141.2 4.64,141.2 C4.77333333,141.2 5.08,141.56 5.56,142.28 C6.04,143 6.4,143.773333 6.64,144.6 L16.24,144.6 Z M24.68,156.16 L24.68,150.6 L13.88,150.6 C13.6933333,150.92 13.4,151.16 13,151.32 L13,156.16 L24.68,156.16 Z M6.84,136.56 C9.08,136.56 10.82,136.966667 12.06,137.78 C13.3,138.593333 13.92,139.546667 13.92,140.64 C13.92,141.52 13.6066667,142.26 12.98,142.86 C12.3533333,143.46 11.7066667,143.76 11.04,143.76 C10.3733333,143.76 9.84666667,143.58 9.46,143.22 C9.07333333,142.86 8.85333333,142.36 8.8,141.72 C8.72,140.493333 8.51333333,139.533333 8.18,138.84 C7.84666667,138.146667 7.30666667,137.573333 6.56,137.12 C6.24,136.906667 6.08,136.76 6.08,136.68 C6.08,136.6 6.33333333,136.56 6.84,136.56 Z" id="堂"></path>
                </g>
            </g>
        </g>
    </g>
</svg>