<?xml version="1.0" encoding="UTF-8"?>
<svg width="39px" height="171px" viewBox="0 0 39 171" version="1.1" xmlns="http://www.w3.org/2000/svg" xmlns:xlink="http://www.w3.org/1999/xlink">
    <title>云游祠堂</title>
    <g id="页面-1" stroke="none" stroke-width="1" fill="none" fill-rule="evenodd">
        <g id="华夏祠堂首页备份" transform="translate(-1068.000000, -706.000000)" fill="#FFFFFF" fill-rule="nonzero">
            <g id="编组-3备份" transform="translate(799.953429, 700.000000)">
                <g id="云游祠堂" transform="translate(268.720000, 6.680000)">
                    <path d="M25.16,3.08 C25.4266667,2.65333333 25.8,2.08 26.28,1.36 C26.76,0.64 27.0533333,0.233333333 27.16,0.14 C27.2666667,0.0466666667 27.3866667,0 27.52,0 C27.92,0 28.8266667,0.58 30.24,1.74 C31.6533333,2.9 32.36,3.66666667 32.36,4.04 C32.36,4.28 32.0933333,4.4 31.56,4.4 L7.68,4.4 C7.14666667,4.4 6.66666667,4.54666667 6.24,4.84 L5.2,2.96 C5.84,3.04 6.50666667,3.08 7.2,3.08 L25.16,3.08 Z M26.84,28.48 C22.84,29.12 18.4866667,30.0066667 13.78,31.14 C9.07333333,32.2733333 6.5,32.9533333 6.06,33.18 C5.62,33.4066667 5.32666667,33.52 5.18,33.52 C5.03333333,33.52 4.91333333,33.4133333 4.82,33.2 C4.72666667,32.9866667 4.44666667,32.04 3.98,30.36 C3.51333333,28.68 3.28,27.7066667 3.28,27.44 C3.28,27.1733333 3.48,27.0266667 3.88,27 C4.76,26.9466667 5.62,26.5866667 6.46,25.92 C7.3,25.2533333 8.45333333,23.8466667 9.92,21.7 C11.3866667,19.5533333 12.6,17.2666667 13.56,14.84 L2.48,14.84 C1.94666667,14.84 1.46666667,14.9866667 1.04,15.28 L0,13.4 C0.64,13.48 1.30666667,13.52 2,13.52 L30.64,13.52 C31.4133333,12.24 31.9666667,11.3666667 32.3,10.9 C32.6333333,10.4333333 32.8933333,10.2 33.08,10.2 C33.4,10.2 34.3133333,10.8266667 35.82,12.08 C37.3266667,13.3333333 38.08,14.1066667 38.08,14.4 C38.08,14.6933333 37.8133333,14.84 37.28,14.84 L18.56,14.84 C19.6533333,15.16 20.3733333,15.4133333 20.72,15.6 C21.0666667,15.7866667 21.24,16 21.24,16.24 C21.24,16.48 20.98,16.66 20.46,16.78 C19.94,16.9 19.24,17.2866667 18.36,17.94 C17.48,18.5933333 16.6933333,19.3466667 16,20.2 C14.2666667,22.3333333 11.8933333,24.7733333 8.88,27.52 L26.4,27.44 C25.2533333,24.6666667 23.4,22.44 20.84,20.76 C20.4133333,20.4933333 20.2,20.3133333 20.2,20.22 C20.2,20.1266667 20.28,20.08 20.44,20.08 C20.84,20.08 21.9933333,20.42 23.9,21.1 C25.8066667,21.78 27.3733333,22.5 28.6,23.26 C29.8266667,24.02 30.8,24.82 31.52,25.66 C32.24,26.5 32.78,27.3266667 33.14,28.14 C33.5,28.9533333 33.68,29.7333333 33.68,30.48 C33.68,31.6 33.3466667,32.48 32.68,33.12 C32.0133333,33.76 31.2733333,34.08 30.46,34.08 C29.6466667,34.08 29,33.86 28.52,33.42 C28.04,32.98 27.7466667,32.44 27.64,31.8 C27.48,30.68 27.2133333,29.5733333 26.84,28.48 Z" id="云"></path>
                    <path d="M10.96,52.44 L8.24,63.28 C7.92,64.5066667 7.76,65.9666667 7.76,67.66 C7.76,69.3533333 7.97333333,70.8666667 8.4,72.2 C8.50666667,72.5466667 8.56,72.9066667 8.56,73.28 C8.56,74.1866667 8.24666667,74.9466667 7.62,75.56 C6.99333333,76.1733333 6.2,76.48 5.24,76.48 C3.85333333,76.48 3.16,75.7866667 3.16,74.4 C3.16,73.92 3.30666667,73.18 3.6,72.18 C3.89333333,71.18 4.04,70.2333333 4.04,69.34 C4.04,68.4466667 3.82,67.7533333 3.38,67.26 C2.94,66.7666667 2.24,66.44 1.28,66.28 C0.96,66.2266667 0.8,66.1533333 0.8,66.06 C0.8,65.9666667 1.20666667,65.8866667 2.02,65.82 C2.83333333,65.7533333 3.53333333,65.62 4.12,65.42 C4.70666667,65.22 5.17333333,64.8666667 5.52,64.36 C5.86666667,63.8533333 6.28,62.9733333 6.76,61.72 L10.28,52.68 L9.28,50.88 C9.92,50.96 10.5866667,51 11.28,51 L18.52,51 C18.8933333,50.3333333 19.26,49.72 19.62,49.16 C19.98,48.6 20.2,48.28 20.28,48.2 C20.36,48.12 20.44,48.08 20.52,48.08 C20.84,48.08 21.8533333,48.8533333 23.56,50.4 C24.0933333,48.24 24.48,45.56 24.72,42.36 C29.0933333,43.1866667 31.28,43.84 31.28,44.32 C31.28,44.5333333 31.0666667,44.7 30.64,44.82 C30.2133333,44.94 29.8533333,45.2466667 29.56,45.74 C29.2666667,46.2333333 28.76,47.16 28.04,48.52 L31.48,48.52 C32.6,46.36 33.3133333,45.28 33.62,45.28 C33.9266667,45.28 34.74,45.84 36.06,46.96 C37.38,48.08 38.04,48.84 38.04,49.24 C38.04,49.64 37.6,49.84 36.72,49.84 L27.28,49.84 C26.3733333,51.3066667 25.3333333,52.7866667 24.16,54.28 C24.5333333,54.3066667 25,54.32 25.56,54.32 L29.76,54.32 C30.08,53.76 30.3933333,53.2466667 30.7,52.78 C31.0066667,52.3133333 31.1933333,52.0466667 31.26,51.98 C31.3266667,51.9133333 31.4133333,51.88 31.52,51.88 C31.84,51.88 32.8533333,52.4466667 34.56,53.58 C36.2666667,54.7133333 37.12,55.52 37.12,56 C37.12,56.16 37.0466667,56.2933333 36.9,56.4 C36.7533333,56.5066667 36.5733333,56.56 36.36,56.56 L35.68,56.56 C34.2933333,56.56 32.28,57.3466667 29.64,58.92 C31.6933333,59.0266667 32.72,59.3066667 32.72,59.76 C32.72,60 32.4266667,60.2533333 31.84,60.52 L31.84,63.4 L32.08,63.4 C32.5333333,62.5733333 32.9333333,61.8666667 33.28,61.28 C33.6266667,60.6933333 33.84,60.36 33.92,60.28 C34,60.2 34.08,60.16 34.16,60.16 C34.4266667,60.16 35.18,60.6933333 36.42,61.76 C37.66,62.8266667 38.28,63.5866667 38.28,64.04 C38.28,64.4933333 37.9466667,64.72 37.28,64.72 L31.84,64.72 L31.84,75 C31.84,76.4133333 31.6266667,77.3533333 31.2,77.82 C30.7733333,78.2866667 30.0066667,78.6533333 28.9,78.92 C27.7933333,79.1866667 27.04,79.32 26.64,79.32 C26,79.32 25.6666667,79.0266667 25.64,78.44 C25.48,76.68 24.1333333,75.5866667 21.6,75.16 C21.3333333,76.2 20.6466667,76.9866667 19.54,77.52 C18.4333333,78.0533333 17.4533333,78.32 16.6,78.32 C15.96,78.32 15.6133333,78.04 15.56,77.48 C15.4266667,76.4933333 15.1133333,75.7666667 14.62,75.3 C14.1266667,74.8333333 13.36,74.4533333 12.32,74.16 C11.28,75.36 9.82,76.5133333 7.94,77.62 C6.06,78.7266667 4.97333333,79.28 4.68,79.28 C4.6,79.28 4.56,79.2533333 4.56,79.2 C4.56,79.0933333 4.77333333,78.9066667 5.2,78.64 C7.78666667,76.96 9.54,75.0866667 10.46,73.02 C11.38,70.9533333 11.9866667,68.3666667 12.28,65.26 C12.5733333,62.1533333 12.7066667,57.84 12.68,52.32 L11.76,52.32 C11.4933333,52.32 11.2266667,52.36 10.96,52.44 Z M23,52.32 L17.8,52.32 C17.72,52.48 17.4666667,52.68 17.04,52.92 L16.76,57.96 L18.24,57.96 C18.8266667,56.8133333 19.24,56.24 19.48,56.24 C19.6133333,56.24 20.1466667,56.52 21.08,57.08 C21.9333333,55.2666667 22.5733333,53.68 23,52.32 Z M21.64,57.4 C23.16,58.36 23.92,58.9466667 23.92,59.16 C23.92,59.3733333 23.5333333,59.6666667 22.76,60.04 L22.6,63.4 L27.28,63.4 C27.28,61.7466667 27.2533333,60.1866667 27.2,58.72 L28.84,58.84 L30.28,55.64 L26.04,55.64 C25.5066667,55.64 25.0266667,55.7866667 24.6,56.08 L23.84,54.72 L21.64,57.4 Z M16.64,59.28 C16.3466667,63.0666667 15.8933333,66.0666667 15.28,68.28 C14.6666667,70.4933333 13.7866667,72.3066667 12.64,73.72 C13.3866667,73.8 14.1266667,73.84 14.86,73.84 C15.5933333,73.84 16.2133333,73.7133333 16.72,73.46 C17.2266667,73.2066667 17.5666667,72.8066667 17.74,72.26 C17.9133333,71.7133333 18.1,70.1066667 18.3,67.44 C18.5,64.7733333 18.64,62.0533333 18.72,59.28 L16.64,59.28 Z M22.52,64.72 C22.2533333,69.1733333 21.9733333,72.5466667 21.68,74.84 C23.36,74.84 24.5933333,74.78 25.38,74.66 C26.1666667,74.54 26.68,74.36 26.92,74.12 C27.16,73.88 27.28,73.5066667 27.28,73 L27.28,64.72 L22.52,64.72 Z M12.32,42.96 C12.8266667,42.96 13.64,43.12 14.76,43.44 C15.88,43.76 16.8333333,44.2733333 17.62,44.98 C18.4066667,45.6866667 18.8,46.4333333 18.8,47.22 C18.8,48.0066667 18.52,48.6866667 17.96,49.26 C17.4,49.8333333 16.7466667,50.12 16,50.12 C15.2533333,50.12 14.6933333,49.9133333 14.32,49.5 C13.9466667,49.0866667 13.78,48.6466667 13.82,48.18 C13.86,47.7133333 13.88,47.32 13.88,47 C13.88,45.4 13.3733333,44.2 12.36,43.4 C12.1733333,43.24 12.08,43.1266667 12.08,43.06 C12.08,42.9933333 12.16,42.96 12.32,42.96 Z M10.44,47.6 C10.44,48.4 10.1533333,49.0866667 9.58,49.66 C9.00666667,50.2333333 8.34666667,50.52 7.6,50.52 C6.4,50.52 5.8,49.8 5.8,48.36 C5.8,46.4133333 5.04,45.0133333 3.52,44.16 C3.22666667,44 3.08,43.88 3.08,43.8 C3.08,43.72 3.18666667,43.68 3.4,43.68 C4.28,43.68 5.34666667,43.8333333 6.6,44.14 C7.85333333,44.4466667 8.80666667,44.9066667 9.46,45.52 C10.1133333,46.1333333 10.44,46.8266667 10.44,47.6 Z M0.96,52.92 C5.33333333,52.92 7.52,54.12 7.52,56.52 C7.52,57.24 7.25333333,57.9 6.72,58.5 C6.18666667,59.1 5.58,59.4 4.9,59.4 C4.22,59.4 3.76666667,59.26 3.54,58.98 C3.31333333,58.7 3.18,58.16 3.14,57.36 C3.1,56.56 2.86,55.8 2.42,55.08 C1.98,54.36 1.41333333,53.8133333 0.72,53.44 C0.453333333,53.28 0.32,53.1533333 0.32,53.06 C0.32,52.9666667 0.533333333,52.92 0.96,52.92 Z" id="游"></path>
                    <path d="M6.08,87.52 C6.85333333,87.52 7.84666667,87.6666667 9.06,87.96 C10.2733333,88.2533333 11.1666667,88.6933333 11.74,89.28 C12.3133333,89.8666667 12.6,90.5266667 12.6,91.26 C12.6,91.9933333 12.3,92.6266667 11.7,93.16 C11.1,93.6933333 10.4533333,93.96 9.76,93.96 C9.06666667,93.96 8.58,93.8133333 8.3,93.52 C8.02,93.2266667 7.88,92.6333333 7.88,91.74 C7.88,90.8466667 7.76,90.1133333 7.52,89.54 C7.28,88.9666667 6.93333333,88.5133333 6.48,88.18 C6.02666667,87.8466667 5.8,87.6533333 5.8,87.6 C5.8,87.5466667 5.89333333,87.52 6.08,87.52 Z M31.6,98.2 L31.6,92.76 L18.72,92.76 C18.1866667,92.76 17.7066667,92.9066667 17.28,93.2 L16.24,91.32 C16.88,91.4 17.5466667,91.44 18.24,91.44 L30.68,91.44 C30.8666667,91.0666667 31.1466667,90.58 31.52,89.98 C31.8933333,89.38 32.12,89.0466667 32.2,88.98 C32.28,88.9133333 32.3733333,88.88 32.48,88.88 C32.8533333,88.88 33.8333333,89.42 35.42,90.5 C37.0066667,91.58 37.8,92.2933333 37.8,92.64 C37.8,92.9866667 37.28,93.2933333 36.24,93.56 L36.24,119.92 C36.24,121.2 36.06,122.16 35.7,122.8 C35.34,123.44 34.6533333,123.913333 33.64,124.22 C32.6266667,124.526667 31.5733333,124.68 30.48,124.68 C30.0266667,124.68 29.7,124.606667 29.5,124.46 C29.3,124.313333 29.1866667,124.026667 29.16,123.6 C29.08,122.64 28.7333333,121.933333 28.12,121.48 C27.5066667,121.026667 26.8066667,120.713333 26.02,120.54 C25.2333333,120.366667 24.84,120.24 24.84,120.16 C24.84,120.08 25,120.04 25.32,120.04 L28.48,120.16 C29.6,120.16 30.4,120.04 30.88,119.8 C31.36,119.56 31.6,119 31.6,118.12 L31.6,99.24 L18.64,99.24 C18.1066667,99.24 17.6266667,99.3866667 17.2,99.68 L16.68,98.72 C15.6133333,98.6133333 14.7866667,98.8933333 14.2,99.56 L11.28,103 C12.6933333,103.426667 13.9533333,104.053333 15.06,104.88 C16.1666667,105.706667 16.72,106.893333 16.72,108.44 C16.72,109.026667 16.4666667,109.573333 15.96,110.08 C15.4533333,110.586667 14.8866667,110.84 14.26,110.84 C13.6333333,110.84 13.16,110.646667 12.84,110.26 C12.52,109.873333 12.4,109.346667 12.48,108.68 C12.56,108.013333 12.6,107.453333 12.6,107 C12.6,105.506667 12.1066667,104.36 11.12,103.56 L11.12,122.48 C11.12,122.96 10.74,123.353333 9.98,123.66 C9.22,123.966667 8.46,124.12 7.7,124.12 C6.94,124.12 6.56,123.893333 6.56,123.44 L6.64,121.8 C6.66666667,120.68 6.68,119.453333 6.68,118.12 L6.68,107.56 C5.42666667,108.626667 4.18,109.56 2.94,110.36 C1.7,111.16 1.02666667,111.56 0.92,111.56 C0.813333333,111.56 0.76,111.533333 0.76,111.48 C0.76,111.373333 0.933333333,111.173333 1.28,110.88 C3.28,109.12 5.08,107 6.68,104.52 C6.68,103.053333 6.65333333,101.8 6.6,100.76 C7.4,100.946667 8.05333333,101.12 8.56,101.28 C9.2,99.9466667 9.72,98.6533333 10.12,97.4 L3.28,97.4 C2.74666667,97.4 2.29333333,97.4933333 1.92,97.68 L1.2,95.88 C1.78666667,96.0133333 2.34666667,96.08 2.88,96.08 L10.12,96.08 C10.68,95.2266667 11.02,94.72 11.14,94.56 C11.26,94.4 11.4133333,94.32 11.6,94.32 C11.9733333,94.32 12.76,94.76 13.96,95.64 C15.16,96.52 16.04,97.28 16.6,97.92 L25.28,97.92 C26.5066667,95.8933333 27.2933333,94.88 27.64,94.88 C27.7466667,94.88 27.8933333,94.94 28.08,95.06 C28.2666667,95.18 28.78,95.6133333 29.62,96.36 C30.46,97.1066667 31.12,97.72 31.6,98.2 Z M21.48,103.6 L24.44,103.6 C24.6266667,103.173333 24.88,102.713333 25.2,102.22 C25.52,101.726667 25.76,101.48 25.92,101.48 C26.1333333,101.48 26.9,101.913333 28.22,102.78 C29.54,103.646667 30.2,104.233333 30.2,104.54 C30.2,104.846667 29.8,105.146667 29,105.44 L29,112.44 L29.04,114.28 C29.04,114.706667 28.6866667,115.073333 27.98,115.38 C27.2733333,115.686667 26.52,115.84 25.72,115.84 C25.32,115.84 25.0666667,115.76 24.96,115.6 C24.8533333,115.44 24.8,115.16 24.8,114.76 L24.8,113.52 L21.48,113.52 L21.48,114.96 C21.48,115.253333 21.3933333,115.486667 21.22,115.66 C21.0466667,115.833333 20.66,116.033333 20.06,116.26 C19.46,116.486667 18.7866667,116.6 18.04,116.6 C17.8533333,116.6 17.6933333,116.526667 17.56,116.38 C17.4266667,116.233333 17.3733333,116.08 17.4,115.92 C17.4533333,115.306667 17.48,114.32 17.48,112.96 L17.48,105.48 C17.48,104.36 17.44,103.226667 17.36,102.08 C18.6666667,102.48 20.04,102.986667 21.48,103.6 Z M24.8,112.2 L24.8,104.92 L22.36,104.92 C22.28,105.24 21.9866667,105.44 21.48,105.52 L21.48,112.2 L24.8,112.2 Z" id="祠"></path>
                    <path d="M16.4,143.04 L16.4,136.28 C16.4,135.053333 16.3733333,133.786667 16.32,132.48 C19.0666667,132.72 20.82,132.913333 21.58,133.06 C22.34,133.206667 22.72,133.426667 22.72,133.72 C22.72,134.013333 22.3466667,134.4 21.6,134.88 L21.6,143.04 L24.24,143.04 C25.2533333,140.133333 26,137.093333 26.48,133.92 C27.6266667,134.32 28.7666667,134.786667 29.9,135.32 C31.0333333,135.853333 31.8,136.233333 32.2,136.46 C32.6,136.686667 32.8,136.893333 32.8,137.08 C32.8,137.266667 32.5266667,137.426667 31.98,137.56 C31.4333333,137.693333 30.8066667,138.04 30.1,138.6 C29.3933333,139.16 27.7466667,140.64 25.16,143.04 L30.4,143.04 C31.1733333,141.76 31.64,141 31.8,140.76 C31.96,140.52 32.1466667,140.4 32.36,140.4 C32.5733333,140.4 33.04,140.613333 33.76,141.04 C34.48,141.466667 35.2866667,142.006667 36.18,142.66 C37.0733333,143.313333 37.6066667,143.753333 37.78,143.98 C37.9533333,144.206667 38.04,144.446667 38.04,144.7 C38.04,144.953333 37.9333333,145.166667 37.72,145.34 C37.5066667,145.513333 37.18,145.586667 36.74,145.56 C36.3,145.533333 36.04,145.52 35.96,145.52 C33.6666667,145.52 31.7733333,146.306667 30.28,147.88 C30.8666667,148.2 31.16,148.513333 31.16,148.82 C31.16,149.126667 30.6666667,149.426667 29.68,149.72 L29.68,154.08 C29.68,154.533333 29.6933333,154.933333 29.72,155.28 L29.8,156.16 C29.8,156.32 29.7533333,156.44 29.66,156.52 C29.5666667,156.6 29.2333333,156.746667 28.66,156.96 C28.0866667,157.173333 27.46,157.313333 26.78,157.38 C26.1,157.446667 25.64,157.48 25.4,157.48 C25.16,157.48 25.0066667,157.44 24.94,157.36 C24.8733333,157.28 24.84,157.12 24.84,156.88 L24.84,155.92 L22.32,155.92 C22.2933333,156.08 22.0666667,156.306667 21.64,156.6 L21.64,160.76 L27.16,160.76 C28.36,158.68 29.1133333,157.64 29.42,157.64 C29.7266667,157.64 30.5666667,158.213333 31.94,159.36 C33.3133333,160.506667 34,161.246667 34,161.58 C34,161.913333 33.7733333,162.08 33.32,162.08 L21.64,162.08 L21.64,167.72 L30.16,167.72 C30.6133333,167 31.0866667,166.253333 31.58,165.48 C32.0733333,164.706667 32.38,164.253333 32.5,164.12 C32.62,163.986667 32.7466667,163.92 32.88,163.92 C33.2,163.92 34.1733333,164.606667 35.8,165.98 C37.4266667,167.353333 38.24,168.206667 38.24,168.54 C38.24,168.873333 37.9733333,169.04 37.44,169.04 L3.12,169.04 C2.58666667,169.04 2.10666667,169.186667 1.68,169.48 L0.64,167.6 C1.28,167.68 1.94666667,167.72 2.64,167.72 L16.32,167.72 L16.32,162.08 L7.4,162.08 C6.86666667,162.08 6.38666667,162.226667 5.96,162.52 L4.92,160.64 C5.56,160.72 6.22666667,160.76 6.92,160.76 L16.32,160.76 L16.32,155.92 L13.16,155.92 L13.16,156.72 C13.16,156.88 13.1266667,157 13.06,157.08 C12.9933333,157.16 12.72,157.28 12.24,157.44 C11.76,157.6 11.14,157.74 10.38,157.86 C9.62,157.98 8.98666667,158.04 8.48,158.04 C8.29333333,158.04 8.21333333,157.906667 8.24,157.64 C8.29333333,157.026667 8.32,156.04 8.32,154.68 L8.32,149.48 C8.32,148.36 8.28,147.226667 8.2,146.08 C9.85333333,146.533333 11.4266667,147.08 12.92,147.72 L24.04,147.72 C24.7866667,146.52 25.2333333,145.846667 25.38,145.7 C25.5266667,145.553333 25.6933333,145.48 25.88,145.48 C26.28,145.48 27.5333333,146.133333 29.64,147.44 C29.9333333,146.746667 30.2666667,145.72 30.64,144.36 L7.04,144.36 C7.12,145.666667 6.80666667,146.786667 6.1,147.72 C5.39333333,148.653333 4.52,149.12 3.48,149.12 C2.78666667,149.12 2.23333333,148.92 1.82,148.52 C1.40666667,148.12 1.2,147.566667 1.2,146.86 C1.2,146.153333 1.6,145.453333 2.4,144.76 C3.2,144.066667 3.77333333,143.466667 4.12,142.96 C4.46666667,142.453333 4.64,141.813333 4.64,141.04 L4.6,140.04 C4.6,139.773333 4.66666667,139.64 4.8,139.64 C4.93333333,139.64 5.24,140 5.72,140.72 C6.2,141.44 6.56,142.213333 6.8,143.04 L16.4,143.04 Z M24.84,154.6 L24.84,149.04 L14.04,149.04 C13.8533333,149.36 13.56,149.6 13.16,149.76 L13.16,154.6 L24.84,154.6 Z M7,135 C9.24,135 10.98,135.406667 12.22,136.22 C13.46,137.033333 14.08,137.986667 14.08,139.08 C14.08,139.96 13.7666667,140.7 13.14,141.3 C12.5133333,141.9 11.8666667,142.2 11.2,142.2 C10.5333333,142.2 10.0066667,142.02 9.62,141.66 C9.23333333,141.3 9.01333333,140.8 8.96,140.16 C8.88,138.933333 8.67333333,137.973333 8.34,137.28 C8.00666667,136.586667 7.46666667,136.013333 6.72,135.56 C6.4,135.346667 6.24,135.2 6.24,135.12 C6.24,135.04 6.49333333,135 7,135 Z" id="堂"></path>
                </g>
            </g>
        </g>
    </g>
</svg>