<?xml version="1.0" encoding="UTF-8"?>
<svg width="94px" height="94px" viewBox="0 0 94 94" version="1.1" xmlns="http://www.w3.org/2000/svg" xmlns:xlink="http://www.w3.org/1999/xlink">
    <title>图库</title>
    <defs>
        <circle id="path-1" cx="33" cy="33" r="33"></circle>
        <filter x="-34.1%" y="-26.5%" width="168.2%" height="168.2%" filterUnits="objectBoundingBox" id="filter-2">
            <feMorphology radius="3.5" operator="dilate" in="SourceAlpha" result="shadowSpreadOuter1"></feMorphology>
            <feOffset dx="0" dy="5" in="shadowSpreadOuter1" result="shadowOffsetOuter1"></feOffset>
            <feGaussianBlur stdDeviation="4.5" in="shadowOffsetOuter1" result="shadowBlurOuter1"></feGaussianBlur>
            <feComposite in="shadowBlurOuter1" in2="SourceAlpha" operator="out" result="shadowBlurOuter1"></feComposite>
            <feColorMatrix values="0 0 0 0 0   0 0 0 0 0   0 0 0 0 0  0 0 0 0.0583205857 0" type="matrix" in="shadowBlurOuter1"></feColorMatrix>
        </filter>
    </defs>
    <g id="页面-1" stroke="none" stroke-width="1" fill="none" fill-rule="evenodd">
        <g id="华夏祠堂-图库" transform="translate(-1806.000000, -36.000000)">
            <g id="图库" transform="translate(1820.000000, 45.000000)">
                <g id="蒙版">
                    <use fill="black" fill-opacity="1" filter="url(#filter-2)" xlink:href="#path-1"></use>
                    <circle stroke="#84B840" stroke-width="2" fill="#FFFFFF" fill-rule="evenodd" cx="33" cy="33" r="34"></circle>
                </g>
                <g id="返回备份" transform="translate(21.000000, 14.000000)">
                    <path d="M12.5,0 C19.4031085,0 25,5.74448358 25,12.8280673 C25,19.3607056 14.3688272,32.9443456 12.7150892,35.0178379 L12.611454,35.1474196 C12.5385802,35.2382635 12.5,35.2857143 12.5,35.2857143 C12.5,35.2857143 12.4614198,35.2382898 12.388546,35.1474949 L12.2849108,35.0179826 C11.3683813,33.8694304 7.69437586,29.1872583 4.60089163,24.1283064 L4.20096022,23.4665658 C1.8904321,19.5969751 0,15.5887174 0,12.8323319 C0,5.74448358 5.59689153,0 12.5,0 Z M12.5,4.60248447 C8.10682585,4.60248447 4.54545455,8.20853882 4.54545455,12.6568323 C4.54545455,17.1051258 8.10682585,20.7111801 12.5,20.7111801 C16.8931741,20.7111801 20.4545455,17.1051258 20.4545455,12.6568323 C20.4545455,8.20853882 16.8931741,4.60248447 12.5,4.60248447 Z" id="形状结合" fill="#87B940"></path>
                    <ellipse id="椭圆形" fill="#FFFFFF" cx="12.5" cy="37.1428571" rx="10.6481481" ry="1.85714286"></ellipse>
                </g>
            </g>
        </g>
    </g>
</svg>