<?xml version="1.0" encoding="UTF-8"?>
<svg width="21px" height="12px" viewBox="0 0 21 12" version="1.1" xmlns="http://www.w3.org/2000/svg" xmlns:xlink="http://www.w3.org/1999/xlink">
    <title>路径</title>
    <g id="第六版" stroke="none" stroke-width="1" fill="none" fill-rule="evenodd">
        <g id="云游祠堂-提示进入" transform="translate(-949.000000, -518.000000)" fill="#FFFFFF" fill-rule="nonzero">
            <g id="编组" transform="translate(927.000000, 318.000000)">
                <g id="箭头3" transform="translate(32.500000, 200.500000) rotate(-270.000000) translate(-32.500000, -200.500000) translate(21.500000, 190.500000)">
                    <path d="M11.479418,17.4881234 L18.6833709,10.0034391 L11.3847738,2.42042229 L11.3861016,2.41976247 C11.1470854,2.16307435 11,1.81357221 11,1.42852002 C11,0.639600913 11.6156496,0 12.3750168,0 C12.7456074,0 13.0819622,0.152777229 13.3290611,0.401107697 L13.3297154,0.400407888 L21.5797202,8.9718079 L21.5790466,8.9724877 C21.8381926,9.23199504 22,9.59609309 22,9.99998 C22,10.0013796 22,10.0020594 22,10.003459 C22,10.0048786 22,10.0055784 22,10.0062782 C22,10.4101451 21.8381926,10.774963 21.5790466,11.0344903 L21.5797202,11.0351501 L13.3297923,19.6065902 L13.3264053,19.6030911 C13.0792872,19.8486024 12.7443373,20 12.3750361,20 C11.6156688,20 11,19.3603591 11,18.57142 C11,18.1382413 11.186017,17.7504299 11.479418,17.4881234 Z" id="路径"></path>
                </g>
            </g>
        </g>
    </g>
</svg>