<?xml version="1.0" encoding="UTF-8"?>
<svg width="21px" height="12px" viewBox="0 0 21 12" version="1.1" xmlns="http://www.w3.org/2000/svg" xmlns:xlink="http://www.w3.org/1999/xlink">
    <title>路径备份</title>
    <g id="第六版" stroke="none" stroke-width="1" fill="none" fill-rule="evenodd" fill-opacity="0.5">
        <g id="云游祠堂-提示进入" transform="translate(-949.000000, -507.000000)" fill="#FFFFFF" fill-rule="nonzero">
            <g id="编组" transform="translate(927.000000, 318.000000)">
                <g id="箭头3" transform="translate(32.500000, 200.500000) rotate(-270.000000) translate(-32.500000, -200.500000) translate(21.500000, 190.500000)">
                    <path d="M0.479418047,17.4881234 L7.68337086,10.0034391 L0.384773779,2.42042229 L0.386101644,2.41976247 C0.147085421,2.16307435 0,1.81357221 0,1.42852002 C0,0.639600913 0.615649604,0 1.37501684,0 C1.74560744,0 2.08196216,0.152777229 2.32906107,0.401107697 L2.32971537,0.400407888 L10.5797202,8.9718079 L10.5790466,8.9724877 C10.8381926,9.23199504 11,9.59609309 11,9.99998 C11,10.0013796 11,10.0020594 11,10.003459 C11,10.0048786 11,10.0055784 11,10.0062782 C11,10.4101451 10.8381926,10.774963 10.5790466,11.0344903 L10.5797202,11.0351501 L2.32979235,19.6065902 L2.32640532,19.6030911 C2.07928717,19.8486024 1.74433731,20 1.37503608,20 C0.615668843,20 0,19.3603591 0,18.57142 C0,18.1382413 0.18601696,17.7504299 0.479418047,17.4881234 Z" id="路径备份"></path>
                </g>
            </g>
        </g>
    </g>
</svg>