<?xml version="1.0" encoding="UTF-8"?>
<svg width="20px" height="20px" viewBox="0 0 20 20" version="1.1" xmlns="http://www.w3.org/2000/svg" xmlns:xlink="http://www.w3.org/1999/xlink">
    <title>编组 6</title>
    <g id="第五版-王" stroke="none" stroke-width="1" fill="none" fill-rule="evenodd">
        <g id="探索祠堂-地图模式备份-4" transform="translate(-150.000000, -229.000000)" stroke="#333333">
            <g id="编组-7备份" transform="translate(44.000000, 221.000000)">
                <g id="编组-6" transform="translate(106.000000, 8.000000)">
                    <circle id="椭圆形" stroke-width="1.6" cx="10" cy="10" r="9.2"></circle>
                    <path d="M5.04668151,4.77777778 C5.11537492,4.77777778 5.18392987,4.8043259 5.23643629,4.85682329 L5.23643629,4.85682329 L9.99986315,9.62172743 L14.643,4.976 L10.3988374,10.018234 L14.997,14.617 L9.9803855,10.3977563 L5.23649307,15.1431199 C5.18392987,15.1956741 5.11537492,15.2222222 5.04668152,15.2222222 C4.97798811,15.2222222 4.90943315,15.1956741 4.85686994,15.1431199 C4.80432917,15.0905882 4.77777778,15.0220768 4.77777778,14.9534219 C4.77777778,14.884767 4.80432917,14.8162557 4.85686995,14.7637239 L4.85686995,14.7637239 L9.62255982,9.99885239 L4.85686995,5.23627611 C4.90296825,4.8941321 4.95946955,4.77777778 5.04668151,4.77777778 Z" id="路径" stroke-width="0.666666667" fill="#333333"></path>
                </g>
            </g>
        </g>
    </g>
</svg>