<?xml version="1.0" encoding="UTF-8"?>
<svg width="10px" height="17px" viewBox="0 0 10 17" version="1.1" xmlns="http://www.w3.org/2000/svg" xmlns:xlink="http://www.w3.org/1999/xlink">
    <title>下拉箭头小</title>
    <g id="页面-1" stroke="none" stroke-width="1" fill="none" fill-rule="evenodd">
        <g id="探索祠堂-地图模式备份" transform="translate(-430.000000, -173.000000)" fill="#333333" fill-rule="nonzero">
            <g id="编组-7" transform="translate(45.000000, 151.000000)">
                <g id="编组-8" transform="translate(385.000000, 21.750000)">
                    <g id="下拉箭头小" transform="translate(5.000000, 8.750000) rotate(-90.000000) translate(-5.000000, -8.750000) translate(-3.750000, 3.892857)">
                        <path d="M8.12891611,9.11381914 L8.74542066,9.71428571 L17.2465563,1.44854107 C17.5844812,1.11668352 17.5844812,0.582009834 17.2465563,0.250152279 C17.0834905,0.0904165967 16.8616705,0.000511475816 16.6302331,0.000352281968 C16.3987957,0.000193088121 16.1768452,0.0897929624 16.0135472,0.249304156 L8.74716468,7.31411565 L1.48688612,0.249304156 C1.32385345,0.0897317989 1.1021125,0 0.870817563,0 C0.639522623,0 0.417781675,0.0897317989 0.254749007,0.249304156 C-0.0842352478,0.580795803 -0.0850137422,1.11611809 0.253005012,1.44854107 L8.09490808,9.07904637 L8.12978812,9.11381914 L8.12891611,9.11381914 Z" id="路径" transform="translate(8.750000, 4.857143) rotate(-360.000000) translate(-8.750000, -4.857143) "></path>
                    </g>
                </g>
            </g>
        </g>
    </g>
</svg>