<?xml version="1.0" encoding="UTF-8"?>
<svg width="50px" height="46px" viewBox="0 0 50 46" version="1.1" xmlns="http://www.w3.org/2000/svg" xmlns:xlink="http://www.w3.org/1999/xlink">
    <title>形状备份 2</title>
    <g id="页面-1" stroke="none" stroke-width="1" fill="none" fill-rule="evenodd">
        <g id="画说祠堂" transform="translate(-663.000000, -71.000000)" fill="#9E9E9E" fill-rule="nonzero">
            <g id="编组-3" transform="translate(628.000000, 71.000000)">
                <g id="形状备份-2" transform="translate(35.000000, 0.000000)">
                    <path d="M50,16.9626651 C50,7.60941987 40.3881579,0 28.5789474,0 C22.3486842,0 16.4539474,2.14014934 12.375,5.88541068 C14.3270181,5.45987231 16.3129645,5.21007826 18.3092105,5.13900057 C21.3552632,3.56031017 24.9013158,2.72802987 28.5789474,2.72802987 C38.7631579,2.72802987 47.0460526,9.11545089 47.0460526,16.9692705 C47.0460526,18.6140149 46.6842105,20.2323377 45.9671053,21.7713957 C46.3555936,23.2273456 46.5459194,24.7294103 46.5328947,26.2366456 C48.8026316,23.4755887 50,20.2785755 50,16.9626651 L50,16.9626651 Z M21.4210526,22.2403791 C19.8421053,22.2403791 18.5526316,23.4293509 18.5526316,24.8891442 C18.5526316,26.3489374 19.8421053,27.5379092 21.4210526,27.5379092 C23,27.5379092 24.2894737,26.3489374 24.2894737,24.8891442 C24.2894737,23.4293509 23,22.2403791 21.4210526,22.2403791 Z M11.1907895,22.2403791 C9.61184211,22.2403791 8.32236842,23.4293509 8.32236842,24.8891442 C8.32236842,26.3489374 9.61184211,27.5379092 11.1907895,27.5379092 C12.7697368,27.5379092 14.0592356,26.3489374 14.0592356,24.8891442 C14.0657895,23.4293509 12.7763158,22.2403791 11.1907895,22.2403791 L11.1907895,22.2403791 Z M31.6447368,22.2403791 C30.0657895,22.2403791 28.7763158,23.4293509 28.7763158,24.8891442 C28.7763158,26.3489374 30.0657895,27.5379092 31.6447368,27.5379092 C33.2236842,27.5379092 34.5131579,26.3489374 34.5131579,24.8891442 C34.5131579,23.4293509 33.2302632,22.2403791 31.6447368,22.2403791 Z M21.4210526,7.83400345 C9.61184211,7.83400345 0,15.4434233 0,24.7900632 C0,34.0772545 8.92763158,40.0749569 17.0921053,41.3894314 L20.2171053,45.4319357 C20.5065789,45.8150488 20.9605263,46 21.4144737,46 C21.8684211,46 22.3289474,45.8084434 22.6184211,45.4319357 L25.7434211,41.382826 C33.9078947,40.0683515 42.8355297,34.0706491 42.8355297,24.7834578 C42.8421053,15.4434233 33.2302632,7.83400345 21.4210526,7.83400345 Z M35.4276316,33.8460655 C32.7434211,36.1777714 29.0394737,37.8687536 25.2828947,38.4698449 C24.5441301,38.588074 23.8781832,38.984996 23.4210526,39.579552 L21.4276316,42.1556577 L19.4276316,39.579552 C18.9671053,38.9850661 18.3026316,38.5887421 17.5657895,38.4698449 C13.8026316,37.8621482 10.1052632,36.1777714 7.42105263,33.8394601 C5.38157895,32.0692131 2.95394737,29.0637565 2.95394737,24.7900632 C2.95394737,21.1901206 4.78289474,17.7619184 8.11184211,15.1263642 C11.6447368,12.3322803 16.375,10.7866169 21.4210526,10.7866169 C26.4736842,10.7866169 31.2039474,12.3256749 34.7368421,15.1263642 C38.0657895,17.7619184 39.8947368,21.1901206 39.8947368,24.7900632 C39.8881579,29.0703619 37.4671053,32.0758185 35.4276316,33.8460655 L35.4276316,33.8460655 Z" id="形状备份"></path>
                </g>
            </g>
        </g>
    </g>
</svg>