<?xml version="1.0" encoding="UTF-8"?>
<svg width="70px" height="70px" viewBox="0 0 70 70" version="1.1" xmlns="http://www.w3.org/2000/svg" xmlns:xlink="http://www.w3.org/1999/xlink">
    <title>家庭备份</title>
    <g id="页面-1" stroke="none" stroke-width="1" fill="none" fill-rule="evenodd">
        <g id="画说祠堂备份" transform="translate(-1207.000000, -60.000000)" fill="#87B940" fill-rule="nonzero">
            <g id="编组-3" transform="translate(578.000000, 0.000000)">
                <g id="编组-5备份-2" transform="translate(576.000000, 60.000000)">
                    <g id="家庭备份" transform="translate(53.000000, 0.000000)">
                        <path d="M16.7708333,20.4166553 C11.1329265,20.4166553 6.5625,15.8462314 6.5625,10.2083277 C6.5625,4.57042398 11.1329265,0 16.7708333,0 C22.4087401,0 26.9791666,4.57042398 26.9791666,10.2083277 C26.9791666,12.9157445 25.9036489,15.5122726 23.989215,17.4267054 C22.0747812,19.3411382 19.4782516,20.4166553 16.7708333,20.4166553 Z M16.7708333,5.83333013 C15.001311,5.83333013 13.4060272,6.89926409 12.7288603,8.53408865 C12.0516935,10.1689132 12.4259999,12.0506777 13.6772412,13.3019182 C14.9284824,14.5531588 16.8102479,14.927465 18.4450734,14.2502985 C20.0798988,13.5731319 21.1458333,11.977849 21.1458333,10.2083277 C21.1458333,7.79208324 19.1870791,5.83333013 16.7708333,5.83333013 L16.7708333,5.83333013 Z M53.2291666,23.3333204 C47.5912598,23.3333204 43.0208334,18.7628964 43.0208334,13.1249927 C43.0208334,7.48708901 47.5912599,2.91666507 53.2291667,2.91666507 C58.8670735,2.91666507 63.4375,7.48708905 63.4375,13.1249927 C63.4375,15.8324096 62.3619822,18.4289377 60.4475484,20.3433705 C58.5331145,22.2578033 55.936585,23.3333204 53.2291666,23.3333204 L53.2291666,23.3333204 Z M53.2291666,8.74999513 C50.8129208,8.74999513 48.8541666,10.7087483 48.8541666,13.1249927 C48.8541666,15.5412372 50.8129208,17.4999903 53.2291666,17.4999903 C55.6454124,17.4999903 57.6041666,15.5412372 57.6041666,13.1249927 C57.6041666,10.7087483 55.6454124,8.74999513 53.2291666,8.74999513 L53.2291666,8.74999513 Z M59.7916666,69.9999807 L48.125,69.9999807 C46.6062209,70.005457 45.3374205,68.8445051 45.2083333,67.3312127 L44.2166667,55.5187193 C44.1306996,54.4766952 44.6071763,53.4679624 45.4666126,52.8725008 C46.3260489,52.2770391 47.4378759,52.1853135 48.3832793,52.6318759 C49.3286826,53.0784383 49.9640329,53.9954454 50.05,55.0374695 L50.8083333,64.1666311 L57.1083333,64.1666311 L58.3333333,49.3353893 C58.4624205,47.8220969 59.7312209,46.6611451 61.25,46.6666408 L64.1666666,46.6666408 L64.1666666,37.9166457 C64.1674694,34.7455544 61.6348737,32.1546651 58.4645833,32.0833156 C56.8537528,32.0833156 55.5479166,30.7774802 55.5479166,29.1666505 C55.5479166,27.5558209 56.8537528,26.2499855 58.4645833,26.2499855 C64.8565906,26.3219 70.0004045,31.5242373 70,37.9166457 L70,49.5833059 C70,51.1941355 68.6941638,52.4999709 67.0833333,52.4999709 L63.9333333,52.4999709 L62.7083333,67.3312127 C62.5792462,68.8445052 61.3104457,70.005457 59.7916666,69.9999807 L59.7916666,69.9999807 Z M21.875,69.9999807 L8.74999997,69.9999807 C7.13916947,69.9999807 5.83333336,68.6941258 5.83333336,67.0832962 L5.83333336,52.4999709 L2.91666668,52.4999709 C1.30583615,52.4999709 0,51.1941355 0,49.5833059 L0,34.9999806 C0,28.5566621 5.22334458,23.3333204 11.6666667,23.3333204 L12.99375,23.3333204 C14.6045805,23.3333204 15.9104166,24.6391559 15.9104166,26.2499855 C15.9104166,27.8608151 14.6045805,29.1666505 12.99375,29.1666505 L11.6666667,29.1666505 C8.44500565,29.1666506 5.8333334,31.7783214 5.83333336,34.9999806 L5.83333336,46.6666408 L8.74999997,46.6666408 C10.3608305,46.6666408 11.6666667,47.9724762 11.6666667,49.5833059 L11.6666667,64.1666311 L19.1916666,64.1666311 L19.95,55.0228862 C20.0385721,53.9808621 20.6763296,53.0652448 21.6230355,52.6209384 C22.5697413,52.176632 23.6815684,52.2711373 24.5397021,52.868855 C25.3978359,53.4665726 25.8719054,54.4766952 25.7833333,55.5187193 L24.7916667,67.3312127 C24.6625795,68.8445052 23.393779,70.005457 21.875,69.9999807 Z" id="形状"></path>
                        <path d="M26.6677224,27.0137183 C24.9001908,27.0123137 23.2045453,27.7207593 21.9540169,28.9831183 C20.7029558,30.2460137 20,31.9597115 20,33.7467097 C20,35.5337078 20.7029558,37.2474056 21.9540169,38.5103011 L23.2365445,39.8064019 L34.9958239,51 L48.037631,38.5103011 C49.2937996,37.2467316 50,35.5294226 50,33.7382934 C50,31.9471643 49.2937996,30.2298553 48.037631,28.9662858 C45.4370815,26.3445714 41.2274257,26.3445714 38.6268762,28.9662858 L37.3610047,30.2455542 C36.0328268,31.5110108 33.958821,31.5110108 32.6306431,30.2455542 L31.3647716,28.9494533 C30.112909,27.7035484 28.4247264,27.0078192 26.6677224,27.0137183 Z" id="路径"></path>
                    </g>
                </g>
            </g>
        </g>
    </g>
</svg>