<?xml version="1.0" encoding="UTF-8"?>
<svg width="70px" height="70px" viewBox="0 0 70 70" version="1.1" xmlns="http://www.w3.org/2000/svg" xmlns:xlink="http://www.w3.org/1999/xlink">
    <title>家备份</title>
    <g id="页面-1" stroke="none" stroke-width="1" fill="none" fill-rule="evenodd">
        <g id="画说祠堂备份" transform="translate(-929.000000, -54.000000)" fill="#87B940" fill-rule="nonzero">
            <g id="编组-3" transform="translate(578.000000, 0.000000)">
                <g id="编组-5备份" transform="translate(297.000000, 54.000000)">
                    <g id="家备份" transform="translate(54.000000, 0.000000)">
                        <path d="M43.1746304,70 L26.825954,70 C18.2009004,70 11.1857885,62.9020506 11.1857885,54.175708 L11.1857885,40.1626404 L5.83866502,40.1626404 C3.43419584,40.1672832 1.27638441,38.6860567 0.414715049,36.4393781 C-0.483409949,34.1775623 0.106848157,31.5956287 1.8983199,29.9497267 L30.885807,1.65703402 C33.0949953,-0.560861591 36.9397342,-0.550609377 39.1352644,1.67753845 L68.1517749,29.9992791 C69.8948825,31.6088767 70.4787638,34.1565518 69.5858693,36.4410868 C68.7233988,38.6871327 66.5660872,40.168016 64.1619193,40.1643491 L58.8147958,40.1643491 L58.8147958,54.1774167 C58.8147958,62.9020507 51.7996839,70 43.1746304,70 Z M35.0002922,5.06930431 C34.8152699,5.06839694 34.6380403,5.14379877 34.5103099,5.27777418 L34.4744575,5.31194825 L5.42380199,33.6695717 C5.03796232,34.0266905 5.11137427,34.3872266 5.1847863,34.5734752 C5.30429414,34.8810416 5.52453007,35.0365335 5.83866502,35.0365335 L12.1111209,35.0365335 C14.4332304,35.0450105 16.3103935,36.9329367 16.3075543,39.2570282 L16.3075543,54.175708 C16.3075543,60.0741484 21.0264078,64.8738931 26.825954,64.8738931 L43.1746304,64.8738931 C48.9741765,64.8738931 53.6930301,60.0741484 53.6930301,54.175708 L53.6930301,39.2570282 C53.6901908,36.9329367 55.5673539,35.0450105 57.8894635,35.0365335 L64.1619193,35.0365335 C64.4760543,35.0365335 64.6962902,34.8810417 64.815798,34.5734752 C64.9469759,34.2777223 64.8709059,33.9309644 64.628,33.7174153 L35.5261268,5.31194825 C35.392463,5.16103209 35.20176,5.07303609 35.0002922,5.06930431 Z" id="形状"></path>
                        <path d="M26.6677224,33.0137183 C24.9001908,33.0123137 23.2045453,33.7207593 21.9540169,34.9831183 C20.7029558,36.2460137 20,37.9597115 20,39.7467097 C20,41.5337078 20.7029558,43.2474056 21.9540169,44.5103011 L23.2365445,45.8064019 L34.9958239,57 L48.037631,44.5103011 C49.2937996,43.2467316 50,41.5294226 50,39.7382934 C50,37.9471643 49.2937996,36.2298553 48.037631,34.9662858 C45.4370815,32.3445714 41.2274257,32.3445714 38.6268762,34.9662858 L37.3610047,36.2455542 C36.0328268,37.5110108 33.958821,37.5110108 32.6306431,36.2455542 L31.3647716,34.9494533 C30.112909,33.7035484 28.4247264,33.0078192 26.6677224,33.0137183 Z" id="路径"></path>
                    </g>
                </g>
            </g>
        </g>
    </g>
</svg>