<?xml version="1.0" encoding="UTF-8"?>
<svg width="70px" height="64px" viewBox="0 0 70 64" version="1.1" xmlns="http://www.w3.org/2000/svg" xmlns:xlink="http://www.w3.org/1999/xlink">
    <title>聊天 (1)</title>
    <g id="页面-1" stroke="none" stroke-width="1" fill="none" fill-rule="evenodd">
        <g id="画说祠堂备份" transform="translate(-655.000000, -60.000000)" fill="#87B940" fill-rule="nonzero">
            <g id="编组-3" transform="translate(578.000000, 0.000000)">
                <g id="编组-5" transform="translate(38.000000, 60.000000)">
                    <g id="聊天-(1)" transform="translate(39.000000, 0.000000)">
                        <path d="M70,23.6002298 C70,10.587019 56.5434211,0 40.0105263,0 C31.2881579,0 23.0355263,2.97759908 17.325,8.18839747 C20.0578253,7.59634409 22.8381503,7.24880454 25.6328947,7.14991384 C29.8973684,4.95347501 34.8618421,3.79551982 40.0105263,3.79551982 C54.2684211,3.79551982 65.8644737,12.6823665 65.8644737,23.6094199 C65.8644737,25.8977599 65.3578947,28.1493395 64.3539474,30.2906376 C64.897831,32.316307 65.1642871,34.4061361 65.1460526,36.5031591 C68.3236842,32.6616887 70,28.2136703 70,23.6002298 L70,23.6002298 Z" id="路径"></path>
                        <path d="M29.9894737,10.8994831 C46.5223684,10.8994831 59.9789474,21.486502 59.9697416,34.4813326 C59.9697416,47.4026422 47.4710526,55.7472717 36.0407895,57.5761057 L36.0407895,57.5761057 L31.6657895,63.2096496 C31.2605263,63.7334865 30.6157895,64 29.9802632,64 C29.3447368,64 28.7092105,63.7426766 28.3039474,63.2096496 L28.3039474,63.2096496 L23.9289474,57.5852958 C12.4986842,55.7564618 0,47.4118323 0,34.4905227 C0,21.486502 13.4565789,10.8994831 29.9894737,10.8994831 Z M29.9894737,15.007467 C22.925,15.007467 16.3026316,17.1579552 11.3565789,21.0453762 C6.69605263,24.7122343 4.13552632,29.481907 4.13552632,34.4905227 C4.13552632,40.4365307 7.53421053,44.6180356 10.3894737,47.0809879 C14.1473684,50.3342906 19.3236842,52.6777714 24.5921053,53.5232625 C25.6236842,53.6886847 26.5539474,54.2400919 27.1986842,55.0672028 L27.1986842,55.0672028 L29.9986842,58.6513498 L32.7894737,55.0672028 C33.4294564,54.2399944 34.3617821,53.6877552 35.3960526,53.5232625 C40.6552632,52.6869615 45.8407895,50.3342906 49.5986842,47.0901781 C52.4539474,44.6272257 55.8434211,40.4457209 55.8526316,34.4905227 C55.8526316,29.481907 53.2921053,24.7122343 48.6315789,21.0453762 C43.6855263,17.1487651 37.0631579,15.007467 29.9894737,15.007467 Z" id="形状结合"></path>
                        <path d="M21.6677224,27.0137183 C19.9001908,27.0123137 18.2045453,27.7207593 16.9540169,28.9831183 C15.7029558,30.2460137 15,31.9597115 15,33.7467097 C15,35.5337078 15.7029558,37.2474056 16.9540169,38.5103011 L18.2365445,39.8064019 L29.9958239,51 L43.037631,38.5103011 C44.2937996,37.2467316 45,35.5294226 45,33.7382934 C45,31.9471643 44.2937996,30.2298553 43.037631,28.9662858 C40.4370815,26.3445714 36.2274257,26.3445714 33.6268762,28.9662858 L32.3610047,30.2455542 C31.0328268,31.5110108 28.958821,31.5110108 27.6306431,30.2455542 L26.3647716,28.9494533 C25.112909,27.7035484 23.4247264,27.0078192 21.6677224,27.0137183 Z" id="路径"></path>
                    </g>
                </g>
            </g>
        </g>
    </g>
</svg>