<?xml version="1.0" encoding="UTF-8"?>
<svg width="50px" height="50px" viewBox="0 0 50 50" version="1.1" xmlns="http://www.w3.org/2000/svg" xmlns:xlink="http://www.w3.org/1999/xlink">
    <title>家庭</title>
    <g id="页面-1" stroke="none" stroke-width="1" fill="none" fill-rule="evenodd">
        <g id="画说祠堂" transform="translate(-1210.000000, -71.000000)" fill="#9E9E9E" fill-rule="nonzero">
            <g id="编组-3" transform="translate(628.000000, 71.000000)">
                <g id="编组-5备份-2" transform="translate(532.000000, 0.000000)">
                    <g id="家庭" transform="translate(50.000000, 0.000000)">
                        <path d="M11.9791667,14.5833252 C7.95209036,14.5833252 4.6875,11.3187367 4.6875,7.29166262 C4.6875,3.26458855 7.95209036,0 11.9791667,0 C16.0062429,0 19.2708333,3.26458855 19.2708333,7.29166262 C19.2708333,9.22553178 18.5026063,11.0801947 17.1351536,12.4476467 C15.7677008,13.8150987 13.9130369,14.5833252 11.9791667,14.5833252 Z M11.9791667,4.16666438 C10.7152221,4.16666438 9.57573372,4.92804578 9.09204309,6.09577761 C8.60835247,7.26350944 8.87571422,8.60762692 9.76945797,9.50137017 C10.6632017,10.3951134 12.0073199,10.662475 13.1750524,10.1787846 C14.3427849,9.69509424 15.1041667,8.55560645 15.1041667,7.29166262 C15.1041667,5.56577374 13.7050565,4.16666438 11.9791667,4.16666438 L11.9791667,4.16666438 Z M38.0208333,16.6666574 C33.993757,16.6666574 30.7291667,13.4020688 30.7291667,9.37499478 C30.7291667,5.34792072 33.9937571,2.08333219 38.0208334,2.08333219 C42.0479097,2.08333219 45.3125,5.34792075 45.3125,9.37499481 C45.3125,11.308864 44.544273,13.1635269 43.1768203,14.5309789 C41.8093675,15.8984309 39.9547035,16.6666574 38.0208333,16.6666574 L38.0208333,16.6666574 Z M38.0208333,6.24999652 C36.2949434,6.24999652 34.8958333,7.64910591 34.8958333,9.37499481 C34.8958333,11.1008837 36.2949434,12.4999931 38.0208333,12.4999931 C39.7467232,12.4999931 41.1458333,11.1008837 41.1458333,9.37499481 C41.1458333,7.64910591 39.7467232,6.24999652 38.0208333,6.24999652 L38.0208333,6.24999652 Z M42.7083333,49.9999862 L34.375,49.9999862 C33.2901578,50.0038978 32.3838718,49.1746465 32.2916667,48.0937234 L31.5833333,39.6562281 C31.5219283,38.9119252 31.8622688,38.1914017 32.4761518,37.766072 C33.0900349,37.3407422 33.8841971,37.2752239 34.5594852,37.5941971 C35.2347733,37.9131702 35.688595,38.5681753 35.75,39.3124782 L36.2916666,45.833308 L40.7916666,45.833308 L41.6666667,35.2395638 C41.7588718,34.1586407 42.6651578,33.3293894 43.75,33.3333149 L45.8333333,33.3333149 L45.8333333,27.0833183 C45.8339067,24.8182531 44.0249098,22.9676179 41.7604166,22.916654 C40.6098234,22.916654 39.6770833,21.9839144 39.6770833,20.8333218 C39.6770833,19.6827292 40.6098234,18.7499896 41.7604166,18.7499896 C46.3261362,18.8013572 50.000289,22.5173124 50,27.0833183 L50,35.4166471 C50,36.5672396 49.0672599,37.4999792 47.9166667,37.4999792 L45.6666666,37.4999792 L44.7916666,48.0937234 C44.6994616,49.1746466 43.7931755,50.0038979 42.7083333,49.9999862 L42.7083333,49.9999862 Z M15.625,49.9999862 L6.24999998,49.9999862 C5.09940677,49.9999862 4.16666669,49.0672327 4.16666669,47.9166401 L4.16666669,37.4999792 L2.08333334,37.4999792 C0.932740109,37.4999792 0,36.5672396 0,35.4166471 L0,24.9999861 C0,20.3976158 3.73096041,16.6666574 8.33333333,16.6666574 L9.28124998,16.6666574 C10.4318432,16.6666574 11.3645833,17.599397 11.3645833,18.7499896 C11.3645833,19.9005822 10.4318432,20.8333218 9.28124998,20.8333218 L8.33333333,20.8333218 C6.03214689,20.8333218 4.16666671,22.698801 4.16666669,24.9999861 L4.16666669,33.3333149 L6.24999998,33.3333149 C7.40059322,33.3333149 8.33333333,34.2660545 8.33333333,35.4166471 L8.33333333,45.833308 L13.7083333,45.833308 L14.25,39.3020616 C14.3132658,38.5577587 14.7688069,37.9037463 15.4450253,37.5863846 C16.1212438,37.2690229 16.915406,37.3365266 17.5283587,37.7634678 C18.1413114,38.190409 18.4799325,38.9119252 18.4166667,39.6562281 L17.7083333,48.0937234 C17.6161282,49.1746466 16.7098422,50.0038979 15.625,49.9999862 Z" id="形状"></path>
                        <path d="M25,41.1458106 C24.4757069,41.1580066 23.966101,40.9720192 23.5729167,40.6249775 L13.8854167,31.4583159 C12.320608,29.895248 11.4413612,27.7742283 11.4413612,25.5624858 C11.4413612,23.3507433 12.320608,21.2297237 13.8854167,19.6666558 C16.8791868,16.641926 21.6710872,16.358993 25,19.0104061 C28.4510495,16.1901728 33.5102453,16.5845164 36.4826171,19.905429 C39.4549889,23.2263417 39.2882451,28.2981399 36.1041666,31.4166493 L35.3125,32.2083155 L26.46875,40.5416442 C26.0781428,40.9290616 25.5501511,41.1463745 25,41.1458106 L25,41.1458106 Z M19.7916667,21.3541548 C18.6862654,21.3532856 17.6258213,21.7917022 16.84375,22.5729042 C16.0613456,23.3544381 15.6217223,24.414948 15.6217223,25.5208192 C15.6217223,26.6266905 16.0613456,27.6872003 16.84375,28.4687343 L17.6458333,29.2708171 L25,36.1978966 L33.15625,28.4687343 C33.9418486,27.6867832 34.3835011,26.6240386 34.3835011,25.5156109 C34.3835011,24.4071832 33.9418486,23.3444386 33.15625,22.5624875 C31.5298855,20.940058 28.8971978,20.940058 27.2708333,22.5624875 L26.4791666,23.3541538 C25.6485339,24.1372727 24.351466,24.1372727 23.5208333,23.3541538 L22.7291666,22.5520708 C21.946261,21.7810514 20.890484,21.3505042 19.7916667,21.3541548 Z" id="形状"></path>
                    </g>
                </g>
            </g>
        </g>
    </g>
</svg>