<?xml version="1.0" encoding="UTF-8"?>
<svg width="50px" height="50px" viewBox="0 0 50 50" version="1.1" xmlns="http://www.w3.org/2000/svg" xmlns:xlink="http://www.w3.org/1999/xlink">
    <title>家</title>
    <g id="页面-1" stroke="none" stroke-width="1" fill="none" fill-rule="evenodd">
        <g id="画说祠堂" transform="translate(-940.000000, -71.000000)" fill="#9E9E9E" fill-rule="nonzero">
            <g id="编组-3" transform="translate(628.000000, 71.000000)">
                <g id="编组-5备份" transform="translate(262.000000, 0.000000)">
                    <g id="家" transform="translate(50.000000, 0.000000)">
                        <path d="M30.8390217,50 L19.1613957,50 C13.0006431,50 7.98984892,44.9300361 7.98984892,38.6969343 L7.98984892,28.6876003 L4.17047501,28.6876003 C2.45299703,28.6909166 0.911703151,27.6328977 0.296225035,26.0281272 C-0.345292821,24.4125445 0.0763201121,22.5683062 1.35594278,21.3926619 L22.0612907,1.18359573 C23.6392824,-0.400615422 26.3855244,-0.393292412 27.9537603,1.19824175 L48.6798392,21.4280565 C49.924916,22.5777691 50.3419741,24.397537 49.7041923,26.0293477 C49.088142,27.6336662 47.5472051,28.69144 45.8299424,28.6888208 L42.0105685,28.6888208 L42.0105685,38.6981548 C42.0105685,44.9300362 36.9997742,50 30.8390217,50 Z M25.0002087,3.62093165 C24.8680499,3.62028353 24.7414574,3.67414198 24.6502213,3.7698387 L24.6246125,3.79424875 L3.87414428,24.049694 C3.59854452,24.3047789 3.65098162,24.5623047 3.70341879,24.6953394 C3.78878153,24.9150297 3.94609291,25.0260953 4.17047501,25.0260954 L8.65080062,25.0260954 C10.3094503,25.0321503 11.6502811,26.3806691 11.6482531,28.0407344 L11.6482531,38.6969343 C11.6482531,42.910106 15.0188627,46.3384951 19.1613957,46.3384951 L30.8390217,46.3384951 C34.9815546,46.3384951 38.3521643,42.910106 38.3521643,38.6969343 L38.3521643,28.0407344 C38.3501363,26.3806691 39.6909671,25.0321503 41.3496168,25.0260954 L45.8299424,25.0260954 C46.0543245,25.0260954 46.2116358,24.9150298 46.2969986,24.6953394 C46.3906971,24.4840873 46.3363614,24.2364032 46.1628571,24.0838681 L25.3758049,3.79424875 C25.2803307,3.6864515 25.1441143,3.62359721 25.0002087,3.62093165 Z M23.3658984,2.50482448 L23.3872317,2.50482448 L23.3658984,2.50482448 Z" id="形状"></path>
                        <path d="M25.0002087,41.4564885 C20.6296352,41.4564885 17.0736664,37.8975057 17.0736664,33.5232278 C17.0736664,29.1489499 20.6296352,25.5899671 25.0002087,25.5899671 C29.3707822,25.5899671 32.926751,29.1489499 32.926751,33.5232278 C32.926751,37.8975057 29.3707822,41.4564885 25.0002087,41.4564885 Z M25.0002087,29.2514721 C22.6466354,29.2514721 20.7320705,31.1676596 20.7320705,33.5232278 C20.7320705,35.878796 22.6466353,37.7949836 25.0002087,37.7949836 C27.3537821,37.7949836 29.2683469,35.878796 29.2683469,33.5232278 C29.2683469,31.1676596 27.3537821,29.2514721 25.0002087,29.2514721 L25.0002087,29.2514721 Z" id="形状"></path>
                    </g>
                </g>
            </g>
        </g>
    </g>
</svg>