<?xml version="1.0" encoding="UTF-8"?>
<svg width="94px" height="94px" viewBox="0 0 94 94" version="1.1" xmlns="http://www.w3.org/2000/svg" xmlns:xlink="http://www.w3.org/1999/xlink">
    <title>图库</title>
    <defs>
        <circle id="path-1" cx="33" cy="33" r="33"></circle>
        <filter x="-34.1%" y="-26.5%" width="168.2%" height="168.2%" filterUnits="objectBoundingBox" id="filter-2">
            <feMorphology radius="3.5" operator="dilate" in="SourceAlpha" result="shadowSpreadOuter1"></feMorphology>
            <feOffset dx="0" dy="5" in="shadowSpreadOuter1" result="shadowOffsetOuter1"></feOffset>
            <feGaussianBlur stdDeviation="4.5" in="shadowOffsetOuter1" result="shadowBlurOuter1"></feGaussianBlur>
            <feComposite in="shadowBlurOuter1" in2="SourceAlpha" operator="out" result="shadowBlurOuter1"></feComposite>
            <feColorMatrix values="0 0 0 0 0   0 0 0 0 0   0 0 0 0 0  0 0 0 0.0583205857 0" type="matrix" in="shadowBlurOuter1"></feColorMatrix>
        </filter>
    </defs>
    <g id="页面-1" stroke="none" stroke-width="1" fill="none" fill-rule="evenodd">
        <g id="探索祠堂-地图模式备份" transform="translate(-1803.000000, -36.000000)">
            <g id="图库" transform="translate(1817.000000, 45.000000)">
                <g id="蒙版">
                    <use fill="black" fill-opacity="1" filter="url(#filter-2)" xlink:href="#path-1"></use>
                    <circle stroke="#84B840" stroke-width="2" fill="#FFFFFF" fill-rule="evenodd" cx="33" cy="33" r="34"></circle>
                </g>
                <g id="编组-3" transform="translate(17.032258, 17.032258)" fill="#84B840" fill-rule="nonzero">
                    <path d="M27.353531,17.3148146 L21.8423812,17.3148146 C19.3175914,17.3148146 17.2604284,19.362393 17.2604284,21.8839334 L17.2604284,27.3663651 C17.2604284,29.8879055 19.3175914,31.9354839 21.8423812,31.9354839 L27.3504761,31.9354839 C29.8746437,31.9354839 31.9314625,29.8919547 31.9354839,27.3711553 L31.9354839,21.8839334 C31.9354839,19.362393 29.8783209,17.3148146 27.353531,17.3148146 Z M21.8423812,19.5019491 L27.353531,19.5019491 C28.6779922,19.5019491 29.7552192,20.5741572 29.7552192,21.8839334 L29.7552192,27.3694058 C29.7531311,28.6779567 28.6757773,29.7483494 27.3504761,29.7483494 L21.8423812,29.7483494 C20.5179201,29.7483494 19.440693,28.6761413 19.440693,27.3663651 L19.440693,21.8839334 C19.440693,20.5741572 20.5179201,19.5019491 21.8423812,19.5019491 Z" id="路径"></path>
                    <path d="M10.0931027,17.3148146 L4.58195285,17.3148146 C2.057163,17.3148146 0,19.362393 0,21.8839334 L0,27.3663651 C0,29.8879055 2.057163,31.9354839 4.58195285,31.9354839 L10.0900477,31.9354839 C12.6142154,31.9354839 14.6710341,29.8919547 14.6750555,27.3711553 L14.6750555,21.8839334 C14.6750555,19.362393 12.6178925,17.3148146 10.0931027,17.3148146 Z M4.58195285,19.5019491 L10.0931027,19.5019491 C11.4175638,19.5019491 12.4947909,20.5741572 12.4947909,21.8839334 L12.4947909,27.3694058 C12.4927027,28.6779567 11.415349,29.7483494 10.0900477,29.7483494 L4.58195285,29.7483494 C3.25749172,29.7483494 2.18026463,28.6761413 2.18026463,27.3663651 L2.18026463,21.8839334 C2.18026463,20.5741572 3.25749172,19.5019491 4.58195285,19.5019491 Z" id="路径备份"></path>
                    <path d="M10.0931027,0 L4.58195285,0 C2.057163,0 0,2.04757832 0,4.56911878 L0,10.0515505 C0,12.5730909 2.057163,14.6206692 4.58195285,14.6206692 L10.0900477,14.6206692 C12.6142154,14.6206692 14.6710341,12.5771401 14.6750555,10.0563406 L14.6750555,4.56911878 C14.6750555,2.04757832 12.6178925,0 10.0931027,0 Z M4.58195285,2.18713448 L10.0931027,2.18713448 C11.4175638,2.18713448 12.4947909,3.25934258 12.4947909,4.56911878 L12.4947909,10.0545912 C12.4927027,11.3631421 11.415349,12.4335348 10.0900477,12.4335348 L4.58195285,12.4335348 C3.25749172,12.4335348 2.18026463,11.3613267 2.18026463,10.0515505 L2.18026463,4.56911878 C2.18026463,3.25934258 3.25749172,2.18713448 4.58195285,2.18713448 Z" id="路径备份-2"></path>
                    <path d="M27.353531,0 L21.8423812,0 C19.3175914,0 17.2604284,2.04757832 17.2604284,4.56911878 L17.2604284,10.0515505 C17.2604284,12.5730909 19.3175914,14.6206692 21.8423812,14.6206692 L27.3504761,14.6206692 C29.8746437,14.6206692 31.9314625,12.5771401 31.9354839,10.0563406 L31.9354839,4.56911878 C31.9354839,2.04757832 29.8783209,0 27.353531,0 Z M21.8423812,2.18713448 L27.353531,2.18713448 C28.6779922,2.18713448 29.7552192,3.25934258 29.7552192,4.56911878 L29.7552192,10.0545912 C29.7531311,11.3631421 28.6757773,12.4335348 27.3504761,12.4335348 L21.8423812,12.4335348 C20.5179201,12.4335348 19.440693,11.3613267 19.440693,10.0515505 L19.440693,4.56911878 C19.440693,3.25934258 20.5179201,2.18713448 21.8423812,2.18713448 Z" id="路径备份-3"></path>
                </g>
            </g>
        </g>
    </g>
</svg>